<svg id="Layer_1" data-name="Layer 1" xmlns="http://www.w3.org/2000/svg" viewBox="0 0 50.45 55.42"><defs><style>.cls-1{fill:#afd0ed;}.cls-2{fill:#12163f;}</style></defs><path class="cls-1" d="M9.53,39.56a3.2,3.2,0,1,1-3.21-3.2,3.21,3.21,0,0,1,3.21,3.2Z"/><path class="cls-1" d="M28.43,49.09a3.18,3.18,0,0,1-.94,2.26h0a3.2,3.2,0,0,1-2.27.94,3.21,3.21,0,0,1,0-6.41,3.21,3.21,0,0,1,3.21,3.2Z"/><path class="cls-1" d="M47.33,38.82a3.22,3.22,0,0,1-.94,2.27,3.2,3.2,0,0,1-4.53,0,3.2,3.2,0,1,1,5.47-2.27Z"/><path class="cls-1" d="M46.39,19.2a3.2,3.2,0,1,1,0-4.53A3.2,3.2,0,0,1,46.39,19.2Z"/><path class="cls-1" d="M8.59,19.2a3.2,3.2,0,1,1,0-4.53A3.2,3.2,0,0,1,8.59,19.2Z"/><path class="cls-1" d="M27.49,8.59A3.2,3.2,0,0,1,23,4.06a3.22,3.22,0,0,1,4.53,0A3.2,3.2,0,0,1,27.49,8.59Z"/><path class="cls-1" d="M28.43,26.47a3.24,3.24,0,0,1-.94,2.27,3.22,3.22,0,0,1-4.53,0,3.2,3.2,0,0,1,2.26-5.47,3.19,3.19,0,0,1,3.21,3.2Z"/><path class="cls-2" d="M48.6,34.35a6.32,6.32,0,0,0-2.91-1.66V23.07a6.25,6.25,0,0,0,2.91-1.66,6.33,6.33,0,0,0-9-8.95l0,0L31.46,7.38a6.33,6.33,0,1,0-7.8,5.07v7.89a6.35,6.35,0,0,0-4,9.21L11.54,36a6.24,6.24,0,0,0-.74-.89,6.17,6.17,0,0,0-2.91-1.64V23.07a6.12,6.12,0,0,0,2.91-1.66,6.32,6.32,0,1,0-6,1.66V33.44A6.32,6.32,0,0,0,6.32,45.88a6.3,6.3,0,0,0,6.31-6.8l9.22-7.26a6.05,6.05,0,0,0,1.81.78V43a6.32,6.32,0,0,0-2.91,1.66,6.33,6.33,0,0,0,4.47,10.8,6.2,6.2,0,0,0,4.48-1.85A6.33,6.33,0,0,0,26.79,43V32.6a6.64,6.64,0,0,0,.86-.28A6.36,6.36,0,0,0,29.7,31a6.32,6.32,0,0,0-2.91-10.61V12.45A6.27,6.27,0,0,0,29.7,10.8a4,4,0,0,0,.47-.54l7.86,5a6.32,6.32,0,0,0,1.62,6.19,6.21,6.21,0,0,0,2.91,1.66v9.62a6.33,6.33,0,0,0,1.57,12.47,6.37,6.37,0,0,0,2.42-.48A6.5,6.5,0,0,0,48.6,43.3a6.34,6.34,0,0,0,0-8.95ZM4.06,19.2a3.2,3.2,0,1,1,4.53,0A3.2,3.2,0,0,1,4.06,19.2ZM8.59,41.83A3.2,3.2,0,0,1,4.06,37.3a3.2,3.2,0,0,1,4.53,0,3.16,3.16,0,0,1,.94,2.26A3.19,3.19,0,0,1,8.59,41.83Zm18.9,5a3.19,3.19,0,0,1,0,4.52h0a3.2,3.2,0,0,1-2.27.94,3.21,3.21,0,0,1,0-6.41A3.2,3.2,0,0,1,27.49,46.83Zm0-22.63a3.2,3.2,0,0,1-2.27,5.47A3.18,3.18,0,0,1,23,28.74a3.2,3.2,0,0,1,2.26-5.47A3.19,3.19,0,0,1,27.49,24.2Zm0-15.61A3.2,3.2,0,0,1,23,4.06a3.22,3.22,0,0,1,4.53,0A3.2,3.2,0,0,1,27.49,8.59Zm18.9,32.5a3.2,3.2,0,0,1-4.53,0,3.21,3.21,0,1,1,4.53,0ZM41.86,19.2a3.2,3.2,0,1,1,4.53,0A3.2,3.2,0,0,1,41.86,19.2Z"/></svg>