<svg id="Layer_1" data-name="Layer 1" xmlns="http://www.w3.org/2000/svg" viewBox="0 0 194.96 55.82"><defs><style>.cls-1{fill:#12163f;}.cls-2{fill:#afd0ed;}</style></defs><path class="cls-1" d="M63.7,41H59.87V19h3.58l.25,2.14a6.18,6.18,0,0,1,5-2.48,7.75,7.75,0,0,1,8,8.11c0,4.54-2.86,8.12-7.83,8.12-1.64,0-4.06-.5-5.17-2.2Zm9.16-14.23a4.41,4.41,0,0,0-8.81,0,4.41,4.41,0,1,0,8.81,0Z"/><path class="cls-1" d="M95.27,26.75a8.08,8.08,0,1,1-16.15,0,8.08,8.08,0,1,1,16.15,0ZM83,26.75c0,2.36,1.42,4.57,4.22,4.57s4.22-2.21,4.22-4.57a4.39,4.39,0,0,0-4.22-4.59C84.41,22.16,83,24.43,83,26.75Z"/><path class="cls-1" d="M100.15,12.37a2.15,2.15,0,0,1,2.26,2.24,2.27,2.27,0,0,1-4.53,0A2.16,2.16,0,0,1,100.15,12.37Zm1.92,6.55V34.5H98.23V18.92Z"/><path class="cls-1" d="M117.26,34.5V26.38c0-2.36-1.29-4.16-3.74-4.16a4.08,4.08,0,0,0-4,4.34V34.5h-3.8V19h3.43l.25,2.11a7,7,0,0,1,5.1-2.33c3.65,0,6.57,2.74,6.57,7.61V34.5Z"/><path class="cls-1" d="M129.48,14.61V19h4.27v3.31h-4.31V29a1.93,1.93,0,0,0,2,2.2,4.37,4.37,0,0,0,1.85-.47L134.38,34a8.67,8.67,0,0,1-3.49.66c-3.18,0-5.25-1.92-5.25-5.66v-6.7h-2.9V19h2.9V15Z"/><path class="cls-1" d="M147.07,23.1a5.28,5.28,0,0,0-3.84-1.38c-1.83,0-2.84.57-2.84,1.54s.92,1.57,2.9,1.7c2.93.19,6.64.85,6.64,5,0,2.74-2.23,5.1-6.67,5.1a9.09,9.09,0,0,1-7.18-2.77L138,29.52a8.4,8.4,0,0,0,5.45,2.17c1.41,0,2.7-.75,2.7-1.85s-.88-1.51-3.08-1.64c-2.93-.22-6.42-1.29-6.42-4.81s3.71-4.85,6.54-4.85a8.33,8.33,0,0,1,6.05,2.05Z"/><path class="cls-1" d="M168.12,26.75a8.08,8.08,0,1,1-16.15,0,8.08,8.08,0,1,1,16.15,0Zm-12.31,0c0,2.36,1.42,4.57,4.22,4.57s4.22-2.21,4.22-4.57A4.39,4.39,0,0,0,160,22.16C157.26,22.16,155.81,24.43,155.81,26.75Z"/><path class="cls-1" d="M172.34,34.5V22.57h-2.9V19.2h2.9v-1c0-4.15,2.8-6.07,5.91-6.07a7.49,7.49,0,0,1,4,1.26l-1.42,2.86a4.29,4.29,0,0,0-2.36-.82c-1.32,0-2.33.88-2.33,2.77v1h4.57v3.37h-4.57V34.5Z"/><path class="cls-1" d="M189.49,14.61V19h4.28v3.31h-4.32V29a1.93,1.93,0,0,0,2,2.2,4.37,4.37,0,0,0,1.85-.47L194.4,34a8.75,8.75,0,0,1-3.5.66c-3.18,0-5.25-1.92-5.25-5.66v-6.7h-2.9V19h2.9V15Z"/><path class="cls-2" d="M9.9,39.64A3.21,3.21,0,1,1,9,37.38,3.22,3.22,0,0,1,9.9,39.64Z"/><path class="cls-2" d="M28.79,49.17a3.17,3.17,0,0,1-.93,2.26h0a3.24,3.24,0,0,1-2.27.94,3.2,3.2,0,0,1-2.27-1,3.21,3.21,0,0,1,0-4.52,3.21,3.21,0,0,1,4.54,0A3.18,3.18,0,0,1,28.79,49.17Z"/><path class="cls-2" d="M47.69,38.91a3.17,3.17,0,0,1-.94,2.26,3.14,3.14,0,0,1-2.26.94,3.18,3.18,0,0,1-2.27-.94,3.2,3.2,0,0,1,2.27-5.46,3.19,3.19,0,0,1,3.2,3.2Z"/><path class="cls-2" d="M46.75,19.29a3.2,3.2,0,1,1-2.26-5.47,3.16,3.16,0,0,1,2.26.94A3.2,3.2,0,0,1,46.75,19.29Z"/><path class="cls-2" d="M9,19.29a3.2,3.2,0,0,1-4.53-4.53,3.16,3.16,0,0,1,2.26-.94A3.21,3.21,0,0,1,9,19.29Z"/><path class="cls-2" d="M27.86,8.67a3.21,3.21,0,0,1-4.54-4.53,3.21,3.21,0,1,1,4.54,4.53Z"/><path class="cls-2" d="M28.79,26.55a3.2,3.2,0,1,1-6.4,0,3.2,3.2,0,1,1,6.4,0Z"/><path class="cls-1" d="M49,34.43a6.3,6.3,0,0,0-2.91-1.65V23.15a6.33,6.33,0,1,0-6-10.6l0,0L31.82,7.46a6.29,6.29,0,0,0-1.75-5.53,6.33,6.33,0,0,0-9,9A6.37,6.37,0,0,0,24,12.53v7.89a6.33,6.33,0,0,0-4,9.21L11.9,36.05a6.76,6.76,0,0,0-.73-.89,6.25,6.25,0,0,0-2.92-1.64V23.15a6.27,6.27,0,0,0,2.92-1.65,6.35,6.35,0,1,0-6,1.65V33.52A6.32,6.32,0,0,0,6.69,46,6.31,6.31,0,0,0,13,39.17l9.22-7.27a6.17,6.17,0,0,0,1.8.79V43A6.33,6.33,0,0,0,25.59,55.5,6.4,6.4,0,0,0,28,55a6.54,6.54,0,0,0,2.06-1.38A6.33,6.33,0,0,0,27.16,43V32.69A7.72,7.72,0,0,0,28,32.4,6.51,6.51,0,0,0,30.07,31a6.33,6.33,0,0,0-2.91-10.61V12.53a6.37,6.37,0,0,0,2.91-1.65,3.87,3.87,0,0,0,.46-.54l7.87,5a6.31,6.31,0,0,0,4.52,7.85v9.63a6.33,6.33,0,1,0,4,12A6.39,6.39,0,0,0,49,43.38a6.31,6.31,0,0,0,0-9ZM4.43,19.29a3.2,3.2,0,0,1,0-4.53,3.16,3.16,0,0,1,2.26-.94,3.2,3.2,0,1,1-2.26,5.47ZM9,41.91a3.2,3.2,0,1,1,.94-2.27A3.22,3.22,0,0,1,9,41.91Zm18.9,5a3.21,3.21,0,0,1,0,4.52h0a3.24,3.24,0,0,1-2.27.94,3.2,3.2,0,0,1-2.27-1,3.21,3.21,0,0,1,0-4.52,3.21,3.21,0,0,1,4.54,0Zm0-22.62a3.17,3.17,0,0,1,.93,2.26,3.2,3.2,0,1,1-6.4,0,3.2,3.2,0,0,1,5.47-2.26Zm0-15.62a3.21,3.21,0,0,1-4.54-4.53,3.21,3.21,0,1,1,4.54,4.53Zm18.89,32.5a3.14,3.14,0,0,1-2.26.94,3.18,3.18,0,0,1-2.27-.94,3.2,3.2,0,0,1,2.27-5.46,3.2,3.2,0,0,1,2.26,5.46ZM42.22,19.29a3.21,3.21,0,0,1,2.27-5.47,3.16,3.16,0,0,1,2.26.94,3.2,3.2,0,0,1-4.53,4.53Z"/></svg>