<svg id="Layer_1" data-name="Layer 1" xmlns="http://www.w3.org/2000/svg" viewBox="0 0 151.75 75.88"><defs><style>.cls-1{fill:#fff;}</style></defs><path class="cls-1" d="M1.71,1.28h8.73c5.61,0,9,4.26,9,10.47,0,4.83-2.09,11.07-9.17,11.07H1.71Zm2.91,19h5.64c3.78,0,6.24-3,6.24-8.4S14,3.77,10.05,3.77H4.62Z"/><path class="cls-1" d="M37.49,1.28h2.83V22.82H37.05L26.1,5.42H26v17.4H23.22V1.28h3.44l10.77,17.4h.06Z"/><path class="cls-1" d="M61.07,22.82H45.18V1.28H60.87V3.86H48.09v6.6H59.88V13H48.09v7.2h13Z"/><path class="cls-1" d="M78.74,1.28H82L74.15,22.82H71.07L63.21,1.28h3.24l6.14,18.36h.06Z"/><path class="cls-1" d="M99.17,1.28H102V22.82H98.73l-11-17.4h-.06v17.4H84.9V1.28h3.44l10.77,17.4h.06Z"/><path class="cls-1" d="M109.91,22.82H107V1.28h2.91Z"/><path class="cls-1" d="M117.8,22.82h-2.9V1.28h2.9V11.72L128.24,1.28h4l-9,8.7,9.21,12.84h-3.78L121.19,12l-3.39,3.24Z"/><path class="cls-1" d="M4.92,48.59H2V27.05H4.92Z"/><path class="cls-1" d="M25.26,48.59h-17V46.16l13.2-16.53H9.3V27.05h16v2.52L12,46H25.26Z"/><path class="cls-1" d="M37.62,37.07h9.45V48.59H45.18l-.7-2.79a8.75,8.75,0,0,1-7.1,3.36,8.63,8.63,0,0,1-6.6-2.43c-3.3-3.12-3.39-6.81-3.39-9.09,0-5.25,3.18-11.16,10.2-11.16,4,0,8.48,2.28,9.12,7.11H43.89c-.93-3.75-4.08-4.53-6.45-4.53-3.87,0-7,3.09-7,8.73,0,4.38,1.44,8.88,7.17,8.88A6.85,6.85,0,0,0,42,45.29c1.89-1.5,2.37-3.42,2.37-5.73H37.62Z"/><path class="cls-1" d="M68.61,27.05V41c0,4.41-2.76,8.13-8.67,8.13s-8.28-3.72-8.28-7.74V27.05h2.91V40.61c0,4.68,2.85,6,5.46,6s5.67-1.23,5.67-5.91V27.05Z"/><path class="cls-1" d="M73.16,27.05h9.49c4,0,6.08,2.49,6.08,5.43A4.72,4.72,0,0,1,85.85,37c1.41.57,3.9,1.56,3.9,5.25,0,3.45-2.54,6.36-7.32,6.36H73.16Zm2.91,9.12h5.25c2.8,0,4.5-.84,4.5-3.48,0-2-1.23-3.15-4.47-3.15H76.07Zm0,9.93h6.22c3,0,4.55-1.53,4.55-3.93,0-3-2.67-3.63-5-3.63H76.07Z"/><path class="cls-1" d="M96.15,46h10.92v2.58H93.23V27.05h2.92Z"/><path class="cls-1" d="M110.88,41.66v1.5c0,2.58,1.23,3.51,3.24,3.51,2.7,0,3.45-1.62,3.45-3.72V27.05h2.91V42.77c0,5-3.3,6.39-6.21,6.39-5,0-6.12-3.36-6.12-5.37V41.66Z"/><path class="cls-1" d="M141.12,48.59h-15.9V27.05H140.9v2.58H128.13v6.6h11.78v2.58H128.13V46h13Z"/><path class="cls-1" d="M151.32,41.63H144v-2.7h7.35Z"/><path class="cls-1" d="M15.84,52.82h2.81V74.36H15.39L4.44,57H4.38v17.4H1.56V52.82H5l10.77,17.4h.06Z"/><path class="cls-1" d="M26.57,74.36H23.66V52.82h2.91Z"/><path class="cls-1" d="M45.75,52.82h2.9V74.36h-2.9v-10H34.5v10H31.59V52.82H34.5v8.91H45.75Z"/><path class="cls-1" d="M53.37,52.82h8.72c5.62,0,9.06,4.26,9.06,10.47,0,4.83-2.09,11.07-9.17,11.07H53.37Zm2.91,19.05h5.63c3.79,0,6.24-3,6.24-8.4s-2.49-8.16-6.44-8.16H56.28Z"/><path class="cls-1" d="M77.07,68.09l-2.25,6.27h-3l8.09-21.54h3.31L91,74.36H87.83l-2.12-6.27Zm7.58-2.58L81.48,56h-.07L78,65.51Z"/><path class="cls-1" d="M108,52.82h2.81V74.36h-3.27L96.57,57H96.5v17.4H93.69V52.82h3.45l10.76,17.4H108Z"/><path class="cls-1" d="M118.73,68.09l-2.25,6.27h-3l8.1-21.54h3.3l7.8,21.54H129.5l-2.13-6.27Zm7.59-2.58L123.14,56h-.06l-3.45,9.48Z"/></svg>