<svg id="Layer_1" data-name="Layer 1" xmlns="http://www.w3.org/2000/svg" viewBox="0 0 49.86 132.92"><defs><style>.cls-1{fill:#fff;}</style></defs><path class="cls-1" d="M32.47,89.42C31.31,91,30.15,92.51,29,94.1c-1.13-1.59-2.3-3.15-3.47-4.68-4.53-5.91-9.06-11-11.68-14-1.08-1.22-2-2.25-2.6-3l4.21-3.54c.61.71,1.47,1.7,2.52,2.89,2.13,2.42,4.91,5.57,7.88,9.17,1,1.25,2.08,2.54,3.13,3.9l1.32,1.69C31.05,87.48,31.77,88.45,32.47,89.42Z"/><path class="cls-1" d="M44.32,122.68a13.74,13.74,0,0,1-6.6,7.42,18,18,0,0,1-17.41,0,13.72,13.72,0,0,1-6.59-7.42c-3.28-9.16,3.72-22.12,11.83-33.26C26.72,91,27.89,92.51,29,94.1c-6.8,9.57-12.48,20.16-10.12,26.74a8.86,8.86,0,0,0,4.88,4.91,12,12,0,0,0,10.48,0,8.87,8.87,0,0,0,4.87-4.91c2.36-6.58-3.32-17.17-10.11-26.74,1.13-1.59,2.29-3.15,3.45-4.68C40.59,100.56,47.6,113.53,44.32,122.68Z"/><path class="cls-1" d="M46.76,72.43c-.63.74-1.52,1.75-2.6,3-2.61,3-7.14,8.1-11.69,14C31.31,91,30.15,92.51,29,94.1c-1.13-1.59-2.3-3.15-3.47-4.68.71-1,1.43-1.94,2.15-2.88L29,84.85c.8-1,1.59-2,2.37-3,3.25-4,6.33-7.48,8.65-10.11,1-1.19,1.91-2.18,2.52-2.89Z"/><rect class="cls-1" x="25.87" y="70.57" width="5.5" height="15.98"/><path class="cls-1" d="M29,66.82a8.2,8.2,0,0,1-7.55-4.58C18.53,56.7,20.1,47.3,25.18,39.9A25.56,25.56,0,0,1,49.84,28.53L49.2,34c-10.71-1.25-16.8,5.12-19.48,9-4.26,6.21-5.08,13.48-3.41,16.66A2.76,2.76,0,0,0,29,61.32Z"/><path class="cls-1" d="M28.78,66.82v-5.5a2.76,2.76,0,0,0,2.68-1.65c1.67-3.18.85-10.45-3.41-16.66-2.68-3.91-8.77-10.28-19.48-9l-.64-5.46A25.55,25.55,0,0,1,32.59,39.9c5.08,7.4,6.65,16.8,3.74,22.34A8.2,8.2,0,0,1,28.78,66.82Z"/><path class="cls-1" d="M8.32,34A8.27,8.27,0,0,1,1,30a6.36,6.36,0,0,1,0-6.64c.87-1.34,3.05-3.51,8-3l1.16.11c5.82.59,13.79,1.39,14.7-.9l0,0a11.28,11.28,0,0,0-1.66-1.43c-2.19-1.68-5.49-4.21-5.25-9.2.15-3,1.16-5.32,3-6.84A8.22,8.22,0,0,1,27,.37l-.78,5.45a2.67,2.67,0,0,0-1.81.49,4.07,4.07,0,0,0-1,2.83c-.1,2,1.05,3,3.1,4.56,1.88,1.45,5,3.86,3.4,7.89-2.47,6.12-11.16,5.24-20.36,4.32l-1.16-.12c-1.81-.17-2.63.28-2.8.54a.92.92,0,0,0,.12.91,2.88,2.88,0,0,0,2.83,1.21L8.81,34Z"/></svg>