<?xml version="1.0" encoding="utf-8"?>
<!-- Generator: Adobe Illustrator 24.3.0, SVG Export Plug-In . SVG Version: 6.00 Build 0)  -->
<svg version="1.1" id="Layer_1" xmlns="http://www.w3.org/2000/svg" xmlns:xlink="http://www.w3.org/1999/xlink" x="0px" y="0px"
	 viewBox="0 0 139.3 145.4" style="enable-background:new 0 0 139.3 145.4;" xml:space="preserve">
<style type="text/css">
	.st0{fill:#231F20;}
</style>
<g>
	<path d="M27.8,53.3c-2.9,0-5.3-2.4-5.3-5.3h3.3c0,1.1,0.9,2,2,2c1.1,0,2-0.9,2-2h3.3C33.1,51,30.7,53.3,27.8,53.3z"/>
	<path d="M34.7,67.6c-2.1,0-3.8-1.7-3.8-3.8h3.3c0,0.3,0.3,0.6,0.6,0.6s0.6-0.3,0.6-0.6h3.3C38.5,65.8,36.8,67.6,34.7,67.6z"/>
	<path d="M91.9,40.9l-2.2,2.4c0,0-4-3.4-9.5-3.7c-2.9-0.2-5.8,1.8-8.9,3.8c-2.7,1.8-5.5,3.6-8.6,4.2c-4.2,0.8-6.7,0-9.9-1
		c-1.4-0.4-2.9-0.9-4.7-1.3c-0.4,7.7-2.5,32.3-13.2,32.3v-3.3c6.4,0,9.4-17.6,10-29.6c-2.2-0.3-3.8,0-4.9,0.9
		c-1.3,1-1.5,2.6-1.5,2.8v10.4h-3.3V48.2c0-0.1,0.1-3.2,2.7-5.2c1.9-1.6,4.6-2.1,8-1.5c3.4,0.6,5.9,1.4,7.8,2c3.1,1,5,1.6,8.3,0.9
		c2.4-0.5,4.8-2.1,7.4-3.7c3.4-2.3,6.9-4.6,10.9-4.4C87.1,36.7,91.7,40.7,91.9,40.9z"/>
	<path d="M38.5,40.1L35.2,40c0-0.1,0.1-3.2,2.7-5.2c1.9-1.6,4.6-2.1,8-1.5c3.4,0.6,5.9,1.4,7.8,2c3.1,1,5,1.6,8.3,0.9
		c2.4-0.5,4.8-2.1,7.4-3.7c3.4-2.3,6.9-4.6,10.9-4.4c6.7,0.4,11.3,4.4,11.5,4.5l-2.2,2.4c0,0-4-3.4-9.5-3.7
		c-2.9-0.2-5.8,1.8-8.9,3.8c-2.7,1.8-5.5,3.6-8.6,4.2c-4.2,0.8-6.7,0-9.9-1c-2-0.6-4.2-1.3-7.4-1.9c-2.4-0.4-4.2-0.1-5.4,0.8
		C38.6,38.4,38.5,40.1,38.5,40.1z"/>
	<path d="M38.5,31.8l-3.3-0.1c0-0.1,0.1-3.2,2.7-5.2c1.9-1.6,4.6-2.1,8-1.5c3.4,0.6,5.9,1.4,7.8,2c3.1,1,5,1.6,8.3,0.9
		c2.4-0.5,4.8-2.1,7.4-3.7c3.4-2.3,6.9-4.6,10.9-4.4c6.7,0.4,11.3,4.4,11.5,4.5l-2.2,2.4c0,0-4-3.4-9.5-3.7
		c-2.9-0.2-5.8,1.8-8.9,3.8c-2.7,1.8-5.5,3.6-8.6,4.2c-4.2,0.8-6.7,0-9.9-1c-2-0.6-4.2-1.3-7.4-1.9C43,27.8,41.1,28,40,29
		C38.6,30.1,38.5,31.8,38.5,31.8z"/>
	<g>
		<path class="st0" d="M55.2,57.2h9.5v0.4h-9.1v6.2h8.3v0.4h-8.3v6.3h9.2v0.4h-9.6V57.2z"/>
		<path class="st0" d="M68.9,64.1L68.9,64.1c0-3.7,2.6-7.1,6.7-7.1c2.1,0,3.4,0.6,4.7,1.8L80.1,59c-1.3-1-2.5-1.7-4.5-1.7
			c-3.8,0-6.3,3.3-6.3,6.6v0c0,3.5,2.3,6.6,6.3,6.6c2,0,3.7-0.9,4.8-1.9v-4.4h-5V64h5.5v5c-1.3,1.2-3.1,2.1-5.3,2.1
			C71.3,71.1,68.9,67.8,68.9,64.1z"/>
		<path class="st0" d="M85.5,64L85.5,64c0-3.8,2.6-7.1,6.8-7.1s6.8,3.3,6.8,7v0c0,3.7-2.6,7-6.8,7S85.5,67.8,85.5,64z M98.6,64.1
			L98.6,64.1c0-3.5-2.6-6.7-6.4-6.7c-3.8,0-6.3,3.1-6.3,6.6v0c0,3.5,2.6,6.7,6.4,6.7C96.1,70.7,98.6,67.6,98.6,64.1z"/>
		<path class="st0" d="M55.2,80.6h9.4v0.4h-9v6.3h8.2v0.4h-8.2v6.5h-0.4V80.6z"/>
		<path class="st0" d="M71.3,80.6h5.6c1.8,0,3.1,0.4,3.9,1.3c0.6,0.6,1,1.5,1,2.5v0c0,2.3-1.8,3.7-4.5,3.8l4.5,6h-0.5l-4.5-5.9h-0.1
			h-5v5.9h-0.4V80.6z M76.6,87.9c3.2,0,4.7-1.5,4.7-3.4v0c0-2.2-1.7-3.4-4.5-3.4h-5.1v6.9H76.6z"/>
		<path class="st0" d="M92.1,80.6h0.4v13.6h-0.4V80.6z"/>
		<path class="st0" d="M55.2,103.9h9.5v0.4h-9.1v6.2h8.3v0.4h-8.3v6.3h9.2v0.4h-9.6V103.9z"/>
		<path class="st0" d="M69.3,103.9h0.4L80,116.8v-12.9h0.4v13.6h-0.4l-10.4-12.9v12.9h-0.4V103.9z"/>
		<path class="st0" d="M86.5,103.9h4.4c4.3,0,7.2,3,7.2,6.8v0c0,3.8-3,6.8-7.2,6.8h-4.4V103.9z M90.9,117.2c4,0,6.8-2.8,6.8-6.4v0
			c0-3.6-2.8-6.4-6.8-6.4h-3.9v12.8H90.9z"/>
	</g>
</g>
</svg>
