<?xml version="1.0" encoding="utf-8"?>
<!-- Generator: Adobe Illustrator 24.3.0, SVG Export Plug-In . SVG Version: 6.00 Build 0)  -->
<svg version="1.1" id="Layer_1" xmlns="http://www.w3.org/2000/svg" xmlns:xlink="http://www.w3.org/1999/xlink" x="0px" y="0px"
	 viewBox="0 0 53.2 11.6" style="enable-background:new 0 0 53.2 11.6;" xml:space="preserve">
<style type="text/css">
	.st0{fill:#FFFFFF;}
	.st1{fill:#5554A3;}
	.st2{fill:none;stroke:#5554A3;stroke-width:0.5;stroke-miterlimit:10;}
</style>
<g>
	<polygon id="XMLID_1123_" class="st0" points="8.8,0.5 4,5.6 9.2,10.9 9.2,11.1 6.7,11.1 2.2,6.3 2.2,11.1 0.2,11.1 0.2,0.4 
		2.2,0.4 2.2,4.9 6.3,0.4 8.8,0.4 	"/>
	<path id="XMLID_1121_" class="st0" d="M27,11.1l-5.6-7.2v2c0,3.1-1.7,5.5-5.5,5.5c-3.7,0-5.5-2.7-5.5-5.5c0-2.8,1.8-5.6,5.5-5.6
		c0,0,0,1.8,0,1.8c-2.5,0-3.6,2-3.5,3.8c0,1.8,1,3.6,3.5,3.6c1.2,0,2.3-0.4,2.9-1.5c0.6-1.1,0.5-2.3,0.5-3.5c0-1,0-2,0-3
		c0-0.1,0-1,0-1H21L26.3,7V0.4h2v10.7L27,11.1z"/>
	<path id="XMLID_1120_" class="st0" d="M41.5,0.4v6.1c0,3.2-1.9,4.8-4.6,4.8c-2.6,0-4.7-1.6-4.7-4.8V0.4h2v6.1
		c0,1.9,1.1,2.9,2.8,2.9c1.7,0,2.6-1.1,2.6-2.9V0.4H41.5z"/>
	<path id="XMLID_1118_" class="st0" d="M50.9,3c-0.4-0.6-1.4-1.2-2.5-1.2c-1.5,0-2.2,0.6-2.2,1.4c0,0.9,1.1,1.2,2.4,1.3
		c2.2,0.3,4.3,0.9,4.3,3.4c0,2.4-2.1,3.4-4.5,3.4c-2.2,0-3.9-0.7-4.6-2.6l1.7-0.9c0.5,1.2,1.7,1.7,3,1.7c1.3,0,2.5-0.4,2.5-1.6
		c0-1-1.1-1.4-2.5-1.6c-2.2-0.3-4.2-0.8-4.2-3.2c0-2.2,2.2-3.1,4.1-3.1c1.7,0,3.4,0.5,4.2,2.1L50.9,3z"/>
</g>
</svg>
