<?xml version="1.0" encoding="utf-8"?>
<!-- Generator: Adobe Illustrator 24.3.0, SVG Export Plug-In . SVG Version: 6.00 Build 0)  -->
<svg version="1.1" id="Layer_1" xmlns="http://www.w3.org/2000/svg" xmlns:xlink="http://www.w3.org/1999/xlink" x="0px" y="0px"
	 viewBox="0 0 524 316" style="enable-background:new 0 0 524 316;" xml:space="preserve">
<style type="text/css">
	.st0{fill:#FFFFFF;}
</style>
<rect class="st0" width="524" height="316"/>
<g id="XMLID_266_">
	<g id="XMLID_2_">
		<path id="XMLID_11_" d="M260,190.99c-22.91,0-41.55-18.64-41.55-41.55s18.64-41.55,41.55-41.55c22.91,0,41.55,18.64,41.55,41.55
			S282.91,190.99,260,190.99z M260,112.02c-20.63,0-37.42,16.78-37.42,37.42c0,20.63,16.78,37.42,37.42,37.42
			s37.42-16.78,37.42-37.42C297.42,128.81,280.63,112.02,260,112.02z"/>
		<rect id="XMLID_10_" x="257.93" y="116.29" width="4.13" height="7.58"/>
		<rect id="XMLID_9_" x="257.93" y="175.59" width="4.13" height="7.58"/>
		<rect id="XMLID_8_" x="226.56" y="147.66" width="7.58" height="4.13"/>
		<rect id="XMLID_7_" x="285.86" y="147.66" width="7.58" height="4.13"/>
		
			<rect id="XMLID_6_" x="235.24" y="168.63" transform="matrix(0.707 -0.7072 0.7072 0.707 -50.6829 219.0472)" width="7.58" height="4.13"/>
		
			<rect id="XMLID_5_" x="277.17" y="126.7" transform="matrix(0.7071 -0.7071 0.7071 0.7071 -8.7524 236.4009)" width="7.58" height="4.13"/>
		
			<rect id="XMLID_4_" x="278.9" y="166.9" transform="matrix(0.7071 -0.7071 0.7071 0.7071 -38.4067 248.6675)" width="4.13" height="7.58"/>
		
			<rect id="XMLID_3_" x="236.97" y="124.97" transform="matrix(0.7071 -0.7071 0.7071 0.7071 -21.0366 206.7446)" width="4.13" height="7.58"/>
	</g>
	
		<rect id="XMLID_1_" x="218.46" y="215.15" transform="matrix(0.3934 -0.9194 0.9194 0.3934 -54.7015 351.5174)" width="41.15" height="4.13"/>
	
		<rect id="XMLID_267_" x="264.57" y="193.7" transform="matrix(0.3905 -0.9206 0.9206 0.3905 -25.7772 370.1078)" width="4.13" height="21.64"/>
</g>
</svg>
