<svg id="Layer_1" data-name="Layer 1" xmlns="http://www.w3.org/2000/svg" viewBox="0 0 45.85 29.58"><defs><style>.cls-1{fill:#231f20;}</style></defs><path class="cls-1" d="M6.75,5A2.47,2.47,0,0,0,4.8,4a2.46,2.46,0,0,0-1.75.69,2.65,2.65,0,0,0-.61.91V4.06a4.39,4.39,0,0,1-.71.16,7.22,7.22,0,0,1-.82,0c-.29,0-.6,0-.91,0v.31a1,1,0,0,1,.88.32,1.63,1.63,0,0,1,.24,1v7.42A1,1,0,0,1,.9,14a1.22,1.22,0,0,1-.76.19v.31l.69,0c.3,0,.6,0,.91,0s.83,0,1.22,0l.9,0v-.31a2,2,0,0,1-1-.22.88.88,0,0,1-.38-.84V11.2a1.68,1.68,0,0,0,.53.49,2.11,2.11,0,0,0,1.2.33,2.89,2.89,0,0,0,1.94-.64A3.78,3.78,0,0,0,7.19,9.73a6.23,6.23,0,0,0,.35-2.06A4.1,4.1,0,0,0,6.75,5ZM5.93,9.79a3.07,3.07,0,0,1-.64,1.37A1.63,1.63,0,0,1,4,11.68a1.62,1.62,0,0,1-1-.28,1.94,1.94,0,0,1-.58-.67V6.35a2.71,2.71,0,0,1,.65-1.29,1.8,1.8,0,0,1,1.31-.6,1.28,1.28,0,0,1,.94.37A2.28,2.28,0,0,1,5.92,6a7.89,7.89,0,0,1,.19,1.93A9.39,9.39,0,0,1,5.93,9.79Z"/><path class="cls-1" d="M12.34,4a3.44,3.44,0,0,1,.91.12,2.9,2.9,0,0,1,.8.35,1.65,1.65,0,0,1,.51.51,1.16,1.16,0,0,1,.18.63.8.8,0,0,1-.22.61.78.78,0,0,1-.56.21.87.87,0,0,1-.57-.19.66.66,0,0,1-.24-.54.81.81,0,0,1,.18-.55.86.86,0,0,1,.44-.27,1.16,1.16,0,0,0-.52-.44,2,2,0,0,0-.81-.17,1.77,1.77,0,0,0-.73.17A1.92,1.92,0,0,0,11,5a3.19,3.19,0,0,0-.5,1.11,6.68,6.68,0,0,0-.19,1.75A5.81,5.81,0,0,0,10.63,10a2.34,2.34,0,0,0,.77,1.09,1.86,1.86,0,0,0,1.06.34,2.37,2.37,0,0,0,1.16-.34,2.49,2.49,0,0,0,1-1.18l.28.1a3.27,3.27,0,0,1-.48.95,2.73,2.73,0,0,1-.89.79,2.63,2.63,0,0,1-1.34.31,3,3,0,0,1-1.65-.47A3.37,3.37,0,0,1,9.34,10.2a4.63,4.63,0,0,1-.43-2.08A4.91,4.91,0,0,1,9.34,6a3.49,3.49,0,0,1,1.22-1.45A3.18,3.18,0,0,1,12.34,4Zm2.09-4,.12.21A5.1,5.1,0,0,0,13,1.31a4.57,4.57,0,0,0-.95,1.43h-.27a4.4,4.4,0,0,0-1-1.43A5,5,0,0,0,9.36.21L9.48,0A11.88,11.88,0,0,1,11,.68a6.34,6.34,0,0,1,1.21.79,6.35,6.35,0,0,1,1-.79A8.62,8.62,0,0,1,14.43,0Z"/><path class="cls-1" d="M19.39,4a2.62,2.62,0,0,1,2,.79,3.48,3.48,0,0,1,.73,2.45H17V7h3.8a4.74,4.74,0,0,0-.12-1.33,2.3,2.3,0,0,0-.47-1,1,1,0,0,0-.81-.37,1.5,1.5,0,0,0-1.2.68,4,4,0,0,0-.63,2.15l0,.06c0,.15,0,.31,0,.48s0,.36,0,.53a4.14,4.14,0,0,0,.32,1.73A2.65,2.65,0,0,0,18.67,11a1.82,1.82,0,0,0,1.08.38A2.44,2.44,0,0,0,21,11.08a2.47,2.47,0,0,0,.94-1.15l.3.12a3.3,3.3,0,0,1-.53.94,3,3,0,0,1-.93.74,2.83,2.83,0,0,1-1.3.29,3.22,3.22,0,0,1-1.81-.49,3.12,3.12,0,0,1-1.17-1.34,4.65,4.65,0,0,1-.4-2A5.45,5.45,0,0,1,16.48,6a3.28,3.28,0,0,1,1.16-1.44A3.05,3.05,0,0,1,19.39,4Z"/><path class="cls-1" d="M25.61.27V10.44a1.08,1.08,0,0,0,.26.84,1.31,1.31,0,0,0,.86.22v.31l-.76,0-1,0-1,0-.76,0V11.5a1.31,1.31,0,0,0,.86-.22,1.08,1.08,0,0,0,.26-.84V2a1.63,1.63,0,0,0-.24-1,1,1,0,0,0-.88-.31V.43c.31,0,.61,0,.91,0a7.22,7.22,0,0,0,.82,0A4.67,4.67,0,0,0,25.61.27Z"/><path class="cls-1" d="M29.93,4.07v6.37a1.08,1.08,0,0,0,.25.84,1.34,1.34,0,0,0,.87.22v.31l-.76,0c-.34,0-.68,0-1,0l-1,0-.77,0V11.5a1.31,1.31,0,0,0,.86-.22,1.08,1.08,0,0,0,.26-.84V5.83a1.63,1.63,0,0,0-.24-1,1,1,0,0,0-.88-.31V4.23c.32,0,.62,0,.91,0a7.08,7.08,0,0,0,.82,0A4.81,4.81,0,0,0,29.93,4.07ZM29.16.54a.88.88,0,0,1,.66.29.87.87,0,0,1,.28.66.9.9,0,0,1-.28.66.92.92,0,0,1-1.32,0,.9.9,0,0,1-.28-.66A.87.87,0,0,1,28.5.83.88.88,0,0,1,29.16.54Z"/><path class="cls-1" d="M35.48,4a3.44,3.44,0,0,1,.91.12,2.9,2.9,0,0,1,.8.35A1.65,1.65,0,0,1,37.7,5a1.16,1.16,0,0,1,.18.63.8.8,0,0,1-.22.61.78.78,0,0,1-.56.21.87.87,0,0,1-.57-.19.66.66,0,0,1-.24-.54.81.81,0,0,1,.18-.55.86.86,0,0,1,.44-.27,1.16,1.16,0,0,0-.52-.44,2,2,0,0,0-.81-.17,1.77,1.77,0,0,0-.73.17,1.92,1.92,0,0,0-.68.58,3.19,3.19,0,0,0-.5,1.11,6.68,6.68,0,0,0-.19,1.75A5.81,5.81,0,0,0,33.77,10a2.27,2.27,0,0,0,.77,1.09,1.86,1.86,0,0,0,1.06.34,2.37,2.37,0,0,0,1.16-.34,2.49,2.49,0,0,0,1-1.18L38,10a3.27,3.27,0,0,1-.48.95,2.73,2.73,0,0,1-.89.79A2.63,2.63,0,0,1,35.3,12a3,3,0,0,1-1.65-.47,3.37,3.37,0,0,1-1.17-1.35,4.63,4.63,0,0,1-.43-2.08A4.91,4.91,0,0,1,32.48,6,3.49,3.49,0,0,1,33.7,4.54,3.18,3.18,0,0,1,35.48,4Z"/><path class="cls-1" d="M40.93,11.92a1.79,1.79,0,0,1-1.39-.48,1.84,1.84,0,0,1-.44-1.28,1.67,1.67,0,0,1,.3-1,2.39,2.39,0,0,1,.78-.66,7.45,7.45,0,0,1,1-.45l1-.36a3.24,3.24,0,0,0,.77-.39.68.68,0,0,0,.3-.56V5.8a2,2,0,0,0-.18-.94.94.94,0,0,0-.5-.43,1.85,1.85,0,0,0-.69-.11,3.29,3.29,0,0,0-.79.1,1.17,1.17,0,0,0-.67.43.86.86,0,0,1,.49.29.88.88,0,0,1,.21.6.76.76,0,0,1-.24.59.88.88,0,0,1-.6.21.72.72,0,0,1-.63-.27,1,1,0,0,1-.2-.61A1,1,0,0,1,39.63,5a2.1,2.1,0,0,1,.49-.44A3,3,0,0,1,41,4.19,4.06,4.06,0,0,1,42.21,4a3.42,3.42,0,0,1,1,.14,1.77,1.77,0,0,1,.71.41,1.67,1.67,0,0,1,.5.86,5.32,5.32,0,0,1,.12,1.21v4.1a1,1,0,0,0,.1.52.39.39,0,0,0,.35.17.75.75,0,0,0,.37-.09,1.91,1.91,0,0,0,.3-.22l.16.25a4.27,4.27,0,0,1-.59.39,1.61,1.61,0,0,1-.75.16,1.14,1.14,0,0,1-1-.4,1.76,1.76,0,0,1-.25-.92,2.43,2.43,0,0,1-1.07,1.05A3,3,0,0,1,40.93,11.92Zm.65-.59a1.72,1.72,0,0,0,.87-.26,2.47,2.47,0,0,0,.79-.86V7.32a1.47,1.47,0,0,1-.68.52q-.47.18-1,.42a2.6,2.6,0,0,0-.85.61A1.65,1.65,0,0,0,40.4,10a1.36,1.36,0,0,0,.34,1A1.14,1.14,0,0,0,41.58,11.33Z"/><path class="cls-1" d="M2.07,26.92a1.8,1.8,0,0,1-1.39-.48,1.84,1.84,0,0,1-.43-1.28,1.67,1.67,0,0,1,.3-1,2.35,2.35,0,0,1,.77-.66,6.93,6.93,0,0,1,1-.45l1-.36a3.06,3.06,0,0,0,.77-.39.67.67,0,0,0,.31-.56V20.8a1.86,1.86,0,0,0-.19-.94.85.85,0,0,0-.49-.43A1.92,1.92,0,0,0,3,19.31a3.26,3.26,0,0,0-.79.11,1.14,1.14,0,0,0-.67.43.79.79,0,0,1,.48.29.88.88,0,0,1,.21.6.76.76,0,0,1-.24.59.84.84,0,0,1-.6.21.72.72,0,0,1-.62-.27,1,1,0,0,1-.2-.62A.91.91,0,0,1,.78,20a2.6,2.6,0,0,1,.48-.45,3.45,3.45,0,0,1,.88-.4A4.13,4.13,0,0,1,3.36,19a3.47,3.47,0,0,1,1,.14,1.84,1.84,0,0,1,.7.4,1.6,1.6,0,0,1,.5.87,5.32,5.32,0,0,1,.12,1.21v4.1a1.14,1.14,0,0,0,.1.52.4.4,0,0,0,.36.17.69.69,0,0,0,.36-.09,1.91,1.91,0,0,0,.3-.22l.16.25a3.74,3.74,0,0,1-.59.39,1.55,1.55,0,0,1-.75.16,1.11,1.11,0,0,1-1-.4,1.67,1.67,0,0,1-.25-.92,2.54,2.54,0,0,1-1.07,1A3,3,0,0,1,2.07,26.92Zm.65-.59a1.66,1.66,0,0,0,.87-.26,2.49,2.49,0,0,0,.8-.86V22.32a1.51,1.51,0,0,1-.69.52q-.46.18-1,.42a2.56,2.56,0,0,0-.84.61A1.59,1.59,0,0,0,1.54,25a1.36,1.36,0,0,0,.34,1A1.14,1.14,0,0,0,2.72,26.33Z"/><path class="cls-1" d="M13.47,19.15,9.22,26.59h1.62a2.08,2.08,0,0,0,1-.24,1.65,1.65,0,0,0,.7-.75,3.59,3.59,0,0,0,.33-1.38h.33c0,.63,0,1.16,0,1.59s0,.79,0,1.06l-1.35,0-1.39,0-1.5,0-1.47.06,4.25-7.44H10.2a2.33,2.33,0,0,0-1.08.23,1.51,1.51,0,0,0-.66.76,4.58,4.58,0,0,0-.3,1.38H7.82c0-.64,0-1.17,0-1.6s0-.78,0-1l1.35,0,1.39,0,1.5,0ZM13.08,15l.11.21a5.1,5.1,0,0,0-1.51,1.1,4.75,4.75,0,0,0-.95,1.43h-.26a4.57,4.57,0,0,0-1-1.43A5.1,5.1,0,0,0,8,15.21L8.13,15a11.21,11.21,0,0,1,1.55.68,6.45,6.45,0,0,1,1.22.79,5.89,5.89,0,0,1,1-.79A7.62,7.62,0,0,1,13.08,15Z"/><path class="cls-1" d="M21.39,26.18a1.6,1.6,0,0,1-.24-1V15.26a4.78,4.78,0,0,1-.72.16,7,7,0,0,1-.81.05c-.3,0-.6,0-.92-.05v.31a1.05,1.05,0,0,1,.89.32,1.71,1.71,0,0,1,.23,1v2.86a1.24,1.24,0,0,0-.55-.56A2.46,2.46,0,0,0,18.05,19a3.28,3.28,0,0,0-1.64.44,3.23,3.23,0,0,0-1.22,1.33A4.81,4.81,0,0,0,14.73,23a6,6,0,0,0,.36,2.23,2.74,2.74,0,0,0,1,1.32,2.86,2.86,0,0,0,1.6.45,2.16,2.16,0,0,0,1.61-.61,2.21,2.21,0,0,0,.48-.73V27a3.16,3.16,0,0,1,.72-.16,7.09,7.09,0,0,1,.81,0c.31,0,.61,0,.92,0V26.5A1,1,0,0,1,21.39,26.18ZM19.28,26a1.5,1.5,0,0,1-1.12.53,1.63,1.63,0,0,1-1.1-.39A2.46,2.46,0,0,1,16.38,25a7.4,7.4,0,0,1-.23-2,5.11,5.11,0,0,1,.57-2.77,1.71,1.71,0,0,1,1.45-.89,1.85,1.85,0,0,1,1,.28,1.52,1.52,0,0,1,.62.85v4.36A2.23,2.23,0,0,1,19.28,26Z"/><path class="cls-1" d="M25,26.92a1.79,1.79,0,0,1-1.39-.48,1.84,1.84,0,0,1-.44-1.28,1.67,1.67,0,0,1,.3-1,2.29,2.29,0,0,1,.78-.66,6.36,6.36,0,0,1,1-.45l1-.36a3.14,3.14,0,0,0,.78-.39.68.68,0,0,0,.3-.56V20.8a2,2,0,0,0-.18-.94.9.9,0,0,0-.5-.43,1.85,1.85,0,0,0-.69-.12,3.26,3.26,0,0,0-.79.11,1.17,1.17,0,0,0-.67.43.81.81,0,0,1,.49.29.87.87,0,0,1,.2.6.75.75,0,0,1-.23.59.89.89,0,0,1-.61.21.72.72,0,0,1-.62-.27,1.07,1.07,0,0,1-.2-.62.91.91,0,0,1,.19-.61,2.38,2.38,0,0,1,.49-.45,3.22,3.22,0,0,1,.87-.4A4.18,4.18,0,0,1,26.26,19a3.42,3.42,0,0,1,1,.14,2,2,0,0,1,.71.4,1.74,1.74,0,0,1,.5.87,5.32,5.32,0,0,1,.12,1.21v4.1a1,1,0,0,0,.1.52.38.38,0,0,0,.35.17.69.69,0,0,0,.36-.09,1.29,1.29,0,0,0,.3-.22l.17.25a5,5,0,0,1-.59.39,1.61,1.61,0,0,1-.75.16,1.14,1.14,0,0,1-1-.4,1.67,1.67,0,0,1-.25-.92,2.49,2.49,0,0,1-1.07,1A3,3,0,0,1,25,26.92Zm.65-.59a1.65,1.65,0,0,0,.86-.26,2.49,2.49,0,0,0,.8-.86V22.32a1.51,1.51,0,0,1-.69.52c-.3.12-.62.26-1,.42a2.6,2.6,0,0,0-.85.61A1.58,1.58,0,0,0,24.45,25a1.32,1.32,0,0,0,.34,1A1.11,1.11,0,0,0,25.63,26.33Z"/><path class="cls-1" d="M29.53,29.58v-.22a1.6,1.6,0,0,0,1.37-.79,3.91,3.91,0,0,0,.45-2v-5.7a1.63,1.63,0,0,0-.23-1,1,1,0,0,0-.88-.31v-.31c.31,0,.61,0,.91,0a7.22,7.22,0,0,0,.82-.05,3.7,3.7,0,0,0,.71-.16v6.06a8.13,8.13,0,0,1-.24,2,3.42,3.42,0,0,1-.82,1.53,2.89,2.89,0,0,1-.91.65A2.68,2.68,0,0,1,29.53,29.58Zm2.36-14a.94.94,0,0,1,.66,1.61.93.93,0,0,1-1.33,0,.95.95,0,0,1,.67-1.61Z"/><path class="cls-1" d="M36.24,26.92a1.8,1.8,0,0,1-1.39-.48,1.84,1.84,0,0,1-.43-1.28,1.67,1.67,0,0,1,.3-1,2.35,2.35,0,0,1,.77-.66,6.93,6.93,0,0,1,1-.45l1-.36a3.33,3.33,0,0,0,.78-.39.68.68,0,0,0,.3-.56V20.8a1.86,1.86,0,0,0-.19-.94.85.85,0,0,0-.49-.43,1.92,1.92,0,0,0-.69-.12,3.26,3.26,0,0,0-.79.11,1.17,1.17,0,0,0-.67.43.81.81,0,0,1,.49.29.92.92,0,0,1,.2.6.79.79,0,0,1-.23.59.89.89,0,0,1-.61.21.72.72,0,0,1-.62-.27,1,1,0,0,1-.2-.62A.91.91,0,0,1,35,20a2.6,2.6,0,0,1,.48-.45,3.45,3.45,0,0,1,.88-.4A4.13,4.13,0,0,1,37.53,19a3.47,3.47,0,0,1,1,.14,1.84,1.84,0,0,1,.7.4,1.6,1.6,0,0,1,.5.87,5.32,5.32,0,0,1,.12,1.21v4.1a1,1,0,0,0,.11.52.37.37,0,0,0,.35.17.69.69,0,0,0,.36-.09,1.91,1.91,0,0,0,.3-.22l.16.25a4.21,4.21,0,0,1-.58.39,1.62,1.62,0,0,1-.76.16,1.11,1.11,0,0,1-1-.4,1.67,1.67,0,0,1-.25-.92,2.54,2.54,0,0,1-1.07,1A3,3,0,0,1,36.24,26.92Zm.65-.59a1.66,1.66,0,0,0,.87-.26,2.49,2.49,0,0,0,.8-.86V22.32a1.51,1.51,0,0,1-.69.52c-.31.12-.63.26-.95.42a2.5,2.5,0,0,0-.85.61A1.58,1.58,0,0,0,35.72,25a1.35,1.35,0,0,0,.33,1A1.14,1.14,0,0,0,36.89,26.33Z"/><path class="cls-1" d="M43,25.13a1,1,0,1,1-.66.28A.95.95,0,0,1,43,25.13Z"/></svg>