<svg id="Layer_1" data-name="Layer 1" xmlns="http://www.w3.org/2000/svg" viewBox="0 0 70.29 70.29"><defs><style>.cls-1{fill:#231f20;}.cls-2{fill:#cdebf3;}.cls-3{fill:#87d4ec;}.cls-4{fill:#18a3b9;}.cls-5{fill:#00adee;}.cls-6{fill:#fff100;}.cls-7{fill:#eb008b;}</style></defs><circle class="cls-1" cx="35.15" cy="35.15" r="35.15"/><polygon class="cls-2" points="29.8 41.74 29.8 41.74 29.79 41.73 29.8 41.73 29.8 41.73 29.8 41.74"/><polygon class="cls-3" points="29.81 46.15 29.8 46.15 29.8 46.14 29.8 46.14 29.81 46.14 29.81 46.15"/><rect class="cls-3" x="29.8" y="41.74" width="0.01" transform="translate(-19.07 26.18) rotate(-36.81)"/><polygon class="cls-3" points="33.62 39.54 33.62 43.95 33.61 43.95 33.61 43.94 33.6 43.94 33.61 43.93 33.61 39.55 33.62 39.54"/><polygon class="cls-4" points="26.01 43.94 25.99 43.95 25.99 43.95 25.99 43.93 26.01 43.94"/><polygon class="cls-4" points="29.8 41.74 29.8 41.74 29.79 41.73 29.8 41.74"/><polygon class="cls-4" points="29.8 46.14 29.8 46.15 29.79 46.15 29.79 46.14 29.8 46.14"/><polygon class="cls-5" points="22.17 46.13 22.17 54.83 18.36 57.03 18.36 43.93 22.17 46.13"/><path class="cls-6" d="M14.54,19.73v4.41h0v4.4h0V33h0V54.83L18.35,57V43.93l3.82,2.21h0L26,48.34h0V61.56l3.82,2.2V55h0V50.56h0V46.15h0v-4.4h0v-4.4h0V32.93h0V28.52h0L26,26.33h0m-3.81-2.18h0l-3.81-2.2m0,4.39h0ZM26,44h0v0h0l-3.81-2.2h0l-3.82-2.19V26.35h0l3.81,2.2h0L26,30.73h0v4.39h0v4.38h0v4.38h0Z"/><polygon class="cls-5" points="18.36 26.34 18.36 26.34 18.36 26.33 18.36 26.34"/><polygon class="cls-5" points="22.17 24.14 22.17 24.14 22.17 24.14 22.17 24.14"/><polygon class="cls-5" points="22.17 28.55 22.17 32.96 22.17 32.97 22.17 37.32 18.36 39.53 18.36 26.35 22.17 28.55"/><polygon class="cls-5" points="22.17 28.53 22.17 28.55 18.36 26.35 18.36 26.34 18.36 26.34 22.17 28.54 22.17 28.53 22.17 28.53"/><polygon class="cls-7" points="33.61 26.31 29.81 28.5 29.8 28.51 29.79 28.5 25.98 26.32 27.62 25.37 25.98 26.31 22.17 24.12 22.17 24.11 18.35 21.92 18.35 21.91 14.54 19.72 18.35 17.51 22.16 19.71 22.17 19.71 25.98 21.91 25.98 21.91 25.98 21.91 29.79 24.11 29.8 24.11 33.61 26.31"/><polygon class="cls-7" points="18.36 26.33 18.36 26.33 18.36 26.32 18.36 26.33"/><polygon class="cls-7" points="22.17 24.11 22.17 24.13 22.16 24.13 18.35 21.93 18.35 21.92 22.17 24.11"/><polygon class="cls-3" points="22.17 28.53 22.17 28.54 22.17 28.53 22.17 28.53"/><polygon class="cls-3" points="22.17 24.14 22.17 24.14 22.17 24.14 22.17 24.14"/><polygon class="cls-2" points="41.27 43.95 41.24 43.97 41.22 43.96 37.44 46.15 37.43 46.15 37.43 46.14 37.43 46.14 41.21 43.95 41.23 43.94 41.24 43.93 41.25 43.94 41.27 43.95"/><polygon class="cls-3" points="41.25 48.34 41.24 48.35 41.24 48.34 41.25 48.34"/><rect class="cls-4" x="37.43" y="46.14" height="0.01" transform="translate(-19.29 28.43) rotate(-33.61)"/><polygon class="cls-4" points="41.24 48.34 41.24 48.35 41.23 48.34 41.24 48.34"/><polygon class="cls-4" points="37.43 50.55 41.24 52.74 41.24 52.75 37.43 50.55"/><polygon class="cls-2" points="41.25 39.53 41.24 39.53 41.24 39.54 37.91 41.46 41.24 39.53 41.24 39.53 41.24 39.53 41.25 39.53"/><polygon class="cls-3" points="41.27 43.95 41.24 43.97 41.24 43.93 41.25 43.94 41.27 43.95"/><polygon class="cls-3" points="41.25 48.34 41.24 48.35 41.24 48.34 41.25 48.34"/><rect class="cls-3" x="45.05" y="41.73" width="0.01" height="0.01"/><polygon class="cls-4" points="41.24 43.93 41.24 43.97 41.22 43.96 37.44 46.15 37.43 46.15 37.43 46.14 37.43 46.14 41.21 43.95 41.23 43.94 41.24 43.93"/><polygon class="cls-4" points="41.23 48.34 41.24 48.34 41.24 48.35 41.23 48.34"/><polygon class="cls-3" points="52.69 32.92 52.69 32.94 48.87 35.14 48.87 35.14 48.87 35.12 48.87 35.12 52.67 32.93 52.69 32.92"/><polygon class="cls-2" points="45.06 15.3 45.05 15.3 41.23 13.1 41.24 13.1 45.06 15.3"/><polygon class="cls-4" points="37.43 28.53 37.43 28.54 37.43 28.53 37.43 28.53"/><polygon class="cls-4" points="41.24 30.72 41.24 30.73 41.23 30.73 41.23 30.72 41.24 30.72"/><polygon class="cls-4" points="41.24 39.53 41.24 39.54 37.91 41.46 37.86 41.49 37.43 41.74 37.43 37.33 37.43 37.33 39.34 38.43 41.24 39.53"/><polygon class="cls-4" points="41.24 35.12 41.24 35.14 41.23 35.13 41.24 35.12"/><polygon class="cls-4" points="41.24 43.93 41.24 43.97 41.22 43.96 41.21 43.95 41.23 43.94 41.24 43.93"/><polygon class="cls-2" points="50.12 22.64 48.87 21.92 48.87 21.92 50.12 22.64"/><polygon class="cls-6" points="52.69 37.35 52.69 50.54 48.87 48.33 48.87 39.55 52.69 37.35"/><polygon class="cls-4" points="52.69 37.33 52.69 37.35 48.87 39.55 48.87 39.53 52.69 37.33"/><polygon class="cls-7" points="56.5 17.5 52.69 19.71 45.06 15.31 45.05 15.3 41.23 13.1 37.43 10.91 41.24 8.7 56.5 17.5"/><polygon class="cls-4" points="41.26 30.73 41.25 30.73 41.24 30.73 41.24 30.72 41.25 30.72 41.26 30.73"/><polygon class="cls-4" points="45.06 32.92 45.06 32.93 45.05 32.93 45.04 32.93 45.06 32.92"/><polygon class="cls-2" points="48.87 35.13 48.87 35.14 48.86 35.13 48.87 35.13"/><polygon class="cls-3" points="52.69 37.33 52.69 37.35 48.87 39.55 48.87 39.55 48.87 39.54 48.87 39.53 52.69 37.33"/><polygon class="cls-4" points="48.87 39.54 48.87 39.55 48.86 39.55 48.87 39.54"/><rect class="cls-7" x="41.24" y="35.13" width="0.01" height="0.01" transform="translate(-11.36 22.16) rotate(-26.57)"/><polygon class="cls-7" points="52.69 32.94 48.87 35.14 48.87 35.14 48.87 35.13 48.86 35.13 45.06 37.33 45.06 32.94 45.07 32.94 48.87 30.73 48.87 30.74 52.67 32.93 52.69 32.94"/><polygon class="cls-7" points="45.05 37.33 45.06 37.33 45.06 37.33 45.05 37.33"/><polygon class="cls-7" points="45.06 32.94 45.06 32.93 45.05 32.93 45.06 32.93 45.07 32.94 45.06 32.94"/><polygon class="cls-7" points="48.87 35.13 48.87 35.14 48.86 35.13 48.87 35.13"/><polygon class="cls-7" points="41.25 39.53 41.24 39.53 41.24 39.53 41.25 39.53"/><polygon class="cls-7" points="41.25 35.14 41.24 35.14 41.24 35.13 41.25 35.14"/><rect class="cls-7" x="45.05" y="41.73" width="0.01" height="0.01"/><polygon class="cls-2" points="41.26 30.73 41.25 30.73 41.24 30.73 41.23 30.73 41.23 30.72 41.24 30.72 41.25 30.72 41.26 30.73"/><polygon class="cls-3" points="41.25 39.53 41.24 39.53 41.24 39.53 41.25 39.53"/><polygon class="cls-3" points="41.26 35.13 41.25 35.14 41.24 35.14 41.24 35.12 41.25 35.13 41.26 35.13"/><polygon class="cls-3" points="45.06 32.92 45.06 32.93 45.05 32.93 45.04 32.93 45.06 32.92"/><polygon class="cls-3" points="45.06 37.33 45.06 37.33 45.05 37.33 45.06 37.33"/><polyline class="cls-6" points="48.87 21.92 45.06 19.72 45.05 19.71 41.24 17.51 41.24 30.69 41.23 30.69 41.23 30.7 41.24 30.7 41.24 35.09 41.23 35.1 41.24 35.11 41.24 39.5 39.34 38.4 37.43 37.3 37.43 37.3 37.43 28.51 37.43 28.5 37.43 28.5 37.43 10.91 41.23 13.1 45.05 15.3 45.06 15.31 52.69 19.71 52.69 32.92 52.67 32.93 48.87 30.74 48.87 21.92"/><polygon class="cls-4" points="41.24 39.53 41.24 39.53 41.24 39.53 39.34 38.43 41.24 39.53"/><polygon class="cls-4" points="41.24 35.12 41.24 35.14 41.23 35.13 41.24 35.12"/><polygon class="cls-2" points="41.25 30.72 41.24 30.73 41.23 30.72 41.24 30.72 41.25 30.72"/><polygon class="cls-3" points="41.26 35.13 41.25 35.14 41.24 35.14 41.24 35.12 41.25 35.13 41.26 35.13"/><polygon class="cls-3" points="41.26 30.73 41.25 30.73 41.24 30.73 41.24 30.73 41.25 30.72 41.26 30.73"/><polygon class="cls-3" points="45.06 32.92 45.06 32.93 45.05 32.93 45.04 32.93 45.06 32.92"/><rect class="cls-4" x="41.23" y="30.73" width="0.02" height="0.01"/><polygon class="cls-4" points="41.24 35.12 41.24 35.14 41.23 35.13 41.24 35.12"/><polygon class="cls-7" points="41.24 39.54 37.91 41.46 37.86 41.49 37.43 41.74 37.43 41.73 37.42 41.73 33.62 43.93 33.61 43.93 33.61 39.55 33.62 39.54 33.63 39.53 37.43 37.33 37.43 37.33 37.43 37.34 41.24 39.53 41.24 39.54"/><polygon class="cls-7" points="37.43 41.73 37.43 41.74 37.43 41.74 37.42 41.73 37.43 41.73"/><polygon class="cls-7" points="37.86 41.49 37.43 41.74 37.43 41.74 37.86 41.49"/><polygon class="cls-7" points="41.24 43.93 41.24 43.95 41.22 43.96 37.44 46.15 37.43 46.15 37.43 46.15 37.43 46.14 37.43 46.14 37.43 46.14 41.21 43.95 41.23 43.94 41.24 43.93"/><rect class="cls-7" x="33.61" y="43.93" height="0.02"/><polygon class="cls-7" points="37.43 46.14 37.43 46.15 37.42 46.15 37.43 46.14"/><polygon class="cls-2" points="33.62 39.54 33.62 39.54 33.6 39.53 33.62 39.52 33.63 39.53 33.62 39.54"/><polygon class="cls-3" points="37.43 41.73 37.43 41.74 37.43 41.74 37.42 41.73 37.43 41.73"/><polygon class="cls-4" points="29.81 41.74 29.8 41.74 29.8 41.73 29.8 41.74 29.81 41.74"/><polygon class="cls-4" points="33.62 43.93 33.62 43.95 33.61 43.95 33.61 43.94 33.6 43.94 33.61 43.93 33.61 43.93 33.62 43.93"/><polygon class="cls-4" points="37.43 59.35 37.43 59.37 37.41 59.36 37.43 59.35"/><polygon class="cls-2" points="32.03 56.23 29.81 54.95 29.8 54.95 29.8 54.94 29.81 54.95 32.03 56.23"/><polygon class="cls-7" points="41.24 52.75 37.43 54.95 37.41 54.95 33.62 57.14 33.61 57.14 33.61 52.76 33.62 52.76 33.63 52.74 37.43 50.55 41.24 52.75"/><polygon class="cls-2" points="33.62 52.76 33.62 52.74 33.61 52.74 33.61 52.73 33.62 52.74 33.63 52.74 33.62 52.76"/><rect class="cls-3" x="33.61" y="57.14" height="0.02"/><polygon class="cls-3" points="37.43 54.94 37.43 54.95 37.41 54.95 37.43 54.94"/><polygon class="cls-4" points="29.81 54.95 29.8 54.96 29.8 54.95 29.81 54.95"/><polygon class="cls-2" points="32.03 56.23 29.81 54.95 29.8 54.96 29.79 54.95 29.8 54.94 29.8 54.94 29.81 54.95 32.03 56.23"/><polygon class="cls-2" points="33.62 57.14 33.61 57.15 33.61 57.14 33.62 57.14"/><polygon class="cls-3" points="29.8 59.35 29.8 59.35 29.8 59.35 29.8 59.35"/><rect class="cls-3" x="33.61" y="57.15" height="0.02"/><polygon class="cls-2" points="29.82 50.55 29.8 50.56 29.78 50.55 29.79 50.54 29.8 50.54 29.8 50.54 29.82 50.55"/><polygon class="cls-3" points="29.8 59.35 29.8 59.35 29.8 59.35 29.8 59.35"/><polygon class="cls-3" points="32.03 56.23 29.81 54.95 29.8 54.96 29.8 54.94 31.17 54.15 29.8 54.94 29.81 54.95 32.03 56.23"/><rect class="cls-3" x="33.61" y="52.76" height="4.4"/><polygon class="cls-4" points="29.8 54.94 29.8 54.96 29.79 54.95 29.8 54.94"/><rect class="cls-2" x="29.8" y="50.54" width="0.01" height="0.01" transform="translate(-23.03 25.02) rotate(-33.69)"/><polygon class="cls-2" points="29.81 46.15 29.8 46.15 29.79 46.15 29.79 46.14 29.8 46.14 29.8 46.14 29.81 46.14 29.81 46.15"/><polygon class="cls-3" points="29.82 50.55 29.8 50.56 29.8 50.55 29.8 50.54 29.82 50.55"/><polygon class="cls-3" points="29.8 54.94 29.81 54.95 29.81 54.95 29.8 54.96 29.8 54.94 31.17 54.15 29.8 54.94"/><rect class="cls-3" x="33.61" y="52.73"/><polygon class="cls-4" points="29.8 50.55 29.8 50.56 29.78 50.55 29.79 50.54 29.8 50.55"/><polygon class="cls-4" points="29.8 54.94 29.8 54.96 29.79 54.95 29.8 54.94"/><polygon class="cls-3" points="41.26 30.73 41.25 30.73 41.24 30.73 41.24 30.72 41.25 30.72 41.26 30.73"/><polygon class="cls-4" points="41.24 30.72 41.24 30.73 41.23 30.73 41.23 30.72 41.24 30.72"/><polygon class="cls-3" points="45.06 15.3 45.06 15.31 45.05 15.3 45.06 15.3"/><polygon class="cls-3" points="41.25 39.53 41.24 39.53 41.24 39.53 41.25 39.53"/><polygon class="cls-3" points="41.27 43.95 41.24 43.97 41.24 43.93 41.25 43.94 41.27 43.95"/><polygon class="cls-3" points="41.26 35.13 41.25 35.14 41.24 35.14 41.24 35.12 41.25 35.13 41.26 35.13"/><polygon class="cls-3" points="41.26 30.73 41.25 30.73 41.24 30.73 41.24 30.72 41.25 30.72 41.26 30.73"/><polygon class="cls-3" points="45.06 32.92 45.06 32.93 45.05 32.93 45.04 32.93 45.06 32.92"/><polygon class="cls-3" points="45.06 37.33 45.06 37.33 45.05 37.33 45.06 37.33"/><rect class="cls-3" x="45.05" y="41.73" width="0.01" height="0.01"/><polygon class="cls-7" points="25.98 39.52 25.98 43.93 22.17 41.73 22.17 41.72 18.36 39.53 22.17 37.32 25.98 39.52"/><polygon class="cls-2" points="26 39.54 25.99 39.54 25.98 39.55 25.98 43.93 25.98 43.93 25.98 39.52 25.98 39.52 25.98 39.53 26 39.54"/><polygon class="cls-3" points="26.01 43.94 25.99 43.95 25.99 43.95 25.99 43.93 26.01 43.94"/><polygon class="cls-3" points="29.8 41.73 29.8 41.74 29.79 41.73 29.8 41.73"/><rect class="cls-2" x="29.8" y="46.14" width="0.01" height="0.01" transform="translate(-20.59 24.28) rotate(-33.69)"/><polygon class="cls-2" points="33.62 43.95 33.61 43.95 33.61 43.94 33.62 43.95"/><polygon class="cls-3" points="29.82 50.55 29.8 50.56 29.8 50.54 29.8 50.54 29.82 50.55"/><polygon class="cls-3" points="29.81 46.15 29.8 46.15 29.8 46.15 29.8 46.14 29.81 46.14 29.81 46.15"/><rect class="cls-3" x="33.61" y="43.95"/><rect class="cls-4" x="29.79" y="46.15" width="0.01"/><polygon class="cls-4" points="29.8 50.54 29.8 50.56 29.78 50.55 29.79 50.54 29.8 50.54"/><polygon class="cls-2" points="29.81 37.32 29.8 37.33 29.79 37.32 29.79 37.32 29.8 37.31 29.81 37.32 29.81 37.32"/><polygon class="cls-3" points="29.81 41.74 29.8 41.74 29.8 41.73 29.8 41.74 29.81 41.74"/><polygon class="cls-3" points="33.62 39.52 33.62 39.54 33.61 39.53 33.6 39.53 33.62 39.52"/><rect class="cls-3" x="33.61" y="39.54" height="4.39"/><polygon class="cls-4" points="26 39.53 26 39.54 25.99 39.54 25.99 39.55 25.99 39.52 26 39.53"/><polygon class="cls-4" points="29.8 41.73 29.8 41.74 29.79 41.73 29.8 41.73"/><rect class="cls-2" x="29.8" y="32.93" width="0.01" height="0.01" transform="translate(-13.25 22) rotate(-33.61)"/><polygon class="cls-2" points="29.81 37.32 29.8 37.33 29.79 37.32 29.79 37.32 29.8 37.31 29.81 37.32 29.81 37.32"/><polygon class="cls-3" points="29.81 41.74 29.8 41.74 29.8 41.73 29.8 41.74 29.81 41.74"/><polygon class="cls-3" points="33.62 39.52 33.62 39.54 33.61 39.53 33.6 39.53 33.62 39.52"/><polygon class="cls-4" points="26 39.53 26 39.54 25.99 39.54 25.99 39.54 25.99 39.52 26 39.53"/><polygon class="cls-4" points="29.8 41.73 29.8 41.74 29.79 41.73 29.8 41.73"/><polygon class="cls-6" points="41.24 48.34 41.23 48.34 41.24 48.35 41.24 52.74 37.43 50.55 37.43 46.15 37.43 46.15 37.44 46.15 41.22 43.96 41.24 43.97 41.24 48.34"/><path class="cls-5" d="M52.69,19.71V32.94l-3.82,2.2h0l-3.8,2.2h0v-4.4h0V19.72h0l-3.81-2.2v13.2h0v4.39h0v4.39h0l-3.33,1.92,0,0-.43.25h0l-3.81,2.2v0h0V39.55h0V35.13h0V30.71h0V26.32l-3.8,2.2h0v4.41h0v4.39h0v4.4h0v4.4h0v4.39h0v4.38l1.37-.79-1.37.79h0L32,56.23,29.81,55h0v4.39h0v4.41l3.81-2.2h0l3.8-2.19h0l3.81-2.2h0L45.06,55V41.74h0l3.8-2.19h0l3.82-2.2V50.54l3.81-2.21V17.51ZM33.61,57.14v0h0v-4.4h0v0h0v-4.4l3.81-2.19h0L41.21,44h.06l0,0v4.37h0v4.4L37.43,55"/><polygon class="cls-2" points="29.81 28.52 29.8 28.52 29.79 28.52 29.8 28.51 29.81 28.52"/><polygon class="cls-2" points="33.62 30.71 33.61 30.71 33.61 30.71 33.62 30.71"/><polygon class="cls-3" points="29.8 32.93 29.8 32.93 29.8 32.93 29.8 32.93"/><polygon class="cls-3" points="29.81 37.32 29.8 37.33 29.8 37.31 29.81 37.32"/><polygon class="cls-4" points="26 30.73 25.99 30.73 25.99 30.73 25.99 30.72 26 30.73"/><polygon class="cls-4" points="29.8 32.93 29.8 32.93 29.79 32.93 29.8 32.93"/><polygon class="cls-4" points="29.8 37.31 29.8 37.33 29.79 37.32 29.8 37.31"/></svg>