<?xml version="1.0" encoding="utf-8"?>
<!-- Generator: Adobe Illustrator 24.3.0, SVG Export Plug-In . SVG Version: 6.00 Build 0)  -->
<svg version="1.1" id="Layer_1" xmlns="http://www.w3.org/2000/svg" xmlns:xlink="http://www.w3.org/1999/xlink" x="0px" y="0px"
	 viewBox="0 0 110.7 65.9" style="enable-background:new 0 0 110.7 65.9;" xml:space="preserve">
<style type="text/css">
	.st0{fill:#FFFFFF;}
</style>
<g>
	<path class="st0" d="M2.6,15.5l0.9-0.2c0.3-0.1,0.5-0.2,0.6-0.5L8.9,2.3h1.6l4.7,12.6c0.1,0.2,0.3,0.5,0.6,0.6l0.6,0.1v0.8h-6.2
		v-0.8l1.1-0.2c0.4,0,0.5-0.2,0.4-0.6l-0.9-2.2H6.4l-0.8,2.3c-0.1,0.3,0,0.4,0.3,0.5L7,15.5v0.8H2.6V15.5z M10.5,11.6l-2-5.3
		l-1.8,5.3H10.5z"/>
	<path class="st0" d="M19,12.9V8.1c0-0.5-0.1-0.7-0.8-0.9l-0.4-0.1V6.5l3.7-0.8h0.7c0,0.6-0.2,1.9-0.2,3.1v3.7
		c0,1.1,0.1,2.6,1.6,2.6c0.8,0,1.6-0.7,1.9-1.3V8.4c0-0.8-0.1-0.9-0.8-1.2L24.2,7V6.5l3.9-0.8h0.7c-0.1,0.9-0.2,2.2-0.2,3.2v5.9
		c0,0.3,0.1,0.3,0.6,0.6l0.8,0.3v0.6l-4.4,0.4v-2.2c-0.6,1.4-1.6,2.2-3.3,2.2C19.9,16.6,19,15,19,12.9z"/>
	<path class="st0" d="M33.4,13.7V7.3h-1.1v-1c0.4-0.1,1-0.4,1.5-0.7c0.5-0.4,1.2-1.8,1.4-2.3h1.2v3H39v1h-2.6V13
		c0,1.4,0.4,2.1,1.6,2.1c0.5,0,1.1-0.2,1.4-0.5l0.2,0.3c-0.6,1-1.6,1.8-3.2,1.8C34.3,16.6,33.4,15.4,33.4,13.7z"/>
	<path class="st0" d="M41.7,15.7l0.5-0.2c0.6-0.2,0.7-0.2,0.7-0.5V3.2c0-0.4-0.1-0.6-0.6-0.8l-0.7-0.3V1.4l3.9-0.8h0.7
		C46.1,1.2,46,2.8,46,4v3.9c0.7-1.4,1.8-2.2,3.4-2.2c2.1,0,3.3,1.6,3.3,3.7V15c0,0.3,0.1,0.3,0.7,0.5l0.5,0.2v0.7h-5.5v-0.7l0.5-0.2
		c0.6-0.2,0.7-0.2,0.7-0.5V9.8c0-1.2-0.3-2.5-1.7-2.5c-1,0-1.7,0.7-2,1.3V15c0,0.3,0.1,0.3,0.7,0.5l0.5,0.2v0.7h-5.5L41.7,15.7
		L41.7,15.7z"/>
	<path class="st0" d="M56,11.3c0-3.4,2.2-5.6,5.1-5.6c2.2,0,4.2,1.1,4.2,3.5c0,0.4-0.1,1-0.2,1.4L59,10.4c0,0.1,0,0.2,0,0.4
		c0.1,2.3,1.2,3.9,3.3,3.9c1.2,0,2-0.4,2.7-1.1l0.2,0.2c-0.7,1.4-1.9,2.8-4.3,2.8C57.9,16.6,56,14.6,56,11.3z M62.4,9.4
		c0.1-0.3,0.1-0.6,0.1-1c0-1.3-0.5-1.9-1.4-1.9c-1.2,0-1.9,1.3-2.1,3.1L62.4,9.4z"/>
	<path class="st0" d="M68,15.7l0.5-0.2c0.6-0.2,0.7-0.2,0.7-0.5V8.2c0-0.5-0.2-0.6-0.8-1L68,7.1V6.5l3.6-0.8h0.7v2.2
		c0.6-1.2,1.6-2.2,3.4-2.2c2.2,0,3.3,1.6,3.3,3.7V15c0,0.3,0.1,0.3,0.7,0.5l0.5,0.2v0.7h-5.5v-0.7l0.5-0.2c0.6-0.2,0.7-0.2,0.7-0.5
		V9.8c0-1.2-0.2-2.5-1.7-2.5c-1,0-1.7,0.7-2,1.3V15c0,0.3,0.1,0.3,0.7,0.5l0.5,0.2v0.7H68V15.7z"/>
	<path class="st0" d="M83.8,13.7V7.3h-1.1v-1c0.4-0.1,1-0.4,1.5-0.7c0.5-0.4,1.2-1.8,1.4-2.3h1.2v3h2.6v1h-2.6V13
		c0,1.4,0.4,2.1,1.6,2.1c0.5,0,1.1-0.2,1.4-0.5l0.2,0.3c-0.6,1-1.6,1.8-3.2,1.8C84.7,16.6,83.8,15.4,83.8,13.7z"/>
	<path class="st0" d="M92.2,15.7l0.5-0.2c0.6-0.2,0.7-0.2,0.7-0.5V8.2c0-0.5-0.2-0.6-0.8-1L92.2,7V6.5l3.6-0.8h0.7V15
		c0,0.3,0.1,0.3,0.7,0.5l0.5,0.2v0.7h-5.5L92.2,15.7L92.2,15.7z M93.2,2c0-0.9,0.8-1.6,1.8-1.6s1.7,0.7,1.7,1.6S95.9,3.6,95,3.6
		C94.1,3.5,93.2,2.8,93.2,2z"/>
	<path class="st0" d="M100.5,11.2c0-3.3,2.2-5.5,5.3-5.5c1.1,0,2.1,0.4,2.7,1c0.4,0.4,1,1.1,1,1.8c0,0.9-0.6,1.5-1.4,1.5
		s-1.4-0.6-1.4-1.4c0-0.3,0.1-0.7,0.3-1l0.3-0.4c-0.2-0.3-0.7-0.6-1.3-0.6c-1.5,0-2.4,1.6-2.4,4.2c0,2.3,1.2,4,3.2,4
		c1,0,1.6-0.3,2.3-1l0.2,0.2c-0.7,1.6-2,2.7-4.1,2.7C102.3,16.6,100.5,14.4,100.5,11.2z"/>
	<path class="st0" d="M3.6,37.6l1-0.3c0.5-0.2,0.6-0.1,0.6-0.4V26.1c0-0.3-0.1-0.3-0.6-0.4l-1.1-0.3v-0.8h7.2c3,0,4.7,1.1,4.7,3.4
		c0,1.6-1.6,2.9-3.1,3.2c2.1,0.3,3.7,1.5,3.7,3.3c0,2.8-2.7,3.9-5,3.9H3.6V37.6z M9.6,30.9c2.1,0,2.8-1.2,2.8-2.9
		c0-1.9-1-2.6-2.6-2.6H9.6c-0.5,0-0.8,0-1.1,0.2v5.3C8.5,30.9,9.6,30.9,9.6,30.9z M10,37.6c2.1,0,2.8-1.3,2.8-3.1s-1.3-2.8-3.4-2.8
		H8.5v5.7c0.3,0.1,0.8,0.2,1.2,0.2C9.7,37.6,10,37.6,10,37.6z"/>
	<path class="st0" d="M18.9,35.9c0-2,2.2-2.7,4-3.2l1.8-0.4v-1.2c0-1.9-0.9-2.4-2-2.4c-0.4,0-0.9,0.2-1.2,0.4l0.2,0.4
		c0.2,0.3,0.3,0.8,0.3,1.1c0,0.8-0.4,1.4-1.4,1.4c-0.8,0-1.2-0.6-1.2-1.4c0-0.7,0.8-1.5,1.4-1.8l0.6-0.4C22,28,23,27.7,24,27.7
		c2.1,0,3.8,0.9,3.8,3.2v4.7c0,0.8,0,1.2,0.2,1.7c0.4,0.2,1,0.2,1.4,0.2V38c-0.6,0.4-2,0.6-2.4,0.6c-1.3,0-1.8-0.6-2.1-1.6
		c-0.5,0.7-1.4,1.6-2.8,1.6C20,38.6,18.9,37.7,18.9,35.9z M24.6,36.4v-3.2l-0.9,0.2c-1,0.3-2.2,0.8-2.2,2.2c0,1,0.5,1.6,1.4,1.6
		S24.3,36.7,24.6,36.4z"/>
	<path class="st0" d="M31.3,37.7l0.5-0.2c0.6-0.2,0.7-0.2,0.7-0.5V25.2c0-0.4-0.1-0.6-0.6-0.8l-0.7-0.3v-0.6l3.9-0.8h0.7
		c-0.1,0.5-0.2,2.1-0.2,3.3v11c0,0.3,0.1,0.3,0.7,0.5l0.5,0.2v0.7h-5.5V37.7z"/>
	<path class="st0" d="M39.5,37.7l0.5-0.2c0.6-0.2,0.7-0.2,0.7-0.5V25.2c0-0.4-0.1-0.6-0.6-0.8l-0.7-0.3v-0.6l3.9-0.8H44
		c-0.1,0.5-0.2,2.1-0.2,3.3v10.9c0,0.4,0.1,0.4,0.6,0.6l0.4,0.1v0.7h-5.3C39.5,38.3,39.5,37.7,39.5,37.7z M46.1,36.3l-1.6-2.8
		c-0.1-0.1-0.3-0.4-0.4-0.5s-0.2-0.2-0.3-0.2v-0.2c0.4-0.1,0.7-0.3,1.1-0.5l2.3-2.3c0.3-0.3,0.2-0.5-0.3-0.6L46,28.8v-0.6h4.8v0.6
		L50.1,29c-0.4,0.1-0.9,0.5-1.1,0.6l-2.4,1.9l2,3.4c0.9,1.6,1.5,2.1,2.1,2.6l0.6,0.2v0.6h-3.7C47.3,38,46.7,37.3,46.1,36.3z"/>
	<path class="st0" d="M52.9,35.9c0-2,2.2-2.7,4-3.2l1.8-0.4v-1.2c0-1.9-0.9-2.4-2-2.4c-0.4,0-0.9,0.2-1.2,0.4l0.2,0.4
		c0.2,0.3,0.3,0.8,0.3,1.1c0,0.8-0.4,1.4-1.4,1.4c-0.8,0-1.2-0.6-1.2-1.4c0-0.7,0.8-1.5,1.4-1.8l0.6-0.4C56,28,57,27.7,58,27.7
		c2.1,0,3.8,0.9,3.8,3.2v4.7c0,0.8,0,1.2,0.2,1.7c0.4,0.2,1,0.2,1.4,0.2V38c-0.6,0.4-2,0.6-2.4,0.6c-1.3,0-1.8-0.6-2.1-1.6
		c-0.5,0.7-1.4,1.6-2.8,1.6C54,38.6,52.9,37.7,52.9,35.9z M58.7,36.4v-3.2l-0.9,0.2c-1,0.3-2.2,0.8-2.2,2.2c0,1,0.5,1.6,1.4,1.6
		C57.8,37.2,58.4,36.7,58.7,36.4z"/>
	<path class="st0" d="M65.5,37.7l0.5-0.2c0.6-0.2,0.7-0.2,0.7-0.5v-6.8c0-0.5-0.2-0.6-0.8-1L65.5,29v-0.6l3.6-0.8h0.7v2.2
		c0.6-1.2,1.6-2.2,3.4-2.2c2.2,0,3.3,1.6,3.3,3.7V37c0,0.3,0.1,0.3,0.7,0.5l0.5,0.2v0.7h-5.5v-0.7l0.5-0.2c0.6-0.2,0.7-0.2,0.7-0.5
		v-5.3c0-1.2-0.2-2.5-1.7-2.5c-1,0-1.7,0.7-2,1.3V37c0,0.3,0.1,0.3,0.7,0.5l0.5,0.2v0.7h-5.5v-0.7H65.5z"/>
	<path class="st0" d="M3.6,59.6l1-0.3c0.5-0.2,0.6-0.1,0.6-0.4V48.1c0-0.3-0.1-0.4-0.6-0.5l-1.1-0.3v-0.7h6.9c4.3,0,7.6,2.5,7.6,6.8
		c0,3.6-2.6,7-7,7H3.6V59.6z M10.4,59.6c2.6,0,4.3-2.2,4.3-6.2c0-2.8-1-6.2-4.5-6.2H9.9c-0.4,0-1,0.1-1.4,0.3v11.8
		c0.4,0.1,1,0.2,1.7,0.2h0.2V59.6z"/>
	<path class="st0" d="M20.5,59.7l0.5-0.2c0.6-0.2,0.7-0.2,0.7-0.5v-6.8c0-0.5-0.2-0.6-0.8-1L20.5,51v-0.6l3.6-0.8h0.7v2.3
		c0.4-1.1,1.5-2.3,2.5-2.3c0.6,0,1.2,0.2,1.2,1.4c0,1-0.9,1.9-0.9,1.9c-0.4-0.6-0.8-0.8-1.5-0.8c-0.6,0-1.1,0.2-1.3,0.5v6.2
		c0,0.3,0,0.4,0.6,0.6l1.3,0.3v0.7h-6.2C20.5,60.4,20.5,59.7,20.5,59.7z"/>
	<path class="st0" d="M29.7,64c0-0.7,0.4-1.3,1.3-1.3c0.8,0,1.5,0.5,1.1,2c0.6,0,1.3-0.6,1.9-2.1l0.5-1l-3.9-9.9
		c-0.1-0.3-0.2-0.6-0.5-0.6L29.7,51v-0.6h5.2V51h-0.7c-0.5,0.2-0.5,0.3-0.4,0.6l2.1,5.6l1.9-5.5c0.2-0.5,0-0.5-0.6-0.7l-0.8-0.2
		v-0.6H40v0.6L39.6,51c-0.3,0.1-0.4,0.2-0.6,0.8l-3.8,10.4c-0.7,1.9-1.5,3.4-3.5,3.4C30.6,65.6,29.7,65.1,29.7,64z"/>
	<path class="st0" d="M45.1,53.3c0-4.3,3.4-7,8.2-7c2.3,0,3.2,0.4,3.8,0.7l0.4-0.6H58l0.2,4.8h-0.6c-0.3-1-0.9-2.7-1.4-3.3
		c-0.4-0.4-1.4-1-3-1c-2.6,0-4.6,2.5-4.6,6.1c0,4.1,1.8,6.8,4.3,6.8c0.8,0,1.6-0.3,2.1-0.6v-3.7c0-0.4-0.1-0.4-0.4-0.5l-1.3-0.3V54
		H59v0.8l-0.5,0.1c-0.3,0.1-0.4,0.2-0.4,0.6v3.7l0.1,0.4c-1,0.6-3.4,1-5.8,1C47.7,60.6,45.1,57.5,45.1,53.3z"/>
	<path class="st0" d="M61.7,59.7l0.5-0.2c0.6-0.2,0.7-0.2,0.7-0.5v-6.8c0-0.5-0.2-0.6-0.8-1L61.7,51v-0.6l3.6-0.8H66V59
		c0,0.3,0.1,0.3,0.7,0.5l0.5,0.2v0.7h-5.5C61.7,60.4,61.7,59.7,61.7,59.7z M62.8,46c0-0.9,0.8-1.6,1.8-1.6s1.7,0.7,1.7,1.6
		s-0.8,1.6-1.7,1.6C63.6,47.5,62.8,46.8,62.8,46z"/>
	<path class="st0" d="M69.8,59.7l0.5-0.2c0.6-0.2,0.7-0.2,0.7-0.5v-6.8c0-0.5-0.2-0.6-0.8-1L69.8,51v-0.6l3.6-0.8h0.7v2.2
		c0.6-1.2,1.6-2.2,3.4-2.2c2.2,0,3.3,1.6,3.3,3.7V59c0,0.3,0.1,0.3,0.7,0.5l0.5,0.2v0.7h-5.5v-0.7l0.5-0.2c0.6-0.2,0.7-0.2,0.7-0.5
		v-5.3c0-1.2-0.2-2.5-1.7-2.5c-1,0-1.7,0.7-2,1.3V59c0,0.3,0.1,0.3,0.7,0.5l0.5,0.2v0.7h-5.5v-0.7H69.8z"/>
</g>
</svg>
