<svg id="Layer_1" data-name="Layer 1" xmlns="http://www.w3.org/2000/svg" viewBox="0 0 246.29 67.78"><defs><style>.cls-1{fill:#fff;}</style></defs><path class="cls-1" d="M36.68.17,10.32,15.1V41.84L13,41.55a8.58,8.58,0,0,0,4.88-2.35,8.24,8.24,0,0,1,5.91-2.4,7.79,7.79,0,0,1,2.83.47v7.19H45.69V37a8.75,8.75,0,0,1,1.78-.17,8.36,8.36,0,0,1,5.91,2.4,8.4,8.4,0,0,0,5.94,2.4H62v-27Zm4.21,33.58a20.27,20.27,0,0,0-2.38,1.73c-1.24,1-1.61,1.32-2.89,1.32s-1.65-.31-2.89-1.33c-.39-.31-.82-.66-1.32-1v-7.3h9.48Zm16.29,2.33-.76-.61a13.07,13.07,0,0,0-9-3.48,14.29,14.29,0,0,0-1.78.11V22.34H26.6v9.94A13.6,13.6,0,0,0,23.77,32a12.81,12.81,0,0,0-8.65,3.24V17.9L36.67,5.7,57.18,17.43Z"/><path class="cls-1" d="M71.16,46.72v4.8c-2.11,0-3,.75-4.41,1.86a10.86,10.86,0,0,1-14.88,0c-1.39-1.11-2.3-1.86-4.41-1.86s-3,.75-4.41,1.86a10.86,10.86,0,0,1-14.88,0c-1.38-1.11-2.29-1.86-4.41-1.86s-3,.75-4.41,1.86a10.66,10.66,0,0,1-7.44,2.95,10.71,10.71,0,0,1-7.43-2.95c-1.39-1.11-2.3-1.86-4.4-1.86h0v-4.8h0a10.69,10.69,0,0,1,7.44,2.94c1.38,1.12,2.29,1.86,4.39,1.86s3-.74,4.41-1.86a10.88,10.88,0,0,1,14.88,0c1.38,1.12,2.31,1.86,4.41,1.86s3-.74,4.41-1.86a10.88,10.88,0,0,1,14.87,0c1.4,1.13,2.31,1.87,4.43,1.87s3-.74,4.41-1.87A10.69,10.69,0,0,1,71.16,46.72Z"/><path class="cls-1" d="M48.79,58.23v4.85A7.37,7.37,0,0,0,47.46,63c-2.11,0-3,.75-4.41,1.88a10.91,10.91,0,0,1-14.88,0C26.79,63.71,25.88,63,23.76,63a8.68,8.68,0,0,0-1.09.07V58.2c.35,0,.71-.05,1.09-.05a10.68,10.68,0,0,1,7.44,3C32.58,62.22,33.51,63,35.61,63s3-.74,4.41-1.86a10.72,10.72,0,0,1,7.44-3A11.19,11.19,0,0,1,48.79,58.23Z"/><path class="cls-1" d="M83.59,23.81a5.91,5.91,0,0,1,2,3.56H81.55a2.3,2.3,0,0,0-.8-1.36,2.45,2.45,0,0,0-1.57-.49,1.68,1.68,0,0,0-1.12.32,1.11,1.11,0,0,0-.38.9,1.07,1.07,0,0,0,.7,1,11.26,11.26,0,0,0,2.2.66,21,21,0,0,1,2.67.78,4.39,4.39,0,0,1,1.81,1.28,3.53,3.53,0,0,1,.76,2.39A3.66,3.66,0,0,1,85.16,35a4.38,4.38,0,0,1-1.91,1.48,8.77,8.77,0,0,1-7.55-.74,5.36,5.36,0,0,1-2.11-3.64h4.19a1.9,1.9,0,0,0,.78,1.4A2.94,2.94,0,0,0,80.3,34a1.62,1.62,0,0,0,1.12-.35,1.17,1.17,0,0,0,.38-.9,1.1,1.1,0,0,0-.7-1.06A13.09,13.09,0,0,0,78.83,31a19,19,0,0,1-2.6-.71,4.37,4.37,0,0,1-1.75-1.23,3.46,3.46,0,0,1-.74-2.33,3.79,3.79,0,0,1,1.45-3.09,6.31,6.31,0,0,1,4.09-1.18A6.54,6.54,0,0,1,83.59,23.81Z"/><path class="cls-1" d="M100.22,23.34a6,6,0,0,1,2.19,2.52,8.67,8.67,0,0,1,.8,3.88,8.67,8.67,0,0,1-.8,3.86,5.86,5.86,0,0,1-2.19,2.53,5.69,5.69,0,0,1-3.14.88,5.05,5.05,0,0,1-2.79-.74,4.32,4.32,0,0,1-1.71-2V43.6H88.24v-21h4.34v2.57a4.35,4.35,0,0,1,1.71-2,5.13,5.13,0,0,1,2.79-.73A5.77,5.77,0,0,1,100.22,23.34Zm-6.78,3.87a3.51,3.51,0,0,0-.88,2.53,3.54,3.54,0,0,0,.88,2.52,3.19,3.19,0,0,0,4.5,0,3.62,3.62,0,0,0,.85-2.54,3.61,3.61,0,0,0-.85-2.54,3.2,3.2,0,0,0-4.5,0Z"/><path class="cls-1" d="M109.82,18V36.83h-4.34V18Z"/><path class="cls-1" d="M121,23.2a4.45,4.45,0,0,1,1.73,2V22.64h4.32V36.83h-4.32V34.27a4.43,4.43,0,0,1-1.73,2,5.07,5.07,0,0,1-2.8.74,5.72,5.72,0,0,1-3.14-.88,5.91,5.91,0,0,1-2.18-2.53,8.67,8.67,0,0,1-.8-3.86,8.67,8.67,0,0,1,.8-3.88,6.06,6.06,0,0,1,2.18-2.52,5.8,5.8,0,0,1,3.14-.87A5.15,5.15,0,0,1,121,23.2Zm-3.65,4a3.56,3.56,0,0,0-.85,2.54,3.58,3.58,0,0,0,.85,2.54,3.19,3.19,0,0,0,4.5,0,3.54,3.54,0,0,0,.88-2.52,3.51,3.51,0,0,0-.88-2.53,3.2,3.2,0,0,0-4.5,0Z"/><path class="cls-1" d="M136.63,32.59l3.07-10h4.63l-5,14.19h-5.4l-5-14.19h4.63Z"/><path class="cls-1" d="M164.1,24.12a6.51,6.51,0,0,1,1.44,4.47v8.24h-4.35V29.1a3.11,3.11,0,0,0-.75-2.22,2.59,2.59,0,0,0-2-.8,2.73,2.73,0,0,0-2.1.84,3.42,3.42,0,0,0-.77,2.39v7.52h-4.35V22.64h4.35v2.6a4.66,4.66,0,0,1,1.82-2,5.33,5.33,0,0,1,2.83-.74A4.9,4.9,0,0,1,164.1,24.12Z"/><path class="cls-1" d="M176.6,23.2a4.51,4.51,0,0,1,1.73,2V22.64h4.32V36.83h-4.32V34.27a4.49,4.49,0,0,1-1.73,2,5.07,5.07,0,0,1-2.8.74,5.69,5.69,0,0,1-3.14-.88,6,6,0,0,1-2.19-2.53,8.81,8.81,0,0,1-.8-3.86,8.81,8.81,0,0,1,.8-3.88,6.15,6.15,0,0,1,2.19-2.52,5.77,5.77,0,0,1,3.14-.87A5.15,5.15,0,0,1,176.6,23.2Zm-3.65,4a3.56,3.56,0,0,0-.85,2.54,3.58,3.58,0,0,0,.85,2.54,2.94,2.94,0,0,0,2.25.92,3,3,0,0,0,2.25-.94,3.58,3.58,0,0,0,.88-2.52,3.55,3.55,0,0,0-.88-2.53,3,3,0,0,0-2.25-.93A2.94,2.94,0,0,0,173,27.2Z"/><path class="cls-1" d="M198.92,23.2a4.35,4.35,0,0,1,1.71,2V18H205V36.83h-4.35V34.27a4.32,4.32,0,0,1-1.71,2,5.05,5.05,0,0,1-2.79.74,5.69,5.69,0,0,1-3.14-.88,5.86,5.86,0,0,1-2.19-2.53,8.81,8.81,0,0,1-.8-3.86,8.81,8.81,0,0,1,.8-3.88A6,6,0,0,1,193,23.34a5.77,5.77,0,0,1,3.14-.87A5.13,5.13,0,0,1,198.92,23.2Zm-3.65,4a3.61,3.61,0,0,0-.85,2.54,3.62,3.62,0,0,0,.85,2.54,3,3,0,0,0,2.26.92,3,3,0,0,0,2.25-.94,3.57,3.57,0,0,0,.87-2.52,3.55,3.55,0,0,0-.87-2.53,3.21,3.21,0,0,0-4.51,0Z"/><path class="cls-1" d="M216.16,23.2a4.45,4.45,0,0,1,1.73,2V22.64h4.33V36.83h-4.33V34.27a4.43,4.43,0,0,1-1.73,2,5.05,5.05,0,0,1-2.79.74,5.69,5.69,0,0,1-3.14-.88A5.86,5.86,0,0,1,208,33.6a8.81,8.81,0,0,1-.8-3.86,8.81,8.81,0,0,1,.8-3.88,6,6,0,0,1,2.19-2.52,5.77,5.77,0,0,1,3.14-.87A5.13,5.13,0,0,1,216.16,23.2Zm-3.64,4a3.57,3.57,0,0,0-.86,2.54,3.58,3.58,0,0,0,.86,2.54,2.91,2.91,0,0,0,2.25.92,3,3,0,0,0,2.25-.94,3.57,3.57,0,0,0,.87-2.52,3.55,3.55,0,0,0-.87-2.53,3,3,0,0,0-2.25-.93A2.91,2.91,0,0,0,212.52,27.2Z"/><path class="cls-1" d="M238.1,24.12a6.56,6.56,0,0,1,1.43,4.47v8.24h-4.34V29.1a3.15,3.15,0,0,0-.75-2.22,2.61,2.61,0,0,0-2-.8,2.73,2.73,0,0,0-2.1.84,3.37,3.37,0,0,0-.78,2.39v7.52h-4.34V22.64h4.34v2.6a4.72,4.72,0,0,1,1.82-2,5.37,5.37,0,0,1,2.84-.74A4.9,4.9,0,0,1,238.1,24.12Z"/><path class="cls-1" d="M246.15,32.49v4.34h-4.51V32.49Z"/><path class="cls-1" d="M244.28,3.6V8.91l-.47-.38a5.48,5.48,0,0,0-7.9,0,9.56,9.56,0,0,1-6.66,2.63,9.52,9.52,0,0,1-6.66-2.63,5.5,5.5,0,0,0-7.91,0l-.27.22V3.51a8.94,8.94,0,0,1,4.21-1,9.64,9.64,0,0,1,6.68,2.63,5.34,5.34,0,0,0,3.95,1.67,5.39,5.39,0,0,0,3.95-1.67,9.56,9.56,0,0,1,6.65-2.63A9.07,9.07,0,0,1,244.28,3.6Z"/></svg>