<svg id="Layer_1" data-name="Layer 1" xmlns="http://www.w3.org/2000/svg" viewBox="0 0 157.7 149.77"><defs><style>.cls-1{fill:#d7c18e;}.cls-2{fill:#fff;}</style></defs><rect class="cls-1" x="0.07" y="-0.06" width="158.27" height="149.76"/><path d="M140.31,98.38c-1.16,1.52-2.32,3.08-3.45,4.68-1.13-1.6-2.3-3.16-3.47-4.68-4.53-5.92-9.06-11-11.68-14-1.08-1.22-2-2.24-2.6-3l4.21-3.55c.61.72,1.47,1.7,2.52,2.89,2.13,2.42,4.91,5.57,7.88,9.17,1,1.25,2.08,2.55,3.13,3.9l1.32,1.7C138.89,96.44,139.61,97.4,140.31,98.38Z"/><path d="M152.16,131.64a13.74,13.74,0,0,1-6.6,7.42,18,18,0,0,1-17.41,0,13.72,13.72,0,0,1-6.59-7.42c-3.28-9.17,3.72-22.12,11.83-33.26,1.17,1.52,2.34,3.08,3.47,4.68-6.8,9.57-12.48,20.15-10.12,26.73a8.85,8.85,0,0,0,4.88,4.92,12,12,0,0,0,10.48,0,8.86,8.86,0,0,0,4.87-4.92c2.36-6.58-3.32-17.16-10.11-26.73,1.13-1.6,2.29-3.16,3.45-4.68C148.43,109.52,155.44,122.48,152.16,131.64Z"/><path d="M154.6,81.39c-.63.74-1.52,1.75-2.6,3-2.61,3-7.14,8.1-11.69,14-1.16,1.52-2.32,3.08-3.45,4.68-1.13-1.6-2.3-3.16-3.47-4.68.71-1,1.43-1.94,2.15-2.88l1.31-1.7c.8-1,1.59-2,2.37-3,3.25-4,6.33-7.48,8.65-10.11,1-1.19,1.91-2.17,2.52-2.89Z"/><rect x="133.72" y="79.53" width="5.5" height="15.98"/><path d="M136.84,75.78a8.2,8.2,0,0,1-7.55-4.58c-2.92-5.54-1.35-14.94,3.74-22.35a25.56,25.56,0,0,1,24.66-11.36L157.05,43c-10.71-1.25-16.8,5.11-19.49,9-4.25,6.2-5.08,13.48-3.4,16.66a2.75,2.75,0,0,0,2.68,1.65Z"/><path d="M136.62,75.78v-5.5a2.76,2.76,0,0,0,2.68-1.65c1.68-3.18.85-10.46-3.41-16.66-2.68-3.91-8.77-10.28-19.48-9l-.64-5.46a25.57,25.57,0,0,1,24.66,11.36c5.08,7.41,6.66,16.81,3.74,22.35A8.22,8.22,0,0,1,136.62,75.78Z"/><path d="M116.48,42.74a8.23,8.23,0,0,1-7.36-4,6.36,6.36,0,0,1,0-6.64c.87-1.34,3-3.52,8-3l1.16.12c5.82.58,13.79,1.38,14.71-.9v0a10.7,10.7,0,0,0-1.66-1.44c-2.19-1.67-5.49-4.21-5.25-9.2a9,9,0,0,1,3-6.83,8.13,8.13,0,0,1,6.06-1.66l-.79,5.44a2.7,2.7,0,0,0-1.81.5,4.1,4.1,0,0,0-1,2.82c-.1,2,1.06,3,3.1,4.57,1.88,1.44,5,3.85,3.4,7.88-2.46,6.12-11.16,5.25-20.36,4.32l-1.15-.11c-1.82-.18-2.63.27-2.81.54a1,1,0,0,0,.12.91,2.9,2.9,0,0,0,2.83,1.2l.25,5.5Z"/><path class="cls-2" d="M12.26,28.88V8.78H10.42V30.63h14.1V28.88Z"/><path class="cls-2" d="M43.94,8.78V22.11c0,4.31-2.66,7.15-6.68,7.15s-6.68-2.84-6.68-7.15V8.78H28.71V22.11c0,5.31,3.46,8.9,8.55,8.9s8.52-3.59,8.52-8.9V8.78Z"/><path class="cls-2" d="M73.86,8.78,64.75,22.92,55.64,8.78h-2V30.63h1.84V13.84c0-.78,0-1.31-.06-1.81l.06,0c.28.41.94,1.34,1.44,2.12l7.39,11.39h.85l7.39-11.42L74,11.84l.06,0c0,.5-.06,1-.06,1.82V30.63h1.84V8.78Z"/><path class="cls-2" d="M17.22,59.77c-4.46-.93-6-2-6-4.27,0-2.56,2.46-4.09,5.71-4.09a10.32,10.32,0,0,1,5.74,1.65l1-1.4a11.68,11.68,0,0,0-6.74-2c-4.31,0-7.55,2.28-7.55,5.87,0,3.24,2,4.87,7.3,5.93,4.87,1,6.15,2.24,6.15,4.68,0,2.81-2.5,4.4-6,4.4a12.33,12.33,0,0,1-7.15-2.4L8.73,69.6a13.39,13.39,0,0,0,8.05,2.69c4.69,0,7.93-2.28,7.93-6.18C24.71,62.71,22.87,61,17.22,59.77Z"/><path class="cls-2" d="M46.65,50.07v9.8H32.82v-9.8H31V71.91h1.84V61.61H46.65v10.3h1.84V50.07Z"/><path class="cls-2" d="M56.67,50.07V71.91h1.84V50.07Z"/><path class="cls-2" d="M17.22,87.48c-4.46-.94-6-2-6-4.28,0-2.56,2.46-4.09,5.71-4.09a10.32,10.32,0,0,1,5.74,1.65l1-1.4a11.68,11.68,0,0,0-6.74-2c-4.31,0-7.55,2.28-7.55,5.87,0,3.25,2,4.87,7.3,5.93,4.87,1,6.15,2.25,6.15,4.68,0,2.81-2.5,4.4-6,4.4a12.33,12.33,0,0,1-7.15-2.4l-.94,1.47A13.45,13.45,0,0,0,16.78,100c4.69,0,7.93-2.28,7.93-6.18C24.71,90.41,22.87,88.66,17.22,87.48Z"/><path class="cls-2" d="M46.65,77.77v9.8H32.82v-9.8H31V99.62h1.84V89.32H46.65v10.3h1.84V77.77Z"/><path class="cls-2" d="M66.09,77.77H64l-9.8,21.85h2l2.37-5.31H71.49l2.37,5.31h2ZM59.32,92.59l3.09-7c1.28-2.81,2-4.37,2.59-5.93h.06c.63,1.56,1.28,3,2.53,5.87l3.12,7.11Z"/><path class="cls-2" d="M22.59,129.56v-.06A5,5,0,0,0,26,124.66c0-3.43-2.56-5.71-6.4-5.71H10.42V140.8h9.14c4.5,0,7.15-2.19,7.15-5.93A5.38,5.38,0,0,0,22.59,129.56Zm-10.33-8.89h7.33c2.72,0,4.5,1.59,4.5,4.09s-1.75,4-4.78,4h-7Zm7.43,18.38H12.26v-8.58h7.18c3.34,0,5.4,1.65,5.4,4.27S22.9,139.05,19.69,139.05Z"/><path class="cls-2" d="M42.25,119H40.13l-9.8,21.85h2l2.37-5.31H47.65L50,140.8h2Zm-6.77,14.83,3.09-7.06c1.28-2.81,2-4.37,2.59-5.93h.06c.62,1.56,1.28,3,2.53,5.87l3.12,7.12Z"/><path class="cls-2" d="M66.84,132.62c4.09-.25,6.71-3,6.71-6.86,0-4.09-2.87-6.81-7.21-6.81H57.73V140.8H59.6v-8.18h4.87l7.46,8.18h2.4Zm-7.24-1.75V120.73h6.68c3.34,0,5.4,2,5.4,5.09s-2.06,5.05-5.37,5.05Z"/></svg>