<svg id="Layer_1" data-name="Layer 1" xmlns="http://www.w3.org/2000/svg" viewBox="0 0 85.52 85.52"><defs><style>.cls-1{fill:#fff;}.cls-2{fill:#6392d6;}</style></defs><circle class="cls-1" cx="42.76" cy="42.76" r="42.76"/><path class="cls-2" d="M43.55,17.74,24,28.79v19.8l2-.22a6.34,6.34,0,0,0,3.62-1.74A6.11,6.11,0,0,1,34,44.86a6,6,0,0,1,2.09.34v5.33H50.22V45a7.37,7.37,0,0,1,1.31-.11,6.21,6.21,0,0,1,4.38,1.77,6.17,6.17,0,0,0,4.39,1.78h2v-20ZM46.66,42.6a13.45,13.45,0,0,0-1.76,1.28c-.92.75-1.19,1-2.14,1s-1.22-.23-2.14-1c-.29-.23-.61-.49-1-.75V37.71h7Zm12.06,1.72-.56-.45a9.7,9.7,0,0,0-6.63-2.58,9.09,9.09,0,0,0-1.31.09V34.15H36.08v7.36a9.82,9.82,0,0,0-8.5,2.18V30.86l16-9,15.18,8.69Z"/><path class="cls-2" d="M69.08,52.2v3.56a4.52,4.52,0,0,0-3.27,1.37,8.05,8.05,0,0,1-11,0,4.58,4.58,0,0,0-6.53,0,8,8,0,0,1-11,0,4.58,4.58,0,0,0-6.53,0,8,8,0,0,1-11,0,4.51,4.51,0,0,0-3.26-1.37h0V52.2h0A7.9,7.9,0,0,1,22,54.38a4.54,4.54,0,0,0,6.52,0,8,8,0,0,1,11,0,4.55,4.55,0,0,0,6.53,0,8.05,8.05,0,0,1,11,0,4.53,4.53,0,0,0,3.28,1.39,4.49,4.49,0,0,0,3.26-1.39A7.92,7.92,0,0,1,69.08,52.2Z"/><path class="cls-2" d="M52.51,60.72v3.59a5.55,5.55,0,0,0-1-.09,4.51,4.51,0,0,0-3.27,1.39,8.07,8.07,0,0,1-11,0A4.48,4.48,0,0,0,34,64.22a5,5,0,0,0-.81.06V60.7q.39,0,.81,0a7.9,7.9,0,0,1,5.51,2.18,4.58,4.58,0,0,0,6.53,0,7.94,7.94,0,0,1,5.51-2.18A7.74,7.74,0,0,1,52.51,60.72Z"/></svg>