<svg id="Layer_1" data-name="Layer 1" xmlns="http://www.w3.org/2000/svg" viewBox="0 0 49.16 40.95"><path d="M3.73,23.79A3.74,3.74,0,0,1,0,20.06H2.31a1.42,1.42,0,0,0,2.84,0H7.46A3.74,3.74,0,0,1,3.73,23.79Z"/><path d="M8.59,33.88a2.72,2.72,0,0,1-2.71-2.71H8.19a.4.4,0,0,0,.8,0h2.32A2.72,2.72,0,0,1,8.59,33.88Z"/><path d="M49.16,15l-1.53,1.73A12.41,12.41,0,0,0,40.89,14c-2-.12-4.13,1.26-6.33,2.71a17.71,17.71,0,0,1-6.08,3,12.6,12.6,0,0,1-7-.72c-1-.31-2-.64-3.33-1C17.81,23.55,16.29,41,8.74,41V38.64c4.51,0,6.68-12.47,7.07-21a4.53,4.53,0,0,0-3.46.62,3,3,0,0,0-1,2v7.37H9V20.18a5.46,5.46,0,0,1,1.88-3.7c1.37-1.11,3.29-1.47,5.7-1.06a38.45,38.45,0,0,1,5.56,1.4c2.2.7,3.53,1.12,5.92.66a15.8,15.8,0,0,0,5.23-2.66c2.42-1.6,4.93-3.25,7.75-3.08A14.52,14.52,0,0,1,49.16,15Z"/><path d="M11.3,14.43,9,14.33a5.44,5.44,0,0,1,1.88-3.7c1.37-1.12,3.29-1.47,5.7-1.06A38.8,38.8,0,0,1,22.13,11c2.2.7,3.53,1.12,5.92.65A16,16,0,0,0,33.28,9C35.7,7.37,38.21,5.72,41,5.88A14.6,14.6,0,0,1,49.16,9.1l-1.54,1.73a12.34,12.34,0,0,0-6.73-2.64c-2-.12-4.13,1.25-6.34,2.71a17.58,17.58,0,0,1-6.07,3,12.51,12.51,0,0,1-7-.73,35.71,35.71,0,0,0-5.25-1.32,4.71,4.71,0,0,0-3.83.56A3.16,3.16,0,0,0,11.3,14.43Z"/><path d="M11.3,8.56,9,8.46a5.44,5.44,0,0,1,1.88-3.7c1.37-1.12,3.29-1.48,5.7-1.07A40,40,0,0,1,22.13,5.1c2.2.69,3.53,1.11,5.92.65A16,16,0,0,0,33.28,3.1C35.7,1.5,38.21-.15,41,0a14.6,14.6,0,0,1,8.13,3.22L47.62,5a12.34,12.34,0,0,0-6.73-2.64c-2-.12-4.13,1.25-6.34,2.71a17.73,17.73,0,0,1-6.07,3,12.43,12.43,0,0,1-7-.72A36.86,36.86,0,0,0,16.18,6a4.75,4.75,0,0,0-3.83.57A3.14,3.14,0,0,0,11.3,8.56Z"/></svg>