<svg id="Layer_1" data-name="Layer 1" xmlns="http://www.w3.org/2000/svg" viewBox="0 0 86.37 84.62"><defs><style>.cls-1{fill:#fff;}</style></defs><path class="cls-1" d="M36.74,6.44C16.48-13.08-13,16.44,6.46,36.7,26.72,56.23,56.23,26.7,36.74,6.44ZM31.9,31.88c-13.55,13.38-34-7.06-20.61-20.6C24.84-2.12,45.29,18.34,31.9,31.88Z"/><path class="cls-1" d="M80.12,22.37C65.89,7.24,39.15,21.86,44,41.93,24.93,39.37,12.49,65,26.85,78.35c9.31,9.61,25.93,7.78,33-3.38C36.2,63.29,63.63,32.35,78.05,54.43,88.1,46.93,89.28,31.35,80.12,22.37ZM31.69,73.51C20.43,62.9,33.36,43.57,47.39,49.68v0a21.48,21.48,0,0,0,2,26.05A14.55,14.55,0,0,1,31.69,73.51Zm20.5-29c-11.1-27.9,36.21-28.34,25.74-.33a21.45,21.45,0,0,0-25.74.33"/></svg>