<svg id="Layer_1" data-name="Layer 1" xmlns="http://www.w3.org/2000/svg" viewBox="0 0 74.14 53.86"><defs><style>.cls-1{fill:#fed401;}.cls-2{fill:#231f20;}.cls-3{fill:#fff;}</style></defs><path class="cls-1" d="M19.37,24.42a7.09,7.09,0,0,1-.39.78c-1.6-.71-5.4-2.68-7.08-6.09a6.71,6.71,0,0,1-.4-1,6.57,6.57,0,0,1-.27-1,7.38,7.38,0,0,1-.09-2.5,5,5,0,0,1,.13-.82,10.38,10.38,0,0,1,.75-1,10.81,10.81,0,0,1,1.27-1.26A9.52,9.52,0,0,0,13,13.36a7.72,7.72,0,0,0,0,1.27,5.49,5.49,0,0,0,.11.8,6.3,6.3,0,0,0,.18.84,8,8,0,0,0,.32,1,9.46,9.46,0,0,0,.4.94h0A18.34,18.34,0,0,0,19.37,24.42Z"/><path class="cls-1" d="M21,21.16a7.9,7.9,0,0,0-.83,1.38,15.36,15.36,0,0,1-4.71-5.65,7,7,0,0,1-.37-1.21,2.56,2.56,0,0,1-.05-.27A5.59,5.59,0,0,1,15,14.5a8.51,8.51,0,0,1,.07-1.16,8.34,8.34,0,0,1,.49-2.05A6,6,0,0,1,16.2,10a2.83,2.83,0,0,1,.22-.32c.45-.19.9-.36,1.36-.51a14,14,0,0,0-.33,1.62,12.13,12.13,0,0,0-.05,3.48A11,11,0,0,0,21,21.16Z"/><path class="cls-1" d="M28.47,17.49a4.72,4.72,0,0,1-2.75,1.07l-.44.08a7.14,7.14,0,0,0-2.8,1.14,9.35,9.35,0,0,1-3.16-8.23h0A11.44,11.44,0,0,1,20,8.76a.34.34,0,0,0,0-.1h0a12.2,12.2,0,0,1,1.88-.15A9.28,9.28,0,0,1,25.1,9a6.4,6.4,0,0,1,4,4.6A4.08,4.08,0,0,1,28.47,17.49Z"/><path class="cls-2" d="M20,8.66a.69.69,0,0,1,0,.1.34.34,0,0,0,0-.1Z"/><path class="cls-2" d="M32.44,28.84a2.53,2.53,0,0,0-3.7-.24,2.65,2.65,0,0,0-.61.91V28a4.39,4.39,0,0,1-.71.16,7.22,7.22,0,0,1-.82.05c-.29,0-.6,0-.91-.05v.31a1,1,0,0,1,.88.32,1.63,1.63,0,0,1,.24,1v7.42a1,1,0,0,1-.22.73,1.22,1.22,0,0,1-.76.19v.31l.69,0c.3,0,.6,0,.91,0s.83,0,1.22,0l.9,0v-.31a2,2,0,0,1-1-.22.88.88,0,0,1-.38-.84V35.09a1.68,1.68,0,0,0,.53.49,2.11,2.11,0,0,0,1.2.33,2.89,2.89,0,0,0,1.94-.64,3.78,3.78,0,0,0,1.08-1.65,6.23,6.23,0,0,0,.35-2.06A4.1,4.1,0,0,0,32.44,28.84Zm-.82,4.84A3.07,3.07,0,0,1,31,35.05a1.86,1.86,0,0,1-2.27.24,1.94,1.94,0,0,1-.58-.67V30.24A2.71,2.71,0,0,1,28.78,29a1.8,1.8,0,0,1,1.31-.6,1.28,1.28,0,0,1,.94.37,2.28,2.28,0,0,1,.58,1.12,7.89,7.89,0,0,1,.19,1.93A9.39,9.39,0,0,1,31.62,33.68Z"/><path class="cls-2" d="M38,27.91a3.44,3.44,0,0,1,.91.12,2.41,2.41,0,0,1,.8.35,1.77,1.77,0,0,1,.51.51,1.15,1.15,0,0,1,.18.62.87.87,0,0,1-.22.62.79.79,0,0,1-.56.21.93.93,0,0,1-.57-.19.66.66,0,0,1-.24-.55.78.78,0,0,1,.18-.54.82.82,0,0,1,.44-.27,1.19,1.19,0,0,0-.53-.44,1.8,1.8,0,0,0-.8-.18,1.68,1.68,0,0,0-.74.18,1.9,1.9,0,0,0-.67.58,3,3,0,0,0-.5,1.11,6.55,6.55,0,0,0-.2,1.74,5.75,5.75,0,0,0,.3,2.06,2.3,2.3,0,0,0,.77,1.1,1.82,1.82,0,0,0,1.06.33,2.27,2.27,0,0,0,1.16-.34,2.42,2.42,0,0,0,1-1.17l.28.1a3.69,3.69,0,0,1-.48,1,2.83,2.83,0,0,1-.89.79,2.74,2.74,0,0,1-1.34.31,3,3,0,0,1-1.65-.47A3.37,3.37,0,0,1,35,34.09,4.67,4.67,0,0,1,34.6,32,4.9,4.9,0,0,1,35,29.88a3.41,3.41,0,0,1,1.22-1.45A3.1,3.1,0,0,1,38,27.91Zm2.09-4,.12.2a5.18,5.18,0,0,0-1.51,1.11,4.4,4.4,0,0,0-.95,1.43h-.27a4.4,4.4,0,0,0-.95-1.43,5.18,5.18,0,0,0-1.51-1.11l.12-.2a10.13,10.13,0,0,1,1.55.68,6.45,6.45,0,0,1,1.22.79,5.89,5.89,0,0,1,1-.79A7.29,7.29,0,0,1,40.12,23.89Z"/><path class="cls-2" d="M45.08,27.91a2.62,2.62,0,0,1,2,.79,3.53,3.53,0,0,1,.73,2.45h-5.2l0-.28h3.8a4.71,4.71,0,0,0-.12-1.33,2.18,2.18,0,0,0-.46-1,1,1,0,0,0-.82-.37,1.49,1.49,0,0,0-1.2.68A4,4,0,0,0,43.2,31l0,.06c0,.14,0,.31,0,.48s0,.36,0,.53a4.09,4.09,0,0,0,.33,1.72,2.6,2.6,0,0,0,.84,1.1,1.85,1.85,0,0,0,1.09.38A2.35,2.35,0,0,0,46.66,35a2.42,2.42,0,0,0,.94-1.15l.3.12a3.22,3.22,0,0,1-.53,1,3,3,0,0,1-.93.74,2.86,2.86,0,0,1-1.3.29,3.34,3.34,0,0,1-1.82-.49,3.13,3.13,0,0,1-1.16-1.35,4.58,4.58,0,0,1-.41-2,5.41,5.41,0,0,1,.42-2.23,3.28,3.28,0,0,1,1.16-1.44A3.05,3.05,0,0,1,45.08,27.91Z"/><path class="cls-2" d="M51.3,24.15V34.33a1.06,1.06,0,0,0,.26.84,1.29,1.29,0,0,0,.86.22v.31l-.76,0-1,0-1,0-.77,0v-.31a1.29,1.29,0,0,0,.86-.22,1.06,1.06,0,0,0,.26-.84V25.92a1.71,1.71,0,0,0-.23-1,1.05,1.05,0,0,0-.89-.32v-.31c.32,0,.62.05.92.05a7,7,0,0,0,.81-.05A4.78,4.78,0,0,0,51.3,24.15Z"/><path class="cls-2" d="M55.61,28v6.38a1.09,1.09,0,0,0,.26.84,1.31,1.31,0,0,0,.86.22v.31l-.76,0-1,0-1,0-.76,0v-.31a1.31,1.31,0,0,0,.86-.22,1.09,1.09,0,0,0,.26-.84V29.72a1.63,1.63,0,0,0-.24-1,1,1,0,0,0-.88-.32v-.31c.31,0,.62.05.91.05a7.08,7.08,0,0,0,.82-.05A4.39,4.39,0,0,0,55.61,28Zm-.76-3.52a.94.94,0,0,1,.66.28A.94.94,0,1,1,54.18,26a1,1,0,0,1,0-1.33A1,1,0,0,1,54.85,24.43Z"/><path class="cls-2" d="M61.17,27.91a3.44,3.44,0,0,1,.91.12,2.41,2.41,0,0,1,.8.35,1.77,1.77,0,0,1,.51.51,1.15,1.15,0,0,1,.18.62.87.87,0,0,1-.22.62.79.79,0,0,1-.56.21.93.93,0,0,1-.57-.19A.66.66,0,0,1,62,29.6a.78.78,0,0,1,.18-.54.82.82,0,0,1,.44-.27,1.19,1.19,0,0,0-.53-.44,1.84,1.84,0,0,0-.8-.18,1.68,1.68,0,0,0-.74.18,1.9,1.9,0,0,0-.67.58,3,3,0,0,0-.5,1.11,6.55,6.55,0,0,0-.2,1.74,5.75,5.75,0,0,0,.3,2.06,2.3,2.3,0,0,0,.77,1.1,1.82,1.82,0,0,0,1.06.33,2.27,2.27,0,0,0,1.16-.34,2.42,2.42,0,0,0,1-1.17l.28.1a3.45,3.45,0,0,1-.49,1,2.69,2.69,0,0,1-.88.79,2.74,2.74,0,0,1-1.34.31,3,3,0,0,1-1.65-.47,3.37,3.37,0,0,1-1.17-1.35A4.67,4.67,0,0,1,57.74,32a4.9,4.9,0,0,1,.43-2.12,3.46,3.46,0,0,1,1.21-1.45A3.16,3.16,0,0,1,61.17,27.91Z"/><path class="cls-2" d="M66.62,35.8a1.6,1.6,0,0,1-1.83-1.75,1.67,1.67,0,0,1,.3-1,2.43,2.43,0,0,1,.78-.67,7.42,7.42,0,0,1,1-.44l1-.36a3.14,3.14,0,0,0,.78-.4.66.66,0,0,0,.3-.56v-.91a2,2,0,0,0-.18-.94,1,1,0,0,0-.5-.44,2.12,2.12,0,0,0-.69-.11,3.26,3.26,0,0,0-.79.11,1.21,1.21,0,0,0-.67.42.88.88,0,0,1,.49.3.92.92,0,0,1,.2.6.75.75,0,0,1-.23.58.85.85,0,0,1-.61.22.7.7,0,0,1-.62-.28,1,1,0,0,1-.2-.61.91.91,0,0,1,.19-.61,2.38,2.38,0,0,1,.49-.45,3.22,3.22,0,0,1,.87-.4,4.18,4.18,0,0,1,1.22-.17,3.47,3.47,0,0,1,1,.14,2,2,0,0,1,.71.4,1.75,1.75,0,0,1,.5.86,5.41,5.41,0,0,1,.12,1.22v4.1a1,1,0,0,0,.1.52.38.38,0,0,0,.35.17.69.69,0,0,0,.36-.09,1.29,1.29,0,0,0,.3-.22l.17.25a5,5,0,0,1-.59.39,1.61,1.61,0,0,1-.75.15,1.14,1.14,0,0,1-1-.39,1.67,1.67,0,0,1-.25-.92,2.49,2.49,0,0,1-1.07,1A3,3,0,0,1,66.62,35.8Zm.64-.59a1.65,1.65,0,0,0,.87-.25,2.58,2.58,0,0,0,.8-.86V31.21a1.49,1.49,0,0,1-.69.51l-.95.42a2.78,2.78,0,0,0-.85.62,1.57,1.57,0,0,0-.35,1.11,1.36,1.36,0,0,0,.33,1A1.17,1.17,0,0,0,67.26,35.21Z"/><path class="cls-2" d="M27.76,50.8a1.61,1.61,0,0,1-1.83-1.75,1.67,1.67,0,0,1,.31-1,2.5,2.5,0,0,1,.77-.67,6.77,6.77,0,0,1,1-.44l1-.36a3.24,3.24,0,0,0,.77-.4.66.66,0,0,0,.3-.56v-.91a2,2,0,0,0-.18-.94,1,1,0,0,0-.49-.44,2.19,2.19,0,0,0-.7-.11,3.25,3.25,0,0,0-.78.11,1.13,1.13,0,0,0-.67.42.89.89,0,0,1,.48.3.88.88,0,0,1,.21.6.73.73,0,0,1-.24.58.82.82,0,0,1-.6.22.71.71,0,0,1-.63-.28,1.07,1.07,0,0,1,0-1.23,3,3,0,0,1,.49-.44,3.45,3.45,0,0,1,.88-.4A3.81,3.81,0,0,1,29,42.91a3.09,3.09,0,0,1,1,.14,1.88,1.88,0,0,1,.71.4,1.68,1.68,0,0,1,.5.86,5.41,5.41,0,0,1,.12,1.22v4.09a1.06,1.06,0,0,0,.1.53.4.4,0,0,0,.36.17.74.74,0,0,0,.36-.09,1.91,1.91,0,0,0,.3-.22l.16.25a5.43,5.43,0,0,1-.59.39,1.58,1.58,0,0,1-.75.15,1.12,1.12,0,0,1-1-.4,1.7,1.7,0,0,1-.25-.91,2.53,2.53,0,0,1-1.06,1A3.18,3.18,0,0,1,27.76,50.8Zm.65-.59a1.7,1.7,0,0,0,.87-.25,2.51,2.51,0,0,0,.79-.87V46.21a1.41,1.41,0,0,1-.68.51l-1,.42a2.78,2.78,0,0,0-.85.62,1.62,1.62,0,0,0-.35,1.11,1.34,1.34,0,0,0,.34,1A1.17,1.17,0,0,0,28.41,50.21Z"/><path class="cls-2" d="M39.16,43,34.9,50.48h1.62a2.09,2.09,0,0,0,1-.24,1.68,1.68,0,0,0,.7-.76,3.68,3.68,0,0,0,.32-1.37h.34c0,.63,0,1.16,0,1.59s0,.78,0,1.06l-1.35,0H36.23l-1.5,0-1.47.05,4.25-7.43H35.89a2.21,2.21,0,0,0-1.08.23,1.51,1.51,0,0,0-.66.76,4.27,4.27,0,0,0-.31,1.38h-.33c0-.64,0-1.17,0-1.6s0-.78,0-1l1.34,0h1.4c.49,0,1,0,1.5,0Zm-.4-4.15.12.2a5.31,5.31,0,0,0-1.51,1.11,4.57,4.57,0,0,0-.95,1.43h-.26a4.75,4.75,0,0,0-.95-1.43,5.31,5.31,0,0,0-1.51-1.11l.11-.2a11.82,11.82,0,0,1,1.56.67,6.84,6.84,0,0,1,1.21.8,6.59,6.59,0,0,1,1-.8A7.92,7.92,0,0,1,38.76,38.89Z"/><path class="cls-2" d="M47.08,50.07a1.6,1.6,0,0,1-.24-1V39.15a4.78,4.78,0,0,1-.72.16,7,7,0,0,1-.81,0c-.3,0-.6,0-.92,0v.31a1.05,1.05,0,0,1,.89.32,1.71,1.71,0,0,1,.23,1v2.86a1.24,1.24,0,0,0-.55-.56,2.46,2.46,0,0,0-1.22-.31,3.28,3.28,0,0,0-1.64.44,3.23,3.23,0,0,0-1.22,1.33,4.81,4.81,0,0,0-.46,2.23,6,6,0,0,0,.36,2.23,2.74,2.74,0,0,0,1,1.32,2.86,2.86,0,0,0,1.6.45A2.16,2.16,0,0,0,45,50.3a2.21,2.21,0,0,0,.48-.73v1.29a3.16,3.16,0,0,1,.72-.16,7.09,7.09,0,0,1,.81,0c.31,0,.61,0,.92,0v-.31A1,1,0,0,1,47.08,50.07ZM45,49.93a1.5,1.5,0,0,1-1.12.53,1.63,1.63,0,0,1-1.1-.39,2.46,2.46,0,0,1-.68-1.17,7.4,7.4,0,0,1-.23-2,5.11,5.11,0,0,1,.57-2.77,1.71,1.71,0,0,1,1.45-.89,1.85,1.85,0,0,1,1,.28,1.52,1.52,0,0,1,.62.85v4.36A2.23,2.23,0,0,1,45,49.93Z"/><path class="cls-2" d="M50.66,50.8a1.6,1.6,0,0,1-1.82-1.75,1.67,1.67,0,0,1,.3-1,2.5,2.5,0,0,1,.77-.67,6.89,6.89,0,0,1,1-.44l1-.36a3.06,3.06,0,0,0,.77-.4A.64.64,0,0,0,53,45.6v-.91a1.84,1.84,0,0,0-.19-.94.91.91,0,0,0-.49-.44,2.17,2.17,0,0,0-.69-.11,3.26,3.26,0,0,0-.79.11,1.16,1.16,0,0,0-.67.42.82.82,0,0,1,.48.3.88.88,0,0,1,.21.6.75.75,0,0,1-.23.58.85.85,0,0,1-.61.22.7.7,0,0,1-.62-.28,1.07,1.07,0,0,1,0-1.23,3,3,0,0,1,.48-.44,3.45,3.45,0,0,1,.88-.4A3.83,3.83,0,0,1,52,42.91a3.17,3.17,0,0,1,1,.14,1.84,1.84,0,0,1,.7.4,1.61,1.61,0,0,1,.5.86,5.41,5.41,0,0,1,.12,1.22v4.09a1,1,0,0,0,.11.53.37.37,0,0,0,.35.17.69.69,0,0,0,.36-.09,1.91,1.91,0,0,0,.3-.22l.16.25a5.36,5.36,0,0,1-.58.39,1.63,1.63,0,0,1-.76.15,1.08,1.08,0,0,1-1-.4,1.61,1.61,0,0,1-.25-.91,2.54,2.54,0,0,1-1.07,1A3.15,3.15,0,0,1,50.66,50.8Zm.65-.59a1.65,1.65,0,0,0,.87-.25,2.53,2.53,0,0,0,.8-.87V46.21a1.49,1.49,0,0,1-.69.51l-.95.42a2.67,2.67,0,0,0-.85.62,1.58,1.58,0,0,0-.36,1.11,1.38,1.38,0,0,0,.34,1A1.17,1.17,0,0,0,51.31,50.21Z"/><path class="cls-2" d="M55.22,53.47v-.22a1.61,1.61,0,0,0,1.37-.79,4,4,0,0,0,.45-2v-5.7a1.71,1.71,0,0,0-.23-1,1.07,1.07,0,0,0-.89-.32v-.31c.32,0,.62,0,.92,0a7,7,0,0,0,.81,0,4.78,4.78,0,0,0,.72-.16V49a8.13,8.13,0,0,1-.24,2,3.52,3.52,0,0,1-.82,1.53,2.89,2.89,0,0,1-.91.65A2.71,2.71,0,0,1,55.22,53.47Zm2.35-14a1,1,0,0,1,.67.28,1,1,0,0,1,0,1.33.93.93,0,0,1-1.33,0,.93.93,0,0,1,0-1.33A.94.94,0,0,1,57.57,39.43Z"/><path class="cls-2" d="M61.93,50.8a1.6,1.6,0,0,1-1.82-1.75,1.67,1.67,0,0,1,.3-1,2.5,2.5,0,0,1,.77-.67,7.28,7.28,0,0,1,1-.44l1-.36a3.24,3.24,0,0,0,.77-.4.66.66,0,0,0,.3-.56v-.91a2,2,0,0,0-.18-.94,1,1,0,0,0-.49-.44,2.17,2.17,0,0,0-.69-.11,3.26,3.26,0,0,0-.79.11,1.13,1.13,0,0,0-.67.42.89.89,0,0,1,.48.3.88.88,0,0,1,.21.6.73.73,0,0,1-.24.58.82.82,0,0,1-.6.22.72.72,0,0,1-.63-.28,1,1,0,0,1-.2-.61,1,1,0,0,1,.2-.62,2.59,2.59,0,0,1,.48-.44,3.45,3.45,0,0,1,.88-.4,3.81,3.81,0,0,1,1.21-.17,3.09,3.09,0,0,1,1,.14,1.88,1.88,0,0,1,.71.4,1.68,1.68,0,0,1,.5.86,5.41,5.41,0,0,1,.12,1.22v4.09a1.06,1.06,0,0,0,.1.53.4.4,0,0,0,.36.17.74.74,0,0,0,.36-.09,1.91,1.91,0,0,0,.3-.22l.16.25a4.61,4.61,0,0,1-.59.39,1.56,1.56,0,0,1-.75.15,1.08,1.08,0,0,1-1-.4,1.62,1.62,0,0,1-.26-.91,2.53,2.53,0,0,1-1.06,1A3.18,3.18,0,0,1,61.93,50.8Zm.65-.59a1.67,1.67,0,0,0,.87-.25,2.51,2.51,0,0,0,.79-.87V46.21a1.41,1.41,0,0,1-.68.51l-1,.42a2.62,2.62,0,0,0-.84.62,1.58,1.58,0,0,0-.36,1.11,1.34,1.34,0,0,0,.34,1A1.17,1.17,0,0,0,62.58,50.21Z"/><path class="cls-2" d="M68.72,49a.87.87,0,0,1,.66.28.95.95,0,0,1-.66,1.61.94.94,0,0,1-.66-.28A.95.95,0,0,1,68.72,49Z"/><circle class="cls-2" cx="23.01" cy="16.64" r="0.75"/><path class="cls-2" d="M31.07,13.1A8.4,8.4,0,0,0,25.8,7.16,11.86,11.86,0,0,0,20,6.64s0-.06,0-.09a7.9,7.9,0,0,0-1.54-3.69A7.41,7.41,0,0,0,15.33.45,6,6,0,0,0,13.06,0c-1.9,0-4.21,1-4.92,3a2.81,2.81,0,0,0-.1.31,7.81,7.81,0,0,0-3.67.38A6.35,6.35,0,0,0,1.7,5.52a6.38,6.38,0,0,0-1,7.19,6.91,6.91,0,0,0,2.84,2.7,8.22,8.22,0,0,0,3.11.75l.71.08a4.12,4.12,0,0,1,.61.12,17.1,17.1,0,0,0-.56,2.78,7.34,7.34,0,0,0-.06,1v.29A8.92,8.92,0,0,0,9.66,26c-1.17,2.22-1.31,4.45-.36,6.15a8.31,8.31,0,0,0,.7,1,3.82,3.82,0,0,1,.59.87,2.92,2.92,0,0,1,.15,2A2.16,2.16,0,0,1,9,37.43a5.77,5.77,0,0,1-4-1.19l.82-1a.5.5,0,0,0,.06-.56.51.51,0,0,0-.5-.26l-3.24.35a.5.5,0,0,0-.44.53l.22,3.25a.49.49,0,0,0,.35.44.4.4,0,0,0,.15,0,.53.53,0,0,0,.39-.18l.9-1.08a8.31,8.31,0,0,0,4.68,1.69,6.22,6.22,0,0,0,.86-.06,4.18,4.18,0,0,0,3.4-2.8,5,5,0,0,0-.21-3.4,5.6,5.6,0,0,0-.88-1.36,4.87,4.87,0,0,1-.51-.69,4.41,4.41,0,0,1,.14-3.76A8.79,8.79,0,0,0,14.51,29a6.05,6.05,0,0,0,1.39.16,5.28,5.28,0,0,0,4.41-2.25,13.51,13.51,0,0,0,1.21-2.36,9.8,9.8,0,0,1,1.15-2.18,4.69,4.69,0,0,1,3-1.71l.43-.08A6.31,6.31,0,0,0,30,18.84,6.07,6.07,0,0,0,31.07,13.1ZM10,3.69a3.3,3.3,0,0,1,3-1.69,4,4,0,0,1,1.53.31A5.8,5.8,0,0,1,18,6.81,1.79,1.79,0,0,1,18,7a16.68,16.68,0,0,0-2.78,1A11.55,11.55,0,0,0,13,5.45a9,9,0,0,0-3-1.7S10,3.71,10,3.69Zm-.3,8.86a12.36,12.36,0,0,0-1.06,1.93,5.24,5.24,0,0,0-1-.23l-.76-.08a6.5,6.5,0,0,1-2.4-.54,4.77,4.77,0,0,1-2-1.9,4.46,4.46,0,0,1,.75-4.9A4.56,4.56,0,0,1,5.06,5.57a6.1,6.1,0,0,1,3-.25A7.13,7.13,0,0,1,10.25,6,6.37,6.37,0,0,1,11.7,7a9.36,9.36,0,0,1,1.74,2l-.47.3a11.14,11.14,0,0,0-1,.78A11.7,11.7,0,0,0,9.72,12.55ZM19,25.2c-1.6-.71-5.4-2.68-7.08-6.09a6.71,6.71,0,0,1-.4-1,6.57,6.57,0,0,1-.27-1,7.38,7.38,0,0,1-.09-2.5,5,5,0,0,1,.13-.82,10.38,10.38,0,0,1,.75-1,10.81,10.81,0,0,1,1.27-1.26A9.52,9.52,0,0,0,13,13.36a7.72,7.72,0,0,0,0,1.27,5.49,5.49,0,0,0,.11.8,6.3,6.3,0,0,0,.18.84,8,8,0,0,0,.32,1,9.46,9.46,0,0,0,.4.94h0a18.34,18.34,0,0,0,5.34,6.19A7.09,7.09,0,0,1,19,25.2Zm1.23-2.66a15.36,15.36,0,0,1-4.71-5.65,7,7,0,0,1-.37-1.21,2.56,2.56,0,0,1-.05-.27A5.59,5.59,0,0,1,15,14.5a8.51,8.51,0,0,1,.07-1.16,8.34,8.34,0,0,1,.49-2.05A6,6,0,0,1,16.2,10a2.83,2.83,0,0,1,.22-.32c.45-.19.9-.36,1.36-.51a14,14,0,0,0-.33,1.62,12.13,12.13,0,0,0-.05,3.48A11,11,0,0,0,21,21.16,7.9,7.9,0,0,0,20.21,22.54Zm8.26-5.05a4.72,4.72,0,0,1-2.75,1.07l-.44.08a7.14,7.14,0,0,0-2.8,1.14,9.35,9.35,0,0,1-3.16-8.23h0A11.44,11.44,0,0,1,20,8.76a.34.34,0,0,0,0-.1h0a12.2,12.2,0,0,1,1.88-.15A9.28,9.28,0,0,1,25.1,9a6.4,6.4,0,0,1,4,4.6A4.08,4.08,0,0,1,28.47,17.49Z"/><path class="cls-3" d="M18,7a16.68,16.68,0,0,0-2.78,1A11.55,11.55,0,0,0,13,5.45a9,9,0,0,0-3-1.7s0,0,0-.06a3.3,3.3,0,0,1,3-1.69,4,4,0,0,1,1.53.31A5.8,5.8,0,0,1,18,6.81,1.79,1.79,0,0,1,18,7Z"/><path class="cls-3" d="M13.44,9l-.47.3a11.14,11.14,0,0,0-1,.78,11.7,11.7,0,0,0-2.22,2.48,12.36,12.36,0,0,0-1.06,1.93,5.24,5.24,0,0,0-1-.23l-.76-.08a6.5,6.5,0,0,1-2.4-.54,4.77,4.77,0,0,1-2-1.9,4.46,4.46,0,0,1,.75-4.9A4.56,4.56,0,0,1,5.06,5.57a6.1,6.1,0,0,1,3-.25A7.13,7.13,0,0,1,10.25,6,6.37,6.37,0,0,1,11.7,7,9.36,9.36,0,0,1,13.44,9Z"/></svg>