<svg id="Layer_1" data-name="Layer 1" xmlns="http://www.w3.org/2000/svg" viewBox="0 0 283.46 283.46"><defs><style>.cls-1{fill:#fff;}</style></defs><rect class="cls-1" width="283.46" height="283.46"/><path d="M141.73,128.26A16.31,16.31,0,1,1,158,112,16.32,16.32,0,0,1,141.73,128.26Zm0-27.95A11.64,11.64,0,1,0,153.37,112,11.65,11.65,0,0,0,141.73,100.31Z"/><path d="M141.73,190.9a2.36,2.36,0,0,1-1.06-.25,3,3,0,0,1-.33-.21,2.22,2.22,0,0,1-.64-.73c-1.52-2.6-30.52-52.66-30.52-75,0-5.49,2.09-16.89,9.94-24.73,5.66-5.65,13.25-8.51,22.55-8.51h.14c9.19,0,16.72,2.87,22.39,8.53,8,8,10.08,19.65,10.08,24.71,0,22.37-29.17,72.66-30.52,75l0,.07a2.35,2.35,0,0,1-1,.9,2,2,0,0,1-.34.12,2.66,2.66,0,0,1-.39.07Zm-.06-104.73c-8,0-14.5,2.41-19.25,7.15-6.78,6.78-8.57,17-8.57,21.43,0,16.16,17.25,49.69,25.55,64.87v-53.7a2.34,2.34,0,0,1,4.67,0v53.7c8.29-15.18,25.55-48.71,25.55-64.87,0-4.39-1.82-14.53-8.71-21.41-4.77-4.75-11.2-7.17-19.11-7.17Z"/><path d="M141.73,141.31a2.32,2.32,0,0,1-1-.24l-12.15-6a2.33,2.33,0,1,1,2.07-4.18l11,5.44,9.76-6a2.33,2.33,0,1,1,2.43,4L143,141A2.29,2.29,0,0,1,141.73,141.31Z"/><path d="M141.73,154.37a2.32,2.32,0,0,1-1-.24l-12.15-6a2.33,2.33,0,1,1,2.07-4.18l11,5.44,9.76-6a2.33,2.33,0,1,1,2.43,4L143,154A2.3,2.3,0,0,1,141.73,154.37Z"/><path d="M106.54,261.05c0-3.42,2.49-3.77,3.63-3.77a3.07,3.07,0,0,1,3.28,3.14c0,1.88-1.24,2.67-2.8,3.51l-1.09.6c-1.44.79-1.75,1.61-1.81,2h5.7v1.24h-7.18a4.57,4.57,0,0,1,2.47-4.16l1.38-.81c1.12-.64,1.93-1.08,1.93-2.45a1.88,1.88,0,0,0-2.07-1.9c-2,0-2.08,1.85-2.13,2.59Z"/><path d="M117.53,261.81l.69,0c1,0,2-.41,2-1.72,0-.63-.38-1.66-2-1.66-1.86,0-2,1.53-2,2.26h-1.29c0-1.54.63-3.44,3.39-3.44,2,0,3.24,1.17,3.24,2.77a2.11,2.11,0,0,1-1.34,2.16v0a2.35,2.35,0,0,1,1.75,2.45c0,1.72-1.11,3.37-3.78,3.37a4.12,4.12,0,0,1-1.94-.46,3.37,3.37,0,0,1-1.57-3h1.36c0,1,.28,2.31,2.24,2.31a2.06,2.06,0,0,0,2.28-2c0-1.76-1.55-1.92-2.44-1.92h-.6Z"/><path d="M126.63,268.06c-3,0-3.59-3.21-3.59-5.39s.58-5.39,3.59-5.39,3.6,3.21,3.6,5.39S129.65,268.06,126.63,268.06Zm0-9.6c-1.5,0-2.19,1.59-2.19,4.21s.69,4.21,2.19,4.21,2.2-1.58,2.2-4.21S128.14,258.46,126.63,258.46Z"/><path d="M133,261.67a3.24,3.24,0,0,1,2-.65,3.33,3.33,0,0,1,3.45,3.36,3.49,3.49,0,0,1-3.81,3.68,3.09,3.09,0,0,1-3.39-2.89h1.36a2,2,0,0,0,2.22,1.76,2.23,2.23,0,0,0,2.21-2.4,2.19,2.19,0,0,0-2.33-2.33,2.44,2.44,0,0,0-1.94,1l-1.13-.06.79-5.63h5.44v1.28h-4.45Z"/><path d="M139.74,261.05c0-3.42,2.49-3.77,3.63-3.77a3.07,3.07,0,0,1,3.28,3.14c0,1.88-1.24,2.67-2.8,3.51l-1.09.6c-1.44.79-1.75,1.61-1.81,2h5.7v1.24h-7.18a4.57,4.57,0,0,1,2.47-4.16l1.38-.81c1.12-.64,1.93-1.08,1.93-2.45a1.88,1.88,0,0,0-2.08-1.9c-2,0-2.07,1.85-2.12,2.59Z"/><path d="M151.53,268.06c-3,0-3.6-3.21-3.6-5.39s.59-5.39,3.6-5.39,3.6,3.21,3.6,5.39S154.55,268.06,151.53,268.06Zm0-9.6c-1.5,0-2.19,1.59-2.19,4.21s.69,4.21,2.19,4.21,2.2-1.58,2.2-4.21S153,258.46,151.53,258.46Z"/><path d="M156.34,261.05c0-3.42,2.49-3.77,3.63-3.77a3.07,3.07,0,0,1,3.28,3.14c0,1.88-1.24,2.67-2.8,3.51l-1.09.6c-1.44.79-1.75,1.61-1.81,2h5.7v1.24h-7.18a4.58,4.58,0,0,1,2.46-4.16l1.39-.81c1.12-.64,1.93-1.08,1.93-2.45a1.88,1.88,0,0,0-2.08-1.9c-2,0-2.07,1.85-2.12,2.59Z"/><path d="M168.13,268.06c-3,0-3.6-3.21-3.6-5.39s.59-5.39,3.6-5.39,3.6,3.21,3.6,5.39S171.15,268.06,168.13,268.06Zm0-9.6c-1.5,0-2.19,1.59-2.19,4.21s.69,4.21,2.19,4.21,2.2-1.58,2.2-4.21S169.64,258.46,168.13,258.46Z"/></svg>