<svg id="Layer_1" data-name="Layer 1" xmlns="http://www.w3.org/2000/svg" viewBox="0 0 283.46 283.46"><defs><style>.cls-1{fill:#fff;}</style></defs><rect class="cls-1" width="283.46" height="283.46"/><rect x="160.95" y="133.73" width="4.67" height="30.55"/><rect x="117.85" y="133.73" width="4.67" height="30.55"/><path d="M141.83,142.68c-2.44,0-23.79-.23-23.79-7.89s21.35-7.89,23.79-7.89,23.79.22,23.79,7.89S144.26,142.68,141.83,142.68ZM123,134.79c1.65,1.26,8.11,3.22,18.86,3.22s17.2-2,18.86-3.22c-1.73-1.31-8.57-3.22-18.86-3.22S124.69,133.48,123,134.79Z"/><path d="M141.64,171.36c-2.44,0-23.79-.22-23.79-7.89h4.66a.74.74,0,0,0-.07-.34c.83,1.28,8,3.56,19.2,3.56s18.37-2.28,19.2-3.56a.7.7,0,0,0-.08.34h4.67C165.43,171.14,144.07,171.36,141.64,171.36Z"/><path d="M141.64,162.06c-2.44,0-23.79-.22-23.79-7.88h4.66a.84.84,0,0,0-.07-.35c.83,1.28,8,3.57,19.2,3.57s18.37-2.29,19.2-3.57a.79.79,0,0,0-.08.35h4.67C165.43,161.84,144.07,162.06,141.64,162.06Z"/><path d="M141.64,152.61c-2.44,0-23.79-.23-23.79-7.89h4.66a.74.74,0,0,0-.07-.34c.83,1.27,8,3.56,19.2,3.56s18.37-2.29,19.2-3.56a.7.7,0,0,0-.08.34h4.67C165.43,152.38,144.07,152.61,141.64,152.61Z"/><path d="M142.86,125.53c-4.33,0-10-.77-13.49-4.21a10.83,10.83,0,0,1-3.13-8.76c.39-6.82,5.24-11.43,8.78-14.8a19.08,19.08,0,0,0,2.84-3c-.39-3.81,1.65-4.56,2.55-4.7s3.32-.52,9.13,8.1c2.52,3.73,5.43,8.9,6.07,12.2.44,2.23.5,7.45-2.36,11.22A9.8,9.8,0,0,1,146,125.4C145.09,125.48,144,125.53,142.86,125.53Zm-.58-29.28c-.61,1.63-2.18,3.13-4.05,4.9-3.14,3-7,6.7-7.33,11.67a6.31,6.31,0,0,0,1.73,5.16c2.27,2.21,7.12,3.25,13,2.77h0a5.15,5.15,0,0,0,3.92-2c1.63-2.14,1.86-5.68,1.5-7.51C150.32,107.52,145.31,99.72,142.28,96.25Z"/><path d="M143.84,135.07h-4.67v-7.84l.11-.35c0-.06,2.1-6.68,1.89-10.92a11.91,11.91,0,0,0-2.29-6.44l3.57-3a16.62,16.62,0,0,1,3.38,9.22c.22,4.51-1.52,10.66-2,12.21Z"/><path d="M140.91,120.88c-.07-.16-1.8-3.94-5.75-4l.07-4.67c7,.11,9.85,6.54,10,6.81l-4.28,1.84,2.14-.92Z"/><rect x="143.2" y="109.9" width="4.97" height="4.67" transform="translate(-36.21 85.12) rotate(-29.13)"/><path d="M114.19,263.7h-1.4v-7.45h-2.45v-1c1.7-.12,2.4-.29,2.82-2h1Z"/><path d="M119.88,257.73c.22,0,.46,0,.68,0,1,0,2-.4,2-1.72,0-.62-.38-1.65-1.95-1.65-1.86,0-2,1.52-2,2.25h-1.29c0-1.54.63-3.43,3.39-3.43,2,0,3.24,1.16,3.24,2.76a2.1,2.1,0,0,1-1.34,2.16v0a2.35,2.35,0,0,1,1.75,2.45c0,1.72-1.11,3.38-3.78,3.38a4.11,4.11,0,0,1-1.94-.47,3.37,3.37,0,0,1-1.57-3h1.36c0,1,.28,2.32,2.24,2.32a2.06,2.06,0,0,0,2.28-2c0-1.76-1.55-1.93-2.45-1.93l-.59,0Z"/><path d="M129,264c-3,0-3.6-3.21-3.6-5.39s.59-5.39,3.6-5.39,3.6,3.21,3.6,5.39S132,264,129,264Zm0-9.6c-1.5,0-2.19,1.58-2.19,4.21s.69,4.21,2.19,4.21,2.2-1.59,2.2-4.21S130.49,254.39,129,254.39Z"/><path d="M135.33,257.6a3.16,3.16,0,0,1,2-.66,3.33,3.33,0,0,1,3.45,3.36A3.5,3.5,0,0,1,137,264a3.09,3.09,0,0,1-3.39-2.9H135a2,2,0,0,0,2.22,1.76,2.23,2.23,0,0,0,2.21-2.4,2.19,2.19,0,0,0-2.33-2.33,2.44,2.44,0,0,0-1.94,1l-1.13-.06.79-5.63h5.43v1.28h-4.45Z"/><path d="M142.09,257c0-3.42,2.49-3.76,3.63-3.76a3.07,3.07,0,0,1,3.28,3.13c0,1.88-1.24,2.68-2.8,3.51l-1.1.6c-1.43.79-1.74,1.61-1.8,2H149v1.24h-7.18a4.56,4.56,0,0,1,2.46-4.16l1.39-.81c1.12-.64,1.93-1.07,1.93-2.45a1.88,1.88,0,0,0-2.08-1.89c-2,0-2.07,1.85-2.12,2.58Z"/><path d="M153.88,264c-3,0-3.6-3.21-3.6-5.39s.59-5.39,3.6-5.39,3.6,3.21,3.6,5.39S156.9,264,153.88,264Zm0-9.6c-1.51,0-2.19,1.58-2.19,4.21s.68,4.21,2.19,4.21,2.2-1.59,2.2-4.21S155.39,254.39,153.88,254.39Z"/><path d="M158.69,257c0-3.42,2.49-3.76,3.63-3.76a3.07,3.07,0,0,1,3.28,3.13c0,1.88-1.24,2.68-2.81,3.51l-1.09.6c-1.43.79-1.74,1.61-1.8,2h5.7v1.24h-7.18a4.56,4.56,0,0,1,2.46-4.16l1.39-.81c1.12-.64,1.93-1.07,1.93-2.45a1.88,1.88,0,0,0-2.08-1.89c-2,0-2.07,1.85-2.12,2.58Z"/><path d="M170.48,264c-3,0-3.6-3.21-3.6-5.39s.59-5.39,3.6-5.39,3.6,3.21,3.6,5.39S173.5,264,170.48,264Zm0-9.6c-1.51,0-2.19,1.58-2.19,4.21s.68,4.21,2.19,4.21,2.2-1.59,2.2-4.21S172,254.39,170.48,254.39Z"/></svg>