<svg id="Layer_1" data-name="Layer 1" xmlns="http://www.w3.org/2000/svg" viewBox="0 0 283.46 283.46"><defs><style>.cls-1{fill:#fff;}</style></defs><rect class="cls-1" width="283.46" height="283.46"/><path d="M141.73,148.57a17.9,17.9,0,1,1,17.9-17.9A17.92,17.92,0,0,1,141.73,148.57Zm0-31.12A13.23,13.23,0,1,0,155,130.67,13.23,13.23,0,0,0,141.73,117.45Z"/><rect x="139.4" y="87.88" width="4.67" height="18.24"/><rect x="139.4" y="155.24" width="4.67" height="18.24"/><rect x="156.43" y="104.52" width="18.24" height="4.67" transform="translate(-27.07 148.36) rotate(-45)"/><rect x="108.8" y="152.16" width="18.24" height="4.67" transform="translate(-74.71 128.63) rotate(-45)"/><rect x="166.3" y="128.34" width="18.24" height="4.67"/><rect x="98.93" y="128.34" width="18.24" height="4.67"/><path d="M114.19,263.7h-1.41v-7.45h-2.45V255.2c1.71-.12,2.41-.28,2.83-2h1Z"/><path d="M118.72,257.59a3.25,3.25,0,0,1,2-.65,3.33,3.33,0,0,1,3.45,3.36A3.49,3.49,0,0,1,120.4,264a3.08,3.08,0,0,1-3.39-2.89h1.36a2,2,0,0,0,2.22,1.76,2.23,2.23,0,0,0,2.21-2.4,2.19,2.19,0,0,0-2.33-2.33,2.39,2.39,0,0,0-1.94,1l-1.13-.06.79-5.63h5.43v1.28h-4.45Z"/><path d="M129,264c-3,0-3.6-3.21-3.6-5.39s.58-5.39,3.6-5.39,3.6,3.21,3.6,5.39S132,264,129,264Zm0-9.6c-1.51,0-2.19,1.58-2.19,4.21s.68,4.21,2.19,4.21,2.2-1.58,2.2-4.21S130.49,254.38,129,254.38Z"/><path d="M135.32,257.59a3.25,3.25,0,0,1,2-.65,3.32,3.32,0,0,1,3.44,3.36A3.48,3.48,0,0,1,137,264a3.08,3.08,0,0,1-3.39-2.89H135a2,2,0,0,0,2.22,1.76,2.23,2.23,0,0,0,2.21-2.4,2.19,2.19,0,0,0-2.33-2.33,2.39,2.39,0,0,0-1.94,1l-1.14-.06.8-5.63h5.43v1.28h-4.45Z"/><path d="M142.09,257c0-3.42,2.49-3.77,3.62-3.77a3.07,3.07,0,0,1,3.29,3.14c0,1.88-1.24,2.67-2.81,3.51l-1.09.6c-1.43.79-1.75,1.61-1.8,2H149v1.24h-7.18a4.59,4.59,0,0,1,2.46-4.17l1.39-.8c1.12-.64,1.93-1.08,1.93-2.45a1.88,1.88,0,0,0-2.08-1.9c-2,0-2.08,1.85-2.12,2.59Z"/><path d="M153.88,264c-3,0-3.6-3.21-3.6-5.39s.58-5.39,3.6-5.39,3.6,3.21,3.6,5.39S156.9,264,153.88,264Zm0-9.6c-1.51,0-2.2,1.58-2.2,4.21s.69,4.21,2.2,4.21,2.2-1.58,2.2-4.21S155.39,254.38,153.88,254.38Z"/><path d="M158.68,257c0-3.42,2.5-3.77,3.63-3.77a3.07,3.07,0,0,1,3.29,3.14c0,1.88-1.24,2.67-2.81,3.51l-1.09.6c-1.43.79-1.75,1.61-1.81,2h5.71v1.24h-7.18a4.59,4.59,0,0,1,2.46-4.17l1.39-.8c1.12-.64,1.93-1.08,1.93-2.45a1.88,1.88,0,0,0-2.08-1.9c-2,0-2.08,1.85-2.12,2.59Z"/><path d="M170.48,264c-3,0-3.6-3.21-3.6-5.39s.58-5.39,3.6-5.39,3.6,3.21,3.6,5.39S173.5,264,170.48,264Zm0-9.6c-1.51,0-2.2,1.58-2.2,4.21s.69,4.21,2.2,4.21,2.19-1.58,2.19-4.21S172,254.38,170.48,254.38Z"/></svg>