<svg id="Layer_1" data-name="Layer 1" xmlns="http://www.w3.org/2000/svg" viewBox="0 0 283.46 283.46"><defs><style>.cls-1{fill:#fff;}</style></defs><rect width="283.46" height="283.46"/><path class="cls-1" d="M120.09,138.94a21.6,21.6,0,1,1,21.6-21.6A21.62,21.62,0,0,1,120.09,138.94Zm0-38.53A16.93,16.93,0,1,0,137,117.34,16.95,16.95,0,0,0,120.09,100.41Z"/><path class="cls-1" d="M184,138.94a21.6,21.6,0,1,1,21.6-21.6A21.62,21.62,0,0,1,184,138.94Zm0-38.53a16.93,16.93,0,1,0,16.94,16.93A16.95,16.95,0,0,0,184,100.41Z"/><path class="cls-1" d="M164.73,120.1a2.34,2.34,0,0,1-2.34-2.33,10.35,10.35,0,1,0-20.7,0,2.33,2.33,0,1,1-4.66,0,15,15,0,1,1,30,0A2.33,2.33,0,0,1,164.73,120.1Z"/><path class="cls-1" d="M164.73,189.51a2.33,2.33,0,0,1-2.34-2.33,10.35,10.35,0,1,0-20.7,0,2.33,2.33,0,1,1-4.66,0,15,15,0,1,1,30,0A2.33,2.33,0,0,1,164.73,189.51Z"/><path class="cls-1" d="M152,158.5a15,15,0,0,1-15-15,2.33,2.33,0,1,1,4.66,0,10.35,10.35,0,0,0,20.7,0,2.34,2.34,0,1,1,4.67,0A15,15,0,0,1,152,158.5Z"/><path class="cls-1" d="M100.83,119.67H46.07a2.33,2.33,0,1,1,0-4.66h54.76a2.33,2.33,0,1,1,0,4.66Z"/><path class="cls-1" d="M114.19,263.7h-1.4v-7.45h-2.45V255.2c1.7-.11,2.4-.28,2.82-2h1Z"/><path class="cls-1" d="M122.81,261.15v2.55h-1.32v-2.55h-4.58v-1.29l4.81-6.66h1.09V260h1.53v1.14ZM118.12,260h3.37v-4.76h0Z"/><path class="cls-1" d="M129,264c-3,0-3.6-3.21-3.6-5.39s.58-5.39,3.6-5.39,3.59,3.21,3.59,5.39S132,264,129,264Zm0-9.6c-1.51,0-2.2,1.59-2.2,4.21s.69,4.21,2.2,4.21,2.19-1.58,2.19-4.21S130.49,254.38,129,254.38Z"/><path class="cls-1" d="M135.33,257.59a3.24,3.24,0,0,1,2-.65,3.33,3.33,0,0,1,3.45,3.36A3.49,3.49,0,0,1,137,264a3.09,3.09,0,0,1-3.39-2.89H135a2,2,0,0,0,2.23,1.76,2.24,2.24,0,0,0,2.21-2.4,2.19,2.19,0,0,0-2.33-2.33,2.42,2.42,0,0,0-1.94,1l-1.14-.06.79-5.63h5.44v1.28h-4.45Z"/><path class="cls-1" d="M142.09,257c0-3.42,2.49-3.77,3.63-3.77a3.08,3.08,0,0,1,3.29,3.14c0,1.88-1.24,2.67-2.81,3.51l-1.09.6c-1.44.79-1.75,1.61-1.81,2H149v1.24h-7.19a4.57,4.57,0,0,1,2.47-4.16l1.39-.81c1.11-.64,1.92-1.08,1.92-2.45a1.88,1.88,0,0,0-2.07-1.9c-2,0-2.08,1.85-2.12,2.59Z"/><path class="cls-1" d="M153.88,264c-3,0-3.59-3.21-3.59-5.39s.58-5.39,3.59-5.39,3.6,3.21,3.6,5.39S156.9,264,153.88,264Zm0-9.6c-1.5,0-2.19,1.59-2.19,4.21s.69,4.21,2.19,4.21,2.2-1.58,2.2-4.21S155.39,254.38,153.88,254.38Z"/><path class="cls-1" d="M158.69,257c0-3.42,2.49-3.77,3.63-3.77a3.07,3.07,0,0,1,3.28,3.14c0,1.88-1.24,2.67-2.8,3.51l-1.09.6c-1.44.79-1.75,1.61-1.81,2h5.7v1.24h-7.18a4.57,4.57,0,0,1,2.47-4.16l1.38-.81c1.12-.64,1.93-1.08,1.93-2.45a1.88,1.88,0,0,0-2.07-1.9c-2,0-2.08,1.85-2.13,2.59Z"/><path class="cls-1" d="M170.48,264c-3,0-3.59-3.21-3.59-5.39s.58-5.39,3.59-5.39,3.6,3.21,3.6,5.39S173.5,264,170.48,264Zm0-9.6c-1.5,0-2.19,1.59-2.19,4.21s.69,4.21,2.19,4.21,2.2-1.58,2.2-4.21S172,254.38,170.48,254.38Z"/></svg>