<svg id="Layer_1" data-name="Layer 1" xmlns="http://www.w3.org/2000/svg" viewBox="0 0 283.46 283.46"><defs><style>.cls-1{fill:#fff;}</style></defs><rect width="283.46" height="283.46"/><path class="cls-1" d="M109.23,144.46h0a17.59,17.59,0,1,1,3.26-34.88,23.3,23.3,0,0,1,36.38-5.19,20.55,20.55,0,0,1,7.07-1.24,20.8,20.8,0,0,1,17.77,10.12,15.66,15.66,0,1,1,2.48,31.12Zm0-30.52a12.93,12.93,0,0,0,0,25.85l66.95-.07a11,11,0,0,0,0-22,10.71,10.71,0,0,0-3.05.43l-1.91.56-.85-1.8a16.09,16.09,0,0,0-14.44-9.11,15.89,15.89,0,0,0-6.67,1.45l-1.56.72-1.15-1.28a18.63,18.63,0,0,0-30.74,4.56L115,115.1l-1.94-.59A12.65,12.65,0,0,0,109.22,113.94Z"/><path class="cls-1" d="M133.82,176.87a11.6,11.6,0,0,1-11.58-11.59h4.66a6.92,6.92,0,1,0,13.84,0h0l-.09-24.36,4.66,0,.1,24.76h0A11.6,11.6,0,0,1,133.82,176.87Z"/><path class="cls-1" d="M114.19,268.4h-1.4V261h-2.45V259.9c1.7-.12,2.4-.28,2.82-2h1Z"/><path class="cls-1" d="M117.08,258.12h7.26v1.15A18.32,18.32,0,0,0,120,268.4h-1.45a19.51,19.51,0,0,1,4.28-9h-5.78Z"/><path class="cls-1" d="M129,268.68c-3,0-3.6-3.21-3.6-5.39s.59-5.39,3.6-5.39,3.6,3.21,3.6,5.39S132,268.68,129,268.68Zm0-9.6c-1.5,0-2.19,1.58-2.19,4.21s.69,4.21,2.19,4.21,2.2-1.58,2.2-4.21S130.49,259.08,129,259.08Z"/><path class="cls-1" d="M135.33,262.29a3.24,3.24,0,0,1,2-.66,3.34,3.34,0,0,1,3.45,3.36,3.49,3.49,0,0,1-3.81,3.69,3.09,3.09,0,0,1-3.39-2.9H135a2,2,0,0,0,2.22,1.77,2.24,2.24,0,0,0,2.21-2.41,2.19,2.19,0,0,0-2.33-2.33,2.44,2.44,0,0,0-1.94,1l-1.13-.06.79-5.63h5.44v1.29h-4.45Z"/><path class="cls-1" d="M142.09,261.66c0-3.42,2.49-3.76,3.63-3.76A3.07,3.07,0,0,1,149,261c0,1.88-1.24,2.67-2.8,3.5l-1.1.6c-1.43.79-1.74,1.61-1.8,2H149v1.24h-7.18a4.6,4.6,0,0,1,2.46-4.17l1.39-.81c1.12-.64,1.93-1.07,1.93-2.44a1.88,1.88,0,0,0-2.08-1.9c-2,0-2.07,1.85-2.12,2.58Z"/><path class="cls-1" d="M153.88,268.68c-3,0-3.6-3.21-3.6-5.39s.59-5.39,3.6-5.39,3.6,3.21,3.6,5.39S156.9,268.68,153.88,268.68Zm0-9.6c-1.51,0-2.19,1.58-2.19,4.21s.68,4.21,2.19,4.21,2.2-1.58,2.2-4.21S155.39,259.08,153.88,259.08Z"/><path class="cls-1" d="M158.69,261.66c0-3.42,2.49-3.76,3.63-3.76A3.07,3.07,0,0,1,165.6,261c0,1.88-1.24,2.67-2.81,3.5l-1.09.6c-1.43.79-1.74,1.61-1.8,2h5.7v1.24h-7.18a4.58,4.58,0,0,1,2.46-4.17l1.39-.81c1.12-.64,1.93-1.07,1.93-2.44a1.88,1.88,0,0,0-2.08-1.9c-2,0-2.07,1.85-2.12,2.58Z"/><path class="cls-1" d="M170.48,268.68c-3,0-3.6-3.21-3.6-5.39s.59-5.39,3.6-5.39,3.6,3.21,3.6,5.39S173.5,268.68,170.48,268.68Zm0-9.6c-1.51,0-2.19,1.58-2.19,4.21s.68,4.21,2.19,4.21,2.2-1.58,2.2-4.21S172,259.08,170.48,259.08Z"/></svg>