<svg id="Layer_1" data-name="Layer 1" xmlns="http://www.w3.org/2000/svg" viewBox="0 0 283.46 283.46"><defs><style>.cls-1{fill:#fff;}</style></defs><rect class="cls-1" width="283.46" height="283.46"/><path d="M122.86,178.8a11.59,11.59,0,0,1-11.58-11.58h4.66a6.92,6.92,0,0,0,13.84,0h0l-.1-34.69L161,128.18l-.09-31h0a11.58,11.58,0,0,1,23.16.38h-4.67a6.92,6.92,0,1,0-13.83,0h0l.1,34.68-31.34,4.36.09,31h0A11.6,11.6,0,0,1,122.86,178.8Z"/><path d="M111.25,167.66l0-.38h0v-.07h0l0-.08a11.58,11.58,0,0,1,23.16.38h-4.66a6.92,6.92,0,0,0-13.84,0Z"/><path d="M172.59,108.85A11.59,11.59,0,0,1,161,97.27h4.66a6.92,6.92,0,0,0,13.84,0l4.66-.16,0,.38h0v.08h0l0,.08A11.6,11.6,0,0,1,172.59,108.85Z"/><path d="M114.18,268.4h-1.4V261h-2.45V259.9c1.7-.12,2.41-.28,2.82-2h1Z"/><path d="M122.53,262.81a2.65,2.65,0,0,1,1.72,2.56,3.23,3.23,0,0,1-3.56,3.31,4.29,4.29,0,0,1-2.52-.81,2.92,2.92,0,0,1-1.08-2.49,2.6,2.6,0,0,1,1.78-2.55,2.08,2.08,0,0,1-1.42-2.05,2.86,2.86,0,0,1,3.18-2.88c2.33,0,3.24,1.48,3.24,2.7A2.21,2.21,0,0,1,122.53,262.81Zm-4,2.6a2,2,0,0,0,2.24,2.09,1.84,1.84,0,0,0,2.1-2,2.18,2.18,0,0,0-4.34-.11Zm4-4.76c0-.64-.41-1.57-2-1.57a1.56,1.56,0,0,0-1.75,1.64,1.86,1.86,0,0,0,3.7-.07Z"/><path d="M129,268.68c-3,0-3.6-3.21-3.6-5.39s.58-5.39,3.6-5.39,3.6,3.21,3.6,5.39S132,268.68,129,268.68Zm0-9.6c-1.51,0-2.2,1.58-2.2,4.21s.69,4.21,2.2,4.21,2.19-1.58,2.19-4.21S130.49,259.08,129,259.08Z"/><path d="M135.32,262.29a3.24,3.24,0,0,1,2-.66A3.34,3.34,0,0,1,140.8,265a3.49,3.49,0,0,1-3.81,3.69,3.09,3.09,0,0,1-3.39-2.9H135a2,2,0,0,0,2.23,1.77,2.24,2.24,0,0,0,2.21-2.41,2.19,2.19,0,0,0-2.33-2.33,2.42,2.42,0,0,0-1.94,1l-1.14-.06.79-5.63h5.44v1.29h-4.45Z"/><path d="M142.08,261.66c0-3.42,2.5-3.76,3.63-3.76A3.08,3.08,0,0,1,149,261c0,1.88-1.24,2.67-2.81,3.5l-1.09.6c-1.43.79-1.75,1.61-1.81,2H149v1.24h-7.19a4.58,4.58,0,0,1,2.47-4.17l1.39-.81c1.12-.64,1.92-1.07,1.92-2.44a1.87,1.87,0,0,0-2.07-1.9c-2,0-2.08,1.85-2.12,2.58Z"/><path d="M153.88,268.68c-3,0-3.6-3.21-3.6-5.39s.58-5.39,3.6-5.39,3.6,3.21,3.6,5.39S156.89,268.68,153.88,268.68Zm0-9.6c-1.51,0-2.2,1.58-2.2,4.21s.69,4.21,2.2,4.21,2.19-1.58,2.19-4.21S155.39,259.08,153.88,259.08Z"/><path d="M158.68,261.66c0-3.42,2.5-3.76,3.63-3.76A3.08,3.08,0,0,1,165.6,261c0,1.88-1.24,2.67-2.81,3.5l-1.09.6c-1.44.79-1.75,1.61-1.81,2h5.71v1.24h-7.19a4.58,4.58,0,0,1,2.47-4.17l1.39-.81c1.12-.64,1.92-1.07,1.92-2.44a1.88,1.88,0,0,0-2.07-1.9c-2,0-2.08,1.85-2.12,2.58Z"/><path d="M170.48,268.68c-3,0-3.6-3.21-3.6-5.39s.58-5.39,3.6-5.39,3.59,3.21,3.59,5.39S173.49,268.68,170.48,268.68Zm0-9.6c-1.51,0-2.2,1.58-2.2,4.21s.69,4.21,2.2,4.21,2.19-1.58,2.19-4.21S172,259.08,170.48,259.08Z"/></svg>