<svg id="Layer_1" data-name="Layer 1" xmlns="http://www.w3.org/2000/svg" viewBox="0 0 283.46 283.46"><defs><style>.cls-1{fill:#fff;}</style></defs><rect class="cls-1" width="283.46" height="283.46"/><path d="M167.1,196.11c-8.84,0-11.67-2.89-13.73-5-1.25-1.27-1.93-2-3.9-2.07h-.26c-3.11,0-5.18,2.88-5.2,2.91a2.32,2.32,0,0,1-3.84,0s-2.23-3.08-5.46-2.9c-2,.1-2.65.8-3.9,2.07-2.06,2.11-4.89,5-13.73,5-14.87,0-18.72-10.79-18.88-11.25a2.4,2.4,0,0,1-.12-.75V142.72a2.33,2.33,0,0,1,4.54-.75c.11.31,3,8.09,14.46,8.09,6.88,0,8.67-1.83,10.4-3.6a9.43,9.43,0,0,1,7-3.47,10.71,10.71,0,0,1,7.63,2.84,10.72,10.72,0,0,1,7.63-2.84,9.43,9.43,0,0,1,7,3.47c1.73,1.77,3.52,3.6,10.4,3.6,11.57,0,14.43-8,14.46-8.09a2.33,2.33,0,0,1,4.54.75v41.39a2.4,2.4,0,0,1-.12.75C185.82,185.32,182,196.11,167.1,196.11Zm-17.91-11.75.53,0a9.43,9.43,0,0,1,7,3.47c1.73,1.77,3.52,3.59,10.4,3.59,10.27,0,13.68-6.31,14.33-7.78V149.85c-2.88,2.54-7.41,4.87-14.33,4.87-8.84,0-11.67-2.88-13.73-5-1.25-1.28-1.93-2-3.9-2.08-3.26-.15-5.44,2.89-5.46,2.92a2.43,2.43,0,0,1-1.93,1,2.31,2.31,0,0,1-1.91-1s-2.21-3.08-5.46-2.91c-2,.1-2.65.8-3.9,2.08-2.06,2.11-4.89,5-13.73,5-6.92,0-11.45-2.33-14.33-4.87v33.81c.66,1.49,4,7.78,14.33,7.78,6.88,0,8.67-1.82,10.4-3.59a9.43,9.43,0,0,1,7-3.47,10.75,10.75,0,0,1,7.63,2.83A10.81,10.81,0,0,1,149.19,184.36Z"/><path d="M102.62,88.31,98.2,86.79c.16-.46,4-11.25,18.88-11.25,8.84,0,11.67,2.89,13.73,5,1.25,1.28,1.93,2,3.9,2.08,3.28.16,5.43-2.87,5.46-2.9l1.92-2.81L144,79.71s2.24,3.07,5.46,2.9c2-.1,2.65-.8,3.9-2.08,2.06-2.1,4.89-5,13.73-5,14.87,0,18.72,10.79,18.88,11.25l-4.42,1.5c-.11-.31-3-8.09-14.46-8.09-6.88,0-8.67,1.83-10.4,3.6a9.43,9.43,0,0,1-7,3.47,10.79,10.79,0,0,1-7.63-2.83,10.75,10.75,0,0,1-7.63,2.83,9.43,9.43,0,0,1-7-3.47c-1.73-1.77-3.52-3.6-10.4-3.6C105.65,80.2,102.73,88,102.62,88.31Z"/><path d="M102.62,74.39,98.2,72.87c.16-.46,4-11.26,18.88-11.26,8.84,0,11.67,2.89,13.73,5,1.25,1.27,1.93,2,3.9,2.08,3.27.18,5.44-2.89,5.46-2.92L142.11,63l1.9,2.75s2.23,3.08,5.46,2.91c2-.11,2.65-.81,3.9-2.08,2.06-2.11,4.89-5,13.73-5,14.87,0,18.72,10.8,18.88,11.26l-4.42,1.5c-.11-.31-3-8.09-14.46-8.09-6.88,0-8.67,1.83-10.4,3.59a9.4,9.4,0,0,1-7,3.48,10.73,10.73,0,0,1-7.63-2.84,10.72,10.72,0,0,1-7.63,2.84,9.4,9.4,0,0,1-7-3.48c-1.73-1.76-3.52-3.59-10.4-3.59C105.65,66.28,102.73,74.06,102.62,74.39Z"/><path d="M102.62,103.21l-4.42-1.53c.16-.45,4-11.25,18.88-11.25,8.84,0,11.67,2.89,13.73,5,1.25,1.27,1.93,2,3.9,2.08,3.28.17,5.43-2.88,5.46-2.91l1.92-2.8L144,94.6s2.24,3.08,5.46,2.91c2-.11,2.65-.81,3.9-2.08,2.06-2.11,4.89-5,13.73-5,14.87,0,18.72,10.8,18.88,11.25l-4.42,1.51c-.11-.31-3-8.09-14.46-8.09-6.88,0-8.67,1.83-10.4,3.59a9.4,9.4,0,0,1-7,3.48,10.75,10.75,0,0,1-7.63-2.84,10.75,10.75,0,0,1-7.63,2.84,9.4,9.4,0,0,1-7-3.48c-1.73-1.76-3.52-3.59-10.4-3.59C105.65,95.1,102.73,102.88,102.62,103.21Z"/><path d="M142.09,193a2.33,2.33,0,0,1-2.33-2.34V67.1a2.33,2.33,0,1,1,4.66,0V190.62A2.33,2.33,0,0,1,142.09,193Z"/><path d="M183.77,211.78H99.7a2.33,2.33,0,1,1,0-4.66h84.07a2.33,2.33,0,0,1,0,4.66Z"/><path d="M108.38,261.92c0-3.41,2.49-3.76,3.63-3.76a3.07,3.07,0,0,1,3.28,3.14c0,1.88-1.24,2.67-2.8,3.51l-1.09.59c-1.44.8-1.75,1.62-1.81,2h5.7v1.24h-7.18a4.6,4.6,0,0,1,2.46-4.17l1.39-.8c1.12-.65,1.93-1.08,1.93-2.45a1.88,1.88,0,0,0-2.08-1.9c-2,0-2.07,1.85-2.12,2.58Z"/><path d="M120.17,268.94c-3,0-3.6-3.21-3.6-5.39s.59-5.39,3.6-5.39,3.6,3.21,3.6,5.39S123.19,268.94,120.17,268.94Zm0-9.6c-1.5,0-2.19,1.58-2.19,4.21s.69,4.21,2.19,4.21,2.2-1.58,2.2-4.21S121.68,259.34,120.17,259.34Z"/><path d="M128.47,268.94c-3,0-3.6-3.21-3.6-5.39s.59-5.39,3.6-5.39,3.6,3.21,3.6,5.39S131.49,268.94,128.47,268.94Zm0-9.6c-1.5,0-2.19,1.58-2.19,4.21s.69,4.21,2.19,4.21,2.2-1.58,2.2-4.21S130,259.34,128.47,259.34Z"/><path d="M134.82,262.55a3.24,3.24,0,0,1,2-.65,3.33,3.33,0,0,1,3.45,3.35,3.49,3.49,0,0,1-3.81,3.69,3.09,3.09,0,0,1-3.39-2.89h1.36a2,2,0,0,0,2.22,1.76,2.24,2.24,0,0,0,2.21-2.41,2.2,2.2,0,0,0-2.33-2.33,2.42,2.42,0,0,0-1.94,1l-1.13-.06.79-5.63h5.44v1.28h-4.45Z"/><path d="M141.58,261.92c0-3.41,2.49-3.76,3.63-3.76a3.07,3.07,0,0,1,3.28,3.14c0,1.88-1.24,2.67-2.8,3.51l-1.1.59c-1.43.8-1.74,1.62-1.8,2h5.7v1.24h-7.18a4.58,4.58,0,0,1,2.46-4.17l1.39-.8c1.12-.65,1.93-1.08,1.93-2.45a1.88,1.88,0,0,0-2.08-1.9c-2,0-2.07,1.85-2.12,2.58Z"/><path d="M153.37,268.94c-3,0-3.6-3.21-3.6-5.39s.59-5.39,3.6-5.39,3.6,3.21,3.6,5.39S156.39,268.94,153.37,268.94Zm0-9.6c-1.51,0-2.19,1.58-2.19,4.21s.68,4.21,2.19,4.21,2.2-1.58,2.2-4.21S154.88,259.34,153.37,259.34Z"/><path d="M158.18,261.92c0-3.41,2.49-3.76,3.63-3.76a3.07,3.07,0,0,1,3.28,3.14c0,1.88-1.24,2.67-2.81,3.51l-1.09.59c-1.43.8-1.74,1.62-1.8,2h5.7v1.24h-7.18a4.58,4.58,0,0,1,2.46-4.17l1.39-.8c1.12-.65,1.93-1.08,1.93-2.45a1.88,1.88,0,0,0-2.08-1.9c-2,0-2.07,1.85-2.12,2.58Z"/><path d="M170,268.94c-3,0-3.6-3.21-3.6-5.39s.59-5.39,3.6-5.39,3.6,3.21,3.6,5.39S173,268.94,170,268.94Zm0-9.6c-1.51,0-2.19,1.58-2.19,4.21s.68,4.21,2.19,4.21,2.2-1.58,2.2-4.21S171.48,259.34,170,259.34Z"/></svg>