<svg id="Layer_1" data-name="Layer 1" xmlns="http://www.w3.org/2000/svg" viewBox="0 0 283.46 283.46"><defs><style>.cls-1{fill:#fff;}</style></defs><rect class="cls-1" width="283.46" height="283.46"/><path d="M113.92,160.26l-4.6-.76c0-.25,4-24.78-5.55-36-3.12-3.67-7.26-5.46-12.68-5.46s-9.59,1.79-12.74,5.47c-9.59,11.23-5.85,35.75-5.81,36l-4.61.73c-.18-1.09-4.12-26.88,6.87-39.75,4-4.72,9.51-7.11,16.29-7.11s12.24,2.39,16.24,7.1C118.24,133.36,114.11,159.17,113.92,160.26Z"/><path d="M199.7,159.9l-4.67,0c0-.08.06-7.84-.52-15.92-1-13.65-2.87-16.46-3.33-17-2.05.16-4.57,2.47-7,4.7-3.35,3.08-7.14,6.56-11.79,6.56-4.49,0-7.68-2.88-10.77-5.66-2.82-2.55-5.73-5.18-9.84-6a.83.83,0,0,0-.84.25c-3.53,3.14-3.92,20.25-3.07,31.39l-4.66.36c-.37-4.87-1.89-29.44,4.62-35.24a5.5,5.5,0,0,1,4.84-1.35c5.38,1,8.94,4.26,12.08,7.09,2.76,2.49,4.94,4.46,7.64,4.46s5.78-2.71,8.63-5.32c3.18-2.92,6.47-5.94,10.38-5.94a4.22,4.22,0,0,1,3.06,1.35C199.68,128.93,199.74,154.77,199.7,159.9Z"/><path d="M208.2,141.51a8.16,8.16,0,1,1,8.15-8.15A8.17,8.17,0,0,1,208.2,141.51Zm0-11.64a3.49,3.49,0,1,0,3.48,3.49A3.49,3.49,0,0,0,208.2,129.87Z"/><path d="M123.51,141.51a8.16,8.16,0,1,1,8.16-8.15A8.16,8.16,0,0,1,123.51,141.51Zm0-11.64a3.49,3.49,0,1,0,3.49,3.49A3.49,3.49,0,0,0,123.51,129.87Z"/><path d="M112.68,270.59c-3,0-3.6-3.21-3.6-5.39s.58-5.39,3.6-5.39,3.6,3.21,3.6,5.39S115.69,270.59,112.68,270.59Zm0-9.6c-1.51,0-2.2,1.58-2.2,4.21s.69,4.21,2.2,4.21,2.19-1.59,2.19-4.21S114.19,261,112.68,261Z"/><path d="M123.05,262.6a1.7,1.7,0,0,0-1.8-1.61c-2.06,0-2.5,2.77-2.5,3.88l0,0a2.7,2.7,0,0,1,2.5-1.29,3.19,3.19,0,0,1,3.28,3.33,3.52,3.52,0,0,1-1,2.63,3.09,3.09,0,0,1-2.66,1,3.24,3.24,0,0,1-2.7-1.52,6.78,6.78,0,0,1-.81-3.65c0-2.3.75-5.61,3.89-5.61a2.89,2.89,0,0,1,3.06,2.79Zm-1.91,6.81A2.13,2.13,0,0,0,123.2,267a2,2,0,0,0-2.12-2.21,2.08,2.08,0,0,0-2.15,2.29A2.17,2.17,0,0,0,121.14,269.41Z"/><path d="M129.28,270.59c-3,0-3.6-3.21-3.6-5.39s.58-5.39,3.6-5.39,3.6,3.21,3.6,5.39S132.29,270.59,129.28,270.59Zm0-9.6c-1.51,0-2.2,1.58-2.2,4.21s.69,4.21,2.2,4.21,2.19-1.59,2.19-4.21S130.79,261,129.28,261Z"/><path d="M135.62,264.2a3.18,3.18,0,0,1,2-.66,3.33,3.33,0,0,1,3.45,3.36,3.49,3.49,0,0,1-3.81,3.69,3.09,3.09,0,0,1-3.39-2.9h1.36a2,2,0,0,0,2.23,1.76,2.23,2.23,0,0,0,2.21-2.4,2.19,2.19,0,0,0-2.33-2.33,2.42,2.42,0,0,0-1.94,1l-1.14-.06.79-5.63h5.44v1.29h-4.45Z"/><path d="M142.38,263.57c0-3.42,2.5-3.76,3.63-3.76a3.08,3.08,0,0,1,3.29,3.13c0,1.88-1.24,2.68-2.81,3.51l-1.09.6c-1.43.79-1.75,1.61-1.81,2h5.71v1.23h-7.19a4.57,4.57,0,0,1,2.47-4.16l1.39-.81c1.12-.64,1.92-1.07,1.92-2.45a1.87,1.87,0,0,0-2.07-1.89c-2,0-2.08,1.85-2.12,2.58Z"/><path d="M154.18,270.59c-3,0-3.6-3.21-3.6-5.39s.58-5.39,3.6-5.39,3.6,3.21,3.6,5.39S157.19,270.59,154.18,270.59Zm0-9.6c-1.51,0-2.2,1.58-2.2,4.21s.69,4.21,2.2,4.21,2.19-1.59,2.19-4.21S155.69,261,154.18,261Z"/><path d="M159,263.57c0-3.42,2.5-3.76,3.63-3.76a3.08,3.08,0,0,1,3.29,3.13c0,1.88-1.24,2.68-2.81,3.51l-1.09.6c-1.44.79-1.75,1.61-1.81,2h5.71v1.23h-7.19a4.57,4.57,0,0,1,2.47-4.16l1.39-.81c1.12-.64,1.92-1.07,1.92-2.45a1.88,1.88,0,0,0-2.07-1.89c-2,0-2.08,1.85-2.12,2.58Z"/><path d="M170.78,270.59c-3,0-3.6-3.21-3.6-5.39s.58-5.39,3.6-5.39,3.59,3.21,3.59,5.39S173.79,270.59,170.78,270.59Zm0-9.6c-1.51,0-2.2,1.58-2.2,4.21s.69,4.21,2.2,4.21,2.19-1.59,2.19-4.21S172.28,261,170.78,261Z"/></svg>