<svg id="Layer_1" data-name="Layer 1" xmlns="http://www.w3.org/2000/svg" viewBox="0 0 283.46 283.46"><defs><style>.cls-1{fill:#fff;}</style></defs><rect class="cls-1" width="283.46" height="283.46"/><path d="M147.07,146.44c-21.82,0-39.17-15.5-39.9-16.16l-1.94-1.77,2-1.72c.73-.64,18.07-15.55,39.87-15.55s39.14,14.91,39.86,15.55l2,1.72L187,130.28C186.24,130.94,168.89,146.44,147.07,146.44Zm-34.6-17.86c5.14,4,18.82,13.19,34.6,13.19s29.46-9.23,34.6-13.19c-5.17-3.82-18.83-12.68-34.6-12.68S117.63,124.76,112.47,128.58Z"/><path d="M94.55,144.6V112.06l18.77,17.49Zm4.67-21.81v12.09l7-5.6Z"/><path d="M152.57,132.48c-2.31,0-3.89-.13-4.1-.15l.39-4.65c4.15.35,16,.31,20.85-3.94l3.06,3.51C167.6,131.77,158,132.48,152.57,132.48Z"/><path d="M164.78,118.93l-1.18-4.52a15,15,0,0,0,6.11-2.86l3.06,3.51A19.5,19.5,0,0,1,164.78,118.93Z"/><circle cx="175.79" cy="128.67" r="2.25"/><path d="M112.68,270.6c-3,0-3.6-3.21-3.6-5.39s.58-5.39,3.6-5.39,3.6,3.21,3.6,5.39S115.7,270.6,112.68,270.6Zm0-9.6c-1.51,0-2.19,1.58-2.19,4.21s.68,4.21,2.19,4.21,2.2-1.58,2.2-4.21S114.19,261,112.68,261Z"/><path d="M122.83,264.73a2.66,2.66,0,0,1,1.72,2.56A3.22,3.22,0,0,1,121,270.6a4.35,4.35,0,0,1-2.53-.8,3,3,0,0,1-1.07-2.5,2.59,2.59,0,0,1,1.77-2.55,2.09,2.09,0,0,1-1.42-2.05,2.87,2.87,0,0,1,3.19-2.88c2.33,0,3.24,1.48,3.24,2.7A2.2,2.2,0,0,1,122.83,264.73Zm-4,2.6a2,2,0,0,0,2.24,2.09,1.84,1.84,0,0,0,2.11-2,2.18,2.18,0,0,0-4.35-.11Zm4-4.76c0-.64-.42-1.57-2-1.57a1.57,1.57,0,0,0-1.75,1.64,1.87,1.87,0,0,0,3.71-.07Z"/><path d="M129.28,270.6c-3,0-3.6-3.21-3.6-5.39s.58-5.39,3.6-5.39,3.6,3.21,3.6,5.39S132.3,270.6,129.28,270.6Zm0-9.6c-1.51,0-2.19,1.58-2.19,4.21s.68,4.21,2.19,4.21,2.2-1.58,2.2-4.21S130.79,261,129.28,261Z"/><path d="M135.62,264.21a3.25,3.25,0,0,1,2-.66,3.33,3.33,0,0,1,3.44,3.36,3.49,3.49,0,0,1-3.8,3.69,3.08,3.08,0,0,1-3.39-2.89h1.36a2,2,0,0,0,2.22,1.76,2.24,2.24,0,0,0,2.21-2.41,2.19,2.19,0,0,0-2.33-2.33,2.42,2.42,0,0,0-1.94,1l-1.14-.06.8-5.63h5.43v1.29h-4.45Z"/><path d="M142.39,263.58c0-3.42,2.49-3.76,3.62-3.76A3.07,3.07,0,0,1,149.3,263c0,1.88-1.24,2.67-2.81,3.51l-1.09.59c-1.43.8-1.75,1.62-1.8,2h5.7v1.24h-7.18a4.58,4.58,0,0,1,2.46-4.17l1.39-.8c1.12-.65,1.93-1.08,1.93-2.45a1.88,1.88,0,0,0-2.08-1.9c-2,0-2.08,1.85-2.12,2.58Z"/><path d="M154.18,270.6c-3,0-3.6-3.21-3.6-5.39s.58-5.39,3.6-5.39,3.6,3.21,3.6,5.39S157.2,270.6,154.18,270.6Zm0-9.6c-1.51,0-2.2,1.58-2.2,4.21s.69,4.21,2.2,4.21,2.2-1.58,2.2-4.21S155.69,261,154.18,261Z"/><path d="M159,263.58c0-3.42,2.5-3.76,3.63-3.76A3.07,3.07,0,0,1,165.9,263c0,1.88-1.24,2.67-2.81,3.51l-1.09.59c-1.43.8-1.75,1.62-1.81,2h5.71v1.24h-7.18a4.58,4.58,0,0,1,2.46-4.17l1.39-.8c1.12-.65,1.93-1.08,1.93-2.45a1.88,1.88,0,0,0-2.08-1.9c-2,0-2.08,1.85-2.12,2.58Z"/><path d="M170.78,270.6c-3,0-3.6-3.21-3.6-5.39s.58-5.39,3.6-5.39,3.6,3.21,3.6,5.39S173.8,270.6,170.78,270.6Zm0-9.6c-1.51,0-2.2,1.58-2.2,4.21s.69,4.21,2.2,4.21,2.19-1.58,2.19-4.21S172.29,261,170.78,261Z"/></svg>