<svg id="Layer_1" data-name="Layer 1" xmlns="http://www.w3.org/2000/svg" viewBox="0 0 283.46 283.46"><defs><style>.cls-1{fill:#fff;}</style></defs><rect width="283.46" height="283.46"/><path class="cls-1" d="M76.52,186.8a2.33,2.33,0,0,1-2-3.5L120.37,104l-9.88-7.42a2.33,2.33,0,1,1,2.8-3.73l11.54,8.66a2.34,2.34,0,0,1,.62,3l-46.9,81.11A2.34,2.34,0,0,1,76.52,186.8Z"/><path class="cls-1" d="M119.15,175.1a2.27,2.27,0,0,1-1.17-.32L64.24,143.7a2.33,2.33,0,1,1,2.34-4l53.74,31.08a2.34,2.34,0,0,1-1.17,4.36Z"/><path class="cls-1" d="M100.14,189.78a2.35,2.35,0,0,1-2.26-1.73l-16-60a2.33,2.33,0,1,1,4.51-1.21l16,60a2.32,2.32,0,0,1-1.65,2.86A2.47,2.47,0,0,1,100.14,189.78Z"/><path class="cls-1" d="M62.06,167.57a2.33,2.33,0,0,1-.6-4.59l60-16a2.33,2.33,0,0,1,1.2,4.51l-60,16A2.47,2.47,0,0,1,62.06,167.57Z"/><path class="cls-1" d="M142.33,159.48a2.32,2.32,0,0,1-1.86-.93l-28.34-37.46a2.34,2.34,0,0,1,1.86-3.74h48.66l8.76-15.15a2.33,2.33,0,0,1,4,2.33l-9.07,15.7a2.34,2.34,0,0,1-.66,1.14l-21.37,36.94a2.29,2.29,0,0,1-1.87,1.16ZM118.69,122l23.38,30.92L160,122Z"/><path class="cls-1" d="M210,184.76a2.32,2.32,0,0,1-1.86-.92l-47.19-62.4a2.33,2.33,0,0,1,3.72-2.81L211.85,181a2.33,2.33,0,0,1-1.86,3.74Z"/><path class="cls-1" d="M165.88,178.24a2.33,2.33,0,0,1-1.41-4.19l49.85-37.7a2.33,2.33,0,0,1,2.81,3.72l-49.85,37.7A2.29,2.29,0,0,1,165.88,178.24Z"/><path class="cls-1" d="M222.22,163.69a1.84,1.84,0,0,1-.33,0L160,155.07a2.33,2.33,0,1,1,.64-4.62L222.54,159a2.34,2.34,0,0,1-.32,4.65Z"/><path class="cls-1" d="M186.51,190.73l-.33,0a2.35,2.35,0,0,1-2-2.64l8.59-61.9a2.34,2.34,0,0,1,4.63.64l-8.59,61.91A2.35,2.35,0,0,1,186.51,190.73Z"/><path class="cls-1" d="M178.69,104.37H158.83a2.34,2.34,0,0,1,0-4.67h19.86a2.34,2.34,0,0,1,0,4.67Z"/><path class="cls-1" d="M191.14,191.09a33.59,33.59,0,1,1,33.58-33.59A33.63,33.63,0,0,1,191.14,191.09Zm0-62.51a28.92,28.92,0,1,0,28.92,28.92A29,29,0,0,0,191.14,128.58Z"/><path class="cls-1" d="M92.33,184.67a27.17,27.17,0,1,1,27.16-27.17A27.2,27.2,0,0,1,92.33,184.67Zm0-53a25.83,25.83,0,1,0,25.83,25.83A25.86,25.86,0,0,0,92.33,131.67Z"/><path class="cls-1" d="M191.11,184.5a27,27,0,1,1,27-27A27,27,0,0,1,191.11,184.5Zm0-52.66a25.66,25.66,0,1,0,25.66,25.66A25.69,25.69,0,0,0,191.11,131.84Z"/><path class="cls-1" d="M92.33,191.09a33.59,33.59,0,1,1,33.58-33.59A33.63,33.63,0,0,1,92.33,191.09Zm0-62.51a28.92,28.92,0,1,0,28.92,28.92A29,29,0,0,0,92.33,128.58Z"/><ellipse class="cls-1" cx="102.51" cy="173" rx="1.19" ry="1.13" transform="translate(-92.31 123.16) rotate(-45)"/><ellipse class="cls-1" cx="100.62" cy="167.48" rx="1.19" ry="1.13" transform="translate(-88.95 120.21) rotate(-45)"/><ellipse class="cls-1" cx="72.67" cy="154.74" rx="1.19" ry="1.13" transform="translate(-88.13 96.71) rotate(-45)"/><ellipse class="cls-1" cx="111.28" cy="157.5" rx="1.19" ry="1.13" transform="translate(-78.78 124.82) rotate(-45)"/><ellipse class="cls-1" cx="77.35" cy="169.63" rx="1.19" ry="1.13" transform="translate(-97.29 104.38) rotate(-45)"/><ellipse class="cls-1" cx="90.45" cy="171.61" rx="1.19" ry="1.13" transform="translate(-94.85 114.22) rotate(-45)"/><ellipse class="cls-1" cx="180.58" cy="173" rx="1.19" ry="1.13" transform="translate(-69.44 178.36) rotate(-45)"/><ellipse class="cls-1" cx="182.88" cy="168.23" rx="1.19" ry="1.13" transform="translate(-65.4 178.59) rotate(-45)"/><ellipse class="cls-1" cx="184.12" cy="171.9" rx="1.19" ry="1.13" transform="translate(-67.63 180.54) rotate(-45)"/><ellipse class="cls-1" cx="194.53" cy="176.49" rx="1.19" ry="1.13" transform="translate(-67.82 189.24) rotate(-45)"/><ellipse class="cls-1" cx="171.19" cy="158.6" rx="1.19" ry="1.13" transform="translate(-62.01 167.5) rotate(-45)"/><ellipse class="cls-1" cx="177.67" cy="159.64" rx="1.19" ry="1.13" transform="translate(-60.84 172.39) rotate(-45)"/><ellipse class="cls-1" cx="173.64" cy="148.49" rx="1.19" ry="1.13" transform="translate(-54.14 166.27) rotate(-45)"/><ellipse class="cls-1" cx="177.67" cy="148.49" rx="1.19" ry="1.13" transform="translate(-52.96 169.13) rotate(-45)"/><ellipse class="cls-1" cx="183.92" cy="138.21" rx="1.19" ry="1.13" transform="translate(-43.86 170.53) rotate(-45)"/><ellipse class="cls-1" cx="198.9" cy="138.21" rx="1.19" ry="1.13" transform="translate(-39.47 181.12) rotate(-45)"/><ellipse class="cls-1" cx="205.51" cy="153.42" rx="1.19" ry="1.13" transform="translate(-48.29 190.25) rotate(-45)"/><ellipse class="cls-1" cx="202.61" cy="162.83" rx="1.19" ry="1.13" transform="translate(-55.79 190.96) rotate(-45)"/><ellipse class="cls-1" cx="208.83" cy="168.23" rx="1.19" ry="1.13" transform="translate(-57.79 196.94) rotate(-45)"/><ellipse class="cls-1" cx="101.78" cy="149.75" rx="1.19" ry="1.13" transform="translate(-76.08 115.83) rotate(-45)"/><ellipse class="cls-1" cx="104.66" cy="144.81" rx="1.19" ry="1.13" transform="translate(-71.75 116.42) rotate(-45)"/><ellipse class="cls-1" cx="109.66" cy="148.05" rx="1.19" ry="1.13" transform="translate(-72.57 120.91) rotate(-45)"/><ellipse class="cls-1" cx="80.1" cy="165.66" rx="1.19" ry="1.13" transform="translate(-93.68 105.16) rotate(-45)"/><ellipse class="cls-1" cx="84.5" cy="144.14" rx="1.19" ry="1.13" transform="translate(-77.17 101.97) rotate(-45)"/><ellipse class="cls-1" cx="94.97" cy="139.59" rx="1.19" ry="1.13" transform="translate(-70.89 108.04) rotate(-45)"/><ellipse class="cls-1" cx="77.35" cy="153.92" rx="1.19" ry="1.13" transform="translate(-86.18 99.78) rotate(-45)"/><path class="cls-1" d="M201.3,143.33a.65.65,0,0,1-.51-.24.67.67,0,0,1,.08-.94l2.78-2.35a.67.67,0,1,1,.86,1l-2.78,2.35A.66.66,0,0,1,201.3,143.33Z"/><path class="cls-1" d="M213,151.24a.55.55,0,0,1-.18,0l-3-.82a.67.67,0,0,1,.36-1.29l3,.83a.66.66,0,0,1-.18,1.3Z"/><path class="cls-1" d="M180,178.09a.67.67,0,0,1-.21-1.3l2.86-.93a.66.66,0,0,1,.84.43.67.67,0,0,1-.43.84l-2.86.93Z"/><path class="cls-1" d="M173.64,165.9a.7.7,0,0,1-.43-.15l-2.92-2.41a.66.66,0,0,1-.09-.94.66.66,0,0,1,.93-.09l2.93,2.41a.68.68,0,0,1,.09.94A.65.65,0,0,1,173.64,165.9Z"/><path class="cls-1" d="M196.59,174.35a.66.66,0,0,1-.62-.44l-1.5-4a.66.66,0,0,1,.39-.85.67.67,0,0,1,.86.39l1.5,4a.66.66,0,0,1-.39.85A.69.69,0,0,1,196.59,174.35Z"/><path class="cls-1" d="M187.07,143.33a.69.69,0,0,1-.24-.05.67.67,0,0,1-.38-.86l2-5.12a.66.66,0,0,1,.86-.37.68.68,0,0,1,.38.87l-2,5.11A.66.66,0,0,1,187.07,143.33Z"/><path class="cls-1" d="M85.25,181a.67.67,0,0,1-.47-1.14L87,177.59a.66.66,0,0,1,.94,0,.68.68,0,0,1,0,.95l-2.25,2.24A.67.67,0,0,1,85.25,181Z"/><path class="cls-1" d="M92.33,178.73a.65.65,0,0,1-.5-.22l-3-3.43a.66.66,0,0,1,.06-.94.67.67,0,0,1,.94.06l3,3.43a.68.68,0,0,1-.06.94A.68.68,0,0,1,92.33,178.73Z"/><path class="cls-1" d="M72,170.3a.67.67,0,0,1-.44-.17.66.66,0,0,1-.06-.94l2.57-2.9a.66.66,0,0,1,.94-.06.67.67,0,0,1,.06.94l-2.57,2.9A.67.67,0,0,1,72,170.3Z"/><path class="cls-1" d="M69.21,153a.68.68,0,0,1-.54-.28.67.67,0,0,1,.14-.93l2-1.5a.67.67,0,0,1,.79,1.08l-2,1.5A.68.68,0,0,1,69.21,153Z"/><path class="cls-1" d="M78,142.35a.75.75,0,0,1-.26,0,.67.67,0,0,1-.35-.88l1.23-2.9a.66.66,0,1,1,1.22.52l-1.23,2.9A.65.65,0,0,1,78,142.35Z"/><path class="cls-1" d="M90.82,137.34a.65.65,0,0,1-.54-.29.66.66,0,0,1,.16-.92l4.15-2.89a.66.66,0,0,1,.76,1.09l-4.15,2.89A.66.66,0,0,1,90.82,137.34Z"/><path class="cls-1" d="M109.66,143.76a.63.63,0,0,1-.34-.1l-2.37-1.4a.67.67,0,1,1,.68-1.15l2.37,1.41a.67.67,0,0,1,.24.91A.68.68,0,0,1,109.66,143.76Z"/><path class="cls-1" d="M111.28,163a.67.67,0,0,1-.32-1.25l3.81-2.14a.66.66,0,0,1,.65,1.16l-3.81,2.14A.68.68,0,0,1,111.28,163Z"/><path class="cls-1" d="M107.29,175.84a.66.66,0,0,1-.67-.66v-3.57a.67.67,0,1,1,1.33,0v3.57A.66.66,0,0,1,107.29,175.84Z"/><path class="cls-1" d="M109.59,261.92c0-3.41,2.49-3.76,3.63-3.76a3.07,3.07,0,0,1,3.28,3.14c0,1.88-1.24,2.67-2.8,3.51l-1.09.59c-1.44.8-1.75,1.62-1.81,2h5.7v1.24h-7.18a4.58,4.58,0,0,1,2.47-4.17l1.38-.8c1.12-.65,1.93-1.08,1.93-2.45a1.88,1.88,0,0,0-2.07-1.9c-2,0-2.08,1.85-2.13,2.58Z"/><path class="cls-1" d="M122.59,268.66h-1.4v-7.45h-2.45v-1c1.7-.12,2.41-.28,2.82-2h1Z"/><path class="cls-1" d="M128.86,268.94c-3,0-3.6-3.21-3.6-5.39s.59-5.39,3.6-5.39,3.6,3.21,3.6,5.39S131.88,268.94,128.86,268.94Zm0-9.6c-1.5,0-2.19,1.58-2.19,4.21s.69,4.21,2.19,4.21,2.2-1.58,2.2-4.21S130.37,259.34,128.86,259.34Z"/><path class="cls-1" d="M135.21,262.55a3.24,3.24,0,0,1,2-.65,3.33,3.33,0,0,1,3.45,3.35,3.49,3.49,0,0,1-3.81,3.69,3.09,3.09,0,0,1-3.39-2.89h1.36a2,2,0,0,0,2.22,1.76,2.24,2.24,0,0,0,2.21-2.41,2.2,2.2,0,0,0-2.33-2.33,2.42,2.42,0,0,0-1.94,1l-1.13-.06.79-5.63h5.44v1.28h-4.45Z"/><path class="cls-1" d="M142,261.92c0-3.41,2.49-3.76,3.63-3.76a3.07,3.07,0,0,1,3.28,3.14c0,1.88-1.24,2.67-2.8,3.51l-1.09.59c-1.44.8-1.75,1.62-1.81,2h5.7v1.24H141.7a4.6,4.6,0,0,1,2.46-4.17l1.39-.8c1.12-.65,1.93-1.08,1.93-2.45a1.88,1.88,0,0,0-2.08-1.9c-2,0-2.07,1.85-2.12,2.58Z"/><path class="cls-1" d="M153.76,268.94c-3,0-3.6-3.21-3.6-5.39s.59-5.39,3.6-5.39,3.6,3.21,3.6,5.39S156.78,268.94,153.76,268.94Zm0-9.6c-1.5,0-2.19,1.58-2.19,4.21s.69,4.21,2.19,4.21,2.2-1.58,2.2-4.21S155.27,259.34,153.76,259.34Z"/><path class="cls-1" d="M158.57,261.92c0-3.41,2.49-3.76,3.63-3.76a3.07,3.07,0,0,1,3.28,3.14c0,1.88-1.24,2.67-2.8,3.51l-1.1.59c-1.43.8-1.74,1.62-1.8,2h5.7v1.24H158.3a4.58,4.58,0,0,1,2.46-4.17l1.39-.8c1.12-.65,1.93-1.08,1.93-2.45a1.88,1.88,0,0,0-2.08-1.9c-2,0-2.07,1.85-2.12,2.58Z"/><path class="cls-1" d="M170.36,268.94c-3,0-3.6-3.21-3.6-5.39s.59-5.39,3.6-5.39,3.6,3.21,3.6,5.39S173.38,268.94,170.36,268.94Zm0-9.6c-1.51,0-2.19,1.58-2.19,4.21s.68,4.21,2.19,4.21,2.2-1.58,2.2-4.21S171.87,259.34,170.36,259.34Z"/></svg>