<svg id="Layer_1" data-name="Layer 1" xmlns="http://www.w3.org/2000/svg" viewBox="0 0 283.46 283.46"><defs><style>.cls-1{fill:#fff;}</style></defs><rect width="283.46" height="283.46"/><path class="cls-1" d="M90,200.28a2.34,2.34,0,0,1-2.21-3.07l33.91-102.1a2.33,2.33,0,1,1,4.42,1.47l-33.9,102.1A2.34,2.34,0,0,1,90,200.28Z"/><path class="cls-1" d="M195.34,200.28a2.32,2.32,0,0,1-2.21-1.6L159.22,96.58a2.33,2.33,0,0,1,4.43-1.47l33.91,102.1a2.34,2.34,0,0,1-1.48,2.95A2.39,2.39,0,0,1,195.34,200.28Z"/><path class="cls-1" d="M142,112.34a2.33,2.33,0,0,1-2.33-2.33V96.37a2.33,2.33,0,0,1,4.66,0V110A2.33,2.33,0,0,1,142,112.34Z"/><path class="cls-1" d="M142,141.92a2.33,2.33,0,0,1-2.33-2.33V121.23a2.33,2.33,0,0,1,4.66,0v18.36A2.33,2.33,0,0,1,142,141.92Z"/><path class="cls-1" d="M142,180.83a2.33,2.33,0,0,1-2.33-2.34v-29a2.33,2.33,0,0,1,4.66,0v29A2.33,2.33,0,0,1,142,180.83Z"/><path class="cls-1" d="M129.82,200.72a2.29,2.29,0,0,1-1.2-.33,2.34,2.34,0,0,1-.8-3.2l11.94-19.9a2.36,2.36,0,0,1,2-1.13h0a2.33,2.33,0,0,1,2,1.1l12.38,19.9a2.34,2.34,0,0,1-4,2.46L141.8,183l-10,16.62A2.33,2.33,0,0,1,129.82,200.72Z"/><path class="cls-1" d="M129.82,170.73a2.39,2.39,0,0,1-1.2-.33,2.34,2.34,0,0,1-.8-3.2l11.94-19.9a2.31,2.31,0,0,1,2-1.13h0a2.31,2.31,0,0,1,2,1.1l12.38,19.89a2.34,2.34,0,1,1-4,2.47L141.8,153l-10,16.62A2.33,2.33,0,0,1,129.82,170.73Z"/><path class="cls-1" d="M142,83.6a11.49,11.49,0,1,1,11.49-11.48A11.5,11.5,0,0,1,142,83.6Zm0-18.31a6.83,6.83,0,1,0,6.82,6.83A6.83,6.83,0,0,0,142,65.29Z"/><path class="cls-1" d="M114.19,263.7h-1.4v-7.45h-2.45V255.2c1.7-.12,2.4-.28,2.82-2h1Z"/><path class="cls-1" d="M122.76,256a1.71,1.71,0,0,0-1.81-1.62c-2.06,0-2.49,2.78-2.49,3.89l0,0A2.71,2.71,0,0,1,121,257a3.19,3.19,0,0,1,3.29,3.33,3.53,3.53,0,0,1-1,2.63,3.09,3.09,0,0,1-2.66,1,3.19,3.19,0,0,1-2.7-1.52,6.74,6.74,0,0,1-.81-3.64c0-2.3.75-5.62,3.88-5.62A2.89,2.89,0,0,1,124,256Zm-1.91,6.8a2.13,2.13,0,0,0,2.06-2.4,2,2,0,0,0-2.12-2.21,2.08,2.08,0,0,0-2.15,2.28A2.17,2.17,0,0,0,120.85,262.8Z"/><path class="cls-1" d="M129,264c-3,0-3.59-3.21-3.59-5.39s.58-5.39,3.59-5.39,3.6,3.21,3.6,5.39S132,264,129,264Zm0-9.6c-1.5,0-2.19,1.58-2.19,4.21s.69,4.21,2.19,4.21,2.2-1.58,2.2-4.21S130.49,254.38,129,254.38Z"/><path class="cls-1" d="M135.33,257.59a3.24,3.24,0,0,1,2-.65,3.33,3.33,0,0,1,3.45,3.36A3.49,3.49,0,0,1,137,264a3.09,3.09,0,0,1-3.39-2.89H135a2,2,0,0,0,2.23,1.76,2.24,2.24,0,0,0,2.21-2.4,2.19,2.19,0,0,0-2.33-2.33,2.41,2.41,0,0,0-2,1l-1.13-.06.79-5.63h5.44v1.28h-4.45Z"/><path class="cls-1" d="M142.09,257c0-3.42,2.49-3.77,3.63-3.77a3.07,3.07,0,0,1,3.28,3.14c0,1.88-1.24,2.67-2.8,3.51l-1.09.6c-1.44.79-1.75,1.61-1.81,2H149v1.24h-7.18a4.6,4.6,0,0,1,2.47-4.17l1.38-.8c1.12-.64,1.93-1.08,1.93-2.45a1.88,1.88,0,0,0-2.08-1.9c-2,0-2.07,1.85-2.12,2.59Z"/><path class="cls-1" d="M153.88,264c-3,0-3.59-3.21-3.59-5.39s.58-5.39,3.59-5.39,3.6,3.21,3.6,5.39S156.9,264,153.88,264Zm0-9.6c-1.5,0-2.19,1.58-2.19,4.21s.69,4.21,2.19,4.21,2.2-1.58,2.2-4.21S155.39,254.38,153.88,254.38Z"/><path class="cls-1" d="M158.69,257c0-3.42,2.49-3.77,3.63-3.77a3.07,3.07,0,0,1,3.28,3.14c0,1.88-1.24,2.67-2.8,3.51l-1.09.6c-1.44.79-1.75,1.61-1.81,2h5.7v1.24h-7.18a4.6,4.6,0,0,1,2.47-4.17l1.38-.8c1.12-.64,1.93-1.08,1.93-2.45a1.88,1.88,0,0,0-2.08-1.9c-2,0-2.07,1.85-2.12,2.59Z"/><path class="cls-1" d="M170.48,264c-3,0-3.6-3.21-3.6-5.39s.59-5.39,3.6-5.39,3.6,3.21,3.6,5.39S173.5,264,170.48,264Zm0-9.6c-1.5,0-2.19,1.58-2.19,4.21s.69,4.21,2.19,4.21,2.2-1.58,2.2-4.21S172,254.38,170.48,254.38Z"/></svg>