<svg id="Layer_1" data-name="Layer 1" xmlns="http://www.w3.org/2000/svg" viewBox="0 0 283.46 283.46"><defs><style>.cls-1{fill:#fff;}</style></defs><rect width="283.46" height="283.46"/><path class="cls-1" d="M144,165.12H105.33a3.48,3.48,0,0,1-3.48-3.47V141.76a3.47,3.47,0,0,1,3.48-3.47h19.21c.35-7.67,4-12.25,9.88-12.32a8.26,8.26,0,0,1,6.22,2.44c2.74,2.79,3.32,7.26,3.36,10.31l4.93,0c17.74.21,32.68,2,32.68,13.17C181.61,165.12,164.19,165.12,144,165.12Zm-37.5-4.67H144c20.41,0,32.92-.41,32.92-8.53,0-7.08-13.16-8.54-32.92-8.54h-1.23a3.45,3.45,0,0,1-3.47-3.58c.12-3.67-.63-6.71-2-8.12a3.62,3.62,0,0,0-2.75-1.05h-.06c-4.62.06-5.31,5.58-5.32,8.86a3.47,3.47,0,0,1-3.47,3.46H106.52Z"/><path class="cls-1" d="M148.92,156.25a8.33,8.33,0,0,1-6.1-2.45c-2.73-2.79-3.31-7.26-3.35-10.31l-4.93,0c-17.75-.22-32.69-2-32.69-13.18,0-13.2,17.43-13.2,37.6-13.2h38.69a3.48,3.48,0,0,1,3.47,3.47v19.89a3.48,3.48,0,0,1-3.47,3.48H158.92c-.35,7.66-4,12.24-9.87,12.32Zm-9.47-17.42h1.22a3.47,3.47,0,0,1,3.47,3.58c-.12,3.68.63,6.71,2,8.12a3.6,3.6,0,0,0,2.76,1.05H149c4.59-.06,5.29-5.57,5.29-8.86a3.47,3.47,0,0,1,3.47-3.46h19.19v-17.5H139.45c-20.42,0-32.93.41-32.93,8.53C106.52,137.38,119.68,138.83,139.45,138.83Z"/><path class="cls-1" d="M112.68,270.6c-3,0-3.6-3.21-3.6-5.39s.59-5.39,3.6-5.39,3.6,3.21,3.6,5.39S115.7,270.6,112.68,270.6Zm0-9.6c-1.5,0-2.19,1.58-2.19,4.21s.69,4.21,2.19,4.21,2.2-1.58,2.2-4.21S114.19,261,112.68,261Z"/><path class="cls-1" d="M117.46,263.42a3.32,3.32,0,0,1,3.37-3.6c3.35,0,3.68,3.17,3.68,4.87,0,1.12-.2,5.91-3.81,5.91a2.82,2.82,0,0,1-3.12-2.81h1.31a1.67,1.67,0,0,0,1.78,1.72c1.43,0,2.19-1.21,2.52-3.93l0,0a2.66,2.66,0,0,1-2.4,1.26A3.15,3.15,0,0,1,117.46,263.42Zm5.51-.18a2,2,0,0,0-2.12-2.24,2.09,2.09,0,0,0-2,2.36c0,2,1.25,2.27,2.13,2.27C121.64,265.63,123,265.32,123,263.24Z"/><path class="cls-1" d="M129.28,270.6c-3,0-3.6-3.21-3.6-5.39s.59-5.39,3.6-5.39,3.6,3.21,3.6,5.39S132.3,270.6,129.28,270.6Zm0-9.6c-1.51,0-2.19,1.58-2.19,4.21s.68,4.21,2.19,4.21,2.2-1.58,2.2-4.21S130.79,261,129.28,261Z"/><path class="cls-1" d="M135.63,264.21a3.22,3.22,0,0,1,2-.66,3.34,3.34,0,0,1,3.45,3.36,3.49,3.49,0,0,1-3.81,3.69,3.08,3.08,0,0,1-3.39-2.9h1.36a2,2,0,0,0,2.22,1.77,2.24,2.24,0,0,0,2.21-2.41,2.19,2.19,0,0,0-2.33-2.33,2.42,2.42,0,0,0-1.94,1l-1.13-.06.79-5.62h5.43v1.28h-4.45Z"/><path class="cls-1" d="M142.39,263.58c0-3.42,2.49-3.76,3.63-3.76A3.07,3.07,0,0,1,149.3,263c0,1.88-1.24,2.67-2.81,3.5l-1.09.6c-1.43.79-1.74,1.62-1.8,2h5.7v1.24h-7.18a4.58,4.58,0,0,1,2.46-4.17l1.39-.8c1.12-.65,1.93-1.08,1.93-2.45a1.88,1.88,0,0,0-2.08-1.9c-2,0-2.07,1.85-2.12,2.58Z"/><path class="cls-1" d="M154.18,270.6c-3,0-3.6-3.21-3.6-5.39s.59-5.39,3.6-5.39,3.6,3.21,3.6,5.39S157.2,270.6,154.18,270.6Zm0-9.6c-1.51,0-2.19,1.58-2.19,4.21s.68,4.21,2.19,4.21,2.2-1.58,2.2-4.21S155.69,261,154.18,261Z"/><path class="cls-1" d="M159,263.58c0-3.42,2.49-3.76,3.63-3.76A3.07,3.07,0,0,1,165.9,263c0,1.88-1.24,2.67-2.81,3.5l-1.09.6c-1.43.79-1.74,1.62-1.8,2h5.7v1.24h-7.18a4.58,4.58,0,0,1,2.46-4.17l1.39-.8c1.12-.65,1.93-1.08,1.93-2.45a1.88,1.88,0,0,0-2.08-1.9c-2,0-2.07,1.85-2.12,2.58Z"/><path class="cls-1" d="M170.78,270.6c-3,0-3.6-3.21-3.6-5.39s.58-5.39,3.6-5.39,3.6,3.21,3.6,5.39S173.8,270.6,170.78,270.6Zm0-9.6c-1.51,0-2.19,1.58-2.19,4.21s.68,4.21,2.19,4.21,2.2-1.58,2.2-4.21S172.29,261,170.78,261Z"/></svg>