<svg id="Layer_1" data-name="Layer 1" xmlns="http://www.w3.org/2000/svg" viewBox="0 0 283.46 283.46"><defs><style>.cls-1{fill:#fff;}</style></defs><rect width="283.46" height="283.46"/><path class="cls-1" d="M121.9,148.7c-12.37,0-20.05-9.48-20.05-24.75s7.68-24.76,20.05-24.76S142,108.68,142,124,134.32,148.7,121.9,148.7Zm0-44.84c-13.88,0-15.38,14-15.38,20.09S108,144,121.9,144s15.47-14,15.47-20.09S135.86,103.86,121.9,103.86Z"/><path class="cls-1" d="M122,160.75c-18.55,0-29.63-13.79-29.63-36.9S103.41,87,122,87c9.71,0,17.59,3.83,22.79,11.09,4.58,6.41,7,15.33,7,25.8s-2.42,19.4-7,25.8C139.55,156.92,131.67,160.75,122,160.75Zm0-69.13c-22.53,0-25,22.54-25,32.23s2.43,32.24,25,32.24c15.73,0,25.13-12.05,25.13-32.24S137.69,91.62,122,91.62Z"/><rect class="cls-1" x="119.71" y="156.64" width="4.67" height="60.77"/><circle class="cls-1" cx="129.78" cy="117.49" r="1.8"/><circle class="cls-1" cx="123.62" cy="127.88" r="0.95"/><circle class="cls-1" cx="118.18" cy="127.88" r="0.95"/><rect class="cls-1" x="127.98" y="109.47" width="9.7" height="4.67"/><rect class="cls-1" x="115.95" y="133.98" width="9.7" height="4.67"/><path class="cls-1" d="M196.32,143.47c-4.88,0-7.47-2.14-9.56-3.85-1.9-1.57-3.39-2.8-6.59-2.8s-4.7,1.23-6.6,2.79c-2.08,1.72-4.68,3.86-9.56,3.86s-7.47-2.14-9.55-3.86c-1.9-1.56-3.4-2.79-6.6-2.79v-4.67c4.88,0,7.48,2.14,9.56,3.86,1.9,1.56,3.39,2.8,6.59,2.8s4.7-1.24,6.6-2.8c2.08-1.72,4.68-3.86,9.56-3.86s7.47,2.14,9.56,3.86c1.89,1.56,3.39,2.8,6.59,2.8s4.7-1.24,6.59-2.8c2.09-1.72,4.69-3.86,9.56-3.86v4.67c-3.2,0-4.69,1.23-6.59,2.79C203.79,141.33,201.2,143.47,196.32,143.47Z"/><path class="cls-1" d="M196.32,131.58c-4.88,0-7.47-2.14-9.56-3.86-1.9-1.56-3.39-2.8-6.59-2.8s-4.7,1.24-6.6,2.8c-2.08,1.72-4.68,3.86-9.56,3.86s-7.47-2.14-9.55-3.86c-1.9-1.56-3.4-2.8-6.6-2.8v-4.66c4.88,0,7.48,2.14,9.56,3.86,1.9,1.56,3.39,2.79,6.59,2.79s4.7-1.23,6.6-2.79c2.08-1.72,4.68-3.86,9.56-3.86s7.47,2.14,9.56,3.86c1.89,1.56,3.39,2.79,6.59,2.79s4.7-1.23,6.59-2.79c2.09-1.72,4.69-3.86,9.56-3.86v4.66c-3.2,0-4.69,1.24-6.59,2.8C203.79,129.44,201.2,131.58,196.32,131.58Z"/><path class="cls-1" d="M196.32,119.52c-4.88,0-7.47-2.14-9.56-3.86-1.9-1.56-3.39-2.79-6.59-2.79s-4.7,1.23-6.6,2.79c-2.08,1.72-4.68,3.86-9.56,3.86s-7.47-2.14-9.55-3.86c-1.9-1.56-3.4-2.79-6.6-2.79V108.2c4.88,0,7.47,2.14,9.56,3.86,1.9,1.56,3.39,2.8,6.59,2.8s4.7-1.24,6.6-2.8c2.08-1.72,4.68-3.86,9.56-3.86s7.47,2.14,9.56,3.86c1.89,1.56,3.39,2.8,6.59,2.8s4.7-1.24,6.59-2.8c2.09-1.72,4.69-3.86,9.56-3.86v4.67c-3.2,0-4.69,1.23-6.59,2.79C203.79,117.38,201.2,119.52,196.32,119.52Z"/><path class="cls-1" d="M112.68,270.59c-3,0-3.6-3.21-3.6-5.39s.58-5.39,3.6-5.39,3.6,3.21,3.6,5.39S115.69,270.59,112.68,270.59Zm0-9.6c-1.51,0-2.2,1.58-2.2,4.21s.69,4.21,2.2,4.21,2.19-1.59,2.19-4.21S114.19,261,112.68,261Z"/><path class="cls-1" d="M117.38,260h7.26v1.15a18.23,18.23,0,0,0-4.32,9.12h-1.45a19.4,19.4,0,0,1,4.29-9h-5.78Z"/><path class="cls-1" d="M129.28,270.59c-3,0-3.6-3.21-3.6-5.39s.58-5.39,3.6-5.39,3.6,3.21,3.6,5.39S132.29,270.59,129.28,270.59Zm0-9.6c-1.51,0-2.2,1.58-2.2,4.21s.69,4.21,2.2,4.21,2.19-1.59,2.19-4.21S130.79,261,129.28,261Z"/><path class="cls-1" d="M135.62,264.2a3.18,3.18,0,0,1,2-.66,3.33,3.33,0,0,1,3.45,3.36,3.49,3.49,0,0,1-3.81,3.69,3.09,3.09,0,0,1-3.39-2.9h1.36a2,2,0,0,0,2.23,1.76,2.23,2.23,0,0,0,2.21-2.4,2.19,2.19,0,0,0-2.33-2.33,2.42,2.42,0,0,0-1.94,1l-1.14-.06.79-5.63h5.44v1.29h-4.45Z"/><path class="cls-1" d="M142.38,263.57c0-3.42,2.5-3.76,3.63-3.76a3.08,3.08,0,0,1,3.29,3.13c0,1.88-1.24,2.68-2.81,3.51l-1.09.6c-1.43.79-1.75,1.61-1.81,2h5.71v1.23h-7.19a4.57,4.57,0,0,1,2.47-4.16l1.39-.81c1.12-.64,1.92-1.07,1.92-2.45a1.87,1.87,0,0,0-2.07-1.89c-2,0-2.08,1.85-2.12,2.58Z"/><path class="cls-1" d="M154.18,270.59c-3,0-3.6-3.21-3.6-5.39s.58-5.39,3.6-5.39,3.6,3.21,3.6,5.39S157.19,270.59,154.18,270.59Zm0-9.6c-1.51,0-2.2,1.58-2.2,4.21s.69,4.21,2.2,4.21,2.19-1.59,2.19-4.21S155.69,261,154.18,261Z"/><path class="cls-1" d="M159,263.57c0-3.42,2.5-3.76,3.63-3.76a3.08,3.08,0,0,1,3.29,3.13c0,1.88-1.24,2.68-2.81,3.51l-1.09.6c-1.43.79-1.75,1.61-1.81,2h5.71v1.23h-7.19a4.57,4.57,0,0,1,2.47-4.16l1.39-.81c1.12-.64,1.92-1.07,1.92-2.45a1.88,1.88,0,0,0-2.07-1.89c-2,0-2.08,1.85-2.12,2.58Z"/><path class="cls-1" d="M170.78,270.59c-3,0-3.6-3.21-3.6-5.39s.58-5.39,3.6-5.39,3.6,3.21,3.6,5.39S173.79,270.59,170.78,270.59Zm0-9.6c-1.51,0-2.2,1.58-2.2,4.21s.69,4.21,2.2,4.21,2.19-1.59,2.19-4.21S172.28,261,170.78,261Z"/></svg>