<svg id="Layer_1" data-name="Layer 1" xmlns="http://www.w3.org/2000/svg" viewBox="0 0 283.46 283.46"><defs><style>.cls-1{fill:#fff;}</style></defs><rect class="cls-1" width="283.46" height="283.46"/><path d="M113.62,174.7a2.33,2.33,0,0,1-2.05-3.43L174.75,53.39a2.33,2.33,0,0,1,4.11,2.21L115.68,173.47A2.33,2.33,0,0,1,113.62,174.7Z"/><path class="cls-1" d="M163.17,149.47c0,2.44-1.89,4.73-5.16,6.66-6,3.52-16.55,5.87-28.6,5.87-18.65,0-33.76-5.61-33.76-12.53s15.11-12.53,33.76-12.53S163.17,142.55,163.17,149.47Z"/><path d="M129.41,164.33c-17.5,0-36.1-5.21-36.1-14.86s18.6-14.87,36.1-14.87,36.1,5.21,36.1,14.87c0,2.25-1.1,5.59-6.32,8.67C152.62,162,141.49,164.33,129.41,164.33Zm0-25.06c-19.47,0-31.43,5.94-31.43,10.2s12,10.19,31.43,10.19c11.11,0,21.62-2.12,27.41-5.54,2.59-1.53,4-3.18,4-4.65C160.84,145.21,148.88,139.27,129.41,139.27Z"/><path d="M125.84,154.73c-3.72,0-7.82-.72-8.92-1.43a1.67,1.67,0,0,1,1.79-2.81c1.34.73,9.48,1.4,10.92.49h0a10.44,10.44,0,0,0-2.21-1.74c-1.48-1-2.76-1.83-3-3.19a2.24,2.24,0,0,1,.49-1.8c2.34-2.94,8.7-1.81,13.62-.34l.06,0a1.62,1.62,0,0,1,.86.56,1.66,1.66,0,0,1-.23,2.34,1.72,1.72,0,0,1-1.65.28c-4.39-1.32-7.65-1.59-9.19-1.22l.85.57c1.65,1.1,3.52,2.34,3.73,4.22a3.21,3.21,0,0,1-1,2.64C131,154.35,128.52,154.73,125.84,154.73Z"/><path d="M119.3,158.14a1.67,1.67,0,0,1-1.06-3l17.16-14.09a1.67,1.67,0,0,1,2.12,2.58l-17.16,14.09A1.7,1.7,0,0,1,119.3,158.14Z"/><path d="M163.17,149.47v33.27c0,3.76-4.48,7.14-11.56,9.44a55.21,55.21,0,0,1-6.4,1.63c-2,.4-4.16.73-6.39,1-2.06.22-4.2.37-6.4.44-1,0-2,.05-3,.05s-2.27,0-3.39-.06c-2.2-.08-4.34-.24-6.4-.48q-3.36-.37-6.39-1a56.46,56.46,0,0,1-6.4-1.68,31.45,31.45,0,0,1-6.4-2.88c-3-1.88-4.78-4.09-4.78-6.44V149.47c0,6.92,15.11,12.53,33.76,12.53,12.05,0,22.62-2.35,28.6-5.87C161.28,154.2,163.17,151.91,163.17,149.47Z"/><path d="M129.41,197.6c-1.17,0-2.34,0-3.47-.06-2.24-.08-4.46-.25-6.58-.49s-4.48-.59-6.59-1a55.73,55.73,0,0,1-6.67-1.76,32.78,32.78,0,0,1-6.89-3.11c-4.88-3-5.9-6.24-5.9-8.42V149.47H98c0,4.25,12,10.19,31.43,10.19,11.11,0,21.62-2.12,27.41-5.54,2.59-1.53,4-3.18,4-4.65h4.67v33.27c0,4.76-4.68,8.9-13.18,11.66a57.24,57.24,0,0,1-6.66,1.7c-2.15.42-4.37.76-6.61,1-2.07.22-4.28.38-6.56.45C131.48,197.59,130.44,197.6,129.41,197.6ZM98,157.06v25.68c0,1.4,1.31,3,3.68,4.45a28.25,28.25,0,0,0,5.91,2.65,51,51,0,0,0,6.13,1.61c2,.4,4,.73,6.18,1s4.1.38,6.23.46,4.18.07,6.23,0,4.26-.22,6.22-.43,4.2-.54,6.21-.94a52.51,52.51,0,0,0,6.12-1.56c6-2,10-4.8,10-7.22V157.07a18.88,18.88,0,0,1-1.65,1.07c-6.57,3.88-17.7,6.19-29.78,6.19S104.6,161.82,98,157.06Z"/><polygon points="155.68 156.13 155.68 156.09 160.34 156.09 155.68 156.13"/><rect x="149.28" y="192.18" width="4.67" height="0.11"/><rect x="142.88" y="193.81" width="4.67" height="0.08"/><polygon points="136.48 194.84 136.48 194.78 141.15 194.78 136.48 194.84"/><rect x="130.08" y="195.22" width="4.67" height="0.09"/><polygon points="123.69 195.22 123.69 195.21 128.36 195.21 123.69 195.22"/><polygon points="117.29 194.74 117.29 194.74 121.96 194.74 117.29 194.74"/><rect x="110.9" y="193.74" width="4.67" height="0.24"/><polygon points="104.5 192.1 104.5 192.06 109.17 192.06 104.5 192.1"/><rect x="98.1" y="189.18" width="4.67" height="0.16"/><path d="M128,177.19a2.34,2.34,0,0,1-1.65-4l94.29-94.84A2.33,2.33,0,1,1,224,81.66L129.66,176.5A2.34,2.34,0,0,1,128,177.19Z"/><path d="M109.18,261.92c0-3.42,2.5-3.76,3.63-3.76a3.07,3.07,0,0,1,3.29,3.13c0,1.88-1.24,2.67-2.81,3.51l-1.09.6c-1.44.79-1.75,1.61-1.81,2h5.71v1.24h-7.19a4.57,4.57,0,0,1,2.47-4.16l1.39-.81c1.12-.64,1.92-1.07,1.92-2.45a1.88,1.88,0,0,0-2.07-1.9c-2,0-2.08,1.86-2.12,2.59Z"/><path d="M117.48,261.92c0-3.42,2.5-3.76,3.63-3.76a3.07,3.07,0,0,1,3.29,3.13c0,1.88-1.24,2.67-2.81,3.51l-1.09.6c-1.44.79-1.75,1.61-1.81,2h5.71v1.24h-7.19a4.57,4.57,0,0,1,2.47-4.16l1.39-.81c1.12-.64,1.92-1.07,1.92-2.45a1.88,1.88,0,0,0-2.07-1.9c-2,0-2.08,1.86-2.12,2.59Z"/><path d="M129.28,268.94c-3,0-3.6-3.21-3.6-5.39s.58-5.39,3.6-5.39,3.59,3.21,3.59,5.39S132.29,268.94,129.28,268.94Zm0-9.61c-1.51,0-2.2,1.59-2.2,4.22s.69,4.21,2.2,4.21,2.19-1.59,2.19-4.21S130.78,259.33,129.28,259.33Z"/><path d="M135.62,262.55a3.18,3.18,0,0,1,2-.66,3.33,3.33,0,0,1,3.45,3.36,3.49,3.49,0,0,1-3.81,3.69,3.1,3.1,0,0,1-3.39-2.9h1.36a2,2,0,0,0,2.23,1.76,2.24,2.24,0,0,0,2.21-2.4,2.19,2.19,0,0,0-2.33-2.33,2.41,2.41,0,0,0-1.94,1l-1.14-.06.79-5.63h5.44v1.28h-4.45Z"/><path d="M142.38,261.92c0-3.42,2.49-3.76,3.63-3.76a3.06,3.06,0,0,1,3.28,3.13c0,1.88-1.24,2.67-2.8,3.51l-1.09.6c-1.44.79-1.75,1.61-1.81,2h5.7v1.24h-7.18a4.57,4.57,0,0,1,2.47-4.16l1.38-.81c1.12-.64,1.93-1.07,1.93-2.45a1.88,1.88,0,0,0-2.07-1.9c-2,0-2.08,1.86-2.13,2.59Z"/><path d="M154.17,268.94c-3,0-3.59-3.21-3.59-5.39s.58-5.39,3.59-5.39,3.6,3.21,3.6,5.39S157.19,268.94,154.17,268.94Zm0-9.61c-1.5,0-2.19,1.59-2.19,4.22s.69,4.21,2.19,4.21,2.2-1.59,2.2-4.21S155.68,259.33,154.17,259.33Z"/><path d="M159,261.92c0-3.42,2.49-3.76,3.63-3.76a3.06,3.06,0,0,1,3.28,3.13c0,1.88-1.24,2.67-2.8,3.51l-1.09.6c-1.44.79-1.75,1.61-1.81,2h5.7v1.24h-7.18a4.57,4.57,0,0,1,2.47-4.16l1.38-.81c1.12-.64,1.93-1.07,1.93-2.45a1.89,1.89,0,0,0-2.08-1.9c-2,0-2.07,1.86-2.12,2.59Z"/><path d="M170.77,268.94c-3,0-3.59-3.21-3.59-5.39s.58-5.39,3.59-5.39,3.6,3.21,3.6,5.39S173.79,268.94,170.77,268.94Zm0-9.61c-1.5,0-2.19,1.59-2.19,4.22s.69,4.21,2.19,4.21,2.2-1.59,2.2-4.21S172.28,259.33,170.77,259.33Z"/></svg>