<svg id="Layer_1" data-name="Layer 1" xmlns="http://www.w3.org/2000/svg" viewBox="0 0 283.46 283.46"><defs><style>.cls-1{fill:#fff;}</style></defs><rect width="283.46" height="283.46"/><path class="cls-1" d="M167.8,139.81H76.35v-2.33a45.73,45.73,0,0,1,91.45,0Zm-86.71-4.66h82a41.06,41.06,0,0,0-82,0Z"/><path class="cls-1" d="M217.41,139.81H172.48v-2.33a22.47,22.47,0,0,1,44.93,0Zm-40.11-4.66h35.29a17.8,17.8,0,0,0-35.29,0Z"/><path class="cls-1" d="M80.1,169.59a2.31,2.31,0,0,1-1.52-.56,2.34,2.34,0,0,1-.25-3.29l7.7-9-7.67-8.65a2.33,2.33,0,0,1,3.49-3.1l9,10.18a2.34,2.34,0,0,1,0,3.07l-9,10.5A2.31,2.31,0,0,1,80.1,169.59Z"/><path class="cls-1" d="M94.17,169.59a2.33,2.33,0,0,1-1.77-3.85l7.7-9-7.68-8.65a2.33,2.33,0,0,1,3.49-3.1l9,10.18a2.32,2.32,0,0,1,0,3.07l-9,10.5A2.32,2.32,0,0,1,94.17,169.59Z"/><path class="cls-1" d="M109.76,169.59a2.33,2.33,0,0,1-1.77-3.85l7.7-9L108,148.13a2.33,2.33,0,0,1,3.49-3.1l9,10.18a2.32,2.32,0,0,1,0,3.07l-9,10.5A2.32,2.32,0,0,1,109.76,169.59Z"/><path class="cls-1" d="M123.49,169.59a2.33,2.33,0,0,1-1.77-3.85l7.7-9-7.67-8.65a2.33,2.33,0,0,1,3.49-3.1l9,10.18a2.34,2.34,0,0,1,0,3.07l-9,10.5A2.31,2.31,0,0,1,123.49,169.59Z"/><path class="cls-1" d="M138.21,169.59a2.31,2.31,0,0,1-1.52-.56,2.34,2.34,0,0,1-.25-3.29l7.7-9-7.67-8.65A2.33,2.33,0,0,1,140,145l9,10.18a2.34,2.34,0,0,1,0,3.07l-9,10.5A2.31,2.31,0,0,1,138.21,169.59Z"/><path class="cls-1" d="M162.62,169.59a2.31,2.31,0,0,1-1.77-.81l-9-10.5a2.34,2.34,0,0,1,0-3.07l9-10.18a2.33,2.33,0,0,1,3.49,3.1l-7.67,8.65,7.7,9a2.34,2.34,0,0,1-.25,3.29A2.31,2.31,0,0,1,162.62,169.59Z"/><circle class="cls-1" cx="185.08" cy="130.36" r="2.25"/><circle class="cls-1" cx="205.51" cy="130.36" r="2.25"/><path class="cls-1" d="M112.68,270.59c-3,0-3.6-3.21-3.6-5.39s.58-5.39,3.6-5.39,3.59,3.21,3.59,5.39S115.69,270.59,112.68,270.59Zm0-9.6c-1.51,0-2.2,1.58-2.2,4.21s.69,4.21,2.2,4.21,2.19-1.59,2.19-4.21S114.18,261,112.68,261Z"/><path class="cls-1" d="M119,264.2a3.18,3.18,0,0,1,2-.66,3.33,3.33,0,0,1,3.45,3.36,3.49,3.49,0,0,1-3.81,3.69,3.09,3.09,0,0,1-3.39-2.9h1.36a2,2,0,0,0,2.23,1.76,2.24,2.24,0,0,0,2.21-2.4,2.19,2.19,0,0,0-2.33-2.33,2.41,2.41,0,0,0-1.94,1l-1.14-.06.79-5.63h5.44v1.29h-4.45Z"/><path class="cls-1" d="M129.28,270.59c-3,0-3.6-3.21-3.6-5.39s.58-5.39,3.6-5.39,3.59,3.21,3.59,5.39S132.29,270.59,129.28,270.59Zm0-9.6c-1.51,0-2.2,1.58-2.2,4.21s.69,4.21,2.2,4.21,2.19-1.59,2.19-4.21S130.78,261,129.28,261Z"/><path class="cls-1" d="M135.62,264.2a3.18,3.18,0,0,1,2-.66,3.33,3.33,0,0,1,3.45,3.36,3.49,3.49,0,0,1-3.81,3.69,3.09,3.09,0,0,1-3.39-2.9h1.36a2,2,0,0,0,2.22,1.76,2.24,2.24,0,0,0,2.22-2.4,2.19,2.19,0,0,0-2.33-2.33,2.41,2.41,0,0,0-1.94,1l-1.14-.06.79-5.63h5.44v1.29h-4.45Z"/><path class="cls-1" d="M142.38,263.57c0-3.42,2.49-3.76,3.63-3.76a3.07,3.07,0,0,1,3.28,3.13c0,1.88-1.24,2.68-2.8,3.51l-1.09.6c-1.44.79-1.75,1.61-1.81,2h5.7v1.23h-7.18a4.57,4.57,0,0,1,2.47-4.16l1.38-.81c1.12-.64,1.93-1.07,1.93-2.45a1.88,1.88,0,0,0-2.08-1.89c-2,0-2.07,1.85-2.12,2.58Z"/><path class="cls-1" d="M154.17,270.59c-3,0-3.59-3.21-3.59-5.39s.58-5.39,3.59-5.39,3.6,3.21,3.6,5.39S157.19,270.59,154.17,270.59Zm0-9.6c-1.5,0-2.19,1.58-2.19,4.21s.69,4.21,2.19,4.21,2.2-1.59,2.2-4.21S155.68,261,154.17,261Z"/><path class="cls-1" d="M159,263.57c0-3.42,2.49-3.76,3.63-3.76a3.07,3.07,0,0,1,3.28,3.13c0,1.88-1.24,2.68-2.8,3.51l-1.09.6c-1.44.79-1.75,1.61-1.81,2h5.7v1.23h-7.18a4.57,4.57,0,0,1,2.47-4.16l1.38-.81c1.12-.64,1.93-1.07,1.93-2.45a1.88,1.88,0,0,0-2.08-1.89c-2,0-2.07,1.85-2.12,2.58Z"/><path class="cls-1" d="M170.77,270.59c-3,0-3.6-3.21-3.6-5.39s.59-5.39,3.6-5.39,3.6,3.21,3.6,5.39S173.79,270.59,170.77,270.59Zm0-9.6c-1.5,0-2.19,1.58-2.19,4.21s.69,4.21,2.19,4.21,2.2-1.59,2.2-4.21S172.28,261,170.77,261Z"/></svg>