<svg id="Layer_1" data-name="Layer 1" xmlns="http://www.w3.org/2000/svg" viewBox="0 0 283.46 283.46"><defs><style>.cls-1{fill:#fff;}</style></defs><rect width="283.46" height="283.46"/><rect class="cls-1" x="79.97" y="157.03" width="123.53" height="4.67"/><path class="cls-1" d="M228.69,126.92a6.53,6.53,0,0,1-.73,0H206.32v-4.66h22a5,5,0,0,0,3.31-.86,2.59,2.59,0,0,0,.75-2.16c0-3.48-3.55-3.85-4.35-3.89H55.45c-.8,0-4.35.41-4.35,3.89a2.59,2.59,0,0,0,.76,2.17,5,5,0,0,0,3.3.85H77v4.66H55.5a9.49,9.49,0,0,1-6.77-2,7.27,7.27,0,0,1-2.3-5.64c0-6.09,5.32-8.46,8.9-8.56h173c3.58.17,8.73,2.56,8.73,8.55a7.27,7.27,0,0,1-2.31,5.64A9.15,9.15,0,0,1,228.69,126.92Z"/><path class="cls-1" d="M75.73,161.75v-4.67H97.18c.8,0,4.36-.41,4.36-3.89a2.65,2.65,0,0,0-.75-2.17,5,5,0,0,0-3.33-.85H75.67v-4.67H97.13a9.56,9.56,0,0,1,6.77,2,7.26,7.26,0,0,1,2.3,5.64c0,6.09-5.32,8.45-8.9,8.56Z"/><path class="cls-1" d="M75.73,150.08v-4.67H97.18c.8,0,4.36-.41,4.36-3.89a2.65,2.65,0,0,0-.75-2.17,5,5,0,0,0-3.33-.85H75.67v-4.67H97.13a9.56,9.56,0,0,1,6.77,2,7.26,7.26,0,0,1,2.3,5.64c0,6.09-5.32,8.45-8.9,8.56Z"/><path class="cls-1" d="M75.73,138.45v-4.67H97.18c.8,0,4.36-.41,4.36-3.89a2.62,2.62,0,0,0-.76-2.18,5.06,5.06,0,0,0-3.3-.84H75.67v-4.67H97.13a9.56,9.56,0,0,1,6.77,2,7.26,7.26,0,0,1,2.3,5.64c0,6.09-5.32,8.45-8.9,8.56Z"/><path class="cls-1" d="M75.64,138.45a9.17,9.17,0,0,1-6-2.06,7.29,7.29,0,0,1-2.3-5.64c0-6.1,5.33-8.46,8.9-8.56H97.77v4.66H76.31c-.8,0-4.35.41-4.35,3.9a2.59,2.59,0,0,0,.75,2.16,4.91,4.91,0,0,0,3.32.86H97.82v4.66H76.36A6.2,6.2,0,0,1,75.64,138.45Z"/><path class="cls-1" d="M75.64,150.12a9.17,9.17,0,0,1-6-2.06,7.27,7.27,0,0,1-2.3-5.64c0-6.09,5.33-8.46,8.9-8.56H97.77v4.67H76.31c-.8,0-4.35.41-4.35,3.89a2.59,2.59,0,0,0,.75,2.16,4.91,4.91,0,0,0,3.32.86H97.82v4.66H76.36A6.2,6.2,0,0,1,75.64,150.12Z"/><path class="cls-1" d="M75.64,161.75a9.17,9.17,0,0,1-6-2.06,7.29,7.29,0,0,1-2.3-5.64c0-6.1,5.33-8.46,8.9-8.56H97.77v4.66H76.31c-.8,0-4.35.41-4.35,3.9a2.59,2.59,0,0,0,.75,2.16,4.91,4.91,0,0,0,3.32.86H97.82v4.66H76.36A6.2,6.2,0,0,1,75.64,161.75Z"/><path class="cls-1" d="M183.05,161.75v-4.67h21.46c.8,0,4.35-.41,4.35-3.89a2.62,2.62,0,0,0-.75-2.17,5,5,0,0,0-3.33-.85H183v-4.67h21.45a9.55,9.55,0,0,1,6.77,2,7.26,7.26,0,0,1,2.31,5.64c0,6.09-5.33,8.45-8.91,8.56Z"/><path class="cls-1" d="M183.05,150.08v-4.67h21.46c.8,0,4.35-.41,4.35-3.89a2.62,2.62,0,0,0-.75-2.17,5,5,0,0,0-3.33-.85H183v-4.67h21.45a9.55,9.55,0,0,1,6.77,2,7.26,7.26,0,0,1,2.31,5.64c0,6.09-5.33,8.45-8.91,8.56Z"/><path class="cls-1" d="M183.05,138.45v-4.67h21.46c.8,0,4.35-.41,4.35-3.89a2.62,2.62,0,0,0-.76-2.18,5.06,5.06,0,0,0-3.3-.84H183v-4.67h21.45a9.55,9.55,0,0,1,6.77,2,7.26,7.26,0,0,1,2.31,5.64c0,6.09-5.33,8.45-8.91,8.56Z"/><path class="cls-1" d="M183,138.45a9.15,9.15,0,0,1-6-2.06,7.29,7.29,0,0,1-2.31-5.64c0-6.1,5.33-8.46,8.91-8.56h21.57v4.66H183.63c-.8,0-4.35.41-4.35,3.9a2.59,2.59,0,0,0,.75,2.16,4.92,4.92,0,0,0,3.33.86h21.78v4.66H183.69A6.53,6.53,0,0,1,183,138.45Z"/><path class="cls-1" d="M183,150.12a9.15,9.15,0,0,1-6-2.06,7.27,7.27,0,0,1-2.31-5.64c0-6.09,5.33-8.46,8.91-8.56h21.57v4.67H183.63c-.8,0-4.35.41-4.35,3.89a2.59,2.59,0,0,0,.75,2.16,4.92,4.92,0,0,0,3.33.86h21.78v4.66H183.69A6.53,6.53,0,0,1,183,150.12Z"/><path class="cls-1" d="M183,161.75a9.15,9.15,0,0,1-6-2.06,7.29,7.29,0,0,1-2.31-5.64c0-6.1,5.33-8.46,8.91-8.56h21.57v4.66H183.63c-.8,0-4.35.41-4.35,3.9a2.59,2.59,0,0,0,.75,2.16,4.92,4.92,0,0,0,3.33.86h21.78v4.66H183.69A6.53,6.53,0,0,1,183,161.75Z"/><path class="cls-1" d="M114.19,263.7h-1.4v-7.45h-2.45V255.2c1.7-.12,2.4-.28,2.82-2h1Z"/><path class="cls-1" d="M117.19,257c0-3.41,2.5-3.76,3.63-3.76a3.08,3.08,0,0,1,3.29,3.14c0,1.88-1.24,2.67-2.81,3.51l-1.09.59c-1.44.8-1.75,1.62-1.81,2h5.71v1.24h-7.19a4.58,4.58,0,0,1,2.47-4.17l1.39-.8c1.12-.64,1.92-1.08,1.92-2.45a1.88,1.88,0,0,0-2.07-1.9c-2,0-2.08,1.85-2.12,2.58Z"/><path class="cls-1" d="M129,264c-3,0-3.6-3.21-3.6-5.39s.58-5.39,3.6-5.39,3.59,3.21,3.59,5.39S132,264,129,264Zm0-9.6c-1.51,0-2.2,1.58-2.2,4.21s.69,4.21,2.2,4.21,2.19-1.58,2.19-4.21S130.49,254.38,129,254.38Z"/><path class="cls-1" d="M135.33,257.59a3.24,3.24,0,0,1,2-.66,3.34,3.34,0,0,1,3.45,3.37A3.49,3.49,0,0,1,137,264a3.09,3.09,0,0,1-3.39-2.89H135a2,2,0,0,0,2.23,1.76,2.24,2.24,0,0,0,2.21-2.41,2.2,2.2,0,0,0-2.33-2.33,2.39,2.39,0,0,0-1.94,1l-1.14-.06.79-5.63h5.44v1.28h-4.45Z"/><path class="cls-1" d="M142.09,257c0-3.41,2.49-3.76,3.63-3.76a3.07,3.07,0,0,1,3.28,3.14c0,1.88-1.24,2.67-2.8,3.51l-1.09.59c-1.44.8-1.75,1.62-1.81,2H149v1.24h-7.18a4.58,4.58,0,0,1,2.47-4.17l1.38-.8c1.12-.64,1.93-1.08,1.93-2.45a1.88,1.88,0,0,0-2.07-1.9c-2,0-2.08,1.85-2.13,2.58Z"/><path class="cls-1" d="M153.88,264c-3,0-3.59-3.21-3.59-5.39s.58-5.39,3.59-5.39,3.6,3.21,3.6,5.39S156.9,264,153.88,264Zm0-9.6c-1.5,0-2.19,1.58-2.19,4.21s.69,4.21,2.19,4.21,2.2-1.58,2.2-4.21S155.39,254.38,153.88,254.38Z"/><path class="cls-1" d="M158.69,257c0-3.41,2.49-3.76,3.63-3.76a3.07,3.07,0,0,1,3.28,3.14c0,1.88-1.24,2.67-2.8,3.51l-1.09.59c-1.44.8-1.75,1.62-1.81,2h5.7v1.24h-7.18a4.58,4.58,0,0,1,2.47-4.17l1.38-.8c1.12-.64,1.93-1.08,1.93-2.45a1.88,1.88,0,0,0-2.08-1.9c-2,0-2.07,1.85-2.12,2.58Z"/><path class="cls-1" d="M170.48,264c-3,0-3.59-3.21-3.59-5.39s.58-5.39,3.59-5.39,3.6,3.21,3.6,5.39S173.5,264,170.48,264Zm0-9.6c-1.5,0-2.19,1.58-2.19,4.21s.69,4.21,2.19,4.21,2.2-1.58,2.2-4.21S172,254.38,170.48,254.38Z"/></svg>