<svg id="Layer_1" data-name="Layer 1" xmlns="http://www.w3.org/2000/svg" viewBox="0 0 283.46 283.46"><defs><style>.cls-1{fill:#fff;}</style></defs><rect class="cls-1" width="283.46" height="283.46"/><path d="M178,101.83H139.67V99.5a19.17,19.17,0,1,1,38.34,0Zm-33.49-4.66h28.64a14.51,14.51,0,0,0-28.64,0Z"/><path d="M158.84,109.32a9.82,9.82,0,1,1,9.82-9.82A9.83,9.83,0,0,1,158.84,109.32Zm0-15A5.15,5.15,0,1,0,164,99.5,5.16,5.16,0,0,0,158.84,94.35Z"/><path d="M105.45,177.22v-4.67c12.57,0,13.93-10,14-11.07V96.91c0-18.93,10.78-28.13,19.82-32.52a51.81,51.81,0,0,1,19.48-4.92l.1,4.67c-1.42,0-34.74,1.18-34.74,32.77v64.86C123.72,167.11,119.27,177.22,105.45,177.22Z"/><path d="M126.35,209.9l-.71,0h-19v-4.67H126a4.76,4.76,0,0,0,3.13-.8,2.48,2.48,0,0,0,.69-2c0-3.28-3.36-3.63-4.12-3.67h-19v-4.67H126c3.48.17,8.5,2.49,8.5,8.33a7.07,7.07,0,0,1-2.25,5.5A8.89,8.89,0,0,1,126.35,209.9Z"/><path d="M114.3,270.31h-1.4v-7.45h-2.45v-1.05c1.7-.12,2.4-.28,2.82-2h1Z"/><path d="M120.57,270.59c-3,0-3.6-3.21-3.6-5.39s.59-5.39,3.6-5.39,3.6,3.21,3.6,5.39S123.59,270.59,120.57,270.59Zm0-9.6c-1.51,0-2.19,1.58-2.19,4.21s.68,4.21,2.19,4.21,2.2-1.58,2.2-4.21S122.08,261,120.57,261Z"/><path d="M128.87,270.59c-3,0-3.6-3.21-3.6-5.39s.58-5.39,3.6-5.39,3.6,3.21,3.6,5.39S131.89,270.59,128.87,270.59Zm0-9.6c-1.51,0-2.19,1.58-2.19,4.21s.68,4.21,2.19,4.21,2.2-1.58,2.2-4.21S130.38,261,128.87,261Z"/><path d="M135.21,264.2a3.27,3.27,0,0,1,2-.66,3.34,3.34,0,0,1,3.45,3.36,3.49,3.49,0,0,1-3.81,3.69,3.08,3.08,0,0,1-3.39-2.9h1.36a2,2,0,0,0,2.22,1.77,2.24,2.24,0,0,0,2.21-2.41,2.19,2.19,0,0,0-2.33-2.33,2.42,2.42,0,0,0-1.94,1l-1.13-.06.79-5.63h5.43v1.29h-4.45Z"/><path d="M142,263.57c0-3.42,2.49-3.76,3.63-3.76a3.07,3.07,0,0,1,3.28,3.13c0,1.89-1.24,2.68-2.81,3.51l-1.09.6c-1.43.79-1.74,1.61-1.8,2h5.7v1.24h-7.18a4.58,4.58,0,0,1,2.46-4.17l1.39-.81c1.12-.64,1.93-1.07,1.93-2.45a1.88,1.88,0,0,0-2.08-1.89c-2,0-2.07,1.85-2.12,2.58Z"/><path d="M153.77,270.59c-3,0-3.6-3.21-3.6-5.39s.58-5.39,3.6-5.39,3.6,3.21,3.6,5.39S156.79,270.59,153.77,270.59Zm0-9.6c-1.51,0-2.19,1.58-2.19,4.21s.68,4.21,2.19,4.21,2.2-1.58,2.2-4.21S155.28,261,153.77,261Z"/><path d="M158.58,263.57c0-3.42,2.49-3.76,3.63-3.76a3.07,3.07,0,0,1,3.28,3.13c0,1.89-1.24,2.68-2.81,3.51l-1.09.6c-1.43.79-1.74,1.61-1.8,2h5.7v1.24h-7.18a4.58,4.58,0,0,1,2.46-4.17l1.39-.81c1.12-.64,1.93-1.07,1.93-2.45A1.88,1.88,0,0,0,162,261c-2,0-2.07,1.85-2.12,2.58Z"/><path d="M170.37,270.59c-3,0-3.6-3.21-3.6-5.39s.58-5.39,3.6-5.39S174,263,174,265.2,173.39,270.59,170.37,270.59Zm0-9.6c-1.51,0-2.19,1.58-2.19,4.21s.68,4.21,2.19,4.21,2.2-1.58,2.2-4.21S171.88,261,170.37,261Z"/></svg>