<svg id="Layer_1" data-name="Layer 1" xmlns="http://www.w3.org/2000/svg" viewBox="0 0 524 316"><defs><style>.cls-1{fill:#91a8db;}.cls-2{fill:#12163f;}.cls-3{fill:#afd0ed;}</style></defs><rect class="cls-1" width="524" height="316"/><path class="cls-2" d="M224.48,170.13h-3.84v-22h3.59l.25,2.14a6.17,6.17,0,0,1,5-2.49,7.76,7.76,0,0,1,8,8.12c0,4.53-2.86,8.12-7.84,8.12-1.64,0-4.06-.5-5.16-2.2Zm9.16-14.22a4.41,4.41,0,0,0-8.82,0,4.41,4.41,0,0,0,8.82,0Z"/><path class="cls-2" d="M256.05,155.91a8.08,8.08,0,1,1-8.13-8.09A7.85,7.85,0,0,1,256.05,155.91Zm-12.31,0c0,2.36,1.42,4.56,4.22,4.56s4.22-2.2,4.22-4.56a4.38,4.38,0,0,0-4.22-4.59C245.19,151.32,243.74,153.58,243.74,155.91Z"/><path class="cls-2" d="M260.92,141.53a2.23,2.23,0,1,1,0,4.46,2.23,2.23,0,1,1,0-4.46Zm1.92,6.54v15.58H259V148.07Z"/><path class="cls-2" d="M278,163.65v-8.12c0-2.36-1.29-4.15-3.74-4.15a4.08,4.08,0,0,0-4,4.34v7.93h-3.81V148.1H270l.25,2.11a7,7,0,0,1,5.1-2.33c3.65,0,6.58,2.74,6.58,7.62v8.15Z"/><path class="cls-2" d="M290.25,143.76v4.41h4.28v3.3h-4.31v6.7a1.92,1.92,0,0,0,2,2.2,4.45,4.45,0,0,0,1.86-.47l1.07,3.27a8.84,8.84,0,0,1-3.49.66c-3.18,0-5.26-1.92-5.26-5.66v-6.7h-2.9v-3.3h2.9v-4Z"/><path class="cls-2" d="M307.84,152.26a5.22,5.22,0,0,0-3.84-1.38c-1.83,0-2.83.57-2.83,1.54s.91,1.57,2.9,1.7c2.93.19,6.64.85,6.64,5,0,2.74-2.23,5.1-6.67,5.1a9.1,9.1,0,0,1-7.18-2.77l1.89-2.74a8.38,8.38,0,0,0,5.44,2.17c1.42,0,2.71-.75,2.71-1.86s-.88-1.51-3.08-1.64c-2.93-.22-6.42-1.29-6.42-4.81s3.71-4.85,6.55-4.85a8.3,8.3,0,0,1,6,2.05Z"/><path class="cls-2" d="M328.9,155.91a8.08,8.08,0,1,1-8.13-8.09A7.85,7.85,0,0,1,328.9,155.91Zm-12.31,0c0,2.36,1.42,4.56,4.22,4.56s4.22-2.2,4.22-4.56a4.38,4.38,0,0,0-4.22-4.59C318,151.32,316.59,153.58,316.59,155.91Z"/><path class="cls-2" d="M333.11,163.65V151.72h-2.9v-3.37h2.9v-1c0-4.15,2.8-6.07,5.92-6.07a7.49,7.49,0,0,1,4,1.26l-1.42,2.86a4.32,4.32,0,0,0-2.36-.82c-1.32,0-2.33.88-2.33,2.77v1h4.56v3.37H337v11.93Z"/><path class="cls-2" d="M350.26,143.76v4.41h4.28v3.3h-4.31v6.7a1.92,1.92,0,0,0,2,2.2,4.45,4.45,0,0,0,1.86-.47l1.07,3.27a8.84,8.84,0,0,1-3.49.66c-3.18,0-5.26-1.92-5.26-5.66v-6.7h-2.89v-3.3h2.89v-4Z"/><path class="cls-3" d="M170.67,168.8a3.21,3.21,0,1,1-.94-2.26A3.16,3.16,0,0,1,170.67,168.8Z"/><path class="cls-3" d="M189.57,178.33a3.14,3.14,0,0,1-.94,2.26h0a3.2,3.2,0,0,1-2.27.94,3.15,3.15,0,0,1-2.26-.94,3.19,3.19,0,0,1-.94-2.26,3.14,3.14,0,0,1,.94-2.26,3.19,3.19,0,0,1,2.26-.94,3.16,3.16,0,0,1,2.27.94A3.1,3.1,0,0,1,189.57,178.33Z"/><path class="cls-3" d="M208.47,168.06a3.2,3.2,0,0,1-5.47,2.27,3.22,3.22,0,0,1-.94-2.27,3.14,3.14,0,0,1,.94-2.26,3.22,3.22,0,0,1,2.27-.94,3.14,3.14,0,0,1,2.26.94A3.21,3.21,0,0,1,208.47,168.06Z"/><path class="cls-3" d="M207.53,148.44a3.2,3.2,0,1,1-2.26-5.47,3.16,3.16,0,0,1,2.26.94A3.2,3.2,0,0,1,207.53,148.44Z"/><path class="cls-3" d="M169.74,148.44a3.2,3.2,0,1,1-2.27-5.47,3.21,3.21,0,0,1,2.27,5.47Z"/><path class="cls-3" d="M188.63,137.83a3.2,3.2,0,1,1,0-4.53A3.2,3.2,0,0,1,188.63,137.83Z"/><path class="cls-3" d="M189.57,155.7A3.2,3.2,0,0,1,184.1,158a3.22,3.22,0,0,1-.94-2.27,3.14,3.14,0,0,1,.94-2.26,3.21,3.21,0,0,1,5.47,2.26Z"/><path class="cls-2" d="M209.74,163.59a6.32,6.32,0,0,0-2.91-1.66V152.3a6.33,6.33,0,1,0-6-10.6l0,0-8.15-5.13a6.33,6.33,0,1,0-7.8,5.06v7.89a6.32,6.32,0,0,0-4,9.2l-8.15,6.42a6.85,6.85,0,0,0-.74-.89,6.2,6.2,0,0,0-2.92-1.64V152.3a6.27,6.27,0,0,0,2.92-1.65,6.35,6.35,0,1,0-6,1.65v10.37a6.33,6.33,0,1,0,7.87,5.64l9.22-7.26a6.05,6.05,0,0,0,1.81.78v10.36a6.32,6.32,0,0,0-2.91,1.66,6.33,6.33,0,0,0,6.9,10.32,6.39,6.39,0,0,0,2-1.38,6.33,6.33,0,0,0-2.91-10.61V161.82a6.64,6.64,0,0,0,.86-.28,6.34,6.34,0,0,0,2-10.33,6.32,6.32,0,0,0-2.91-1.65v-7.89a6.32,6.32,0,0,0,2.91-1.65,4.78,4.78,0,0,0,.47-.54l7.86,5a6.31,6.31,0,0,0,4.52,7.85v9.63a6.32,6.32,0,0,0-2.91,1.66,6.34,6.34,0,0,0,0,8.95,6.31,6.31,0,0,0,4.48,1.85,6.15,6.15,0,0,0,2.42-.48,6.39,6.39,0,0,0,2.05-1.38,6.31,6.31,0,0,0,0-8.93ZM165.2,148.44a3.2,3.2,0,1,1,4.53,0A3.2,3.2,0,0,1,165.2,148.44Zm4.54,22.63a3.2,3.2,0,1,1-2.27-5.47,3.21,3.21,0,0,1,3.21,3.2A3.28,3.28,0,0,1,169.74,171.07Zm18.89,5a3.19,3.19,0,0,1,.94,2.26,3.14,3.14,0,0,1-.94,2.26h0a3.2,3.2,0,0,1-2.27.94,3.15,3.15,0,0,1-2.26-.94,3.19,3.19,0,0,1-.94-2.26,3.14,3.14,0,0,1,.94-2.26,3.19,3.19,0,0,1,2.26-.94A3.15,3.15,0,0,1,188.63,176.07Zm0-22.63a3.21,3.21,0,0,1-2.27,5.47,3.15,3.15,0,0,1-2.26-.94,3.22,3.22,0,0,1-.94-2.27,3.14,3.14,0,0,1,.94-2.26,3.2,3.2,0,0,1,2.26-.94A3.25,3.25,0,0,1,188.63,153.44Zm0-15.61a3.2,3.2,0,1,1,0-4.53A3.2,3.2,0,0,1,188.63,137.83Zm18.9,32.5a3.19,3.19,0,0,1-2.26.94,3.16,3.16,0,0,1-2.27-.94,3.22,3.22,0,0,1-.94-2.27,3.14,3.14,0,0,1,.94-2.26,3.22,3.22,0,0,1,2.27-.94,3.14,3.14,0,0,1,2.26.94,3.2,3.2,0,0,1,0,4.53ZM203,148.44a3.21,3.21,0,0,1,2.27-5.47,3.16,3.16,0,0,1,2.26.94,3.2,3.2,0,0,1-4.53,4.53Z"/></svg>