<svg id="Layer_1" data-name="Layer 1" xmlns="http://www.w3.org/2000/svg" viewBox="0 0 524 316"><defs><style>.cls-1{fill:#66c;}.cls-2{fill:#fff;}</style></defs><rect class="cls-1" width="524" height="316"/><polygon class="cls-2" points="218.1 145.08 206.39 157.7 219.08 170.99 219.08 171.29 212.94 171.29 201.91 159.62 201.91 171.29 196.93 171.29 196.93 144.93 201.91 144.93 201.91 156.08 211.92 144.93 218.1 144.93 218.1 145.08"/><path class="cls-2" d="M244.41,157.79V144.93h4l12.92,16.34V144.9h5v26.4h-3.08v0L249.3,153.42v5c-.13,6.76-4.32,13.48-13.51,13.48s-13.56-6.67-13.56-13.59,4.44-13.9,13.56-13.9h0v4.52h0c-6.22,0-8.78,5-8.66,9.45s2.44,9,8.66,9S244.41,163.21,244.41,157.79Z"/><path class="cls-2" d="M299.14,145v15.1c0,7.8-4.78,11.79-11.41,11.79-6.33,0-11.71-3.84-11.71-11.79V145H281v15.1c0,4.75,2.71,7.27,6.82,7.27s6.44-2.75,6.44-7.27V145Z"/><path class="cls-2" d="M322.28,151.3c-.9-1.51-3.39-2.94-6.25-2.94-3.69,0-5.46,1.55-5.46,3.51,0,2.3,2.71,2.94,5.87,3.31,5.5.68,10.62,2.11,10.62,8.4,0,5.87-5.2,8.4-11.07,8.4-5.38,0-9.53-1.66-11.48-6.48l4.14-2.15c1.17,2.9,4.22,4.18,7.42,4.18s6.06-1.09,6.06-3.95c0-2.49-2.6-3.51-6.1-3.88-5.39-.64-10.36-2.07-10.36-8,0-5.42,5.35-7.65,10.21-7.68,4.11,0,8.36,1.17,10.36,5.24Z"/></svg>