<svg id="Layer_1" data-name="Layer 1" xmlns="http://www.w3.org/2000/svg" viewBox="0 0 524 316"><defs><style>.cls-1{fill:#f2b78f;}.cls-2{fill:#fff;}</style></defs><rect class="cls-1" width="524" height="316"/><path class="cls-2" d="M231.63,146v17.62l-.64.54-.64.54-.65.55-.41-.17a3.83,3.83,0,0,0,.13-.69c0-.23,0-.47,0-.71v-14.8a2.65,2.65,0,0,0-.39-1.6,1.7,1.7,0,0,0-1.45-.52v-.51c.51.05,1,.07,1.49.07a11.49,11.49,0,0,0,1.34-.08A6.3,6.3,0,0,0,231.63,146Zm3.76,6.12a4,4,0,0,1,3.28,1.63,7.78,7.78,0,0,1,1.3,4.93,8,8,0,0,1-.74,3.63,5,5,0,0,1-4.64,2.9,4.41,4.41,0,0,1-2.33-.69,4.17,4.17,0,0,1-1.68-2l.48.27a3.89,3.89,0,0,0,3.32,1.9,2.61,2.61,0,0,0,2.42-1.46,9.66,9.66,0,0,0,.81-4.52,14.08,14.08,0,0,0-.31-3.25,4,4,0,0,0-1-1.94,2.25,2.25,0,0,0-1.66-.64,2.8,2.8,0,0,0-2.06,1,5,5,0,0,0-1.17,2.93l-.29-.34a5.18,5.18,0,0,1,1.43-3.18A4,4,0,0,1,235.39,152.15Z"/><path class="cls-2" d="M252.75,152.22V162.3a2.58,2.58,0,0,0,.4,1.6,1.7,1.7,0,0,0,1.43.52v.51c-.5-.05-1-.07-1.49-.07a11.54,11.54,0,0,0-1.34.07,5,5,0,0,0-1.17.27v-2.84a4.13,4.13,0,0,1-4,2.89,4.12,4.12,0,0,1-1.47-.24,2.81,2.81,0,0,1-1-.68,2.6,2.6,0,0,1-.63-1.25,9.21,9.21,0,0,1-.17-1.9v-6.05a2.65,2.65,0,0,0-.39-1.6,1.73,1.73,0,0,0-1.45-.52v-.51c.51.05,1,.07,1.49.07a11.49,11.49,0,0,0,1.34-.08,7.27,7.27,0,0,0,1.17-.25v9.47a8.23,8.23,0,0,0,.1,1.37,1.69,1.69,0,0,0,.48,1,1.72,1.72,0,0,0,1.25.39,2.77,2.77,0,0,0,2.34-1.27,5.15,5.15,0,0,0,.92-3.1v-5a2.65,2.65,0,0,0-.39-1.6,1.7,1.7,0,0,0-1.45-.52v-.51c.51,0,1,.07,1.49.07a11.49,11.49,0,0,0,1.34-.08A7,7,0,0,0,252.75,152.22Z"/><path class="cls-2" d="M259.6,146v16.66A2,2,0,0,0,260,164a1.71,1.71,0,0,0,1.23.36v.51l-1.15-.06c-.51,0-1,0-1.53,0s-1.1,0-1.66,0l-1.25.06v-.51A2.17,2.17,0,0,0,257,164a1.76,1.76,0,0,0,.42-1.37V148.9a2.65,2.65,0,0,0-.39-1.6,1.7,1.7,0,0,0-1.45-.52v-.51c.51,0,1,.07,1.49.07a11.49,11.49,0,0,0,1.34-.08A7.62,7.62,0,0,0,259.6,146Zm7.66,6.49V153a2.79,2.79,0,0,0-1.13.33,3.92,3.92,0,0,0-1,.81l-3.4,3.57L262,157l4.48,6.15a4.93,4.93,0,0,0,.78.87,1.75,1.75,0,0,0,.9.39v.51l-.83-.06c-.38,0-.75,0-1.12,0s-1,0-1.52,0l-1.16.06v-.51a.84.84,0,0,0,.68-.24c.13-.16.1-.35-.07-.58l-2.77-4.05a2,2,0,0,0-1.9-1.06V158a3.83,3.83,0,0,0,1.25-.33,3,3,0,0,0,.92-.69l1.78-1.86a2.2,2.2,0,0,0,.77-1.27.72.72,0,0,0-.49-.68,3.36,3.36,0,0,0-1.29-.2v-.48l1.41.06c.52,0,1,0,1.31,0h.8l.72,0Z"/><path class="cls-2" d="M274.25,152.15a4.28,4.28,0,0,1,3.31,1.29,5.74,5.74,0,0,1,1.19,4h-8.51l0-.46h6.22a8,8,0,0,0-.19-2.18,3.68,3.68,0,0,0-.76-1.6,1.69,1.69,0,0,0-1.34-.6,2.45,2.45,0,0,0-2,1.11,6.54,6.54,0,0,0-1,3.52l.07.1c0,.24-.06.51-.07.8s0,.58,0,.87a6.92,6.92,0,0,0,.53,2.82,4.31,4.31,0,0,0,1.39,1.8,3,3,0,0,0,1.77.61,4,4,0,0,0,2-.53,4,4,0,0,0,1.54-1.88l.48.19a5.09,5.09,0,0,1-.87,1.54,4.71,4.71,0,0,1-1.52,1.22,4.63,4.63,0,0,1-2.12.47,5.33,5.33,0,0,1-3-.8,5.13,5.13,0,0,1-1.9-2.21,7.56,7.56,0,0,1-.66-3.24,8.84,8.84,0,0,1,.68-3.65,5.35,5.35,0,0,1,1.9-2.36A5,5,0,0,1,274.25,152.15Z"/><path class="cls-2" d="M284.47,148.49v4H288V153h-3.57v9.33a2.39,2.39,0,0,0,.41,1.59,1.42,1.42,0,0,0,1.13.46,1.64,1.64,0,0,0,1.25-.59,5.13,5.13,0,0,0,.92-2l.48.12a5.51,5.51,0,0,1-1,2.36,2.53,2.53,0,0,1-2.18,1,3.92,3.92,0,0,1-1.35-.2,2.87,2.87,0,0,1-.94-.59,3.06,3.06,0,0,1-.74-1.33,8.12,8.12,0,0,1-.2-2.05V153H280v-.48h2.31v-3.69c.4,0,.79,0,1.16-.1A4.28,4.28,0,0,0,284.47,148.49Z"/><path class="cls-2" d="M234.26,177.46a5.69,5.69,0,0,1,1.49.19,4.26,4.26,0,0,1,1.3.58,2.66,2.66,0,0,1,.84.83,2,2,0,0,1,.29,1,1.33,1.33,0,0,1-.36,1,1.28,1.28,0,0,1-.92.35,1.47,1.47,0,0,1-.93-.31,1.06,1.06,0,0,1-.4-.89,1.28,1.28,0,0,1,.3-.89,1.36,1.36,0,0,1,.71-.43,1.8,1.8,0,0,0-.86-.72,3.09,3.09,0,0,0-1.31-.29,2.86,2.86,0,0,0-1.21.29,3.14,3.14,0,0,0-1.11.95,5.17,5.17,0,0,0-.82,1.81,11,11,0,0,0-.31,2.86,9.64,9.64,0,0,0,.48,3.37,3.71,3.71,0,0,0,1.27,1.8,3,3,0,0,0,1.72.54,3.79,3.79,0,0,0,1.9-.55,4.08,4.08,0,0,0,1.59-1.93l.46.17a5.78,5.78,0,0,1-.8,1.56,4.42,4.42,0,0,1-1.45,1.29,4.35,4.35,0,0,1-2.19.51,4.92,4.92,0,0,1-2.7-.77,5.42,5.42,0,0,1-1.92-2.21,7.66,7.66,0,0,1-.71-3.41,8.1,8.1,0,0,1,.71-3.48,5.7,5.7,0,0,1,2-2.36A5.19,5.19,0,0,1,234.26,177.46Z"/><path class="cls-2" d="M251,177.8v.48a1.39,1.39,0,0,0-.84.41,3.29,3.29,0,0,0-.72,1.28l-3.95,10.37h-.41l-4.44-10.68a2.35,2.35,0,0,0-.76-1.15,1.33,1.33,0,0,0-.64-.2v-.51l1,.06c.35,0,.72,0,1.12,0l1.58,0,1.55-.07v.51a6.77,6.77,0,0,0-1.07.08.71.71,0,0,0-.6.47,2.24,2.24,0,0,0,.23,1.33l3,7.45-.14.12,2.75-7.21c.31-.8.34-1.37.11-1.69a2.24,2.24,0,0,0-1.63-.58v-.48l1,.05c.28,0,.61,0,1,0l1,0Z"/><path class="cls-2" d="M257.38,177.46a4.28,4.28,0,0,1,3.31,1.29,5.74,5.74,0,0,1,1.19,4h-8.51l0-.46h6.22a8,8,0,0,0-.19-2.18,3.68,3.68,0,0,0-.76-1.6,1.69,1.69,0,0,0-1.34-.6,2.45,2.45,0,0,0-2,1.11,6.54,6.54,0,0,0-1,3.52l.07.1c0,.24-.06.51-.07.8s0,.58,0,.87a6.92,6.92,0,0,0,.53,2.82,4.31,4.31,0,0,0,1.39,1.8,3,3,0,0,0,1.77.61,4,4,0,0,0,2-.53,4,4,0,0,0,1.54-1.88l.48.19a5.09,5.09,0,0,1-.87,1.54,4.71,4.71,0,0,1-1.52,1.22,4.63,4.63,0,0,1-2.12.47,5.33,5.33,0,0,1-3-.8,5.13,5.13,0,0,1-1.9-2.21,7.56,7.56,0,0,1-.66-3.24,8.84,8.84,0,0,1,.68-3.65,5.35,5.35,0,0,1,1.9-2.36A4.92,4.92,0,0,1,257.38,177.46Z"/><path class="cls-2" d="M269.75,177.46a5.69,5.69,0,0,1,1.49.19,4.26,4.26,0,0,1,1.3.58,2.66,2.66,0,0,1,.84.83,2,2,0,0,1,.29,1,1.33,1.33,0,0,1-.36,1,1.28,1.28,0,0,1-.92.35,1.47,1.47,0,0,1-.93-.31,1.06,1.06,0,0,1-.4-.89,1.28,1.28,0,0,1,.3-.89,1.36,1.36,0,0,1,.71-.43,1.8,1.8,0,0,0-.86-.72,3.09,3.09,0,0,0-1.31-.29,2.86,2.86,0,0,0-1.21.29,3.14,3.14,0,0,0-1.11.95,5.17,5.17,0,0,0-.82,1.81,11,11,0,0,0-.31,2.86,9.64,9.64,0,0,0,.48,3.37,3.71,3.71,0,0,0,1.27,1.8,3,3,0,0,0,1.72.54,3.79,3.79,0,0,0,1.9-.55,4.08,4.08,0,0,0,1.59-1.93l.46.17a5.78,5.78,0,0,1-.8,1.56,4.42,4.42,0,0,1-1.45,1.29,4.35,4.35,0,0,1-2.19.51,4.92,4.92,0,0,1-2.7-.77,5.42,5.42,0,0,1-1.92-2.21,7.66,7.66,0,0,1-.71-3.41,8.1,8.1,0,0,1,.71-3.48,5.7,5.7,0,0,1,2-2.36A5.15,5.15,0,0,1,269.75,177.46Zm2.19-6.85a.93.93,0,0,1,.33.63,1.27,1.27,0,0,1-.33.87,6.91,6.91,0,0,1-.89.92c-.35.31-.77.67-1.24,1.1s-1,1-1.68,1.65l-.27-.22c.5-.79.9-1.46,1.19-2s.55-1,.76-1.47a6.07,6.07,0,0,1,.67-1.08,1.16,1.16,0,0,1,.76-.53A.87.87,0,0,1,271.94,170.61Z"/><path class="cls-2" d="M278.67,190.38a3,3,0,0,1-2.28-.78,3,3,0,0,1-.71-2.09,2.74,2.74,0,0,1,.49-1.68,3.83,3.83,0,0,1,1.27-1.08,10.88,10.88,0,0,1,1.63-.72l1.63-.59a5.36,5.36,0,0,0,1.27-.65,1.09,1.09,0,0,0,.49-.92v-1.49a3.15,3.15,0,0,0-.3-1.54,1.51,1.51,0,0,0-.81-.71,3.39,3.39,0,0,0-1.13-.18,5.58,5.58,0,0,0-1.29.17,2,2,0,0,0-1.1.7,1.46,1.46,0,0,1,.8.48,1.49,1.49,0,0,1,.34,1,1.21,1.21,0,0,1-.39,1,1.44,1.44,0,0,1-1,.35,1.16,1.16,0,0,1-1-.45,1.64,1.64,0,0,1-.33-1,1.52,1.52,0,0,1,.31-1,3.52,3.52,0,0,1,.8-.72,5.15,5.15,0,0,1,1.43-.66,6.78,6.78,0,0,1,2-.28,5.57,5.57,0,0,1,1.69.23,3,3,0,0,1,1.16.66,2.74,2.74,0,0,1,.82,1.41,8.84,8.84,0,0,1,.19,2v6.7a1.74,1.74,0,0,0,.17.86.61.61,0,0,0,.58.28,1.25,1.25,0,0,0,.59-.14,3.24,3.24,0,0,0,.49-.36l.27.41a8.41,8.41,0,0,1-1,.64,2.56,2.56,0,0,1-1.23.25,1.82,1.82,0,0,1-1.66-.65,2.75,2.75,0,0,1-.41-1.49,4.07,4.07,0,0,1-1.75,1.71A5.43,5.43,0,0,1,278.67,190.38Zm1.06-1a2.71,2.71,0,0,0,1.42-.42,4,4,0,0,0,1.3-1.41v-4.73a2.42,2.42,0,0,1-1.12.84c-.51.21-1,.44-1.57.69a4.4,4.4,0,0,0-1.39,1,2.6,2.6,0,0,0-.58,1.82,2.21,2.21,0,0,0,.55,1.65A1.91,1.91,0,0,0,279.73,189.42Z"/><path class="cls-2" d="M232,196.62v16.66a2,2,0,0,0,.36,1.37,1.71,1.71,0,0,0,1.23.36v.51l-1.15-.06c-.51,0-1,0-1.53,0s-1.1,0-1.66,0l-1.25.06V215a2.17,2.17,0,0,0,1.41-.36,1.76,1.76,0,0,0,.42-1.37V199.52a2.65,2.65,0,0,0-.39-1.6,1.7,1.7,0,0,0-1.45-.52v-.51c.51.05,1,.07,1.49.07a11.49,11.49,0,0,0,1.34-.08A6.24,6.24,0,0,0,232,196.62Zm7.67,6.49v.48a2.79,2.79,0,0,0-1.13.33,3.92,3.92,0,0,0-1,.81l-3.4,3.57.34-.68,4.48,6.15a4.93,4.93,0,0,0,.78.87,1.75,1.75,0,0,0,.9.39v.51l-.83-.06c-.38,0-.75,0-1.12,0s-1,0-1.52,0l-1.16.06V215a.84.84,0,0,0,.68-.24c.13-.16.1-.35-.07-.58l-2.77-4.05a2,2,0,0,0-1.9-1.06v-.48a3.83,3.83,0,0,0,1.25-.33,3,3,0,0,0,.92-.69l1.78-1.86a2.2,2.2,0,0,0,.77-1.27.71.71,0,0,0-.49-.68,3.36,3.36,0,0,0-1.29-.2v-.48l1.41.06c.52,0,1,0,1.31,0h.8l.72,0Z"/><path class="cls-2" d="M245.49,202.84v10.44a1.76,1.76,0,0,0,.42,1.37,2.17,2.17,0,0,0,1.41.36v.51l-1.24-.06c-.55,0-1.11,0-1.68,0s-1.1,0-1.66,0l-1.25.06V215a2.17,2.17,0,0,0,1.41-.36,1.76,1.76,0,0,0,.42-1.37v-7.55a2.65,2.65,0,0,0-.39-1.6,1.73,1.73,0,0,0-1.45-.52v-.51c.51.05,1,.07,1.49.07a11.49,11.49,0,0,0,1.34-.08A5.57,5.57,0,0,0,245.49,202.84Zm-1.25-5.76a1.44,1.44,0,0,1,1.08.46,1.52,1.52,0,0,1,.46,1.08,1.44,1.44,0,0,1-.46,1.08,1.48,1.48,0,0,1-1.08.46,1.44,1.44,0,0,1-1.08-.46,1.48,1.48,0,0,1-.46-1.08,1.57,1.57,0,0,1,1.54-1.54Z"/><path class="cls-2" d="M252.44,199.11v4H256v.48h-3.57V213a2.39,2.39,0,0,0,.41,1.59A1.42,1.42,0,0,0,254,215a1.64,1.64,0,0,0,1.25-.59,5.13,5.13,0,0,0,.92-2l.48.12a5.51,5.51,0,0,1-.95,2.36,2.53,2.53,0,0,1-2.18,1,3.92,3.92,0,0,1-1.35-.2,2.87,2.87,0,0,1-.94-.59,3.06,3.06,0,0,1-.74-1.33,8.12,8.12,0,0,1-.2-2.05v-8.08H248v-.48h2.31v-3.69c.4,0,.79-.05,1.16-.1A4.52,4.52,0,0,0,252.44,199.11Z"/><path class="cls-2" d="M260.32,215.69a3,3,0,0,1-2.28-.78,3,3,0,0,1-.71-2.09,2.74,2.74,0,0,1,.49-1.68,3.83,3.83,0,0,1,1.27-1.08,10.88,10.88,0,0,1,1.63-.72l1.63-.59a5.36,5.36,0,0,0,1.27-.65,1.09,1.09,0,0,0,.49-.92v-1.49a3.15,3.15,0,0,0-.3-1.54,1.51,1.51,0,0,0-.81-.71,3.39,3.39,0,0,0-1.13-.18,5.58,5.58,0,0,0-1.29.17,2,2,0,0,0-1.1.7,1.46,1.46,0,0,1,.8.48,1.49,1.49,0,0,1,.34,1,1.21,1.21,0,0,1-.39,1,1.44,1.44,0,0,1-1,.35,1.16,1.16,0,0,1-1-.45,1.64,1.64,0,0,1-.33-1,1.52,1.52,0,0,1,.31-1,3.52,3.52,0,0,1,.8-.72,5.15,5.15,0,0,1,1.43-.66,6.78,6.78,0,0,1,2-.28,5.57,5.57,0,0,1,1.69.23,3,3,0,0,1,1.16.66,2.74,2.74,0,0,1,.82,1.41,8.84,8.84,0,0,1,.19,2v6.7a1.74,1.74,0,0,0,.17.86.61.61,0,0,0,.58.28,1.25,1.25,0,0,0,.59-.14,3.24,3.24,0,0,0,.49-.36l.27.41a8.41,8.41,0,0,1-1,.64,2.56,2.56,0,0,1-1.23.25,1.82,1.82,0,0,1-1.66-.65,2.75,2.75,0,0,1-.41-1.49,4.07,4.07,0,0,1-1.75,1.71A5.36,5.36,0,0,1,260.32,215.69Zm1.06-1a2.71,2.71,0,0,0,1.42-.42,4,4,0,0,0,1.3-1.41v-4.73A2.42,2.42,0,0,1,263,209c-.51.21-1,.44-1.57.69a4.4,4.4,0,0,0-1.39,1,2.6,2.6,0,0,0-.58,1.82,2.21,2.21,0,0,0,.55,1.65A1.92,1.92,0,0,0,261.38,214.73Z"/><path class="cls-2" d="M232.55,228.08a3.87,3.87,0,0,1,1.64.31,4.52,4.52,0,0,1,1,.58q.8.65,1-.87h.55c0,.45-.06,1-.07,1.6s0,1.45,0,2.49h-.55a8.37,8.37,0,0,0-.49-1.74,3.47,3.47,0,0,0-1-1.39,2.74,2.74,0,0,0-1.76-.54,2.16,2.16,0,0,0-1.41.47,1.7,1.7,0,0,0-.57,1.39,1.85,1.85,0,0,0,.43,1.24,4.72,4.72,0,0,0,1.13,1l1.52,1a15.58,15.58,0,0,1,2.34,1.81,3.17,3.17,0,0,1,1,2.41,2.93,2.93,0,0,1-.58,1.86,3.57,3.57,0,0,1-1.51,1.13,5.22,5.22,0,0,1-2,.39,6.33,6.33,0,0,1-1-.08,5.44,5.44,0,0,1-.9-.25,4.19,4.19,0,0,1-.49-.29,5.6,5.6,0,0,1-.49-.36.28.28,0,0,0-.43,0,1.58,1.58,0,0,0-.29.81h-.55c0-.51.06-1.14.07-1.88s0-1.72,0-2.94h.55a13.41,13.41,0,0,0,.48,2.36,3.26,3.26,0,0,0,1,1.58,2.83,2.83,0,0,0,1.88.57,2.43,2.43,0,0,0,1.43-.51,2.05,2.05,0,0,0,.71-1.78,2.22,2.22,0,0,0-.77-1.74,16.29,16.29,0,0,0-1.95-1.42c-.58-.37-1.12-.74-1.63-1.11a5,5,0,0,1-1.23-1.25,3,3,0,0,1-.47-1.69,3,3,0,0,1,.49-1.77,2.86,2.86,0,0,1,1.31-1A4.76,4.76,0,0,1,232.55,228.08Z"/><path class="cls-2" d="M247,228.08a4.12,4.12,0,0,1,1.47.24,2.81,2.81,0,0,1,1,.68,2.6,2.6,0,0,1,.63,1.25,9.21,9.21,0,0,1,.17,1.9v6.44a1.76,1.76,0,0,0,.42,1.37,2.17,2.17,0,0,0,1.41.36v.51l-1.25-.06c-.56,0-1.11,0-1.64,0s-1.05,0-1.55,0l-1.15.06v-.51a1.71,1.71,0,0,0,1.23-.36,2,2,0,0,0,.36-1.37v-7a8.23,8.23,0,0,0-.1-1.37,1.75,1.75,0,0,0-.48-1,1.72,1.72,0,0,0-1.25-.39,2.62,2.62,0,0,0-1.68.58,3.88,3.88,0,0,0-1.16,1.58,5.72,5.72,0,0,0-.42,2.23v5.35a2,2,0,0,0,.36,1.37,1.71,1.71,0,0,0,1.23.36v.51l-1.15-.06c-.51,0-1,0-1.55,0s-1.08,0-1.64,0l-1.25.06v-.51a2.17,2.17,0,0,0,1.41-.36,1.76,1.76,0,0,0,.42-1.37V231a2.65,2.65,0,0,0-.39-1.6,1.73,1.73,0,0,0-1.45-.52v-.51c.51.05,1,.07,1.49.07a11.49,11.49,0,0,0,1.34-.08,7.27,7.27,0,0,0,1.17-.25V231a4.53,4.53,0,0,1,1.71-2.24A4.22,4.22,0,0,1,247,228.08Zm7.25,0a4.12,4.12,0,0,1,1.47.24,2.81,2.81,0,0,1,1,.68,2.69,2.69,0,0,1,.63,1.25,9.21,9.21,0,0,1,.17,1.9v6.44A1.76,1.76,0,0,0,258,240a2.17,2.17,0,0,0,1.41.36v.51l-1.25-.06c-.56,0-1.11,0-1.64,0s-1.05,0-1.55,0l-1.15.06v-.51A1.71,1.71,0,0,0,255,240a2,2,0,0,0,.36-1.37v-7a8.23,8.23,0,0,0-.1-1.37,1.75,1.75,0,0,0-.48-1,1.7,1.7,0,0,0-1.25-.39,2.82,2.82,0,0,0-2.33,1.25,5.08,5.08,0,0,0-.93,3.11L250.2,231a4.2,4.2,0,0,1,1.76-2.28A4.68,4.68,0,0,1,254.22,228.08Z"/><path class="cls-2" d="M266.27,228.08a4.28,4.28,0,0,1,3.31,1.29,5.74,5.74,0,0,1,1.19,4h-8.51l0-.46h6.22a8,8,0,0,0-.19-2.18,3.68,3.68,0,0,0-.76-1.6,1.69,1.69,0,0,0-1.34-.6,2.45,2.45,0,0,0-2,1.11,6.54,6.54,0,0,0-1,3.52l.07.1c0,.24-.06.51-.07.8s0,.58,0,.87a6.92,6.92,0,0,0,.53,2.82,4.31,4.31,0,0,0,1.39,1.8,3,3,0,0,0,1.77.61,4,4,0,0,0,2-.53,4,4,0,0,0,1.54-1.88l.48.19a5.09,5.09,0,0,1-.87,1.54,4.71,4.71,0,0,1-1.52,1.22,4.63,4.63,0,0,1-2.12.47,5.33,5.33,0,0,1-3-.8,5.13,5.13,0,0,1-1.9-2.21,7.56,7.56,0,0,1-.66-3.24,8.84,8.84,0,0,1,.68-3.65,5.35,5.35,0,0,1,1.9-2.36A4.94,4.94,0,0,1,266.27,228.08Z"/><path class="cls-2" d="M278.64,228.08a5.69,5.69,0,0,1,1.49.19,4.26,4.26,0,0,1,1.3.58,2.66,2.66,0,0,1,.84.83,2,2,0,0,1,.29,1,1.33,1.33,0,0,1-.36,1,1.28,1.28,0,0,1-.92.35,1.47,1.47,0,0,1-.93-.31,1.06,1.06,0,0,1-.4-.89,1.28,1.28,0,0,1,.3-.89,1.36,1.36,0,0,1,.71-.43,1.8,1.8,0,0,0-.86-.72,3.09,3.09,0,0,0-1.31-.29,2.86,2.86,0,0,0-1.21.29,3.14,3.14,0,0,0-1.11.95,5.17,5.17,0,0,0-.82,1.81,11,11,0,0,0-.31,2.86,9.64,9.64,0,0,0,.48,3.37,3.71,3.71,0,0,0,1.27,1.8,3,3,0,0,0,1.72.54,3.79,3.79,0,0,0,1.9-.55,4.08,4.08,0,0,0,1.59-1.93l.46.17a5.78,5.78,0,0,1-.8,1.56,4.42,4.42,0,0,1-1.45,1.29,4.35,4.35,0,0,1-2.19.51,4.92,4.92,0,0,1-2.7-.77,5.42,5.42,0,0,1-1.92-2.21,7.66,7.66,0,0,1-.71-3.41,8.1,8.1,0,0,1,.71-3.48,5.7,5.7,0,0,1,2-2.36A5.19,5.19,0,0,1,278.64,228.08Zm2.19-6.84a.93.93,0,0,1,.33.63,1.27,1.27,0,0,1-.33.87,6.91,6.91,0,0,1-.89.92c-.35.31-.77.67-1.24,1.1s-1,1-1.68,1.65l-.27-.22c.5-.79.9-1.46,1.19-2s.55-1,.76-1.47a6.07,6.07,0,0,1,.67-1.08,1.16,1.16,0,0,1,.76-.53A.8.8,0,0,1,280.83,221.24Z"/><path class="cls-2" d="M287.56,241a3,3,0,0,1-2.28-.78,3,3,0,0,1-.71-2.09,2.74,2.74,0,0,1,.49-1.68,3.83,3.83,0,0,1,1.27-1.08,10.88,10.88,0,0,1,1.63-.72l1.63-.59a5.36,5.36,0,0,0,1.27-.65,1.09,1.09,0,0,0,.49-.92V231a3.15,3.15,0,0,0-.3-1.54,1.51,1.51,0,0,0-.81-.71,3.39,3.39,0,0,0-1.13-.18,5.58,5.58,0,0,0-1.29.17,2,2,0,0,0-1.1.7,1.46,1.46,0,0,1,.8.48,1.49,1.49,0,0,1,.34,1,1.21,1.21,0,0,1-.39,1,1.44,1.44,0,0,1-1,.35,1.16,1.16,0,0,1-1-.45,1.64,1.64,0,0,1-.33-1,1.52,1.52,0,0,1,.31-1,3.52,3.52,0,0,1,.8-.72,5.15,5.15,0,0,1,1.43-.66,6.78,6.78,0,0,1,2-.28,5.57,5.57,0,0,1,1.69.23,3,3,0,0,1,1.16.66,2.74,2.74,0,0,1,.82,1.41,8.84,8.84,0,0,1,.19,2v6.7a1.74,1.74,0,0,0,.17.86.61.61,0,0,0,.58.28,1.25,1.25,0,0,0,.59-.14,3.24,3.24,0,0,0,.49-.36l.27.41a8.41,8.41,0,0,1-1,.64,2.56,2.56,0,0,1-1.23.25,1.82,1.82,0,0,1-1.66-.65,2.75,2.75,0,0,1-.41-1.49,4.07,4.07,0,0,1-1.75,1.71A5.36,5.36,0,0,1,287.56,241Zm1.06-1a2.71,2.71,0,0,0,1.42-.42,4,4,0,0,0,1.3-1.41v-4.73a2.42,2.42,0,0,1-1.12.84c-.51.21-1,.44-1.57.69a4.4,4.4,0,0,0-1.39,1,2.6,2.6,0,0,0-.58,1.82,2.21,2.21,0,0,0,.55,1.65A1.92,1.92,0,0,0,288.62,240Z"/><path class="cls-2" d="M243,80.5a15,15,0,1,0,4.36,10.57A15,15,0,0,0,243,80.5Zm-3.38,17.76a10.16,10.16,0,1,1,0-14.38A10.2,10.2,0,0,1,239.65,98.26Z"/><path class="cls-2" d="M273.31,91.62a14.95,14.95,0,0,0-25.19,13.65A14.93,14.93,0,1,0,255.75,132a13,13,0,0,0,1.49-1.3,15.15,15.15,0,0,0,1.92-2.36,10,10,0,0,1-3.41-2.26c-.17-.17-.32-.35-.48-.53a10,10,0,0,1-2.49-6.66,10.15,10.15,0,0,1,1.12-4.67,5.66,5.66,0,0,1,.44-.75,9.43,9.43,0,0,1,1.41-1.78,7.62,7.62,0,0,1,1.3-1.07,4.58,4.58,0,0,1,.73-.48,10.11,10.11,0,0,1,9.06-.64,9.39,9.39,0,0,1,1.79,1,9.26,9.26,0,0,1,1.5,1.23,10,10,0,0,1,1.72,2.3,13,13,0,0,0,1.44-1.25,15.15,15.15,0,0,0,1.92-2.36A14.94,14.94,0,0,0,273.31,91.62Zm-33.8,35.7a10.17,10.17,0,0,1,11-16.63h0a14.95,14.95,0,0,0,1.38,18.19A10.15,10.15,0,0,1,239.51,127.32Zm14.31-20.25a10,10,0,0,1-1.24-4.88,10.17,10.17,0,1,1,19.21,4.65A14.84,14.84,0,0,0,263,104a14.66,14.66,0,0,0-9.14,3.12"/></svg>