<?xml version="1.0" encoding="utf-8"?>
<!-- Generator: Adobe Illustrator 24.3.0, SVG Export Plug-In . SVG Version: 6.00 Build 0)  -->
<svg version="1.1" id="Layer_1" xmlns="http://www.w3.org/2000/svg" xmlns:xlink="http://www.w3.org/1999/xlink" x="0px" y="0px"
	 viewBox="0 0 524 316" style="enable-background:new 0 0 524 316;" xml:space="preserve">
<style type="text/css">
	.st0{fill:#5556A4;}
	.st1{fill:#231F20;}
	.st2{fill:#FFFFFF;}
</style>
<rect class="st0" width="524" height="316"/>
<g id="XMLID_1_">
	<polygon id="XMLID_746_" class="st2" points="218.1,145.08 206.39,157.7 219.08,170.99 219.08,171.29 212.94,171.29 201.91,159.62 
		201.91,171.29 196.93,171.29 196.93,144.93 201.91,144.93 201.91,156.08 211.92,144.93 218.1,144.93 	"/>
	<path id="XMLID_745_" class="st2" d="M244.41,157.79v-12.86h4.03l12.92,16.34V144.9h4.96v26.4h-3.08v0.03l-13.94-17.91v4.99
		c-0.13,6.76-4.32,13.48-13.51,13.48c-9.27,0-13.56-6.67-13.56-13.59c0-6.93,4.44-13.9,13.56-13.9h0.01v4.52h-0.01
		c-6.22,0-8.78,5.01-8.66,9.45c0.11,4.33,2.44,8.96,8.66,8.96C242,167.34,244.41,163.21,244.41,157.79z"/>
	<path id="XMLID_744_" class="st2" d="M299.14,144.97v15.1c0,7.8-4.78,11.79-11.41,11.79c-6.33,0-11.71-3.84-11.71-11.79v-15.1h4.93
		v15.1c0,4.75,2.71,7.27,6.82,7.27c4.1,0,6.44-2.75,6.44-7.27v-15.1H299.14z"/>
	<path id="XMLID_2_" class="st2" d="M322.28,151.3c-0.9-1.51-3.39-2.94-6.25-2.94c-3.69,0-5.46,1.55-5.46,3.51
		c0,2.3,2.71,2.94,5.87,3.31c5.5,0.68,10.62,2.11,10.62,8.4c0,5.87-5.2,8.4-11.07,8.4c-5.38,0-9.53-1.66-11.48-6.48l4.14-2.15
		c1.17,2.9,4.22,4.18,7.42,4.18c3.13,0,6.06-1.09,6.06-3.95c0-2.49-2.6-3.51-6.1-3.88c-5.39-0.64-10.36-2.07-10.36-7.99
		c0-5.42,5.35-7.65,10.21-7.68c4.11,0,8.36,1.17,10.36,5.24L322.28,151.3z"/>
</g>
</svg>
