<?xml version="1.0" encoding="utf-8"?>
<!-- Generator: Adobe Illustrator 24.3.0, SVG Export Plug-In . SVG Version: 6.00 Build 0)  -->
<svg version="1.1" id="Layer_1" xmlns="http://www.w3.org/2000/svg" xmlns:xlink="http://www.w3.org/1999/xlink" x="0px" y="0px"
	 viewBox="0 0 524 316" style="enable-background:new 0 0 524 316;" xml:space="preserve">
<style type="text/css">
	.st0{fill:#FFFFFF;}
</style>
<rect width="524" height="316"/>
<g id="XMLID_43_">
	<g id="XMLID_92_">
		<path id="XMLID_85_" class="st0" d="M260.9,187c-22.8,0-41.4-18.6-41.4-41.4s18.6-41.4,41.4-41.4c22.8,0,41.4,18.6,41.4,41.4
			S283.7,187,260.9,187z M260.9,108.3c-20.6,0-37.3,16.7-37.3,37.3c0,20.6,16.7,37.3,37.3,37.3s37.3-16.7,37.3-37.3
			C298.1,125,281.4,108.3,260.9,108.3z"/>
		<rect id="XMLID_84_" x="258.8" y="112.6" class="st0" width="4.1" height="7.6"/>
		<rect id="XMLID_82_" x="258.8" y="171.7" class="st0" width="4.1" height="7.6"/>
		<rect id="XMLID_80_" x="227.5" y="143.8" class="st0" width="7.6" height="4.1"/>
		<rect id="XMLID_79_" x="286.6" y="143.8" class="st0" width="7.6" height="4.1"/>
		
			<rect id="XMLID_78_" x="236.2" y="164.7" transform="matrix(0.707 -0.7072 0.7072 0.707 -47.6391 218.5653)" class="st0" width="7.6" height="4.1"/>
		
			<rect id="XMLID_77_" x="278" y="122.9" transform="matrix(0.7071 -0.7071 0.7071 0.7071 -5.8591 235.8568)" class="st0" width="7.6" height="4.1"/>
		
			<rect id="XMLID_56_" x="279.7" y="163" transform="matrix(0.7071 -0.7071 0.7071 0.7071 -35.4073 248.0795)" class="st0" width="4.1" height="7.6"/>
		
			<rect id="XMLID_55_" x="237.9" y="121.2" transform="matrix(0.7071 -0.7071 0.7071 0.7071 -18.0994 206.3069)" class="st0" width="4.1" height="7.6"/>
	</g>
	
		<rect id="XMLID_53_" x="219.5" y="211.1" transform="matrix(0.3934 -0.9194 0.9194 0.3934 -50.379 349.9062)" class="st0" width="41" height="4.1"/>
	
		<rect id="XMLID_52_" x="265.4" y="189.7" transform="matrix(0.3905 -0.9206 0.9206 0.3905 -21.5492 368.4226)" class="st0" width="4.1" height="21.6"/>
</g>
</svg>
