<?xml version="1.0" encoding="utf-8"?>
<!-- Generator: Adobe Illustrator 24.3.0, SVG Export Plug-In . SVG Version: 6.00 Build 0)  -->
<svg version="1.1" id="Layer_1" xmlns="http://www.w3.org/2000/svg" xmlns:xlink="http://www.w3.org/1999/xlink" x="0px" y="0px"
	 viewBox="0 0 524 316" style="enable-background:new 0 0 524 316;" xml:space="preserve">
<style type="text/css">
	.st0{fill:#FBD8D2;}
	.st1{fill:#231F20;}
</style>
<rect class="st0" width="524" height="316"/>
<g>
	<path d="M215.13,147.64c-2.89,0-5.24-2.35-5.24-5.24h3.25c0,1.1,0.89,1.99,1.99,1.99c1.1,0,1.99-0.89,1.99-1.99h3.25
		C220.37,145.29,218.02,147.64,215.13,147.64z"/>
	<path d="M221.96,161.83c-2.1,0-3.81-1.71-3.81-3.81h3.25c0,0.31,0.25,0.56,0.56,0.56c0.31,0,0.56-0.25,0.56-0.56h3.25
		C225.78,160.11,224.06,161.83,221.96,161.83z"/>
	<path d="M278.98,135.23l-2.15,2.44c-0.03-0.03-3.95-3.39-9.46-3.72c-2.88-0.17-5.82,1.76-8.91,3.81c-2.69,1.78-5.48,3.62-8.53,4.21
		c-4.16,0.81-6.7,0-9.91-1.01c-1.36-0.43-2.85-0.9-4.68-1.33c-0.41,7.7-2.54,32.15-13.16,32.15v-3.25c6.35,0,9.39-17.53,9.94-29.52
		c-2.14-0.28-3.78,0.01-4.86,0.87c-1.28,1.02-1.45,2.61-1.47,2.82v10.36h-3.25v-10.48c0-0.13,0.14-3.17,2.64-5.2
		c1.93-1.57,4.62-2.07,8.01-1.49c3.4,0.58,5.85,1.35,7.81,1.97c3.09,0.98,4.96,1.57,8.31,0.92c2.41-0.46,4.81-2.05,7.35-3.73
		c3.4-2.25,6.91-4.57,10.89-4.34C274.22,131.09,278.78,135.06,278.98,135.23z"/>
	<path d="M225.77,134.49l-3.25-0.14c0-0.13,0.15-3.17,2.64-5.2c1.93-1.57,4.62-2.07,8.01-1.49c3.41,0.58,5.85,1.35,7.81,1.97
		c3.09,0.98,4.96,1.57,8.31,0.92c2.42-0.47,4.82-2.05,7.36-3.73c3.4-2.25,6.91-4.57,10.89-4.34c6.67,0.39,11.23,4.36,11.43,4.52
		l-2.15,2.44c-0.04-0.03-3.95-3.39-9.46-3.72c-2.9-0.17-5.81,1.76-8.91,3.81c-2.69,1.78-5.48,3.62-8.53,4.21
		c-4.17,0.81-6.7,0-9.91-1.01c-1.97-0.62-4.19-1.33-7.38-1.87c-2.4-0.41-4.22-0.14-5.39,0.79
		C225.89,132.73,225.77,134.47,225.77,134.49z"/>
	<path d="M225.77,126.23l-3.25-0.14c0-0.13,0.15-3.17,2.64-5.2c1.93-1.57,4.62-2.07,8.01-1.49c3.41,0.58,5.85,1.35,7.81,1.97
		c3.09,0.98,4.96,1.57,8.31,0.92c2.42-0.47,4.82-2.05,7.36-3.73c3.4-2.25,6.91-4.57,10.89-4.34c6.67,0.39,11.23,4.36,11.43,4.52
		l-2.15,2.44c-0.04-0.03-3.95-3.39-9.46-3.72c-2.88-0.17-5.81,1.76-8.91,3.81c-2.69,1.78-5.48,3.62-8.53,4.21
		c-4.17,0.8-6.7,0-9.91-1.01c-1.97-0.62-4.19-1.33-7.38-1.87c-2.4-0.41-4.22-0.14-5.39,0.79
		C225.89,124.48,225.77,126.22,225.77,126.23z"/>
	<path class="st1" d="M242.44,151.5h9.48v0.39h-9.06v6.17h8.22v0.39h-8.22v6.25h9.15v0.39h-9.58V151.5z"/>
	<path class="st1" d="M256.04,158.33v-0.04c0-3.63,2.58-7.02,6.71-7.02c2.08,0,3.36,0.62,4.71,1.75l-0.27,0.33
		c-1.26-1.03-2.52-1.69-4.46-1.69c-3.82,0-6.27,3.26-6.27,6.61v0.04c0,3.53,2.33,6.61,6.28,6.61c2.02,0,3.69-0.89,4.83-1.86v-4.36
		h-5v-0.43h5.43v4.95c-1.28,1.16-3.08,2.09-5.28,2.09C258.48,165.31,256.04,162.11,256.04,158.33z"/>
	<path class="st1" d="M272.62,158.31v-0.04c0-3.7,2.64-7,6.75-7c4.11,0,6.75,3.3,6.75,7v0.04c0,3.7-2.64,7-6.75,7
		C275.25,165.31,272.62,162.01,272.62,158.31z M285.69,158.33v-0.04c0-3.47-2.56-6.63-6.34-6.63c-3.8,0-6.3,3.1-6.3,6.59v0.04
		c0,3.47,2.56,6.63,6.34,6.63C283.19,164.92,285.69,161.82,285.69,158.33z"/>
	<path class="st1" d="M242.44,174.77h9.39v0.39h-8.96v6.3h8.13v0.39h-8.13v6.5h-0.43V174.77z"/>
	<path class="st1" d="M258.42,174.77h5.55c1.76,0,3.06,0.45,3.9,1.28c0.62,0.62,0.97,1.47,0.97,2.52v0.04c0,2.29-1.82,3.65-4.44,3.8
		l4.52,5.94h-0.52l-4.5-5.92h-0.06h-4.98v5.92h-0.43V174.77z M263.75,182.05c3.14,0,4.66-1.49,4.66-3.41v-0.04
		c0-2.15-1.67-3.43-4.48-3.43h-5.08v6.89H263.75z"/>
	<path class="st1" d="M279.15,174.77h0.43v13.58h-0.43V174.77z"/>
	<path class="st1" d="M242.44,198.04h9.48v0.39h-9.06v6.17h8.22v0.39h-8.22v6.25h9.15v0.39h-9.58V198.04z"/>
	<path class="st1" d="M256.47,198.04h0.37l10.32,12.88v-12.88h0.41v13.58h-0.37l-10.32-12.88v12.88h-0.41V198.04z"/>
	<path class="st1" d="M273.58,198.04h4.36c4.27,0,7.22,2.95,7.22,6.77v0.04c0,3.82-2.95,6.77-7.22,6.77h-4.36V198.04z
		 M277.96,211.23c4,0,6.77-2.81,6.77-6.36v-0.04c0-3.57-2.79-6.4-6.81-6.4H274v12.8H277.96z"/>
</g>
</svg>
