<?xml version="1.0" encoding="utf-8"?>
<!-- Generator: Adobe Illustrator 24.3.0, SVG Export Plug-In . SVG Version: 6.00 Build 0)  -->
<svg version="1.1" id="Layer_1" xmlns="http://www.w3.org/2000/svg" xmlns:xlink="http://www.w3.org/1999/xlink" x="0px" y="0px"
	 viewBox="0 0 524 316" style="enable-background:new 0 0 524 316;" xml:space="preserve">
<style type="text/css">
	.st0{fill:#FFFFFF;}
	.st1{fill:#6690CB;}
	.st2{fill:#1B1E21;}
</style>
<rect class="st0" width="524" height="316"/>
<g id="XMLID_382_">
	<g id="XMLID_385_">
		<g>
			<path id="XMLID_103_" class="st1" d="M187.05,169.3h-16.92v-19.61h16.92V169.3z M174.39,165.04h8.4v-11.09h-8.4V165.04z"/>
			<path id="XMLID_100_" class="st1" d="M155.69,166.98v-23.7l23.37-13.23l22.42,12.82v23.9h-2.36c-2.65,0-3.97-1.08-5.26-2.13
				c-1.28-1.05-2.62-2.13-5.24-2.13c-2.63,0-3.9,1.03-5.25,2.13c-1.28,1.05-2.6,2.13-5.25,2.13c-2.65,0-3.97-1.08-5.26-2.13
				c-1.28-1.05-2.62-2.13-5.24-2.13c-2.63,0-3.9,1.03-5.24,2.13c-1.19,0.97-2.31,1.87-4.33,2.09L155.69,166.98z M167.62,158.25
				c4.14,0,6.42,1.86,7.94,3.09c1.1,0.9,1.44,1.17,2.56,1.17c1.13,0,1.46-0.27,2.56-1.17c1.52-1.23,3.8-3.09,7.94-3.09
				c4.14,0,6.42,1.86,7.94,3.09c0.26,0.21,0.48,0.39,0.67,0.54v-16.53l-18.17-10.39l-19.1,10.81v15.35
				C161.47,159.89,163.72,158.25,167.62,158.25z"/>
			<g id="XMLID_95_">
				<path id="XMLID_97_" class="st1" d="M157.82,164.6v0.03h-0.7C157.38,164.64,157.6,164.62,157.82,164.6z"/>
				<path id="XMLID_96_" class="st1" d="M199.36,164.62v0.01h-0.23C199.21,164.64,199.28,164.64,199.36,164.62z"/>
			</g>
			<path id="XMLID_94_" class="st1" d="M209.63,171.3v4.26c-1.87,0-2.68,0.66-3.91,1.65c-1.44,1.16-3.22,2.61-6.59,2.61
				c-3.39,0-5.16-1.45-6.6-2.61c-1.22-0.99-2.03-1.65-3.91-1.65c-1.86,0-2.67,0.66-3.91,1.65c-1.43,1.16-3.21,2.61-6.59,2.61
				c-3.38,0-5.15-1.45-6.59-2.61c-1.22-0.99-2.03-1.65-3.91-1.65c-1.86,0-2.67,0.66-3.91,1.65c-1.43,1.16-3.21,2.61-6.59,2.61
				c-3.38,0-5.15-1.45-6.59-2.61c-1.22-0.99-2.03-1.65-3.9-1.65h-0.01v-4.26h0.01c3.38,0,5.15,1.44,6.59,2.61
				c1.22,0.99,2.03,1.65,3.9,1.65c1.87,0,2.68-0.66,3.91-1.65c1.44-1.17,3.22-2.61,6.59-2.61c3.39,0,5.16,1.44,6.59,2.61
				c1.22,0.99,2.04,1.65,3.91,1.65c1.87,0,2.68-0.66,3.91-1.65c1.44-1.17,3.22-2.61,6.59-2.61c3.39,0,5.16,1.44,6.59,2.6
				c1.24,1,2.04,1.66,3.92,1.66c1.86,0,2.68-0.66,3.91-1.66C204.46,172.73,206.25,171.3,209.63,171.3z"/>
			<path id="XMLID_93_" class="st1" d="M189.8,181.5v4.3c-0.34-0.06-0.73-0.11-1.18-0.11c-1.86,0-2.67,0.66-3.91,1.66
				c-1.43,1.16-3.21,2.6-6.59,2.6c-3.38,0-5.15-1.44-6.59-2.6c-1.22-1-2.03-1.66-3.91-1.66c-0.36,0-0.68,0.02-0.97,0.06v-4.28
				c0.31-0.03,0.63-0.04,0.97-0.04c3.39,0,5.16,1.45,6.59,2.61c1.22,0.99,2.04,1.65,3.91,1.65c1.87,0,2.68-0.66,3.91-1.65
				c1.44-1.16,3.22-2.61,6.59-2.61C189.03,181.44,189.43,181.46,189.8,181.5z"/>
		</g>
	</g>
	<g>
		<path class="st2" d="M220.64,151c0.95,0.8,1.55,1.85,1.79,3.16h-3.61c-0.11-0.51-0.34-0.91-0.71-1.21s-0.83-0.44-1.39-0.44
			c-0.44,0-0.77,0.09-0.99,0.28c-0.23,0.19-0.34,0.45-0.34,0.8c0,0.39,0.21,0.68,0.62,0.88s1.06,0.39,1.95,0.59
			c0.96,0.23,1.75,0.46,2.37,0.69c0.62,0.23,1.15,0.61,1.6,1.14c0.45,0.53,0.68,1.23,0.68,2.12c0,0.72-0.2,1.36-0.59,1.92
			c-0.39,0.56-0.95,0.99-1.69,1.31s-1.61,0.47-2.61,0.47c-1.7,0-3.06-0.38-4.08-1.13c-1.02-0.75-1.65-1.83-1.87-3.22h3.72
			c0.06,0.54,0.29,0.96,0.69,1.24s0.91,0.43,1.54,0.43c0.44,0,0.77-0.1,0.99-0.3c0.23-0.2,0.34-0.47,0.34-0.8
			c0-0.44-0.21-0.75-0.62-0.93c-0.41-0.19-1.09-0.39-2.02-0.6c-0.93-0.2-1.7-0.41-2.3-0.63s-1.12-0.59-1.56-1.09
			c-0.44-0.5-0.65-1.19-0.65-2.06c0-1.13,0.43-2.04,1.28-2.74s2.07-1.05,3.63-1.05C218.42,149.8,219.69,150.2,220.64,151z"/>
		<path class="st2" d="M235.38,150.58c0.82,0.52,1.46,1.26,1.94,2.23c0.47,0.97,0.71,2.12,0.71,3.44c0,1.31-0.24,2.45-0.71,3.43
			c-0.47,0.98-1.12,1.72-1.94,2.24c-0.82,0.52-1.75,0.78-2.78,0.78c-0.96,0-1.79-0.22-2.48-0.65c-0.69-0.44-1.19-1.03-1.51-1.78
			v8.27h-3.85v-18.57h3.85v2.28c0.32-0.75,0.82-1.34,1.51-1.78c0.69-0.44,1.52-0.65,2.48-0.65
			C233.64,149.8,234.56,150.06,235.38,150.58z M229.36,154c-0.52,0.55-0.78,1.3-0.78,2.24c0,0.93,0.26,1.68,0.78,2.23
			c0.52,0.56,1.18,0.83,1.99,0.83c0.83,0,1.49-0.27,1.99-0.81c0.5-0.54,0.75-1.29,0.75-2.25c0-0.96-0.25-1.71-0.75-2.25
			c-0.5-0.54-1.17-0.81-1.99-0.81C230.55,153.18,229.88,153.46,229.36,154z"/>
		<path class="st2" d="M243.89,145.86v16.68h-3.85v-16.68H243.89z"/>
		<path class="st2" d="M253.81,150.45c0.69,0.44,1.2,1.03,1.53,1.78v-2.28h3.83v12.58h-3.83v-2.28c-0.33,0.75-0.84,1.34-1.53,1.78
			c-0.69,0.44-1.52,0.65-2.48,0.65c-1.04,0-1.96-0.26-2.78-0.78c-0.82-0.52-1.46-1.27-1.94-2.24c-0.47-0.98-0.71-2.12-0.71-3.43
			c0-1.32,0.24-2.47,0.71-3.44c0.47-0.97,1.12-1.71,1.94-2.23s1.75-0.78,2.78-0.78C252.29,149.8,253.11,150.02,253.81,150.45z
			 M250.57,153.99c-0.5,0.54-0.75,1.29-0.75,2.25c0,0.96,0.25,1.71,0.75,2.25s1.17,0.81,1.99,0.81c0.81,0,1.48-0.28,1.99-0.83
			c0.52-0.56,0.78-1.3,0.78-2.23c0-0.95-0.26-1.69-0.78-2.24c-0.52-0.55-1.18-0.82-1.99-0.82
			C251.74,153.18,251.07,153.45,250.57,153.99z"/>
		<path class="st2" d="M267.64,158.77l2.73-8.81h4.1l-4.46,12.58h-4.78l-4.46-12.58h4.1L267.64,158.77z"/>
		<path class="st2" d="M291.99,151.27c0.85,0.96,1.27,2.28,1.27,3.97v7.3h-3.85v-6.85c0-0.84-0.22-1.5-0.66-1.97
			c-0.44-0.47-1.03-0.71-1.77-0.71c-0.78,0-1.4,0.25-1.86,0.74c-0.46,0.5-0.69,1.2-0.69,2.12v6.67h-3.85v-12.58h3.85v2.3
			c0.36-0.75,0.9-1.34,1.61-1.78c0.71-0.44,1.55-0.65,2.51-0.65C290,149.82,291.15,150.3,291.99,151.27z"/>
		<path class="st2" d="M303.07,150.45c0.69,0.44,1.2,1.03,1.53,1.78v-2.28h3.83v12.58h-3.83v-2.28c-0.33,0.75-0.84,1.34-1.53,1.78
			c-0.69,0.44-1.52,0.65-2.48,0.65c-1.04,0-1.96-0.26-2.78-0.78c-0.82-0.52-1.46-1.27-1.94-2.24s-0.71-2.12-0.71-3.43
			c0-1.32,0.24-2.47,0.71-3.44c0.47-0.97,1.12-1.71,1.94-2.23c0.82-0.52,1.75-0.78,2.78-0.78
			C301.55,149.8,302.38,150.02,303.07,150.45z M299.84,153.99c-0.5,0.54-0.75,1.29-0.75,2.25c0,0.96,0.25,1.71,0.75,2.25
			c0.5,0.54,1.17,0.81,1.99,0.81c0.81,0,1.48-0.28,2-0.83c0.52-0.56,0.78-1.3,0.78-2.23c0-0.95-0.26-1.69-0.78-2.24
			c-0.52-0.55-1.18-0.82-2-0.82C301,153.18,300.34,153.45,299.84,153.99z"/>
		<path class="st2" d="M322.86,150.45c0.69,0.44,1.19,1.03,1.51,1.78v-6.38h3.85v16.68h-3.85v-2.28c-0.32,0.75-0.82,1.34-1.51,1.78
			c-0.69,0.44-1.52,0.65-2.48,0.65c-1.04,0-1.96-0.26-2.78-0.78c-0.82-0.52-1.46-1.27-1.94-2.24c-0.47-0.98-0.71-2.12-0.71-3.43
			c0-1.32,0.24-2.47,0.71-3.44c0.47-0.97,1.12-1.71,1.94-2.23c0.82-0.52,1.75-0.78,2.78-0.78
			C321.34,149.8,322.17,150.02,322.86,150.45z M319.62,153.99c-0.5,0.54-0.75,1.29-0.75,2.25c0,0.96,0.25,1.71,0.75,2.25
			c0.5,0.54,1.17,0.81,2,0.81c0.81,0,1.48-0.28,1.99-0.83s0.78-1.3,0.78-2.23c0-0.95-0.26-1.69-0.78-2.24
			c-0.52-0.55-1.18-0.82-1.99-0.82C320.79,153.18,320.13,153.45,319.62,153.99z"/>
		<path class="st2" d="M338.14,150.45c0.69,0.44,1.2,1.03,1.53,1.78v-2.28h3.83v12.58h-3.83v-2.28c-0.33,0.75-0.84,1.34-1.53,1.78
			c-0.69,0.44-1.52,0.65-2.48,0.65c-1.04,0-1.96-0.26-2.78-0.78c-0.82-0.52-1.46-1.27-1.94-2.24c-0.47-0.98-0.71-2.12-0.71-3.43
			c0-1.32,0.24-2.47,0.71-3.44c0.47-0.97,1.12-1.71,1.94-2.23c0.82-0.52,1.75-0.78,2.78-0.78
			C336.62,149.8,337.45,150.02,338.14,150.45z M334.9,153.99c-0.5,0.54-0.75,1.29-0.75,2.25c0,0.96,0.25,1.71,0.75,2.25
			c0.5,0.54,1.17,0.81,2,0.81c0.81,0,1.48-0.28,1.99-0.83s0.78-1.3,0.78-2.23c0-0.95-0.26-1.69-0.78-2.24
			c-0.52-0.55-1.18-0.82-1.99-0.82C336.07,153.18,335.41,153.45,334.9,153.99z"/>
		<path class="st2" d="M357.58,151.27c0.85,0.96,1.27,2.28,1.27,3.97v7.3H355v-6.85c0-0.84-0.22-1.5-0.67-1.97s-1.03-0.71-1.77-0.71
			c-0.78,0-1.4,0.25-1.86,0.74c-0.46,0.5-0.69,1.2-0.69,2.12v6.67h-3.85v-12.58h3.85v2.3c0.36-0.75,0.9-1.34,1.61-1.78
			c0.71-0.44,1.55-0.65,2.51-0.65C355.58,149.82,356.73,150.3,357.58,151.27z"/>
		<path class="st2" d="M364.71,158.68v3.85h-3.99v-3.85H364.71z"/>
	</g>
	<path id="XMLID_383_" class="st1" d="M363.06,133.09v4.7c-0.14-0.11-0.28-0.23-0.41-0.33c-1.11-0.9-1.83-1.49-3.51-1.49
		c-1.67,0-2.39,0.59-3.49,1.49c-1.29,1.04-2.88,2.33-5.91,2.33c-3.03,0-4.63-1.29-5.91-2.33c-1.11-0.9-1.83-1.49-3.51-1.49
		c-1.67,0-2.39,0.59-3.49,1.49c-0.08,0.06-0.15,0.12-0.24,0.19V133c0.96-0.5,2.15-0.85,3.73-0.85c3.03,0,4.63,1.3,5.92,2.34
		c1.1,0.9,1.82,1.48,3.5,1.48c1.67,0,2.39-0.58,3.5-1.48c1.28-1.04,2.87-2.34,5.9-2.34C360.82,132.15,362.06,132.55,363.06,133.09z"
		/>
</g>
</svg>
