<?xml version="1.0" encoding="utf-8"?>
<!-- Generator: Adobe Illustrator 24.3.0, SVG Export Plug-In . SVG Version: 6.00 Build 0)  -->
<svg version="1.1" id="Layer_1" xmlns="http://www.w3.org/2000/svg" xmlns:xlink="http://www.w3.org/1999/xlink" x="0px" y="0px"
	 viewBox="0 0 524 316" style="enable-background:new 0 0 524 316;" xml:space="preserve">
<style type="text/css">
	.st0{fill:#8599CD;}
	.st1{fill:#231F20;}
	.st2{fill:#12163F;}
	.st3{fill:#AFD0ED;}
</style>
<rect class="st0" width="524" height="316"/>
<g id="XMLID_5_">
	<g id="XMLID_6_">
		<g>
			<path id="XMLID_224_" class="st2" d="M224.48,170.13h-3.84v-22h3.59l0.25,2.14c1.2-1.73,3.27-2.49,5.04-2.49
				c4.78,0,7.96,3.56,7.96,8.12c0,4.53-2.86,8.12-7.84,8.12c-1.64,0-4.06-0.5-5.16-2.2V170.13z M233.64,155.91
				c0-2.42-1.64-4.41-4.41-4.41s-4.41,1.98-4.41,4.41s1.79,4.41,4.41,4.41C231.85,160.32,233.64,158.33,233.64,155.91z"/>
			<path id="XMLID_221_" class="st2" d="M256.05,155.91c0,4.47-3.05,8.09-8.09,8.09s-8.06-3.62-8.06-8.09
				c0-4.44,3.08-8.09,8.02-8.09C252.87,147.82,256.05,151.47,256.05,155.91z M243.74,155.91c0,2.36,1.42,4.56,4.22,4.56
				c2.8,0,4.22-2.2,4.22-4.56c0-2.33-1.64-4.59-4.22-4.59C245.19,151.32,243.74,153.58,243.74,155.91z"/>
			<path id="XMLID_218_" class="st2" d="M260.92,141.53c1.13,0,2.27,0.72,2.27,2.23c0,1.48-1.13,2.23-2.27,2.23
				c-1.13,0-2.27-0.76-2.27-2.23C258.66,142.25,259.79,141.53,260.92,141.53z M262.84,148.07v15.58H259v-15.58H262.84z"/>
			<path id="XMLID_216_" class="st2" d="M278.04,163.65v-8.12c0-2.36-1.29-4.15-3.74-4.15c-2.36,0-3.96,1.98-3.96,4.34v7.93h-3.81
				v-15.55h3.43l0.25,2.11c1.57-1.54,3.15-2.33,5.1-2.33c3.65,0,6.58,2.74,6.58,7.62v8.15H278.04z"/>
			<path id="XMLID_214_" class="st2" d="M290.25,143.76v4.41h4.28v3.3h-4.31v6.7c0,1.48,0.82,2.2,2.01,2.2
				c0.6,0,1.29-0.19,1.86-0.47l1.07,3.27c-1.16,0.47-2.23,0.66-3.49,0.66c-3.18,0-5.26-1.92-5.26-5.66v-6.7h-2.9v-3.3h2.9v-4
				L290.25,143.76z"/>
			<path id="XMLID_212_" class="st2" d="M307.84,152.26c-1.1-1.04-2.36-1.38-3.84-1.38c-1.83,0-2.83,0.57-2.83,1.54
				c0,1.01,0.91,1.57,2.9,1.7c2.93,0.19,6.64,0.85,6.64,4.97c0,2.74-2.23,5.1-6.67,5.1c-2.45,0-4.91-0.41-7.18-2.77l1.89-2.74
				c1.13,1.29,3.74,2.17,5.44,2.17c1.42,0,2.71-0.75,2.71-1.86c0-1.07-0.88-1.51-3.08-1.64c-2.93-0.22-6.42-1.29-6.42-4.81
				c0-3.59,3.71-4.85,6.55-4.85c2.42,0,4.25,0.47,6.04,2.05L307.84,152.26z"/>
			<path id="XMLID_209_" class="st2" d="M328.9,155.91c0,4.47-3.05,8.09-8.09,8.09s-8.06-3.62-8.06-8.09c0-4.44,3.08-8.09,8.02-8.09
				S328.9,151.47,328.9,155.91z M316.59,155.91c0,2.36,1.42,4.56,4.22,4.56s4.22-2.2,4.22-4.56c0-2.33-1.64-4.59-4.22-4.59
				C318.04,151.32,316.59,153.58,316.59,155.91z"/>
			<path id="XMLID_207_" class="st2" d="M333.11,163.65v-11.93h-2.9v-3.37h2.9v-1.04c0-4.15,2.8-6.07,5.92-6.07
				c1.35,0,2.77,0.44,4.03,1.26l-1.42,2.86c-0.82-0.53-1.57-0.82-2.36-0.82c-1.32,0-2.33,0.88-2.33,2.77v1.04h4.56v3.37h-4.56v11.93
				H333.11z"/>
			<path id="XMLID_205_" class="st2" d="M350.26,143.76v4.41h4.28v3.3h-4.31v6.7c0,1.48,0.82,2.2,2.01,2.2
				c0.6,0,1.29-0.19,1.86-0.47l1.07,3.27c-1.16,0.47-2.23,0.66-3.49,0.66c-3.18,0-5.26-1.92-5.26-5.66v-6.7h-2.89v-3.3h2.89v-4
				L350.26,143.76z"/>
		</g>
	</g>
	<g id="XMLID_15_">
		<g id="XMLID_26_">
			<g id="XMLID_64_">
				<path id="XMLID_41_" class="st3" d="M170.67,168.8c0,0.82-0.31,1.64-0.94,2.27c-1.25,1.24-3.28,1.24-4.53,0
					c-1.25-1.25-1.25-3.29,0-4.53c0.62-0.62,1.44-0.94,2.26-0.94c0.83,0,1.64,0.31,2.27,0.94
					C170.36,167.16,170.67,167.98,170.67,168.8z"/>
			</g>
			<g id="XMLID_59_">
				<path id="XMLID_40_" class="st3" d="M189.57,178.33c0,0.86-0.33,1.66-0.94,2.26v0.01c-0.6,0.6-1.41,0.94-2.27,0.94
					c-0.85,0-1.66-0.33-2.26-0.94c-0.6-0.6-0.94-1.41-0.94-2.26c0-0.86,0.33-1.66,0.94-2.26c0.6-0.6,1.41-0.94,2.26-0.94
					c0.86,0,1.67,0.33,2.27,0.94C189.24,176.67,189.57,177.47,189.57,178.33z"/>
			</g>
			<g id="XMLID_54_">
				<path id="XMLID_37_" class="st3" d="M208.47,168.06c0,0.86-0.33,1.66-0.94,2.27c-0.6,0.6-1.41,0.94-2.26,0.94
					c-0.86,0-1.67-0.33-2.27-0.94c-0.6-0.61-0.94-1.41-0.94-2.27c0-0.86,0.33-1.66,0.94-2.26s1.41-0.94,2.27-0.94
					c0.86,0,1.66,0.33,2.26,0.94S208.47,167.21,208.47,168.06z"/>
			</g>
			<g id="XMLID_49_">
				<path id="XMLID_36_" class="st3" d="M207.53,148.44c-1.25,1.24-3.28,1.24-4.53,0c-1.25-1.25-1.25-3.28,0-4.53
					c0.62-0.62,1.44-0.94,2.27-0.94c0.82,0,1.64,0.31,2.26,0.94C208.78,145.16,208.78,147.19,207.53,148.44z"/>
			</g>
			<g id="XMLID_44_">
				<path id="XMLID_35_" class="st3" d="M169.74,148.44c-1.25,1.24-3.28,1.24-4.53,0c-1.25-1.25-1.25-3.28,0-4.53
					c0.62-0.62,1.44-0.94,2.26-0.94c0.83,0,1.64,0.31,2.27,0.94C170.99,145.16,170.99,147.19,169.74,148.44z"/>
			</g>
			<g id="XMLID_39_">
				<path id="XMLID_33_" class="st3" d="M188.63,137.83c-1.25,1.25-3.28,1.25-4.53,0s-1.25-3.28,0-4.53
					c0.62-0.62,1.44-0.93,2.26-0.93c0.83,0,1.64,0.31,2.27,0.93C189.88,134.54,189.88,136.58,188.63,137.83z"/>
			</g>
			<path id="XMLID_32_" class="st3" d="M189.57,155.7c0,0.86-0.33,1.66-0.94,2.27c-0.6,0.6-1.41,0.94-2.27,0.94
				c-0.85,0-1.66-0.33-2.26-0.94c-0.6-0.61-0.94-1.41-0.94-2.27c0-0.86,0.33-1.66,0.94-2.26c0.62-0.62,1.44-0.94,2.26-0.94
				c0.83,0,1.64,0.31,2.27,0.94C189.24,154.05,189.57,154.85,189.57,155.7z"/>
		</g>
		<path id="XMLID_63_" class="st2" d="M209.74,163.59c-0.82-0.82-1.82-1.38-2.91-1.66v-9.63c1.06-0.27,2.08-0.82,2.91-1.65
			c2.47-2.47,2.47-6.49,0-8.95c-2.47-2.47-6.48-2.47-8.95,0c-0.01,0.01-0.03,0.03-0.04,0.04l-8.15-5.13
			c0.33-1.96-0.25-4.03-1.76-5.54c-2.47-2.46-6.48-2.46-8.95,0c-2.47,2.47-2.47,6.49,0,8.95c0.83,0.83,1.85,1.38,2.91,1.65v7.89
			c-1.06,0.27-2.08,0.82-2.91,1.65c-1.2,1.2-1.85,2.78-1.85,4.47c0,1.1,0.28,2.15,0.8,3.08l-8.15,6.42
			c-0.22-0.31-0.46-0.61-0.74-0.89c-0.83-0.83-1.85-1.38-2.92-1.64V152.3c1.07-0.26,2.08-0.82,2.92-1.65c2.47-2.47,2.47-6.49,0-8.95
			c-2.47-2.47-6.48-2.47-8.95,0c-2.47,2.46-2.47,6.48,0,8.95c0.83,0.83,1.85,1.38,2.91,1.65v10.37c-1.06,0.27-2.08,0.82-2.91,1.65
			c-2.47,2.46-2.47,6.48,0,8.95c1.24,1.23,2.85,1.85,4.47,1.85c1.62,0,3.24-0.62,4.48-1.85c1.35-1.35,1.96-3.18,1.83-4.96l9.22-7.26
			c0.56,0.36,1.17,0.62,1.81,0.78v10.36c-1.09,0.28-2.09,0.84-2.91,1.66c-1.2,1.19-1.85,2.78-1.85,4.47c0,1.69,0.65,3.28,1.85,4.48
			c1.2,1.19,2.78,1.85,4.47,1.85c0.85,0,1.67-0.16,2.43-0.48c0.76-0.32,1.45-0.78,2.05-1.38c1.2-1.2,1.85-2.79,1.85-4.48
			c0-1.69-0.65-3.28-1.85-4.47c-0.82-0.82-1.82-1.38-2.91-1.66v-10.36c0.29-0.07,0.58-0.17,0.86-0.28c0.76-0.31,1.45-0.78,2.05-1.38
			c1.2-1.2,1.85-2.78,1.85-4.48c0-1.69-0.65-3.27-1.85-4.47c-0.83-0.83-1.85-1.38-2.91-1.65v-7.89c1.06-0.27,2.08-0.82,2.91-1.65
			c0.17-0.17,0.33-0.35,0.47-0.54l7.86,4.96c-0.6,2.13-0.06,4.52,1.61,6.2c0.83,0.83,1.85,1.38,2.91,1.65v9.63
			c-1.09,0.28-2.09,0.84-2.91,1.66c-1.2,1.19-1.85,2.78-1.85,4.47c0,1.7,0.65,3.28,1.85,4.48c1.2,1.19,2.78,1.85,4.48,1.85
			c0.85,0,1.67-0.16,2.42-0.48c0.76-0.32,1.45-0.78,2.05-1.38c1.2-1.2,1.85-2.78,1.85-4.48
			C211.59,166.37,210.94,164.78,209.74,163.59z M165.2,148.44c-1.25-1.25-1.25-3.28,0-4.53c0.62-0.62,1.44-0.94,2.26-0.94
			c0.83,0,1.64,0.31,2.27,0.94c1.25,1.25,1.25,3.28,0,4.53C168.49,149.69,166.45,149.69,165.2,148.44z M169.74,171.07
			c-1.25,1.24-3.28,1.24-4.53,0c-1.25-1.25-1.25-3.29,0-4.53c0.62-0.62,1.44-0.94,2.26-0.94c0.83,0,1.64,0.31,2.27,0.94
			c0.62,0.62,0.94,1.44,0.94,2.26C170.67,169.62,170.36,170.44,169.74,171.07z M188.63,176.07c0.6,0.6,0.94,1.41,0.94,2.26
			c0,0.86-0.33,1.66-0.94,2.26v0.01c-0.6,0.6-1.41,0.94-2.27,0.94c-0.85,0-1.66-0.33-2.26-0.94c-0.6-0.6-0.94-1.41-0.94-2.26
			c0-0.86,0.33-1.66,0.94-2.26c0.6-0.6,1.41-0.94,2.26-0.94C187.22,175.13,188.03,175.47,188.63,176.07z M188.63,153.44
			c0.6,0.6,0.94,1.41,0.94,2.26c0,0.86-0.33,1.66-0.94,2.27c-0.6,0.6-1.41,0.94-2.27,0.94c-0.85,0-1.66-0.33-2.26-0.94
			c-0.6-0.61-0.94-1.41-0.94-2.27c0-0.86,0.33-1.66,0.94-2.26c0.62-0.62,1.44-0.94,2.26-0.94
			C187.19,152.51,188.01,152.82,188.63,153.44z M188.63,137.83c-1.25,1.25-3.28,1.25-4.53,0s-1.25-3.28,0-4.53
			c0.62-0.62,1.44-0.93,2.26-0.93c0.83,0,1.64,0.31,2.27,0.93C189.88,134.54,189.88,136.58,188.63,137.83z M207.53,170.33
			c-0.6,0.6-1.41,0.94-2.26,0.94c-0.86,0-1.67-0.33-2.27-0.94c-0.6-0.61-0.94-1.41-0.94-2.27c0-0.86,0.33-1.66,0.94-2.26
			s1.41-0.94,2.27-0.94c0.86,0,1.66,0.33,2.26,0.94s0.94,1.41,0.94,2.26C208.47,168.92,208.13,169.72,207.53,170.33z M203,148.44
			c-1.25-1.25-1.25-3.28,0-4.53c0.62-0.62,1.44-0.94,2.27-0.94c0.82,0,1.64,0.31,2.26,0.94c1.25,1.25,1.25,3.28,0,4.53
			C206.28,149.69,204.25,149.69,203,148.44z"/>
	</g>
</g>
</svg>
