<?xml version="1.0" encoding="utf-8"?>
<!-- Generator: Adobe Illustrator 24.3.0, SVG Export Plug-In . SVG Version: 6.00 Build 0)  -->
<svg version="1.1" id="Layer_1" xmlns="http://www.w3.org/2000/svg" xmlns:xlink="http://www.w3.org/1999/xlink" x="0px" y="0px"
	 viewBox="0 0 524 316" style="enable-background:new 0 0 524 316;" xml:space="preserve">
<style type="text/css">
	.st0{fill:#D9A67A;}
	.st1{fill:#231F20;}
	.st2{fill:#FFFFFF;}
</style>
<rect class="st0" width="524" height="316"/>
<g id="XMLID_1358_">
	<g id="XMLID_717_">
		<path id="XMLID_727_" class="st2" d="M231.63,146.03v17.62c-0.21,0.18-0.42,0.36-0.64,0.54c-0.22,0.19-0.43,0.37-0.64,0.54
			c-0.21,0.18-0.43,0.36-0.65,0.55l-0.41-0.17c0.06-0.22,0.11-0.45,0.13-0.69c0.02-0.23,0.04-0.47,0.04-0.71v-14.8
			c0-0.72-0.13-1.26-0.39-1.6c-0.26-0.35-0.74-0.52-1.45-0.52v-0.51c0.51,0.05,1.01,0.07,1.49,0.07c0.47,0,0.91-0.03,1.34-0.08
			C230.89,146.22,231.28,146.14,231.63,146.03z M235.39,152.15c1.32,0,2.41,0.54,3.28,1.63c0.87,1.08,1.3,2.73,1.3,4.93
			c0,1.45-0.25,2.66-0.74,3.63c-0.49,0.97-1.15,1.7-1.96,2.18c-0.82,0.48-1.71,0.72-2.68,0.72c-0.8,0-1.58-0.23-2.33-0.69
			c-0.75-0.46-1.31-1.14-1.68-2.04l0.48,0.27c0.4,0.64,0.9,1.12,1.49,1.43c0.59,0.31,1.21,0.47,1.83,0.47
			c1.08,0,1.88-0.49,2.42-1.46c0.54-0.97,0.81-2.48,0.81-4.52c0-1.3-0.1-2.39-0.31-3.25c-0.21-0.87-0.53-1.51-0.96-1.94
			c-0.43-0.43-0.99-0.64-1.66-0.64c-0.74,0-1.43,0.33-2.06,1c-0.63,0.67-1.02,1.64-1.17,2.93l-0.29-0.34
			c0.18-1.37,0.65-2.43,1.43-3.18C233.39,152.53,234.32,152.15,235.39,152.15z"/>
		<path id="XMLID_725_" class="st2" d="M252.75,152.22v10.08c0,0.72,0.13,1.26,0.4,1.6c0.27,0.35,0.74,0.52,1.43,0.52v0.51
			c-0.5-0.05-1-0.07-1.49-0.07c-0.47,0-0.91,0.02-1.34,0.07c-0.43,0.05-0.82,0.14-1.17,0.27v-2.84c-0.4,1.04-0.97,1.79-1.7,2.23
			c-0.73,0.44-1.48,0.66-2.25,0.66c-0.56,0-1.05-0.08-1.47-0.24c-0.42-0.16-0.76-0.39-1.04-0.68c-0.31-0.32-0.51-0.74-0.63-1.25
			c-0.11-0.51-0.17-1.15-0.17-1.9v-6.05c0-0.72-0.13-1.26-0.39-1.6s-0.74-0.52-1.45-0.52v-0.51c0.51,0.05,1.01,0.07,1.49,0.07
			c0.47,0,0.91-0.03,1.34-0.08c0.43-0.06,0.82-0.14,1.17-0.25v9.47c0,0.5,0.03,0.96,0.1,1.37c0.06,0.42,0.22,0.76,0.48,1.01
			c0.26,0.26,0.68,0.39,1.25,0.39c0.95,0,1.73-0.42,2.34-1.27c0.61-0.84,0.92-1.88,0.92-3.1v-4.99c0-0.72-0.13-1.26-0.39-1.6
			c-0.26-0.35-0.74-0.52-1.45-0.52v-0.51c0.51,0.05,1.01,0.07,1.49,0.07c0.47,0,0.91-0.03,1.34-0.08
			C252.01,152.42,252.4,152.33,252.75,152.22z"/>
		<path id="XMLID_722_" class="st2" d="M259.6,146v16.66c0,0.67,0.12,1.13,0.36,1.37c0.24,0.24,0.65,0.36,1.23,0.36v0.51
			c-0.26-0.02-0.64-0.04-1.15-0.06c-0.51-0.02-1.02-0.04-1.53-0.04c-0.55,0-1.1,0.01-1.66,0.04c-0.56,0.02-0.98,0.04-1.25,0.06
			v-0.51c0.66,0,1.13-0.12,1.41-0.36c0.28-0.24,0.42-0.7,0.42-1.37v-13.76c0-0.72-0.13-1.26-0.39-1.6
			c-0.26-0.35-0.74-0.52-1.45-0.52v-0.51c0.51,0.05,1.01,0.07,1.49,0.07c0.47,0,0.91-0.03,1.34-0.08
			C258.85,146.2,259.24,146.11,259.6,146z M267.26,152.49v0.48c-0.4,0.03-0.78,0.14-1.13,0.33c-0.35,0.18-0.7,0.45-1.04,0.81
			l-3.4,3.57l0.34-0.68l4.48,6.15c0.27,0.37,0.53,0.66,0.78,0.87c0.25,0.21,0.55,0.34,0.9,0.39v0.51c-0.18-0.02-0.45-0.04-0.83-0.06
			c-0.38-0.02-0.75-0.04-1.12-0.04c-0.5,0-1,0.01-1.52,0.04c-0.51,0.02-0.9,0.04-1.16,0.06v-0.51c0.32,0,0.55-0.08,0.68-0.24
			c0.13-0.16,0.1-0.35-0.07-0.58l-2.77-4.05c-0.31-0.43-0.58-0.72-0.83-0.84c-0.25-0.13-0.61-0.2-1.07-0.22v-0.48
			c0.51-0.06,0.93-0.17,1.25-0.33c0.32-0.15,0.63-0.38,0.92-0.69l1.78-1.86c0.51-0.53,0.77-0.95,0.77-1.27
			c0-0.31-0.17-0.54-0.49-0.68c-0.33-0.14-0.76-0.2-1.29-0.2v-0.48c0.42,0.02,0.89,0.04,1.41,0.06c0.52,0.02,0.96,0.04,1.31,0.04
			c0.27,0,0.54,0,0.8-0.01c0.26-0.01,0.5-0.02,0.72-0.04C266.91,152.52,267.1,152.5,267.26,152.49z"/>
		<path id="XMLID_720_" class="st2" d="M274.25,152.15c1.41,0,2.52,0.43,3.31,1.29c0.8,0.86,1.19,2.2,1.19,4.01h-8.51l-0.02-0.46
			h6.22c0.03-0.79-0.03-1.51-0.19-2.18c-0.16-0.67-0.41-1.2-0.76-1.6c-0.35-0.4-0.79-0.6-1.34-0.6c-0.74,0-1.39,0.37-1.96,1.11
			c-0.57,0.74-0.91,1.91-1.02,3.52l0.07,0.1c-0.03,0.24-0.06,0.51-0.07,0.8c-0.02,0.29-0.02,0.58-0.02,0.87
			c0,1.09,0.18,2.03,0.53,2.82c0.35,0.79,0.82,1.39,1.39,1.8c0.57,0.41,1.16,0.61,1.77,0.61c0.72,0,1.39-0.18,2-0.53
			c0.61-0.35,1.12-0.98,1.54-1.88l0.48,0.19c-0.18,0.53-0.47,1.04-0.87,1.54c-0.4,0.5-0.91,0.9-1.52,1.22
			c-0.61,0.31-1.32,0.47-2.12,0.47c-1.16,0-2.15-0.26-2.98-0.8c-0.83-0.53-1.46-1.27-1.9-2.21c-0.44-0.94-0.66-2.02-0.66-3.24
			c0-1.41,0.22-2.63,0.68-3.65c0.45-1.02,1.08-1.81,1.9-2.36S273.16,152.15,274.25,152.15z"/>
		<path id="XMLID_718_" class="st2" d="M284.47,148.49v4.03h3.57v0.48h-3.57v9.33c0,0.76,0.14,1.29,0.41,1.59
			c0.27,0.31,0.65,0.46,1.13,0.46c0.48,0,0.9-0.2,1.25-0.59c0.35-0.39,0.66-1.06,0.92-1.99l0.48,0.12
			c-0.16,0.93-0.48,1.72-0.95,2.36c-0.47,0.64-1.2,0.96-2.18,0.96c-0.55,0-1-0.07-1.35-0.2c-0.35-0.14-0.67-0.33-0.94-0.59
			c-0.35-0.37-0.6-0.81-0.74-1.33c-0.14-0.51-0.2-1.2-0.2-2.05v-8.08h-2.31v-0.48h2.31v-3.69c0.4-0.02,0.79-0.05,1.16-0.1
			C283.83,148.68,284.17,148.6,284.47,148.49z"/>
	</g>
	<g id="XMLID_704_">
		<path id="XMLID_715_" class="st2" d="M234.26,177.46c0.51,0,1.01,0.06,1.49,0.19c0.48,0.13,0.92,0.32,1.3,0.58
			c0.37,0.24,0.65,0.52,0.84,0.83c0.19,0.31,0.29,0.66,0.29,1.02c0,0.43-0.12,0.77-0.36,1c-0.24,0.23-0.55,0.35-0.92,0.35
			c-0.35,0-0.66-0.1-0.93-0.31c-0.27-0.21-0.4-0.51-0.4-0.89c0-0.37,0.1-0.67,0.3-0.89c0.2-0.22,0.44-0.37,0.71-0.43
			c-0.16-0.29-0.45-0.53-0.86-0.72c-0.41-0.19-0.85-0.29-1.31-0.29c-0.4,0-0.8,0.1-1.21,0.29c-0.4,0.19-0.77,0.51-1.11,0.95
			c-0.34,0.44-0.61,1.04-0.82,1.81c-0.21,0.76-0.31,1.72-0.31,2.86c0,1.41,0.16,2.54,0.48,3.37c0.32,0.84,0.74,1.43,1.27,1.8
			c0.52,0.36,1.1,0.54,1.72,0.54s1.26-0.18,1.9-0.55c0.64-0.37,1.17-1.01,1.59-1.93l0.46,0.17c-0.16,0.51-0.43,1.03-0.8,1.56
			c-0.37,0.52-0.85,0.95-1.45,1.29c-0.59,0.34-1.33,0.51-2.19,0.51c-1,0-1.9-0.26-2.7-0.77c-0.8-0.51-1.44-1.25-1.92-2.21
			c-0.47-0.96-0.71-2.09-0.71-3.41c0-1.32,0.24-2.48,0.71-3.48c0.47-1,1.14-1.79,1.99-2.36
			C232.2,177.75,233.17,177.46,234.26,177.46z"/>
		<path id="XMLID_713_" class="st2" d="M250.97,177.8v0.48c-0.31,0.03-0.59,0.17-0.84,0.41c-0.26,0.24-0.5,0.67-0.72,1.28
			l-3.95,10.37c-0.06,0-0.13,0-0.19,0c-0.06,0-0.14,0-0.22,0l-4.44-10.68c-0.26-0.63-0.51-1.01-0.76-1.15
			c-0.25-0.14-0.46-0.2-0.64-0.2v-0.51c0.32,0.02,0.65,0.04,1,0.06c0.35,0.02,0.72,0.04,1.12,0.04c0.5,0,1.02-0.01,1.58-0.02
			c0.55-0.02,1.07-0.04,1.55-0.07v0.51c-0.4,0-0.76,0.03-1.07,0.08c-0.31,0.06-0.51,0.21-0.6,0.47c-0.09,0.26-0.01,0.7,0.23,1.33
			l3.01,7.45l-0.14,0.12l2.75-7.21c0.31-0.8,0.34-1.37,0.11-1.69c-0.23-0.32-0.78-0.51-1.63-0.58v-0.48
			c0.42,0.02,0.77,0.03,1.05,0.05c0.28,0.02,0.61,0.02,0.98,0.02c0.37,0,0.7-0.01,1-0.02C250.43,177.83,250.71,177.81,250.97,177.8z
			"/>
		<path id="XMLID_711_" class="st2" d="M257.38,177.46c1.41,0,2.52,0.43,3.31,1.29c0.8,0.86,1.19,2.2,1.19,4.01h-8.51l-0.02-0.46
			h6.22c0.03-0.79-0.03-1.51-0.19-2.18c-0.16-0.67-0.41-1.2-0.76-1.6c-0.35-0.4-0.79-0.6-1.34-0.6c-0.74,0-1.39,0.37-1.96,1.11
			c-0.57,0.74-0.91,1.91-1.02,3.52l0.07,0.1c-0.03,0.24-0.06,0.51-0.07,0.8c-0.02,0.29-0.02,0.58-0.02,0.87
			c0,1.09,0.18,2.03,0.53,2.82c0.35,0.79,0.82,1.39,1.39,1.8c0.57,0.41,1.16,0.61,1.77,0.61c0.72,0,1.39-0.18,2-0.53
			c0.61-0.35,1.12-0.98,1.54-1.88l0.48,0.19c-0.18,0.53-0.47,1.04-0.87,1.54c-0.4,0.5-0.91,0.9-1.52,1.22
			c-0.61,0.31-1.32,0.47-2.12,0.47c-1.16,0-2.15-0.26-2.98-0.8c-0.83-0.53-1.46-1.27-1.9-2.21c-0.44-0.94-0.66-2.02-0.66-3.24
			c0-1.41,0.22-2.63,0.68-3.65c0.45-1.02,1.08-1.81,1.9-2.36C255.33,177.74,256.29,177.46,257.38,177.46z"/>
		<path id="XMLID_708_" class="st2" d="M269.75,177.46c0.51,0,1.01,0.06,1.49,0.19c0.48,0.13,0.92,0.32,1.3,0.58
			c0.37,0.24,0.65,0.52,0.84,0.83c0.19,0.31,0.29,0.66,0.29,1.02c0,0.43-0.12,0.77-0.36,1c-0.24,0.23-0.55,0.35-0.92,0.35
			c-0.35,0-0.66-0.1-0.93-0.31c-0.27-0.21-0.4-0.51-0.4-0.89c0-0.37,0.1-0.67,0.3-0.89c0.2-0.22,0.44-0.37,0.71-0.43
			c-0.16-0.29-0.45-0.53-0.86-0.72c-0.41-0.19-0.85-0.29-1.31-0.29c-0.4,0-0.8,0.1-1.21,0.29c-0.4,0.19-0.77,0.51-1.11,0.95
			c-0.34,0.44-0.61,1.04-0.82,1.81c-0.21,0.76-0.31,1.72-0.31,2.86c0,1.41,0.16,2.54,0.48,3.37c0.32,0.84,0.74,1.43,1.27,1.8
			c0.52,0.36,1.1,0.54,1.72,0.54s1.26-0.18,1.9-0.55c0.64-0.37,1.17-1.01,1.59-1.93l0.46,0.17c-0.16,0.51-0.43,1.03-0.8,1.56
			c-0.37,0.52-0.85,0.95-1.45,1.29c-0.59,0.34-1.33,0.51-2.19,0.51c-1,0-1.9-0.26-2.7-0.77c-0.8-0.51-1.44-1.25-1.92-2.21
			c-0.47-0.96-0.71-2.09-0.71-3.41c0-1.32,0.24-2.48,0.71-3.48c0.47-1,1.14-1.79,1.99-2.36
			C267.68,177.75,268.65,177.46,269.75,177.46z M271.94,170.61c0.19,0.16,0.3,0.37,0.33,0.63c0.02,0.26-0.08,0.55-0.33,0.87
			c-0.24,0.31-0.54,0.61-0.89,0.92c-0.35,0.31-0.77,0.67-1.24,1.1c-0.47,0.43-1.03,0.98-1.68,1.65l-0.27-0.22
			c0.5-0.79,0.9-1.46,1.19-2.02c0.3-0.56,0.55-1.05,0.76-1.47c0.21-0.42,0.43-0.78,0.67-1.08c0.24-0.32,0.49-0.5,0.76-0.53
			C271.52,170.41,271.75,170.47,271.94,170.61z"/>
		<path id="XMLID_705_" class="st2" d="M278.67,190.38c-1.04,0-1.8-0.26-2.28-0.78c-0.47-0.52-0.71-1.22-0.71-2.09
			c0-0.68,0.16-1.23,0.49-1.68c0.33-0.44,0.75-0.8,1.27-1.08c0.51-0.28,1.06-0.52,1.63-0.72c0.57-0.2,1.11-0.4,1.63-0.59
			c0.51-0.19,0.94-0.41,1.27-0.65c0.33-0.24,0.49-0.55,0.49-0.92v-1.49c0-0.68-0.1-1.19-0.3-1.54c-0.2-0.35-0.47-0.59-0.81-0.71
			c-0.34-0.12-0.72-0.18-1.13-0.18c-0.4,0-0.83,0.06-1.29,0.17c-0.46,0.11-0.82,0.35-1.1,0.7c0.31,0.06,0.57,0.23,0.8,0.48
			c0.22,0.26,0.34,0.59,0.34,0.99c0,0.4-0.13,0.72-0.39,0.95c-0.26,0.23-0.59,0.35-0.99,0.35c-0.47,0-0.81-0.15-1.02-0.45
			c-0.22-0.3-0.33-0.63-0.33-1c0-0.42,0.1-0.76,0.31-1.01c0.21-0.26,0.47-0.5,0.8-0.72c0.37-0.26,0.85-0.48,1.43-0.66
			c0.59-0.18,1.25-0.28,1.99-0.28c0.66,0,1.22,0.08,1.69,0.23c0.47,0.15,0.85,0.37,1.16,0.66c0.42,0.39,0.69,0.86,0.82,1.41
			c0.13,0.55,0.19,1.22,0.19,1.99v6.7c0,0.39,0.06,0.67,0.17,0.86c0.11,0.19,0.3,0.28,0.58,0.28c0.22,0,0.42-0.05,0.59-0.14
			c0.17-0.1,0.33-0.22,0.49-0.36l0.27,0.41c-0.34,0.26-0.66,0.47-0.96,0.64c-0.31,0.17-0.72,0.25-1.23,0.25
			c-0.84,0-1.39-0.22-1.66-0.65c-0.27-0.43-0.41-0.93-0.41-1.49c-0.51,0.85-1.1,1.42-1.75,1.71
			C280.05,190.24,279.37,190.38,278.67,190.38z M279.73,189.42c0.48,0,0.96-0.14,1.42-0.42c0.47-0.28,0.9-0.75,1.3-1.41v-4.73
			c-0.24,0.35-0.61,0.63-1.12,0.84c-0.51,0.21-1.03,0.44-1.57,0.69c-0.54,0.25-1,0.59-1.39,1.01c-0.39,0.43-0.58,1.03-0.58,1.82
			c0,0.74,0.18,1.29,0.55,1.65C278.72,189.24,279.18,189.42,279.73,189.42z"/>
	</g>
	<g id="XMLID_692_">
		<path id="XMLID_701_" class="st2" d="M232.02,196.62v16.66c0,0.67,0.12,1.13,0.36,1.37c0.24,0.24,0.65,0.36,1.23,0.36v0.51
			c-0.26-0.02-0.64-0.04-1.15-0.06c-0.51-0.02-1.02-0.04-1.53-0.04c-0.55,0-1.1,0.01-1.66,0.04c-0.56,0.02-0.98,0.04-1.25,0.06
			v-0.51c0.66,0,1.13-0.12,1.41-0.36c0.28-0.24,0.42-0.7,0.42-1.37v-13.76c0-0.72-0.13-1.26-0.39-1.6
			c-0.26-0.35-0.74-0.52-1.45-0.52v-0.51c0.51,0.05,1.01,0.07,1.49,0.07c0.47,0,0.91-0.03,1.34-0.08
			C231.28,196.82,231.67,196.74,232.02,196.62z M239.69,203.11v0.48c-0.4,0.03-0.78,0.14-1.13,0.33c-0.35,0.18-0.7,0.45-1.04,0.81
			l-3.4,3.57l0.34-0.68l4.48,6.15c0.27,0.37,0.53,0.66,0.78,0.87c0.25,0.21,0.55,0.34,0.9,0.39v0.51c-0.18-0.02-0.45-0.04-0.83-0.06
			c-0.38-0.02-0.75-0.04-1.12-0.04c-0.5,0-1,0.01-1.52,0.04c-0.51,0.02-0.9,0.04-1.16,0.06v-0.51c0.32,0,0.55-0.08,0.68-0.24
			c0.13-0.16,0.1-0.35-0.07-0.58l-2.77-4.05c-0.31-0.43-0.58-0.72-0.83-0.84c-0.25-0.13-0.61-0.2-1.07-0.22v-0.48
			c0.51-0.06,0.93-0.17,1.25-0.33c0.32-0.15,0.63-0.38,0.92-0.69l1.78-1.86c0.51-0.53,0.77-0.95,0.77-1.27
			c0-0.31-0.16-0.54-0.49-0.68c-0.33-0.14-0.76-0.2-1.29-0.2v-0.48c0.42,0.02,0.89,0.04,1.41,0.06c0.52,0.02,0.96,0.04,1.31,0.04
			c0.27,0,0.54,0,0.8-0.01c0.26-0.01,0.5-0.02,0.72-0.04C239.33,203.14,239.52,203.12,239.69,203.11z"/>
		<path id="XMLID_698_" class="st2" d="M245.49,202.84v10.44c0,0.67,0.14,1.13,0.42,1.37c0.28,0.24,0.75,0.36,1.41,0.36v0.51
			c-0.27-0.02-0.69-0.04-1.24-0.06c-0.55-0.02-1.11-0.04-1.68-0.04c-0.55,0-1.1,0.01-1.66,0.04c-0.56,0.02-0.98,0.04-1.25,0.06
			v-0.51c0.66,0,1.13-0.12,1.41-0.36c0.28-0.24,0.42-0.7,0.42-1.37v-7.55c0-0.72-0.13-1.26-0.39-1.6s-0.74-0.52-1.45-0.52v-0.51
			c0.51,0.05,1.01,0.07,1.49,0.07c0.47,0,0.91-0.03,1.34-0.08C244.75,203.04,245.14,202.96,245.49,202.84z M244.24,197.08
			c0.42,0,0.78,0.15,1.08,0.46c0.3,0.31,0.46,0.67,0.46,1.08c0,0.42-0.15,0.78-0.46,1.08c-0.31,0.31-0.67,0.46-1.08,0.46
			c-0.42,0-0.78-0.15-1.08-0.46c-0.31-0.31-0.46-0.67-0.46-1.08c0-0.42,0.15-0.78,0.46-1.08
			C243.46,197.23,243.82,197.08,244.24,197.08z"/>
		<path id="XMLID_696_" class="st2" d="M252.44,199.11v4.03h3.57v0.48h-3.57v9.33c0,0.76,0.14,1.29,0.41,1.59
			c0.27,0.31,0.65,0.46,1.13,0.46c0.48,0,0.9-0.2,1.25-0.59c0.35-0.39,0.66-1.06,0.92-1.99l0.48,0.12
			c-0.16,0.93-0.48,1.72-0.95,2.36c-0.47,0.64-1.2,0.96-2.18,0.96c-0.55,0-1-0.07-1.35-0.2c-0.35-0.14-0.67-0.33-0.94-0.59
			c-0.35-0.37-0.6-0.81-0.74-1.33c-0.14-0.51-0.2-1.2-0.2-2.05v-8.08h-2.31v-0.48h2.31v-3.69c0.4-0.02,0.79-0.05,1.16-0.1
			C251.79,199.3,252.13,199.22,252.44,199.11z"/>
		<path id="XMLID_693_" class="st2" d="M260.32,215.69c-1.04,0-1.8-0.26-2.28-0.78c-0.47-0.52-0.71-1.22-0.71-2.09
			c0-0.68,0.16-1.23,0.49-1.68c0.33-0.44,0.75-0.8,1.27-1.08c0.51-0.28,1.06-0.52,1.63-0.72c0.57-0.2,1.11-0.4,1.63-0.59
			c0.51-0.19,0.94-0.41,1.27-0.65c0.33-0.24,0.49-0.55,0.49-0.92v-1.49c0-0.68-0.1-1.19-0.3-1.54c-0.2-0.35-0.47-0.59-0.81-0.71
			c-0.34-0.12-0.72-0.18-1.13-0.18c-0.4,0-0.83,0.06-1.29,0.17c-0.46,0.11-0.82,0.35-1.1,0.7c0.31,0.06,0.57,0.23,0.8,0.48
			c0.22,0.26,0.34,0.59,0.34,0.99s-0.13,0.72-0.39,0.95c-0.26,0.23-0.59,0.35-0.99,0.35c-0.47,0-0.81-0.15-1.02-0.45
			c-0.22-0.3-0.33-0.63-0.33-1c0-0.42,0.1-0.76,0.31-1.01c0.21-0.26,0.47-0.5,0.8-0.72c0.37-0.26,0.85-0.48,1.43-0.66
			c0.59-0.18,1.25-0.28,1.99-0.28c0.66,0,1.22,0.08,1.69,0.23c0.47,0.15,0.85,0.37,1.16,0.66c0.42,0.39,0.69,0.86,0.82,1.41
			c0.13,0.55,0.19,1.22,0.19,1.99v6.7c0,0.39,0.06,0.67,0.17,0.86c0.11,0.19,0.3,0.28,0.58,0.28c0.22,0,0.42-0.05,0.59-0.14
			c0.17-0.1,0.33-0.22,0.49-0.36l0.27,0.41c-0.34,0.26-0.66,0.47-0.96,0.64c-0.31,0.17-0.72,0.25-1.23,0.25
			c-0.84,0-1.39-0.22-1.66-0.65c-0.27-0.43-0.41-0.93-0.41-1.49c-0.51,0.85-1.1,1.42-1.75,1.71
			C261.71,215.55,261.03,215.69,260.32,215.69z M261.38,214.73c0.48,0,0.96-0.14,1.42-0.42c0.47-0.28,0.9-0.75,1.3-1.41v-4.73
			c-0.24,0.35-0.61,0.63-1.12,0.84c-0.51,0.21-1.03,0.44-1.57,0.69c-0.54,0.25-1,0.59-1.39,1.01c-0.39,0.43-0.58,1.03-0.58,1.82
			c0,0.74,0.18,1.29,0.55,1.65C260.38,214.55,260.83,214.73,261.38,214.73z"/>
	</g>
	<g id="XMLID_678_">
		<path id="XMLID_690_" class="st2" d="M232.55,228.08c0.64,0,1.19,0.1,1.64,0.31c0.45,0.21,0.78,0.4,0.99,0.58
			c0.53,0.43,0.85,0.14,0.96-0.87h0.55c-0.03,0.45-0.06,0.98-0.07,1.6c-0.02,0.62-0.02,1.45-0.02,2.49h-0.55
			c-0.1-0.59-0.26-1.17-0.49-1.74c-0.23-0.56-0.57-1.02-1.02-1.39c-0.45-0.36-1.04-0.54-1.76-0.54c-0.56,0-1.03,0.16-1.41,0.47
			c-0.38,0.31-0.57,0.78-0.57,1.39c0,0.48,0.14,0.9,0.43,1.24c0.29,0.35,0.67,0.67,1.13,0.96c0.47,0.3,0.97,0.62,1.52,0.98
			c0.92,0.59,1.7,1.2,2.34,1.81c0.64,0.61,0.96,1.41,0.96,2.41c0,0.74-0.19,1.36-0.58,1.86c-0.39,0.5-0.89,0.88-1.51,1.13
			c-0.62,0.26-1.3,0.39-2.04,0.39c-0.35,0-0.69-0.03-1-0.08c-0.31-0.06-0.61-0.14-0.9-0.25c-0.16-0.08-0.33-0.18-0.49-0.29
			c-0.17-0.11-0.33-0.23-0.49-0.36c-0.16-0.13-0.31-0.12-0.43,0.01c-0.13,0.14-0.23,0.41-0.29,0.81h-0.55
			c0.03-0.51,0.06-1.14,0.07-1.88c0.02-0.74,0.02-1.72,0.02-2.94h0.55c0.11,0.9,0.27,1.69,0.48,2.36c0.21,0.68,0.54,1.2,0.99,1.58
			c0.45,0.38,1.08,0.57,1.88,0.57c0.48,0,0.96-0.17,1.43-0.51c0.47-0.34,0.71-0.93,0.71-1.78c0-0.71-0.26-1.29-0.77-1.74
			c-0.51-0.45-1.17-0.92-1.95-1.42c-0.58-0.37-1.12-0.74-1.63-1.11c-0.51-0.37-0.92-0.79-1.23-1.25c-0.31-0.47-0.47-1.03-0.47-1.69
			c0-0.72,0.16-1.31,0.49-1.77c0.33-0.46,0.77-0.8,1.31-1.01C231.34,228.19,231.92,228.08,232.55,228.08z"/>
		<path id="XMLID_687_" class="st2" d="M246.97,228.08c0.56,0,1.05,0.08,1.47,0.24c0.42,0.16,0.76,0.39,1.04,0.68
			c0.31,0.32,0.51,0.74,0.63,1.25c0.11,0.51,0.17,1.15,0.17,1.9v6.44c0,0.67,0.14,1.13,0.42,1.37c0.28,0.24,0.75,0.36,1.41,0.36
			v0.51c-0.27-0.02-0.69-0.04-1.25-0.06c-0.56-0.02-1.11-0.04-1.64-0.04s-1.05,0.01-1.55,0.04c-0.51,0.02-0.89,0.04-1.15,0.06v-0.51
			c0.58,0,0.99-0.12,1.23-0.36c0.24-0.24,0.36-0.7,0.36-1.37v-6.97c0-0.5-0.03-0.96-0.1-1.37c-0.06-0.42-0.23-0.76-0.48-1.01
			c-0.26-0.26-0.68-0.39-1.25-0.39c-0.63,0-1.19,0.19-1.68,0.58c-0.49,0.39-0.88,0.91-1.16,1.58c-0.28,0.67-0.42,1.41-0.42,2.23
			v5.35c0,0.67,0.12,1.13,0.36,1.37c0.24,0.24,0.65,0.36,1.23,0.36v0.51c-0.26-0.02-0.64-0.04-1.15-0.06
			c-0.51-0.02-1.02-0.04-1.55-0.04s-1.08,0.01-1.64,0.04c-0.56,0.02-0.98,0.04-1.25,0.06v-0.51c0.66,0,1.13-0.12,1.41-0.36
			c0.28-0.24,0.42-0.7,0.42-1.37v-7.55c0-0.72-0.13-1.26-0.39-1.6s-0.74-0.52-1.45-0.52v-0.51c0.51,0.05,1.01,0.07,1.49,0.07
			c0.47,0,0.91-0.03,1.34-0.08c0.43-0.06,0.82-0.14,1.17-0.25V231c0.42-1.04,0.99-1.79,1.71-2.24
			C245.45,228.31,246.19,228.08,246.97,228.08z M254.22,228.08c0.56,0,1.05,0.08,1.47,0.24c0.42,0.16,0.76,0.39,1.04,0.68
			c0.3,0.32,0.51,0.74,0.63,1.25c0.11,0.51,0.17,1.15,0.17,1.9v6.44c0,0.67,0.14,1.13,0.42,1.37c0.28,0.24,0.75,0.36,1.41,0.36v0.51
			c-0.27-0.02-0.69-0.04-1.25-0.06c-0.56-0.02-1.11-0.04-1.64-0.04s-1.05,0.01-1.55,0.04c-0.51,0.02-0.89,0.04-1.15,0.06v-0.51
			c0.58,0,0.99-0.12,1.23-0.36c0.24-0.24,0.36-0.7,0.36-1.37v-6.97c0-0.5-0.03-0.96-0.1-1.37c-0.06-0.42-0.23-0.76-0.48-1.01
			c-0.26-0.26-0.67-0.39-1.25-0.39c-0.93,0-1.71,0.42-2.33,1.25c-0.62,0.84-0.93,1.87-0.93,3.11l-0.07-2.24
			c0.43-1.11,1.02-1.87,1.76-2.28C252.69,228.29,253.45,228.08,254.22,228.08z"/>
		<path id="XMLID_685_" class="st2" d="M266.27,228.08c1.41,0,2.52,0.43,3.31,1.29c0.8,0.86,1.19,2.2,1.19,4.01h-8.51l-0.02-0.46
			h6.22c0.03-0.79-0.03-1.51-0.19-2.18c-0.16-0.67-0.41-1.2-0.76-1.6c-0.35-0.4-0.79-0.6-1.34-0.6c-0.74,0-1.39,0.37-1.96,1.11
			c-0.57,0.74-0.91,1.91-1.02,3.52l0.07,0.1c-0.03,0.24-0.06,0.51-0.07,0.8c-0.02,0.29-0.02,0.58-0.02,0.87
			c0,1.09,0.18,2.03,0.53,2.82c0.35,0.79,0.82,1.39,1.39,1.8c0.57,0.41,1.16,0.61,1.77,0.61c0.72,0,1.39-0.18,2-0.53
			c0.61-0.35,1.12-0.98,1.54-1.88l0.48,0.19c-0.18,0.53-0.47,1.04-0.87,1.54c-0.4,0.5-0.91,0.9-1.52,1.22
			c-0.61,0.31-1.32,0.47-2.12,0.47c-1.16,0-2.15-0.26-2.98-0.8c-0.83-0.53-1.46-1.27-1.9-2.21c-0.44-0.94-0.66-2.02-0.66-3.24
			c0-1.41,0.22-2.63,0.68-3.65c0.45-1.02,1.08-1.81,1.9-2.36C264.23,228.36,265.18,228.08,266.27,228.08z"/>
		<path id="XMLID_682_" class="st2" d="M278.64,228.08c0.51,0,1.01,0.06,1.49,0.19c0.48,0.13,0.92,0.32,1.3,0.58
			c0.37,0.24,0.65,0.52,0.84,0.83c0.19,0.31,0.29,0.66,0.29,1.02c0,0.43-0.12,0.77-0.36,1c-0.24,0.23-0.55,0.35-0.92,0.35
			c-0.35,0-0.66-0.1-0.93-0.31c-0.27-0.21-0.4-0.51-0.4-0.89c0-0.37,0.1-0.67,0.3-0.89c0.2-0.22,0.44-0.37,0.71-0.43
			c-0.16-0.29-0.45-0.53-0.86-0.72c-0.41-0.19-0.85-0.29-1.31-0.29c-0.4,0-0.8,0.1-1.21,0.29c-0.4,0.19-0.77,0.51-1.11,0.95
			c-0.34,0.44-0.61,1.04-0.82,1.81c-0.21,0.76-0.31,1.72-0.31,2.86c0,1.41,0.16,2.54,0.48,3.37c0.32,0.84,0.74,1.43,1.27,1.8
			c0.52,0.36,1.1,0.54,1.72,0.54s1.26-0.18,1.9-0.55c0.64-0.37,1.17-1.01,1.59-1.93l0.46,0.17c-0.16,0.51-0.43,1.03-0.8,1.56
			c-0.37,0.52-0.85,0.95-1.45,1.29c-0.59,0.34-1.33,0.51-2.19,0.51c-1,0-1.9-0.26-2.7-0.77c-0.8-0.51-1.44-1.25-1.92-2.21
			c-0.47-0.96-0.71-2.09-0.71-3.41c0-1.32,0.24-2.48,0.71-3.48c0.47-1,1.14-1.79,1.99-2.36
			C276.58,228.37,277.55,228.08,278.64,228.08z M280.83,221.24c0.19,0.16,0.3,0.37,0.33,0.63c0.02,0.26-0.08,0.55-0.33,0.87
			c-0.24,0.31-0.54,0.61-0.89,0.92c-0.35,0.31-0.77,0.67-1.24,1.1c-0.47,0.43-1.03,0.98-1.68,1.65l-0.27-0.22
			c0.5-0.79,0.9-1.46,1.19-2.02c0.3-0.56,0.55-1.05,0.76-1.47c0.21-0.42,0.43-0.78,0.67-1.08c0.24-0.32,0.49-0.5,0.76-0.53
			C280.41,221.03,280.64,221.09,280.83,221.24z"/>
		<path id="XMLID_679_" class="st2" d="M287.56,241c-1.04,0-1.8-0.26-2.28-0.78c-0.47-0.52-0.71-1.22-0.71-2.09
			c0-0.68,0.16-1.23,0.49-1.68c0.33-0.44,0.75-0.8,1.27-1.08c0.51-0.28,1.06-0.52,1.63-0.72c0.57-0.2,1.11-0.4,1.63-0.59
			c0.51-0.19,0.94-0.41,1.27-0.65c0.33-0.24,0.49-0.55,0.49-0.92V231c0-0.68-0.1-1.19-0.3-1.54c-0.2-0.35-0.47-0.59-0.81-0.71
			c-0.34-0.12-0.72-0.18-1.13-0.18c-0.4,0-0.83,0.06-1.29,0.17c-0.46,0.11-0.82,0.35-1.1,0.7c0.31,0.06,0.57,0.23,0.8,0.48
			c0.22,0.26,0.34,0.59,0.34,0.99c0,0.4-0.13,0.72-0.39,0.95c-0.26,0.23-0.59,0.35-0.99,0.35c-0.47,0-0.81-0.15-1.02-0.45
			c-0.22-0.3-0.33-0.63-0.33-1c0-0.42,0.1-0.76,0.31-1.01c0.21-0.26,0.47-0.5,0.8-0.72c0.37-0.26,0.85-0.48,1.43-0.66
			c0.59-0.18,1.25-0.28,1.99-0.28c0.66,0,1.22,0.08,1.69,0.23c0.47,0.15,0.85,0.37,1.16,0.66c0.42,0.39,0.69,0.86,0.82,1.41
			c0.13,0.55,0.19,1.22,0.19,1.99v6.7c0,0.39,0.06,0.67,0.17,0.86c0.11,0.19,0.3,0.28,0.58,0.28c0.22,0,0.42-0.05,0.59-0.14
			c0.17-0.1,0.33-0.22,0.49-0.36l0.27,0.41c-0.34,0.26-0.66,0.47-0.96,0.64c-0.31,0.17-0.72,0.25-1.23,0.25
			c-0.84,0-1.39-0.22-1.66-0.65c-0.27-0.43-0.41-0.93-0.41-1.49c-0.51,0.85-1.1,1.42-1.75,1.71C288.95,240.86,288.27,241,287.56,241
			z M288.62,240.04c0.48,0,0.96-0.14,1.42-0.42c0.47-0.28,0.9-0.75,1.3-1.41v-4.73c-0.24,0.35-0.61,0.63-1.12,0.84
			c-0.51,0.21-1.03,0.44-1.57,0.69c-0.54,0.25-1,0.59-1.39,1.01c-0.39,0.43-0.58,1.03-0.58,1.82c0,0.74,0.18,1.29,0.55,1.65
			C287.62,239.86,288.07,240.04,288.62,240.04z"/>
	</g>
	<g id="XMLID_669_">
		<path id="XMLID_674_" class="st2" d="M243.03,80.5c-5.84-5.82-15.3-5.82-21.14,0c-5.81,5.82-5.81,15.3,0,21.13
			c2.91,2.91,6.74,4.37,10.56,4.37c3.83,0,7.65-1.46,10.58-4.37c2.9-2.91,4.36-6.73,4.36-10.56
			C247.39,87.23,245.93,83.41,243.03,80.5z M239.65,98.26c-3.96,3.96-10.42,3.95-14.38,0c-3.96-3.96-3.96-10.42,0-14.38
			c1.98-1.98,4.58-2.97,7.19-2.97c2.61,0,5.22,0.99,7.2,2.97C243.62,87.84,243.62,94.29,239.65,98.26z"/>
		<path id="XMLID_670_" class="st2" d="M273.31,91.62c-5.82-5.82-15.3-5.82-21.13,0c-2.82,2.83-4.38,6.58-4.38,10.56
			c0,1.05,0.11,2.09,0.32,3.09c-4.29-0.42-8.71,1.03-12,4.3c-5.83,5.82-5.83,15.3,0,21.13c2.91,2.91,6.73,4.37,10.56,4.37
			c3.2,0,6.41-1.03,9.07-3.07c0.53-0.39,1.01-0.82,1.49-1.3c0.74-0.74,1.37-1.53,1.92-2.36c-1.27-0.5-2.42-1.27-3.41-2.26
			c-0.17-0.17-0.32-0.35-0.48-0.53c-1.62-1.84-2.49-4.19-2.49-6.66c0-1.65,0.38-3.23,1.12-4.67c0.13-0.26,0.27-0.51,0.44-0.75
			c0.38-0.63,0.86-1.23,1.41-1.78c0.41-0.41,0.84-0.78,1.3-1.07c0.24-0.19,0.48-0.35,0.73-0.48c1.55-0.93,3.32-1.42,5.16-1.42
			c1.36,0,2.67,0.26,3.9,0.78c0.63,0.26,1.23,0.58,1.79,0.97c0.54,0.36,1.04,0.76,1.5,1.23c0.69,0.69,1.27,1.47,1.72,2.3
			c0.5-0.37,0.99-0.8,1.44-1.25c0.74-0.74,1.37-1.53,1.92-2.36C279.04,104.58,278.4,96.71,273.31,91.62z M239.51,127.32
			c-3.96-3.96-3.96-10.41,0-14.38c1.98-1.98,4.58-2.97,7.19-2.97c1.28,0,2.57,0.24,3.77,0.72v0.01c-1.6,2.41-2.45,5.24-2.45,8.2
			c0,3.72,1.35,7.23,3.83,9.99C247.96,131.19,242.85,130.67,239.51,127.32z M253.82,107.07c-0.84-1.52-1.24-3.18-1.24-4.88
			c0-2.71,1.06-5.26,2.98-7.19c1.98-1.98,4.58-2.97,7.19-2.97c2.6,0,5.2,0.99,7.19,2.97c3.2,3.2,3.82,8.02,1.85,11.84
			c-2.54-1.87-5.61-2.89-8.83-2.89C259.62,103.95,256.56,104.97,253.82,107.07"/>
	</g>
</g>
</svg>
