<?xml version="1.0" encoding="utf-8"?>
<!-- Generator: Adobe Illustrator 24.3.0, SVG Export Plug-In . SVG Version: 6.00 Build 0)  -->
<svg version="1.1" id="Layer_1" xmlns="http://www.w3.org/2000/svg" xmlns:xlink="http://www.w3.org/1999/xlink" x="0px" y="0px"
	 viewBox="0 0 524 316" style="enable-background:new 0 0 524 316;" xml:space="preserve">
<style type="text/css">
	.st0{fill:#FFFFFF;}
	.st1{fill:#FFD400;}
	.st2{fill:#231F20;}
</style>
<rect class="st0" width="524" height="316"/>
<g>
	<g id="XMLID_691_">
		<path id="XMLID_694_" class="st1" d="M224,152.59c-0.21,0.46-0.41,0.91-0.67,1.33c-2.74-1.21-9.24-4.58-12.11-10.42
			c-0.27-0.53-0.5-1.08-0.68-1.64c-0.19-0.55-0.36-1.11-0.46-1.69c-0.27-1.32-0.36-2.74-0.15-4.28c0.03-0.44,0.1-0.92,0.22-1.4
			c0.38-0.6,0.82-1.2,1.28-1.76c0.65-0.75,1.35-1.47,2.17-2.15c-0.24,0.92-0.43,1.97-0.5,3.1c-0.05,0.68-0.05,1.42,0.02,2.17
			c0.03,0.46,0.09,0.91,0.19,1.37c0.07,0.48,0.17,0.96,0.31,1.44c0.14,0.58,0.32,1.16,0.55,1.74c0.19,0.53,0.43,1.08,0.68,1.61h0.02
			C216.61,145.62,219.68,149.16,224,152.59z"/>
		<path id="XMLID_693_" class="st1" d="M226.86,147.01c-0.58,0.75-1.03,1.56-1.42,2.36c-3.92-3.2-6.74-6.43-8.05-9.66
			c-0.27-0.68-0.5-1.39-0.63-2.07c-0.03-0.15-0.07-0.31-0.09-0.46c-0.09-0.51-0.14-1.04-0.14-1.56c0-0.7,0.03-1.37,0.12-1.98
			c0.15-1.39,0.48-2.57,0.84-3.51c0.36-0.97,0.77-1.71,1.09-2.19c0.14-0.24,0.27-0.41,0.38-0.55c0.77-0.32,1.54-0.62,2.33-0.87
			c-0.21,0.8-0.43,1.74-0.56,2.77c-0.27,1.74-0.38,3.78-0.09,5.95C221.11,139.06,222.79,143.26,226.86,147.01z"/>
		<path id="XMLID_692_" class="st1" d="M239.56,140.73c-1.09,1.18-2.84,1.5-4.7,1.83l-0.75,0.14c-1.81,0.34-3.42,0.99-4.79,1.95
			c-5.13-4.65-5.83-10.07-5.4-14.07l0.02-0.02c0.22-2.07,0.75-3.76,1.13-4.75c0.02-0.05,0.02-0.12,0.02-0.17
			c0.02,0,0.03-0.02,0.05,0c1.09-0.17,2.17-0.26,3.22-0.26c1.97,0,3.83,0.29,5.46,0.89c3.52,1.32,5.85,3.97,6.91,7.87
			C241.41,136.73,240.98,139.19,239.56,140.73z"/>
	</g>
	<circle id="XMLID_690_" class="st2" cx="230.24" cy="139.28" r="1.28"/>
	<path id="XMLID_689_" class="st2" d="M225.13,125.63c-0.02,0.05-0.03,0.1-0.07,0.17c0.02-0.05,0.02-0.12,0.02-0.17
		C225.1,125.63,225.11,125.62,225.13,125.63z"/>
	<g id="XMLID_605_">
		<g>
			<path id="XMLID_303_" class="st2" d="M238.99,158.63v15.47c0,0.72,0.21,1.2,0.64,1.45c0.43,0.24,1.02,0.37,1.78,0.37v0.53
				c-0.37-0.02-0.88-0.04-1.54-0.06c-0.65-0.03-1.35-0.04-2.09-0.04c-0.52,0-1.04,0.01-1.55,0.04c-0.51,0.03-0.9,0.05-1.17,0.06
				v-0.53c0.6,0,1.03-0.11,1.28-0.33c0.25-0.22,0.38-0.63,0.38-1.23v-12.7c0-0.75-0.13-1.31-0.4-1.68
				c-0.27-0.36-0.77-0.54-1.51-0.54v-0.53c0.54,0.05,1.06,0.08,1.56,0.08c0.49,0,0.95-0.03,1.4-0.09
				C238.21,158.83,238.62,158.75,238.99,158.63z M243.02,158.55c1.33,0,2.44,0.53,3.34,1.6c0.9,1.07,1.35,2.62,1.35,4.65
				c0,1.21-0.2,2.38-0.59,3.53c-0.4,1.14-1.01,2.08-1.85,2.81c-0.84,0.73-1.95,1.1-3.33,1.1c-0.79,0-1.47-0.19-2.05-0.55
				c-0.58-0.37-0.97-0.82-1.17-1.33l0.25-0.35c0.24,0.47,0.58,0.87,1.02,1.18c0.45,0.32,1,0.48,1.68,0.48
				c0.94,0,1.67-0.29,2.19-0.88c0.52-0.59,0.89-1.37,1.1-2.35c0.21-0.98,0.31-2.07,0.31-3.26c0-1.34-0.11-2.44-0.33-3.3
				c-0.22-0.86-0.55-1.49-0.98-1.91c-0.44-0.42-0.97-0.63-1.61-0.63c-0.82,0-1.57,0.34-2.24,1.02c-0.67,0.68-1.1,1.71-1.28,3.09
				l-0.3-0.35c0.19-1.43,0.69-2.54,1.52-3.33C240.86,158.95,241.86,158.55,243.02,158.55z"/>
			<path id="XMLID_300_" class="st2" d="M255.91,158.55c0.54,0,1.06,0.07,1.56,0.2c0.5,0.13,0.96,0.34,1.36,0.6
				c0.39,0.25,0.68,0.54,0.88,0.87c0.2,0.33,0.3,0.68,0.3,1.07c0,0.45-0.13,0.8-0.38,1.05c-0.25,0.24-0.57,0.37-0.96,0.37
				c-0.37,0-0.69-0.11-0.97-0.33c-0.28-0.22-0.41-0.53-0.41-0.93c0-0.39,0.1-0.7,0.31-0.93c0.21-0.23,0.46-0.39,0.74-0.45
				c-0.17-0.3-0.47-0.55-0.89-0.76c-0.43-0.2-0.89-0.3-1.37-0.3c-0.42,0-0.84,0.1-1.26,0.3c-0.42,0.2-0.81,0.53-1.16,1
				c-0.35,0.46-0.64,1.09-0.86,1.89c-0.22,0.8-0.33,1.79-0.33,2.99c0,1.48,0.17,2.65,0.5,3.53c0.34,0.87,0.78,1.5,1.32,1.88
				c0.55,0.38,1.15,0.57,1.8,0.57c0.65,0,1.32-0.19,1.99-0.58c0.67-0.39,1.23-1.06,1.66-2.01l0.48,0.18
				c-0.17,0.54-0.44,1.08-0.83,1.62c-0.39,0.55-0.89,1-1.51,1.35c-0.62,0.35-1.39,0.53-2.29,0.53c-1.04,0-1.98-0.27-2.82-0.81
				c-0.84-0.54-1.51-1.3-2-2.3c-0.5-1-0.74-2.19-0.74-3.56c0-1.38,0.25-2.59,0.74-3.64c0.49-1.05,1.19-1.87,2.08-2.47
				C253.76,158.85,254.77,158.55,255.91,158.55z M259.49,151.67l0.2,0.35c-0.97,0.47-1.83,1.1-2.58,1.89
				c-0.75,0.79-1.29,1.6-1.62,2.44h-0.45c-0.34-0.84-0.88-1.65-1.62-2.44c-0.75-0.79-1.61-1.42-2.58-1.89l0.2-0.35
				c0.91,0.32,1.79,0.71,2.66,1.16s1.56,0.91,2.08,1.36c0.44-0.45,0.99-0.91,1.66-1.36C258.1,152.38,258.79,151.99,259.49,151.67z"
				/>
			<path id="XMLID_298_" class="st2" d="M267.98,158.55c1.48,0,2.63,0.45,3.46,1.35c0.83,0.9,1.25,2.3,1.25,4.19h-8.89l-0.03-0.48
				h6.5c0.03-0.82-0.03-1.58-0.2-2.28c-0.17-0.7-0.43-1.26-0.79-1.68c-0.36-0.42-0.83-0.63-1.4-0.63c-0.77,0-1.46,0.39-2.05,1.16
				c-0.6,0.77-0.95,2-1.07,3.68l0.08,0.1c-0.03,0.25-0.06,0.53-0.08,0.83c-0.02,0.3-0.03,0.6-0.03,0.91c0,1.14,0.18,2.13,0.55,2.95
				c0.37,0.82,0.85,1.45,1.45,1.88c0.6,0.43,1.21,0.64,1.85,0.64c0.76,0,1.45-0.18,2.09-0.55s1.18-1.03,1.61-1.97l0.5,0.2
				c-0.18,0.55-0.49,1.09-0.91,1.61c-0.42,0.52-0.95,0.95-1.59,1.27c-0.64,0.33-1.38,0.49-2.22,0.49c-1.21,0-2.25-0.28-3.11-0.83
				s-1.53-1.32-1.99-2.3c-0.46-0.98-0.69-2.11-0.69-3.39c0-1.48,0.23-2.75,0.7-3.82c0.47-1.07,1.13-1.89,1.99-2.47
				C265.84,158.84,266.84,158.55,267.98,158.55z"/>
			<path id="XMLID_296_" class="st2" d="M278.61,152.13v17.41c0,0.7,0.15,1.18,0.44,1.44s0.78,0.38,1.47,0.38v0.53
				c-0.29-0.02-0.72-0.04-1.3-0.06s-1.16-0.04-1.75-0.04c-0.57,0-1.15,0.01-1.74,0.04c-0.59,0.03-1.02,0.05-1.31,0.06v-0.53
				c0.69,0,1.18-0.13,1.47-0.38s0.44-0.73,0.44-1.44v-14.38c0-0.76-0.13-1.31-0.4-1.68c-0.27-0.36-0.77-0.54-1.51-0.54v-0.53
				c0.54,0.05,1.06,0.08,1.56,0.08c0.49,0,0.95-0.03,1.4-0.09C277.83,152.33,278.24,152.25,278.61,152.13z"/>
			<path id="XMLID_293_" class="st2" d="M285.99,158.63v10.91c0,0.7,0.15,1.18,0.44,1.44c0.29,0.25,0.78,0.38,1.47,0.38v0.53
				c-0.29-0.02-0.72-0.04-1.3-0.06c-0.58-0.03-1.16-0.04-1.75-0.04c-0.57,0-1.15,0.01-1.74,0.04c-0.59,0.03-1.03,0.05-1.31,0.06
				v-0.53c0.69,0,1.18-0.13,1.47-0.38s0.44-0.73,0.44-1.44v-7.88c0-0.75-0.14-1.31-0.4-1.68c-0.27-0.36-0.77-0.54-1.51-0.54v-0.53
				c0.54,0.05,1.06,0.08,1.56,0.08c0.49,0,0.95-0.03,1.4-0.09C285.21,158.83,285.62,158.75,285.99,158.63z M284.68,152.61
				c0.44,0,0.81,0.16,1.13,0.48c0.32,0.32,0.48,0.7,0.48,1.13c0,0.44-0.16,0.82-0.48,1.13c-0.32,0.32-0.7,0.48-1.13,0.48
				c-0.44,0-0.82-0.16-1.13-0.48c-0.32-0.32-0.48-0.7-0.48-1.13c0-0.44,0.16-0.81,0.48-1.13
				C283.86,152.77,284.24,152.61,284.68,152.61z"/>
			<path id="XMLID_291_" class="st2" d="M295.49,158.55c0.54,0,1.06,0.07,1.56,0.2c0.5,0.13,0.96,0.34,1.36,0.6
				c0.39,0.25,0.68,0.54,0.88,0.87c0.2,0.33,0.3,0.68,0.3,1.07c0,0.45-0.13,0.8-0.38,1.05c-0.25,0.24-0.57,0.37-0.96,0.37
				c-0.37,0-0.69-0.11-0.97-0.33c-0.28-0.22-0.41-0.53-0.41-0.93c0-0.39,0.1-0.7,0.31-0.93c0.21-0.23,0.46-0.39,0.74-0.45
				c-0.17-0.3-0.47-0.55-0.89-0.76c-0.43-0.2-0.89-0.3-1.37-0.3c-0.42,0-0.84,0.1-1.26,0.3c-0.42,0.2-0.81,0.53-1.16,1
				c-0.35,0.46-0.64,1.09-0.86,1.89c-0.22,0.8-0.33,1.79-0.33,2.99c0,1.48,0.17,2.65,0.5,3.53c0.34,0.87,0.78,1.5,1.32,1.88
				c0.55,0.38,1.15,0.57,1.8,0.57c0.65,0,1.32-0.19,1.99-0.58c0.67-0.39,1.23-1.06,1.66-2.01l0.48,0.18
				c-0.17,0.54-0.44,1.08-0.83,1.62c-0.39,0.55-0.89,1-1.51,1.35c-0.62,0.35-1.39,0.53-2.29,0.53c-1.04,0-1.98-0.27-2.82-0.81
				c-0.84-0.54-1.51-1.3-2-2.3c-0.5-1-0.74-2.19-0.74-3.56c0-1.38,0.25-2.59,0.74-3.64c0.49-1.05,1.19-1.87,2.08-2.47
				C293.33,158.85,294.34,158.55,295.49,158.55z"/>
			<path id="XMLID_288_" class="st2" d="M304.81,172.05c-1.09,0-1.88-0.27-2.38-0.82c-0.5-0.54-0.74-1.27-0.74-2.18
				c0-0.7,0.17-1.29,0.52-1.75c0.34-0.46,0.78-0.84,1.32-1.13c0.54-0.29,1.1-0.55,1.7-0.76c0.6-0.21,1.16-0.42,1.7-0.62
				c0.54-0.2,0.98-0.43,1.32-0.68c0.34-0.25,0.52-0.57,0.52-0.96v-1.56c0-0.7-0.1-1.24-0.31-1.61c-0.21-0.37-0.49-0.62-0.84-0.74
				c-0.35-0.13-0.75-0.19-1.18-0.19c-0.42,0-0.87,0.06-1.35,0.18c-0.48,0.12-0.86,0.36-1.15,0.73c0.32,0.07,0.59,0.24,0.83,0.5
				c0.24,0.27,0.35,0.61,0.35,1.03c0,0.42-0.13,0.75-0.4,0.99c-0.27,0.24-0.61,0.37-1.03,0.37c-0.49,0-0.85-0.16-1.07-0.47
				c-0.23-0.31-0.34-0.66-0.34-1.05c0-0.44,0.11-0.79,0.33-1.06c0.22-0.27,0.5-0.52,0.83-0.76c0.39-0.27,0.89-0.5,1.5-0.69
				c0.61-0.19,1.31-0.29,2.08-0.29c0.69,0,1.28,0.08,1.76,0.24c0.49,0.16,0.89,0.39,1.21,0.69c0.44,0.4,0.72,0.9,0.86,1.47
				c0.14,0.58,0.2,1.27,0.2,2.08v7c0,0.4,0.06,0.7,0.18,0.89c0.12,0.19,0.32,0.29,0.6,0.29c0.24,0,0.44-0.05,0.62-0.15
				s0.35-0.23,0.52-0.38l0.28,0.43c-0.35,0.27-0.69,0.49-1.01,0.67c-0.32,0.18-0.75,0.26-1.28,0.26c-0.87,0-1.45-0.23-1.74-0.68
				c-0.29-0.45-0.43-0.97-0.43-1.56c-0.54,0.89-1.15,1.49-1.83,1.79C306.26,171.9,305.55,172.05,304.81,172.05z M305.92,171.05
				c0.5,0,1-0.15,1.49-0.44c0.49-0.29,0.94-0.78,1.36-1.47v-4.94c-0.25,0.37-0.64,0.66-1.17,0.88c-0.53,0.22-1.07,0.46-1.64,0.72
				c-0.56,0.26-1.05,0.61-1.45,1.06c-0.4,0.44-0.6,1.08-0.6,1.9c0,0.77,0.19,1.35,0.58,1.73
				C304.87,170.86,305.34,171.05,305.92,171.05z"/>
			<path id="XMLID_285_" class="st2" d="M238.36,197.71c-1.09,0-1.88-0.27-2.38-0.82c-0.5-0.54-0.74-1.27-0.74-2.18
				c0-0.71,0.17-1.29,0.52-1.75c0.34-0.46,0.78-0.84,1.32-1.13c0.54-0.29,1.1-0.55,1.7-0.76c0.6-0.21,1.16-0.42,1.7-0.62
				c0.54-0.2,0.98-0.43,1.32-0.68c0.34-0.25,0.52-0.57,0.52-0.96v-1.56c0-0.7-0.1-1.24-0.31-1.61s-0.49-0.62-0.84-0.74
				c-0.35-0.13-0.75-0.19-1.18-0.19c-0.42,0-0.87,0.06-1.35,0.18c-0.48,0.12-0.86,0.36-1.15,0.73c0.32,0.07,0.59,0.24,0.83,0.5
				c0.24,0.27,0.35,0.61,0.35,1.03c0,0.42-0.13,0.75-0.4,1s-0.61,0.36-1.03,0.36c-0.49,0-0.85-0.15-1.07-0.47
				c-0.23-0.31-0.34-0.66-0.34-1.05c0-0.44,0.11-0.79,0.33-1.06c0.22-0.27,0.5-0.52,0.83-0.76c0.39-0.27,0.89-0.5,1.5-0.69
				c0.61-0.19,1.31-0.29,2.08-0.29c0.69,0,1.28,0.08,1.76,0.24c0.49,0.16,0.89,0.39,1.21,0.69c0.44,0.4,0.72,0.9,0.86,1.47
				c0.14,0.58,0.2,1.27,0.2,2.08v7c0,0.4,0.06,0.7,0.18,0.89c0.12,0.19,0.32,0.29,0.6,0.29c0.24,0,0.44-0.05,0.62-0.15
				c0.18-0.1,0.35-0.23,0.52-0.38l0.28,0.43c-0.35,0.27-0.69,0.49-1.01,0.67c-0.32,0.18-0.75,0.27-1.28,0.27
				c-0.87,0-1.45-0.23-1.74-0.68c-0.29-0.45-0.43-0.97-0.43-1.56c-0.54,0.89-1.15,1.49-1.83,1.79
				C239.81,197.55,239.1,197.71,238.36,197.71z M239.47,196.7c0.5,0,1-0.15,1.49-0.44c0.49-0.29,0.94-0.78,1.36-1.47v-4.94
				c-0.25,0.37-0.64,0.66-1.17,0.88c-0.53,0.22-1.07,0.46-1.64,0.72s-1.05,0.61-1.45,1.06c-0.4,0.45-0.6,1.08-0.6,1.9
				c0,0.77,0.19,1.35,0.58,1.73C238.42,196.51,238.89,196.7,239.47,196.7z"/>
			<path id="XMLID_282_" class="st2" d="M257.85,184.43l-7.28,12.72h2.77c0.67,0,1.26-0.14,1.75-0.4c0.49-0.27,0.89-0.7,1.2-1.3
				c0.3-0.6,0.49-1.38,0.55-2.36h0.58c0,1.08,0.01,1.98,0.03,2.72c0.02,0.74,0.04,1.34,0.08,1.81c-0.74-0.03-1.51-0.06-2.3-0.08
				c-0.8-0.02-1.59-0.03-2.38-0.03c-0.84,0-1.7,0.01-2.57,0.04s-1.71,0.05-2.52,0.09l7.28-12.72h-2.77c-0.74,0-1.36,0.13-1.85,0.4
				c-0.49,0.27-0.87,0.7-1.13,1.3c-0.26,0.6-0.43,1.38-0.52,2.35h-0.58c0-1.09-0.01-2-0.03-2.73c-0.02-0.73-0.04-1.33-0.08-1.8
				c0.74,0.03,1.51,0.06,2.3,0.08c0.8,0.02,1.59,0.03,2.38,0.03c0.84,0,1.7-0.01,2.57-0.04
				C256.21,184.49,257.05,184.46,257.85,184.43z M257.17,177.33l0.2,0.35c-0.98,0.47-1.84,1.1-2.58,1.89
				c-0.75,0.79-1.29,1.6-1.62,2.44h-0.45c-0.34-0.84-0.88-1.65-1.62-2.44c-0.75-0.79-1.61-1.42-2.58-1.89l0.2-0.35
				c0.91,0.32,1.79,0.7,2.66,1.16c0.86,0.45,1.56,0.91,2.08,1.36c0.44-0.45,0.99-0.91,1.66-1.36
				C255.78,178.03,256.47,177.65,257.17,177.33z"/>
			<path id="XMLID_279_" class="st2" d="M265.69,184.2c0.74,0,1.43,0.18,2.08,0.53s1.08,0.96,1.3,1.81l-0.33,0.25
				c-0.24-0.71-0.6-1.22-1.1-1.54c-0.5-0.32-1.08-0.48-1.75-0.48c-0.99,0-1.82,0.51-2.48,1.54c-0.66,1.03-0.99,2.6-0.97,4.74
				c0,1.36,0.13,2.49,0.39,3.39c0.26,0.9,0.65,1.57,1.16,2.02c0.51,0.45,1.14,0.67,1.88,0.67c0.71,0,1.34-0.3,1.92-0.91
				c0.57-0.6,0.91-1.49,1.03-2.67l0.3,0.35c-0.14,1.28-0.54,2.26-1.22,2.95c-0.68,0.69-1.6,1.03-2.76,1.03
				c-1.04,0-1.95-0.25-2.73-0.75c-0.78-0.5-1.38-1.26-1.79-2.27c-0.41-1.01-0.62-2.27-0.62-3.8s0.26-2.8,0.79-3.82
				c0.53-1.02,1.23-1.78,2.09-2.28C263.74,184.45,264.68,184.2,265.69,184.2z M270.98,177.78v17c0,0.75,0.14,1.31,0.42,1.68
				c0.28,0.36,0.78,0.54,1.5,0.54v0.53c-0.52-0.05-1.04-0.08-1.56-0.08c-0.49,0-0.95,0.03-1.4,0.08c-0.44,0.05-0.85,0.14-1.22,0.28
				v-17c0-0.76-0.14-1.31-0.4-1.68c-0.27-0.36-0.77-0.54-1.51-0.54v-0.53c0.54,0.05,1.06,0.08,1.56,0.08c0.49,0,0.95-0.03,1.4-0.09
				C270.2,177.99,270.61,177.9,270.98,177.78z"/>
			<path id="XMLID_276_" class="st2" d="M277.53,197.71c-1.09,0-1.88-0.27-2.38-0.82c-0.5-0.54-0.74-1.27-0.74-2.18
				c0-0.71,0.17-1.29,0.52-1.75c0.34-0.46,0.78-0.84,1.32-1.13c0.54-0.29,1.1-0.55,1.7-0.76c0.6-0.21,1.16-0.42,1.7-0.62
				c0.54-0.2,0.98-0.43,1.32-0.68c0.34-0.25,0.52-0.57,0.52-0.96v-1.56c0-0.7-0.1-1.24-0.31-1.61c-0.21-0.37-0.49-0.62-0.84-0.74
				c-0.35-0.13-0.75-0.19-1.18-0.19c-0.42,0-0.87,0.06-1.35,0.18c-0.48,0.12-0.86,0.36-1.15,0.73c0.32,0.07,0.59,0.24,0.83,0.5
				c0.24,0.27,0.35,0.61,0.35,1.03c0,0.42-0.13,0.75-0.4,1s-0.61,0.36-1.03,0.36c-0.49,0-0.85-0.15-1.07-0.47
				c-0.23-0.31-0.34-0.66-0.34-1.05c0-0.44,0.11-0.79,0.33-1.06c0.22-0.27,0.5-0.52,0.83-0.76c0.39-0.27,0.89-0.5,1.5-0.69
				c0.61-0.19,1.31-0.29,2.08-0.29c0.69,0,1.28,0.08,1.76,0.24c0.49,0.16,0.89,0.39,1.21,0.69c0.44,0.4,0.72,0.9,0.86,1.47
				c0.14,0.58,0.2,1.27,0.2,2.08v7c0,0.4,0.06,0.7,0.18,0.89c0.12,0.19,0.32,0.29,0.6,0.29c0.24,0,0.44-0.05,0.62-0.15
				c0.18-0.1,0.35-0.23,0.52-0.38l0.28,0.43c-0.35,0.27-0.69,0.49-1.01,0.67c-0.32,0.18-0.75,0.27-1.28,0.27
				c-0.87,0-1.45-0.23-1.74-0.68c-0.29-0.45-0.43-0.97-0.43-1.56c-0.54,0.89-1.15,1.49-1.83,1.79
				C278.97,197.55,278.27,197.71,277.53,197.71z M278.63,196.7c0.5,0,1-0.15,1.49-0.44c0.49-0.29,0.94-0.78,1.36-1.47v-4.94
				c-0.25,0.37-0.64,0.66-1.17,0.88c-0.53,0.22-1.07,0.46-1.64,0.72c-0.56,0.26-1.05,0.61-1.45,1.06c-0.4,0.45-0.6,1.08-0.6,1.9
				c0,0.77,0.19,1.35,0.58,1.73C277.59,196.51,278.06,196.7,278.63,196.7z"/>
			<path id="XMLID_273_" class="st2" d="M285.31,202.26v-0.38c1.04-0.05,1.82-0.5,2.34-1.35c0.52-0.85,0.78-2.01,0.78-3.49v-9.75
				c0-0.75-0.13-1.31-0.4-1.68c-0.27-0.36-0.77-0.54-1.51-0.54v-0.53c0.54,0.05,1.06,0.08,1.56,0.08c0.49,0,0.95-0.03,1.4-0.09
				c0.44-0.06,0.85-0.15,1.22-0.26v10.35c0,1.26-0.14,2.42-0.42,3.48c-0.28,1.06-0.74,1.93-1.4,2.62c-0.42,0.45-0.94,0.82-1.55,1.11
				C286.72,202.12,286.05,202.26,285.31,202.26z M289.34,178.26c0.44,0,0.82,0.16,1.13,0.48c0.32,0.32,0.48,0.7,0.48,1.13
				s-0.16,0.82-0.48,1.13c-0.32,0.32-0.7,0.48-1.13,0.48c-0.44,0-0.82-0.16-1.13-0.48c-0.32-0.32-0.48-0.7-0.48-1.13
				s0.16-0.81,0.48-1.13S288.9,178.26,289.34,178.26z"/>
			<path id="XMLID_270_" class="st2" d="M296.79,197.71c-1.09,0-1.88-0.27-2.38-0.82c-0.5-0.54-0.74-1.27-0.74-2.18
				c0-0.71,0.17-1.29,0.52-1.75c0.34-0.46,0.78-0.84,1.32-1.13s1.1-0.55,1.7-0.76c0.6-0.21,1.16-0.42,1.7-0.62
				c0.54-0.2,0.98-0.43,1.32-0.68c0.34-0.25,0.52-0.57,0.52-0.96v-1.56c0-0.7-0.1-1.24-0.31-1.61c-0.21-0.37-0.49-0.62-0.84-0.74
				c-0.35-0.13-0.75-0.19-1.18-0.19c-0.42,0-0.87,0.06-1.35,0.18c-0.48,0.12-0.86,0.36-1.15,0.73c0.32,0.07,0.59,0.24,0.83,0.5
				c0.24,0.27,0.35,0.61,0.35,1.03c0,0.42-0.13,0.75-0.4,1c-0.27,0.24-0.61,0.36-1.03,0.36c-0.49,0-0.85-0.15-1.07-0.47
				c-0.23-0.31-0.34-0.66-0.34-1.05c0-0.44,0.11-0.79,0.33-1.06c0.22-0.27,0.5-0.52,0.83-0.76c0.39-0.27,0.89-0.5,1.5-0.69
				c0.61-0.19,1.31-0.29,2.08-0.29c0.69,0,1.28,0.08,1.76,0.24c0.49,0.16,0.89,0.39,1.21,0.69c0.44,0.4,0.72,0.9,0.86,1.47
				c0.14,0.58,0.2,1.27,0.2,2.08v7c0,0.4,0.06,0.7,0.18,0.89c0.12,0.19,0.32,0.29,0.6,0.29c0.24,0,0.44-0.05,0.62-0.15
				c0.18-0.1,0.35-0.23,0.52-0.38l0.28,0.43c-0.35,0.27-0.69,0.49-1.01,0.67c-0.32,0.18-0.75,0.27-1.28,0.27
				c-0.87,0-1.45-0.23-1.74-0.68c-0.29-0.45-0.43-0.97-0.43-1.56c-0.54,0.89-1.15,1.49-1.83,1.79
				C298.24,197.55,297.53,197.71,296.79,197.71z M297.9,196.7c0.5,0,1-0.15,1.49-0.44c0.49-0.29,0.94-0.78,1.36-1.47v-4.94
				c-0.25,0.37-0.64,0.66-1.17,0.88c-0.53,0.22-1.07,0.46-1.64,0.72c-0.56,0.26-1.05,0.61-1.45,1.06c-0.4,0.45-0.6,1.08-0.6,1.9
				c0,0.77,0.19,1.35,0.58,1.73C296.85,196.51,297.33,196.7,297.9,196.7z"/>
			<path id="XMLID_268_" class="st2" d="M308.41,194.66c0.44,0,0.82,0.16,1.13,0.48s0.48,0.7,0.48,1.13s-0.16,0.82-0.48,1.13
				c-0.32,0.32-0.7,0.48-1.13,0.48c-0.44,0-0.81-0.16-1.13-0.48c-0.32-0.32-0.48-0.7-0.48-1.13s0.16-0.82,0.48-1.13
				C307.59,194.82,307.97,194.66,308.41,194.66z"/>
		</g>
	</g>
	<g id="XMLID_595_">
		<path id="XMLID_604_" class="st0" d="M213.86,126.2c-0.27,0.17-0.55,0.34-0.8,0.51c-0.62,0.41-1.2,0.86-1.76,1.33
			c-1.45,1.21-2.72,2.63-3.8,4.24c-0.68,1.03-1.3,2.12-1.81,3.3c-0.53-0.19-1.15-0.31-1.8-0.39c-0.44-0.05-0.87-0.1-1.3-0.14
			c-1.54-0.15-2.87-0.29-4.1-0.92c-1.45-0.74-2.67-1.9-3.42-3.25c-1.56-2.75-0.53-6.31,1.28-8.38c0.86-0.96,1.92-1.69,3.18-2.15
			c1.54-0.56,3.3-0.68,5.06-0.43c1.3,0.17,2.62,0.58,3.81,1.18c0.89,0.43,1.74,0.97,2.48,1.62
			C212.03,123.73,213.06,124.91,213.86,126.2z"/>
		<path id="XMLID_596_" class="st2" d="M244.01,133.23c-1.35-4.95-4.46-8.47-9.01-10.16c-3.15-1.18-6.6-1.37-9.97-0.89
			c0-0.05-0.02-0.1-0.02-0.16c-0.31-2.29-1.25-4.48-2.63-6.31c-1.39-1.83-3.22-3.28-5.29-4.12c-1.25-0.51-2.56-0.77-3.88-0.77
			c-3.25,0-7.2,1.78-8.41,5.15c-0.07,0.17-0.12,0.34-0.17,0.53c-2.16-0.27-4.33-0.07-6.28,0.65c-1.8,0.65-3.34,1.69-4.57,3.11
			c-3.09,3.53-3.79,8.59-1.71,12.3c1.1,1.93,2.82,3.57,4.86,4.62c1.8,0.92,3.59,1.11,5.32,1.28c0.39,0.03,0.8,0.08,1.21,0.14
			c0.4,0.05,0.76,0.12,1.05,0.2c-0.45,1.51-0.76,3.08-0.96,4.76c-0.09,0.59-0.1,1.19-0.1,1.77v0.5c0.12,3.42,1.6,6.77,3.95,9.42
			c-2,3.8-2.24,7.61-0.62,10.52c0.38,0.65,0.82,1.2,1.2,1.68c0.43,0.53,0.8,0.99,1.01,1.48c0.49,1.2,0.6,2.42,0.25,3.46
			c-0.41,1.28-1.57,2.22-3.04,2.44c-2.51,0.38-4.98-0.8-6.77-2.03l1.4-1.68c0.22-0.27,0.27-0.65,0.1-0.95
			c-0.17-0.31-0.49-0.48-0.85-0.45l-5.54,0.6c-0.45,0.05-0.79,0.46-0.76,0.91l0.38,5.55c0.03,0.36,0.26,0.65,0.6,0.76
			c0.08,0.03,0.17,0.05,0.25,0.05c0.26,0,0.5-0.12,0.67-0.31l1.54-1.85c2.02,1.44,4.86,2.89,8,2.89c0.5,0,0.98-0.03,1.48-0.1
			c2.77-0.43,4.99-2.26,5.81-4.79c0.58-1.81,0.44-3.86-0.36-5.81c-0.39-0.96-0.99-1.68-1.5-2.33c-0.35-0.41-0.65-0.78-0.88-1.18
			c-1.19-2.15-0.46-4.79,0.24-6.43c1.7,1.27,3.63,2.19,5.68,2.65c0.8,0.19,1.59,0.28,2.38,0.28c3.04,0,5.81-1.37,7.54-3.85
			c0.89-1.3,1.49-2.69,2.07-4.04c0.58-1.35,1.13-2.65,1.97-3.73c1.16-1.52,2.89-2.51,5.09-2.92l0.74-0.14
			c2.22-0.39,4.73-0.84,6.62-2.89C244.3,140.65,245.02,136.97,244.01,133.23z M208.01,117.13c0.65-1.81,3.17-2.89,5.2-2.89
			c0.87,0,1.76,0.17,2.62,0.53c2.96,1.18,5.35,4.36,5.78,7.7c0.02,0.14,0.03,0.26,0.03,0.39c-1.66,0.45-3.26,1.03-4.75,1.73
			c-1.08-1.74-2.4-3.27-3.75-4.45c-1.5-1.3-3.28-2.27-5.16-2.9C207.99,117.2,207.99,117.17,208.01,117.13z M207.5,132.29
			c-0.69,1.02-1.3,2.12-1.81,3.3c-0.53-0.19-1.15-0.31-1.8-0.4c-0.44-0.05-0.87-0.1-1.3-0.13c-1.54-0.16-2.87-0.29-4.1-0.93
			c-1.46-0.73-2.67-1.9-3.42-3.25c-1.56-2.75-0.53-6.31,1.28-8.38c0.85-0.95,1.91-1.69,3.18-2.15c1.54-0.57,3.3-0.69,5.06-0.43
			c1.3,0.17,2.62,0.58,3.82,1.18c0.88,0.43,1.74,0.98,2.48,1.63c1.14,1,2.17,2.18,2.97,3.47c-0.27,0.17-0.55,0.34-0.8,0.51
			c-0.62,0.41-1.2,0.86-1.76,1.33C209.84,129.26,208.58,130.68,207.5,132.29z M223.34,153.92c-2.74-1.22-9.24-4.58-12.11-10.42
			c-0.28-0.53-0.5-1.07-0.69-1.64c-0.19-0.54-0.36-1.11-0.46-1.69c-0.27-1.32-0.36-2.74-0.15-4.28c0.03-0.44,0.1-0.92,0.22-1.4
			c0.38-0.6,0.82-1.2,1.28-1.76c0.65-0.75,1.35-1.47,2.17-2.15c-0.24,0.92-0.42,1.96-0.49,3.09c-0.05,0.68-0.05,1.42,0.02,2.17
			c0.03,0.46,0.08,0.91,0.18,1.37c0.07,0.48,0.17,0.96,0.31,1.44c0.14,0.58,0.33,1.16,0.55,1.74c0.19,0.53,0.43,1.08,0.68,1.61h0.02
			c1.74,3.62,4.81,7.16,9.13,10.59C223.8,153.05,223.59,153.49,223.34,153.92z M225.44,149.37c-3.92-3.2-6.74-6.43-8.06-9.66
			c-0.27-0.69-0.49-1.39-0.63-2.07c-0.03-0.16-0.07-0.31-0.08-0.46c-0.09-0.52-0.14-1.05-0.14-1.56c0-0.7,0.03-1.37,0.12-1.98
			c0.15-1.39,0.48-2.57,0.84-3.51c0.36-0.97,0.77-1.71,1.09-2.19c0.14-0.24,0.27-0.41,0.38-0.55c0.77-0.32,1.54-0.61,2.32-0.87
			c-0.2,0.81-0.42,1.75-0.56,2.77c-0.27,1.75-0.38,3.78-0.09,5.95c0.48,3.82,2.16,8.02,6.23,11.77
			C226.28,147.76,225.83,148.57,225.44,149.37z M239.56,140.73c-1.09,1.18-2.83,1.51-4.7,1.83l-0.75,0.14
			c-1.81,0.34-3.42,0.99-4.79,1.95c-5.13-4.65-5.83-10.07-5.4-14.07l0.01-0.02c0.23-2.07,0.76-3.76,1.13-4.76
			c0.02-0.05,0.02-0.12,0.02-0.17c0.02,0,0.03-0.01,0.05,0c1.1-0.17,2.17-0.25,3.22-0.25c1.96,0,3.83,0.29,5.45,0.89
			c3.52,1.31,5.85,3.96,6.91,7.86C241.41,136.73,240.98,139.19,239.56,140.73z"/>
		<path class="st0" d="M221.64,122.86c-1.66,0.45-3.26,1.03-4.75,1.73c-1.08-1.74-2.4-3.27-3.75-4.45c-1.5-1.3-3.28-2.27-5.16-2.9
			c0.01-0.04,0.01-0.07,0.03-0.11c0.65-1.81,3.17-2.89,5.2-2.89c0.87,0,1.76,0.17,2.62,0.53c2.96,1.18,5.35,4.36,5.78,7.7
			C221.63,122.61,221.64,122.73,221.64,122.86z"/>
	</g>
</g>
</svg>
