<?xml version="1.0" encoding="utf-8"?>
<!-- Generator: Adobe Illustrator 24.3.0, SVG Export Plug-In . SVG Version: 6.00 Build 0)  -->
<svg version="1.1" id="Layer_1" xmlns="http://www.w3.org/2000/svg" xmlns:xlink="http://www.w3.org/1999/xlink" x="0px" y="0px"
	 viewBox="0 0 524 316" style="enable-background:new 0 0 524 316;" xml:space="preserve">
<style type="text/css">
	.st0{fill:#FFFFFF;}
	.st1{fill:#8599CD;}
	.st2{fill:#231F20;}
	.st3{fill:#12163F;}
	.st4{fill:#AFD0ED;}
	.st5{fill:#D8C28F;}
	.st6{fill:#221F1F;}
</style>
<rect class="st0" width="524" height="316"/>
<g>
	<path class="st6" d="M211.61,140.52l0.89-0.16c0.29-0.07,0.49-0.2,0.62-0.51l4.72-12.61h1.6l4.74,12.58
		c0.09,0.24,0.29,0.46,0.64,0.55l0.58,0.13v0.82h-6.16v-0.82l1.13-0.16c0.44-0.04,0.53-0.22,0.4-0.55l-0.91-2.19h-4.52l-0.8,2.26
		c-0.11,0.29,0.02,0.42,0.29,0.49l1.11,0.16v0.82h-4.32V140.52z M219.5,136.55l-2.02-5.34l-1.82,5.34H219.5z"/>
	<path class="st6" d="M227.97,137.86v-4.81c0-0.53-0.11-0.66-0.75-0.86l-0.42-0.13v-0.62l3.72-0.75h0.66
		c-0.04,0.64-0.15,1.86-0.15,3.06v3.68c0,1.13,0.13,2.57,1.62,2.57c0.78,0,1.55-0.71,1.86-1.31v-5.34c0-0.8-0.07-0.89-0.75-1.15
		l-0.58-0.2v-0.55l3.88-0.75h0.66c-0.09,0.91-0.16,2.17-0.16,3.19v5.87c0,0.29,0.09,0.33,0.6,0.55l0.75,0.29v0.58l-4.41,0.44v-2.22
		c-0.55,1.42-1.64,2.22-3.28,2.22C228.93,141.61,227.97,140.01,227.97,137.86z"/>
	<path class="st6" d="M242.35,138.64v-6.38h-1.06v-1.02c0.38-0.11,1.02-0.44,1.51-0.71c0.47-0.44,1.15-1.77,1.4-2.28h1.22v2.97H248
		v1.04h-2.59v5.69c0,1.4,0.42,2.1,1.57,2.1c0.53,0,1.09-0.22,1.44-0.53l0.22,0.27c-0.6,0.97-1.62,1.82-3.23,1.82
		C243.3,141.61,242.35,140.34,242.35,138.64z"/>
	<path class="st6" d="M250.66,140.67l0.53-0.16c0.62-0.22,0.71-0.24,0.71-0.53v-11.83c0-0.42-0.09-0.62-0.6-0.82l-0.69-0.29v-0.62
		l3.85-0.75h0.67c-0.07,0.47-0.18,2.06-0.18,3.35v3.86c0.73-1.42,1.77-2.19,3.39-2.19c2.15,0,3.28,1.6,3.28,3.72v5.58
		c0,0.29,0.09,0.33,0.69,0.53l0.53,0.16v0.66h-5.45v-0.66l0.51-0.16c0.64-0.22,0.71-0.24,0.71-0.53v-5.25
		c0-1.15-0.27-2.46-1.68-2.46c-0.98,0-1.66,0.73-1.97,1.33v6.38c0,0.29,0.13,0.33,0.69,0.53l0.53,0.16v0.66h-5.52V140.67z"/>
	<path class="st6" d="M264.95,136.24c-0.04-3.43,2.17-5.56,5.14-5.56c2.19,0,4.21,1.09,4.21,3.48c0,0.4-0.07,0.95-0.16,1.35
		l-6.16-0.15c0,0.13,0,0.24,0,0.38c0.09,2.3,1.22,3.92,3.28,3.92c1.24,0,2.04-0.38,2.68-1.06l0.22,0.22
		c-0.69,1.44-1.95,2.79-4.34,2.79C266.92,141.61,264.99,139.59,264.95,136.24z M271.4,134.36c0.09-0.31,0.13-0.58,0.13-0.95
		c0-1.31-0.51-1.88-1.42-1.88c-1.24,0-1.95,1.29-2.1,3.06L271.4,134.36z"/>
	<path class="st6" d="M276.94,140.67l0.53-0.16c0.58-0.2,0.71-0.24,0.71-0.53v-6.76c0-0.53-0.2-0.64-0.8-0.95l-0.42-0.22v-0.62
		l3.61-0.75h0.67v2.19c0.62-1.15,1.64-2.19,3.41-2.19c2.24,0,3.28,1.62,3.28,3.72v5.58c0,0.29,0.09,0.33,0.69,0.53l0.53,0.16v0.66
		h-5.45v-0.66l0.51-0.16c0.64-0.22,0.71-0.24,0.71-0.53v-5.25c0-1.15-0.2-2.46-1.68-2.46c-0.97,0-1.68,0.73-1.99,1.33v6.38
		c0,0.29,0.11,0.33,0.69,0.53l0.53,0.16v0.66h-5.52V140.67z"/>
	<path class="st6" d="M292.74,138.64v-6.38h-1.06v-1.02c0.38-0.11,1.02-0.44,1.51-0.71c0.47-0.44,1.15-1.77,1.4-2.28h1.22v2.97h2.59
		v1.04h-2.59v5.69c0,1.4,0.42,2.1,1.57,2.1c0.53,0,1.09-0.22,1.44-0.53l0.22,0.27c-0.6,0.97-1.62,1.82-3.23,1.82
		C293.69,141.61,292.74,140.34,292.74,138.64z"/>
	<path class="st6" d="M301.15,140.67l0.51-0.16c0.6-0.2,0.71-0.24,0.71-0.53v-6.76c0-0.53-0.2-0.64-0.8-0.95l-0.4-0.22v-0.62
		l3.61-0.75h0.67v9.31c0,0.29,0.11,0.33,0.69,0.53l0.51,0.16v0.66h-5.5V140.67z M302.22,126.96c0-0.86,0.82-1.57,1.77-1.57
		c0.95,0,1.73,0.71,1.73,1.57c0,0.86-0.78,1.55-1.73,1.55C303.04,128.51,302.22,127.82,302.22,126.96z"/>
	<path class="st6" d="M309.44,136.13c0-3.32,2.19-5.45,5.32-5.45c1.13,0,2.06,0.44,2.66,0.97c0.42,0.35,0.97,1.06,0.97,1.77
		c0,0.86-0.6,1.51-1.35,1.51c-0.82,0-1.42-0.62-1.42-1.42c0-0.31,0.11-0.69,0.31-1l0.29-0.42c-0.22-0.33-0.69-0.6-1.29-0.6
		c-1.46,0-2.42,1.64-2.42,4.19c0,2.33,1.17,3.99,3.24,3.99c1,0,1.64-0.29,2.33-0.98l0.24,0.24c-0.73,1.6-1.99,2.66-4.08,2.66
		C311.25,141.61,309.44,139.34,309.44,136.13z"/>
	<path class="st6" d="M212.59,162.59l1.04-0.27c0.53-0.15,0.6-0.13,0.6-0.44v-10.81c0-0.31-0.09-0.31-0.58-0.44l-1.06-0.27v-0.75
		h7.22c3.04,0,4.7,1.11,4.7,3.39c0,1.6-1.64,2.86-3.15,3.17c2.06,0.29,3.74,1.48,3.74,3.32c0,2.84-2.66,3.85-5.03,3.85h-7.49V162.59
		z M218.55,155.87c2.1,0,2.77-1.24,2.77-2.9c0-1.93-1-2.59-2.59-2.59h-0.13c-0.47,0-0.78,0.04-1.11,0.15v5.34H218.55z
		 M218.97,162.56c2.06,0,2.79-1.33,2.79-3.08c0-1.82-1.26-2.79-3.43-2.79h-0.84v5.72c0.33,0.09,0.78,0.16,1.17,0.16H218.97z"/>
	<path class="st6" d="M227.83,160.9c0-1.99,2.24-2.75,3.99-3.17l1.79-0.42v-1.2c0-1.86-0.89-2.37-2.04-2.37
		c-0.42,0-0.91,0.15-1.24,0.35l0.2,0.4c0.15,0.33,0.29,0.75,0.29,1.06c0,0.8-0.42,1.42-1.35,1.42c-0.8,0-1.17-0.62-1.17-1.35
		c0-0.71,0.78-1.46,1.35-1.82l0.64-0.4c0.58-0.38,1.55-0.73,2.59-0.73c2.1,0,3.81,0.86,3.81,3.19v4.74c0,0.84,0.02,1.2,0.16,1.66
		c0.35,0.16,0.95,0.22,1.35,0.22v0.51c-0.6,0.35-1.97,0.6-2.44,0.6c-1.31,0-1.82-0.64-2.13-1.59c-0.49,0.71-1.4,1.59-2.84,1.59
		C228.94,163.61,227.83,162.67,227.83,160.9z M233.62,161.35v-3.23l-0.86,0.22c-1.02,0.31-2.22,0.75-2.22,2.22
		c0,1,0.53,1.6,1.44,1.6C232.73,162.14,233.31,161.72,233.62,161.35z"/>
	<path class="st6" d="M240.3,162.67l0.53-0.15c0.62-0.22,0.71-0.24,0.71-0.53v-11.83c0-0.42-0.09-0.62-0.6-0.82l-0.69-0.29v-0.62
		l3.85-0.75h0.66c-0.07,0.47-0.18,2.06-0.18,3.35v10.97c0,0.29,0.13,0.33,0.69,0.53l0.53,0.15v0.67h-5.52V162.67z"/>
	<path class="st6" d="M248.44,162.67l0.51-0.15c0.62-0.22,0.71-0.24,0.71-0.53v-11.83c0-0.42-0.09-0.62-0.6-0.82l-0.69-0.29v-0.62
		l3.85-0.75h0.67c-0.07,0.47-0.18,2.06-0.18,3.35v10.88c0,0.4,0.13,0.4,0.6,0.58l0.44,0.13v0.73h-5.32V162.67z M255.11,161.3
		l-1.57-2.77c-0.07-0.11-0.31-0.42-0.42-0.53s-0.18-0.16-0.29-0.2v-0.24c0.4-0.09,0.73-0.29,1.09-0.51l2.3-2.35
		c0.29-0.31,0.18-0.49-0.33-0.64l-0.89-0.24v-0.58h4.81v0.58l-0.71,0.18c-0.4,0.11-0.86,0.47-1.09,0.64l-2.39,1.93l1.97,3.41
		c0.86,1.6,1.53,2.15,2.13,2.61l0.6,0.18v0.58h-3.7C256.26,163.01,255.68,162.3,255.11,161.3z"/>
	<path class="st6" d="M261.87,160.9c0-1.99,2.24-2.75,3.99-3.17l1.79-0.42v-1.2c0-1.86-0.89-2.37-2.04-2.37
		c-0.42,0-0.91,0.15-1.24,0.35l0.2,0.4c0.15,0.33,0.29,0.75,0.29,1.06c0,0.8-0.42,1.42-1.35,1.42c-0.8,0-1.17-0.62-1.17-1.35
		c0-0.71,0.78-1.46,1.35-1.82l0.64-0.4c0.58-0.38,1.55-0.73,2.59-0.73c2.11,0,3.81,0.86,3.81,3.19v4.74c0,0.84,0.02,1.2,0.15,1.66
		c0.35,0.16,0.95,0.22,1.35,0.22v0.51c-0.6,0.35-1.97,0.6-2.44,0.6c-1.31,0-1.82-0.64-2.13-1.59c-0.49,0.71-1.4,1.59-2.84,1.59
		C262.97,163.61,261.87,162.67,261.87,160.9z M267.65,161.35v-3.23l-0.86,0.22c-1.02,0.31-2.22,0.75-2.22,2.22
		c0,1,0.53,1.6,1.44,1.6C266.76,162.14,267.34,161.72,267.65,161.35z"/>
	<path class="st6" d="M274.46,162.67l0.53-0.15c0.58-0.2,0.71-0.24,0.71-0.53v-6.76c0-0.53-0.2-0.64-0.8-0.95l-0.42-0.22v-0.62
		l3.61-0.75h0.67v2.19c0.62-1.15,1.64-2.19,3.41-2.19c2.24,0,3.28,1.62,3.28,3.72v5.58c0,0.29,0.09,0.33,0.69,0.53l0.53,0.15v0.67
		h-5.45v-0.67l0.51-0.15c0.64-0.22,0.71-0.24,0.71-0.53v-5.25c0-1.15-0.2-2.46-1.68-2.46c-0.97,0-1.68,0.73-1.99,1.33v6.38
		c0,0.29,0.11,0.33,0.69,0.53l0.53,0.15v0.67h-5.52V162.67z"/>
	<path class="st6" d="M212.59,184.59l1.04-0.27c0.53-0.15,0.6-0.13,0.6-0.44v-10.79c0-0.31-0.09-0.35-0.58-0.49l-1.06-0.27v-0.73
		h6.89c4.3,0,7.6,2.5,7.6,6.76c0,3.57-2.59,6.98-6.96,6.98h-7.53V184.59z M219.39,184.61c2.61,0,4.3-2.21,4.3-6.16
		c0-2.77-0.97-6.16-4.5-6.16h-0.33c-0.44,0-1.04,0.11-1.37,0.29v11.79c0.38,0.13,0.98,0.24,1.66,0.24H219.39z"/>
	<path class="st6" d="M229.47,184.67l0.53-0.15c0.58-0.2,0.71-0.24,0.71-0.53v-6.76c0-0.53-0.2-0.64-0.8-0.95l-0.42-0.22v-0.62
		l3.61-0.75h0.66v2.35c0.4-1.09,1.46-2.35,2.53-2.35c0.55,0,1.22,0.24,1.22,1.37c0,1.02-0.91,1.91-0.91,1.91
		c-0.35-0.58-0.82-0.82-1.51-0.82c-0.55,0-1.13,0.2-1.33,0.49v6.16c0,0.31-0.02,0.44,0.6,0.6l1.29,0.29v0.67h-6.18V184.67z"/>
	<path class="st6" d="M238.69,188.97c0-0.67,0.44-1.26,1.26-1.26c0.84,0,1.51,0.53,1.06,1.97c0.62,0,1.33-0.58,1.95-2.15l0.47-1.04
		l-3.85-9.93c-0.11-0.29-0.24-0.55-0.53-0.64l-0.42-0.11v-0.58h5.21v0.58l-0.62,0.2c-0.47,0.15-0.53,0.27-0.42,0.58l2.13,5.61
		l1.91-5.52c0.15-0.46-0.02-0.51-0.64-0.66l-0.8-0.2v-0.58h3.61v0.58l-0.4,0.13c-0.31,0.11-0.4,0.2-0.64,0.84l-3.83,10.39
		c-0.69,1.86-1.46,3.43-3.52,3.43C239.57,190.61,238.69,190.08,238.69,188.97z"/>
	<path class="st6" d="M254.05,178.25c0-4.3,3.41-7,8.2-7c2.3,0,3.17,0.44,3.77,0.71l0.42-0.58h0.47l0.2,4.79h-0.6
		c-0.29-1-0.89-2.7-1.35-3.26c-0.44-0.38-1.37-0.95-2.97-0.95c-2.59,0-4.63,2.48-4.63,6.14c0,4.08,1.84,6.78,4.25,6.78
		c0.82,0,1.6-0.27,2.08-0.64v-3.66c0-0.38-0.07-0.44-0.4-0.53l-1.29-0.31v-0.8h5.8v0.8l-0.49,0.11c-0.29,0.07-0.42,0.18-0.42,0.6
		v3.7l0.11,0.42c-1.02,0.55-3.41,1.04-5.83,1.04C256.64,185.61,254.05,182.46,254.05,178.25z"/>
	<path class="st6" d="M270.71,184.67l0.51-0.15c0.6-0.2,0.71-0.24,0.71-0.53v-6.76c0-0.53-0.2-0.64-0.8-0.95l-0.4-0.22v-0.62
		l3.61-0.75h0.67v9.31c0,0.29,0.11,0.33,0.69,0.53l0.51,0.15v0.67h-5.5V184.67z M271.78,170.96c0-0.86,0.82-1.57,1.77-1.57
		c0.95,0,1.73,0.71,1.73,1.57s-0.78,1.55-1.73,1.55C272.6,172.51,271.78,171.82,271.78,170.96z"/>
	<path class="st6" d="M278.79,184.67l0.53-0.15c0.58-0.2,0.71-0.24,0.71-0.53v-6.76c0-0.53-0.2-0.64-0.8-0.95l-0.42-0.22v-0.62
		l3.61-0.75h0.67v2.19c0.62-1.15,1.64-2.19,3.41-2.19c2.24,0,3.28,1.62,3.28,3.72v5.58c0,0.29,0.09,0.33,0.69,0.53l0.53,0.15v0.67
		h-5.45v-0.67l0.51-0.15c0.64-0.22,0.71-0.24,0.71-0.53v-5.25c0-1.15-0.2-2.46-1.68-2.46c-0.97,0-1.68,0.73-1.99,1.33v6.38
		c0,0.29,0.11,0.33,0.69,0.53l0.53,0.15v0.67h-5.52V184.67z"/>
</g>
</svg>
