<svg id="Layer_1" data-name="Layer 1" xmlns="http://www.w3.org/2000/svg" viewBox="0 0 524 316"><defs><style>.cls-1{fill:#fbcbc8;}.cls-2{fill:#231f20;}</style></defs><rect class="cls-1" width="524" height="316"/><path d="M215.13,147.64a5.25,5.25,0,0,1-5.24-5.24h3.25a2,2,0,1,0,4,0h3.25A5.25,5.25,0,0,1,215.13,147.64Z"/><path d="M222,161.83a3.82,3.82,0,0,1-3.81-3.81h3.25a.56.56,0,0,0,1.12,0h3.25A3.82,3.82,0,0,1,222,161.83Z"/><path d="M279,135.23l-2.15,2.44a17.44,17.44,0,0,0-9.46-3.72c-2.88-.17-5.82,1.76-8.91,3.81-2.69,1.78-5.48,3.62-8.53,4.21-4.16.81-6.7,0-9.91-1-1.36-.43-2.85-.9-4.68-1.33-.41,7.7-2.54,32.15-13.16,32.15v-3.25c6.35,0,9.39-17.53,9.94-29.52-2.14-.28-3.78,0-4.86.87a4.28,4.28,0,0,0-1.47,2.82v10.36h-3.25V142.58a7.52,7.52,0,0,1,2.64-5.2c1.93-1.57,4.62-2.07,8-1.49a54.47,54.47,0,0,1,7.81,2c3.09,1,5,1.57,8.31.92,2.41-.46,4.81-2.05,7.35-3.73,3.4-2.25,6.91-4.57,10.89-4.34A20.41,20.41,0,0,1,279,135.23Z"/><path d="M225.77,134.49l-3.25-.14a7.57,7.57,0,0,1,2.64-5.2c1.93-1.57,4.62-2.07,8-1.49a54.11,54.11,0,0,1,7.81,2c3.09,1,5,1.57,8.31.92,2.42-.47,4.82-2.05,7.36-3.73,3.4-2.25,6.91-4.57,10.89-4.34A20.57,20.57,0,0,1,279,127l-2.15,2.44a17.48,17.48,0,0,0-9.46-3.72c-2.9-.17-5.81,1.76-8.91,3.81-2.69,1.78-5.48,3.62-8.53,4.21-4.17.81-6.7,0-9.91-1a50.62,50.62,0,0,0-7.38-1.87c-2.4-.41-4.22-.14-5.39.79A4.32,4.32,0,0,0,225.77,134.49Z"/><path d="M225.77,126.23l-3.25-.14a7.57,7.57,0,0,1,2.64-5.2c1.93-1.57,4.62-2.07,8-1.49a54.11,54.11,0,0,1,7.81,2c3.09,1,5,1.57,8.31.92,2.42-.47,4.82-2.05,7.36-3.73,3.4-2.25,6.91-4.57,10.89-4.34A20.57,20.57,0,0,1,279,118.74l-2.15,2.44a17.48,17.48,0,0,0-9.46-3.72c-2.88-.17-5.81,1.76-8.91,3.81-2.69,1.78-5.48,3.62-8.53,4.21-4.17.8-6.7,0-9.91-1a50.62,50.62,0,0,0-7.38-1.87c-2.4-.41-4.22-.14-5.39.79A4.36,4.36,0,0,0,225.77,126.23Z"/><path class="cls-2" d="M242.44,151.5h9.48v.39h-9.06v6.17h8.22v.39h-8.22v6.25H252v.39h-9.58V151.5Z"/><path class="cls-2" d="M256,158.33v0a6.75,6.75,0,0,1,6.71-7,6.64,6.64,0,0,1,4.71,1.75l-.27.33a6.51,6.51,0,0,0-4.46-1.69,6.4,6.4,0,0,0-6.27,6.61v0c0,3.53,2.33,6.61,6.28,6.61a7.51,7.51,0,0,0,4.83-1.86V158.7h-5v-.43H268v4.95a7.83,7.83,0,0,1-5.28,2.09C258.48,165.31,256,162.11,256,158.33Z"/><path class="cls-2" d="M272.62,158.31v0a6.75,6.75,0,1,1,13.5,0v0a6.75,6.75,0,1,1-13.5,0Zm13.07,0v0a6.43,6.43,0,0,0-6.34-6.63,6.34,6.34,0,0,0-6.3,6.59v0a6.43,6.43,0,0,0,6.34,6.63A6.34,6.34,0,0,0,285.69,158.33Z"/><path class="cls-2" d="M242.44,174.77h9.39v.39h-9v6.3H251v.39h-8.13v6.5h-.43Z"/><path class="cls-2" d="M258.42,174.77H264a5.36,5.36,0,0,1,3.9,1.28,3.45,3.45,0,0,1,1,2.52v0c0,2.29-1.82,3.65-4.44,3.8l4.52,5.94h-.52l-4.5-5.92h-5v5.92h-.43V174.77Zm5.33,7.28c3.14,0,4.66-1.49,4.66-3.41v0c0-2.15-1.67-3.43-4.48-3.43h-5.08v6.89h4.9Z"/><path class="cls-2" d="M279.15,174.77h.43v13.58h-.43Z"/><path class="cls-2" d="M242.44,198h9.48v.39h-9.06v6.17h8.22V205h-8.22v6.25H252v.39h-9.58V198Z"/><path class="cls-2" d="M256.47,198h.37l10.32,12.88V198h.41v13.58h-.37l-10.32-12.88v12.88h-.41Z"/><path class="cls-2" d="M273.58,198h4.36c4.27,0,7.22,3,7.22,6.77v0c0,3.82-3,6.77-7.22,6.77h-4.36ZM278,211.23c4,0,6.77-2.81,6.77-6.36v0c0-3.57-2.79-6.4-6.81-6.4H274v12.8Z"/></svg>